<?xml version="1.0" encoding="UTF-8" standalone="no"?>
<!DOCTYPE svg PUBLIC "-//W3C//DTD SVG 1.1//EN" "http://www.w3.org/Graphics/SVG/1.1/DTD/svg11.dtd">
<svg xmlns="http://www.w3.org/2000/svg" xmlns:xlink="http://www.w3.org/1999/xlink" version="1.1" width="842pt" height="595pt" viewBox="0 0 842 595">
<g enable-background="new">
<clipPath id="cp0">
<path transform="matrix(1,0,0,-1,0,595)" d="M 0 0 L 842 0 L 842 595 L 0 595 Z "/>
</clipPath>
<g clip-path="url(#cp0)">
<path transform="matrix(1,0,0,-1,0,595)" d="M 0 595 L 842 595 L 842 0 L 0 0 Z " fill="#ffffff"/>
</g>
<clipPath id="cp1">
<path transform="matrix(1,0,0,-1,0,595)" d="M 52.82402 42.5 L 789.176 42.5 L 789.176 513.826 L 52.82402 513.826 Z "/>
</clipPath>
<g clip-path="url(#cp1)">
<path transform="matrix(1,0,0,-1,0,595)" d="M 354.0449 486.2474 L 780.7083 486.2474 L 780.7083 467.9366 L 354.0449 467.9366 Z " fill="#ffffff"/>
<path transform="matrix(1,0,0,-1,0,595)" d="M 56.7 467.9366 L 262.3779 467.9366 L 262.3779 446.8258 L 56.7 446.8258 Z " fill="#ffffff"/>
<g id="Layer-1" data-name="P">
<text xml:space="preserve" transform="matrix(1 0 -0 1 300.2705 97.427)" font-size="14" font-family="TimesNewRomanPS" font-weight="bold"><tspan y="0" x="0 7.3892 14.3892 21.471802 28.471802 36.5386 44.6054">&#x0417;&#x0430;&#x0434;&#x0430;&#x043d;&#x0438;&#x0435;</tspan></text>
<text xml:space="preserve" transform="matrix(1 0 -0 1 300.2705 97.427)" font-size="14" font-family="TimesNewRomanPS" font-weight="bold"><tspan y="0" x="50.8186"> </tspan></text>
<text xml:space="preserve" transform="matrix(1 0 -0 1 300.2705 97.427)" font-size="14" font-family="TimesNewRomanPS" font-weight="bold"><tspan y="0" x="54.3186 62.3854">&#x043f;&#x043e;</tspan></text>
<text xml:space="preserve" transform="matrix(1 0 -0 1 300.2705 97.427)" font-size="14" font-family="TimesNewRomanPS" font-weight="bold"><tspan y="0" x="69.3854"> </tspan></text>
<text xml:space="preserve" transform="matrix(1 0 -0 1 300.2705 97.427)" font-size="14" font-family="TimesNewRomanPS" font-weight="bold"><tspan y="0" x="72.8854 80.7674 87.7674 95.55421 103.34101 109.554218 117.40822 124.982219 133.04903 141.11583 148.11583 156.18264 164.24944 170.98343 180.52024">&#x043a;&#x043e;&#x0440;&#x0440;&#x0435;&#x043b;&#x044f;&#x0446;&#x0438;&#x043e;&#x043d;&#x043d;&#x043e;&#x043c;&#x0443;</tspan></text>
<text xml:space="preserve" transform="matrix(1 0 -0 1 300.2705 97.427)" font-size="14" font-family="TimesNewRomanPS" font-weight="bold"><tspan y="0" x="187.52024"> </tspan></text>
<text xml:space="preserve" transform="matrix(1 0 -0 1 300.2705 97.427)" font-size="14" font-family="TimesNewRomanPS" font-weight="bold"><tspan y="0" x="191.02024 198.02024 206.08704 213.21024 221.06424 229.13105 234.46366">&#x0430;&#x043d;&#x0430;&#x043b;&#x0438;&#x0437;&#x0443;</tspan></text>
<g id="Layer-2" data-name="Span">
<text xml:space="preserve" transform="matrix(1 0 -0 1 300.2705 97.427)" font-size="14" font-family="TimesNewRomanPS" font-weight="bold"><tspan y="0" x="241.459"> </tspan></text>
</g>
</g>
<g id="Layer-1" data-name="P">
<g id="Layer-2" data-name="Span">
<text xml:space="preserve" transform="matrix(1 0 -0 1 56.7 121.12961)" font-size="14" font-family="TimesNewRomanPSMT"><tspan y="0" x="0"> </tspan></text>
</g>
<text xml:space="preserve" transform="matrix(1 0 -0 1 56.7 121.12961)" font-size="14" font-family="TimesNewRomanPSMT"><tspan y="0" x="35.4 45.638204 51.9844 59.604604 66.5528 73.66901 80.183208 85.54941 92.32961">&#x0418;&#x0441;&#x043f;&#x043e;&#x043b;&#x044c;&#x0437;&#x0443;&#x044f;</tspan></text>
<text xml:space="preserve" transform="matrix(1 0 -0 1 56.7 121.12961)" font-size="14" font-family="TimesNewRomanPS" font-weight="bold"><tspan y="0" x="98.87553 102.93413">  </tspan></text>
<text xml:space="preserve" transform="matrix(1 0 -0 1 56.7 121.12961)" font-size="14" font-family="TimesNewRomanPSMT"><tspan y="0" x="106.7771 113.1177 120.2283 126.3869 133.6375 140.7621 151.3447 162.2493 169.86389">&#x0441;&#x043b;&#x0435;&#x0434;&#x0443;&#x044e;&#x0449;&#x0438;&#x0435;</tspan></text>
<text xml:space="preserve" transform="matrix(1 0 -0 1 56.7 121.12961)" font-size="14" font-family="TimesNewRomanPSMT"><tspan y="0" x="176.2045"> </tspan></text>
<text xml:space="preserve" transform="matrix(1 0 -0 1 56.7 121.12961)" font-size="14" font-family="TimesNewRomanPSMT"><tspan y="0" x="180.0531 187.3037 193.6443 201.2589 208.87349 218.4061">&#x0434;&#x0430;&#x043d;&#x043d;&#x044b;&#x0435;</tspan></text>
<text xml:space="preserve" transform="matrix(1 0 -0 1 56.7 121.12961)" font-size="14" font-family="TimesNewRomanPSMT"><tspan y="0" x="224.7467"> </tspan></text>
<text xml:space="preserve" transform="matrix(1 0 -0 1 56.7 121.12961)" font-size="14" font-family="TimesNewRomanPSMT"><tspan y="0" x="228.5953 235.32791 244.8605 252.0271 259.6417 265.9823 273.0929 280.7075 286.9501">&#x0432;&#x044b;&#x0447;&#x0438;&#x0441;&#x043b;&#x0438;&#x0442;&#x044c;</tspan></text>
<text xml:space="preserve" transform="matrix(1 0 -0 1 56.7 121.12961)" font-size="14" font-family="TimesNewRomanPSMT"><tspan y="0" x="293.4587"> </tspan></text>
<text xml:space="preserve" transform="matrix(1 0 -0 1 56.7 121.12961)" font-size="14" font-family="TimesNewRomanPSMT"><tspan y="0" x="297.3449 303.84373 311.4205 317.7513 327.14814 336.6289 344.5277 352.4265 360.32533 366.9501 374.8489 381.3757">&#x043a;&#x043e;&#x044d;&#x0444;&#x0444;&#x0438;&#x0446;&#x0438;&#x0435;&#x043d;&#x0442;&#x044b;</tspan></text>
<text xml:space="preserve" transform="matrix(1 0 -0 1 56.7 121.12961)" font-size="14" font-family="TimesNewRomanPSMT"><tspan y="0" x="391.1925"> </tspan></text>
<text xml:space="preserve" transform="matrix(1 0 -0 1 56.7 121.12961)" font-size="14" font-family="TimesNewRomanPSMT"><tspan y="0" x="395.3113 401.81013 409.2189 416.0537 422.6785 430.08729 437.98609 444.61088 452.50968 460.40849">&#x043a;&#x043e;&#x0432;&#x0430;&#x0440;&#x0438;&#x0430;&#x0446;&#x0438;&#x0438;</tspan></text>
<text xml:space="preserve" transform="matrix(1 0 -0 1 56.7 121.12961)" font-size="14" font-family="TimesNewRomanPSMT"><tspan y="0" x="468.30729 472.21607">, </tspan></text>
<text xml:space="preserve" transform="matrix(1 0 -0 1 56.7 121.12961)" font-size="14" font-family="TimesNewRomanPSMT"><tspan y="0" x="476.33488 482.83369 490.24247 497.65126 505.06004 511.6848 519.0796 525.9284 533.8272 541.726">&#x043a;&#x043e;&#x0440;&#x0440;&#x0435;&#x043b;&#x044f;&#x0446;&#x0438;&#x0438;</tspan></text>
<text xml:space="preserve" transform="matrix(1 0 -0 1 56.7 121.12961)" font-size="14" font-family="TimesNewRomanPSMT"><tspan y="0" x="549.6248"> </tspan></text>
<text xml:space="preserve" transform="matrix(1 0 -0 1 56.7 121.12961)" font-size="14" font-family="TimesNewRomanPSMT"><tspan y="0" x="553.74368">&#x0438;</tspan></text>
<text xml:space="preserve" transform="matrix(1 0 -0 1 56.7 121.12961)" font-size="14" font-family="TimesNewRomanPSMT"><tspan y="0" x="561.64248"> </tspan></text>
<text xml:space="preserve" transform="matrix(1 0 -0 1 56.7 121.12961)" font-size="14" font-family="TimesNewRomanPSMT"><tspan y="0" x="565.7613 573.2961 579.9209 586.4477 593.0725 600.27139 609.5422 617.441 625.3398 631.9646 639.8634 647.7622">&#x0434;&#x0435;&#x0442;&#x0435;&#x0440;&#x043c;&#x0438;&#x043d;&#x0430;&#x0446;&#x0438;&#x0438;</tspan></text>
<text xml:space="preserve" transform="matrix(1 0 -0 1 56.7 121.12961)" font-size="14" font-family="TimesNewRomanPSMT"><tspan y="0" x="655.661 659.5698">. </tspan></text>
<text xml:space="preserve" transform="matrix(1 0 -0 1 56.7 121.12961)" font-size="14" font-family="TimesNewRomanPSMT"><tspan y="0" x="663.68869 674.20547 681.61428 689.0231 695.9559 702.9307 709.55557 716.08236">&#x041f;&#x0440;&#x043e;&#x0432;&#x0435;&#x0441;&#x0442;&#x0438;</tspan></text>
<text xml:space="preserve" transform="matrix(1 0 -0 1 56.7 121.12961)" font-size="14" font-family="TimesNewRomanPSMT"><tspan y="0" x="723.98117"> </tspan></text>
<text xml:space="preserve" transform="matrix(1 0 -0 1 56.7 139.4404)" font-size="14" font-family="TimesNewRomanPSMT"><tspan y="0" x="0 6.6220009 14.518001 21.266 28.658 36.554">&#x0430;&#x043d;&#x0430;&#x043b;&#x0438;&#x0437;</tspan></text>
<text xml:space="preserve" transform="matrix(1 0 -0 1 56.7 139.4404)" font-size="14" font-family="TimesNewRomanPSMT"><tspan y="0" x="42.49"> </tspan></text>
<text xml:space="preserve" transform="matrix(1 0 -0 1 56.7 139.4404)" font-size="14" font-family="TimesNewRomanPSMT"><tspan y="0" x="46.396 54.292 61.516 68.908 76.313999 83.76199 90.383998 98.28 106.175998 115.99">&#x043f;&#x043e;&#x043b;&#x0443;&#x0447;&#x0435;&#x043d;&#x043d;&#x044b;&#x0445;</tspan></text>
<text xml:space="preserve" transform="matrix(1 0 -0 1 56.7 139.4404)" font-size="14" font-family="TimesNewRomanPSMT"><tspan y="0" x="123.395999"> </tspan></text>
<text xml:space="preserve" transform="matrix(1 0 -0 1 56.7 139.4404)" font-size="14" font-family="TimesNewRomanPSMT"><tspan y="0" x="127.301998 134.708 141.49799 147.13999 153.93 161.32199 167.57999 174.27199 180.52999 186.87198 194.27799">&#x0440;&#x0435;&#x0437;&#x0443;&#x043b;&#x044c;&#x0442;&#x0430;&#x0442;&#x043e;&#x0432;</tspan></text>
<text xml:space="preserve" transform="matrix(1 0 -0 1 56.7 139.4404)" font-size="14" font-family="TimesNewRomanPSMT"><tspan y="0" x="201.29199">.</tspan></text>
<g id="Layer-2" data-name="Span">
<text xml:space="preserve" transform="matrix(1 0 -0 1 56.7 139.4404)" font-size="14" font-family="TimesNewRomanPSMT"><tspan y="0" x="205.2695"> </tspan></text>
</g>
</g>
<g id="Layer-1" data-name="P">
</g>
<g id="Layer-1" data-name="P">
<text xml:space="preserve" transform="matrix(1 0 -0 1 56.7 435.017)" font-size="14" font-family="TimesNewRomanPSMT"><tspan y="0" x="0 6.665401 13.788601 20.3518 26.565003">&#x0417;&#x0434;&#x0435;&#x0441;&#x044c;</tspan></text>
<text xml:space="preserve" transform="matrix(1 0 -0 1 56.7 435.017)" font-size="14" font-family="TimesNewRomanPSMT"><tspan y="0" x="32.9504 36.4504 43.4504 46.9504 53.9504"> k &#x2013; </tspan></text>
<text xml:space="preserve" transform="matrix(1 0 -0 1 56.7 435.017)" font-size="14" font-family="TimesNewRomanPSMT"><tspan y="0" x="57.4504 64.9432 71.6772 80.5364 86.7496">&#x043d;&#x043e;&#x043c;&#x0435;&#x0440;</tspan></text>
<text xml:space="preserve" transform="matrix(1 0 -0 1 56.7 435.017)" font-size="14" font-family="TimesNewRomanPSMT"><tspan y="0" x="93.7496"> </tspan></text>
<text xml:space="preserve" transform="matrix(1 0 -0 1 56.7 435.017)" font-size="14" font-family="TimesNewRomanPSMT"><tspan y="0" x="97.2496 103.675609 109.88881 116.88881 124.38161 130.5948 138.08762 144.37642">&#x0432;&#x0430;&#x0440;&#x0438;&#x0430;&#x043d;&#x0442;&#x0430;</tspan></text>
<text xml:space="preserve" transform="matrix(1 0 -0 1 56.7 435.017)" font-size="14" font-family="TimesNewRomanPSMT"><tspan y="0" x="150.58962"> </tspan></text>
<text xml:space="preserve" transform="matrix(1 0 -0 1 56.7 435.017)" font-size="14" font-family="TimesNewRomanPSMT"><tspan y="0" x="154.08962 160.30281 166.23601 172.354 179.4772 185.6904 193.18321 199.47202">&#x0441;&#x0442;&#x0443;&#x0434;&#x0435;&#x043d;&#x0442;&#x0430;</tspan></text>
<text xml:space="preserve" transform="matrix(1 0 -0 1 56.7 435.017)" font-size="14" font-family="TimesNewRomanPSMT"><tspan y="0" x="205.68521">.</tspan></text>
<g id="Layer-2" data-name="Span">
<text xml:space="preserve" transform="matrix(1 0 -0 1 56.7 435.017)" font-size="14" font-family="TimesNewRomanPSMT"><tspan y="0" x="209.1865"> </tspan></text>
</g>
</g>
<g id="Layer-1" data-name="P">
<g id="Layer-2" data-name="P">
<g id="Layer-3" data-name="P">
<g id="Layer-4" data-name="P">
<g id="Layer-5" data-name="P">
</g>
<clipPath id="cp2">
<path transform="matrix(1,0,0,-1,0,595)" d="M 269.875 365.9679 L 345.425 365.9679 L 345.425 421.37318 L 269.875 421.37318 Z "/>
</clipPath>
<g clip-path="url(#cp2)">
<text xml:space="preserve" transform="matrix(1 0 -0 1 277.3189 190.00382)" font-size="14" font-family="TimesNewRomanPSMT"><tspan y="0" x="0 9.228801 16.228802 21.758803 28.198803 35.691606 41.904806 48.022806 54.448808">&#x0425;&#x043e;&#x0437;&#x044f;&#x0439;&#x0441;&#x0442;&#x0432;&#x0430;</tspan></text>
</g>
</g>
<g id="Layer-4" data-name="P">
<g id="Layer-5" data-name="P">
</g>
<clipPath id="cp3">
<path transform="matrix(1,0,0,-1,0,595)" d="M 346.175 365.9679 L 458.775 365.9679 L 458.775 421.37318 L 346.175 421.37318 Z "/>
</clipPath>
<g clip-path="url(#cp3)">
<text xml:space="preserve" transform="matrix(1 0 -0 1 367.7826 190.00382)" font-size="14" font-family="TimesNewRomanPSMT"><tspan y="0" x="0 8.640801 15.456001 22.442002 29.934802 36.975404 43.5386 49.7518 55.8698 62.384004">&#x041a;&#x043e;&#x043b;&#x0438;&#x0447;&#x0435;&#x0441;&#x0442;&#x0432;&#x043e;</tspan></text>
<text xml:space="preserve" transform="matrix(1 0 -0 1 367.7826 190.00382)" font-size="14" font-family="TimesNewRomanPSMT"><tspan y="0" x="69.384"> </tspan></text>
<text xml:space="preserve" transform="matrix(1 0 -0 1 370.1479 206.00382)" font-size="14" font-family="TimesNewRomanPSMT"><tspan y="0" x="0 6.6108005 14.1036009 20.666802 27.0522 33.2654 40.7582 48.251005 57.657606">&#x0432;&#x043d;&#x0435;&#x0441;&#x0435;&#x043d;&#x043d;&#x044b;&#x0445;</tspan></text>
<text xml:space="preserve" transform="matrix(1 0 -0 1 370.1479 206.00382)" font-size="14" font-family="TimesNewRomanPSMT"><tspan y="0" x="64.65761"> </tspan></text>
<text xml:space="preserve" transform="matrix(1 0 -0 1 361.0355 222.00382)" font-size="14" font-family="TimesNewRomanPSMT"><tspan y="0" x="0 6.118 13.2411999 20.2412 27.364399 34.3644 40.5776 48.0704 55.5632">&#x0443;&#x0434;&#x043e;&#x0431;&#x0440;&#x0435;&#x043d;&#x0438;&#x0439;</tspan></text>
<text xml:space="preserve" transform="matrix(1 0 -0 1 361.0355 222.00382)" font-size="14" font-family="TimesNewRomanPSMT"><tspan y="0" x="63.056005 66.556"> (</tspan></text>
<text xml:space="preserve" transform="matrix(1 0 -0 1 361.0355 222.00382)" font-size="14" font-family="TimesNewRomanPSMT"><tspan y="0" x="71.218">&#x0445;</tspan></text>
<text xml:space="preserve" transform="matrix(1 0 -0 1 361.0355 222.00382)" font-size="14" font-family="TimesNewRomanPSMT"><tspan y="0" x="78.218">)</tspan></text>
</g>
</g>
<g id="Layer-4" data-name="P">
<g id="Layer-5" data-name="P">
</g>
<clipPath id="cp4">
<path transform="matrix(1,0,0,-1,0,595)" d="M 459.525 365.9679 L 572.125 365.9679 L 572.125 421.37318 L 459.525 421.37318 Z "/>
</clipPath>
<g clip-path="url(#cp4)">
<text xml:space="preserve" transform="matrix(1 0 -0 1 476.1902 190.00382)" font-size="14" font-family="TimesNewRomanPSMT"><tspan y="0" x="0 8.681399 15.681399 22.3328 32.0054 38.2186 45.711404 53.204206 60.552804 66.76601 72.884">&#x0423;&#x0440;&#x043e;&#x0436;&#x0430;&#x0439;&#x043d;&#x043e;&#x0441;&#x0442;&#x044c;</tspan></text>
<text xml:space="preserve" transform="matrix(1 0 -0 1 476.1902 190.00382)" font-size="14" font-family="TimesNewRomanPSMT"><tspan y="0" x="79.26941"> </tspan></text>
<text xml:space="preserve" transform="matrix(1 0 -0 1 490.9388 206.00382)" font-size="14" font-family="TimesNewRomanPSMT"><tspan y="0" x="0 4.662 14.7728 19.434802 22.934802">(Y), </tspan></text>
<text xml:space="preserve" transform="matrix(1 0 -0 1 490.9388 206.00382)" font-size="14" font-family="TimesNewRomanPSMT"><tspan y="0" x="26.434802">&#x0446;</tspan></text>
<text xml:space="preserve" transform="matrix(1 0 -0 1 490.9388 206.00382)" font-size="14" font-family="TimesNewRomanPSMT"><tspan y="0" x="33.9276">/</tspan></text>
<text xml:space="preserve" transform="matrix(1 0 -0 1 490.9388 206.00382)" font-size="14" font-family="TimesNewRomanPSMT"><tspan y="0" x="37.816804 43.559606">&#x0433;&#x0430;</tspan></text>
</g>
</g>
</g>
<g id="Layer-3" data-name="P">
<g id="Layer-4" data-name="P">
<g id="Layer-5" data-name="P">
</g>
<clipPath id="cp5">
<path transform="matrix(1,0,0,-1,0,595)" d="M 269.875 197.8126 L 345.425 197.8126 L 345.425 365.2179 L 269.875 365.2179 Z "/>
</clipPath>
<g clip-path="url(#cp5)">
<text xml:space="preserve" transform="matrix(1 0 -0 1 294.475 246.15909)" font-size="14" font-family="TimesNewRomanPSMT"><tspan y="0" x="0 7">1.</tspan></text>
<g id="Layer-6" data-name="Span">
<text xml:space="preserve" transform="matrix(1 0 -0 1 294.475 246.15909)" font-size="14" font-family="TimesNewRomanPSMT"><tspan y="0" x="10.5"> </tspan></text>
</g>
</g>
<g id="Layer-5" data-name="P">
<text xml:space="preserve" transform="matrix(1 0 -0 1 294.475 262.1591)" font-size="14" font-family="TimesNewRomanPSMT"><tspan y="0" x="0 7">2.</tspan></text>
<g id="Layer-6" data-name="Span">
<text xml:space="preserve" transform="matrix(1 0 -0 1 294.475 262.1591)" font-size="14" font-family="TimesNewRomanPSMT"><tspan y="0" x="10.5"> </tspan></text>
</g>
</g>
<g id="Layer-5" data-name="P">
<text xml:space="preserve" transform="matrix(1 0 -0 1 294.475 278.1591)" font-size="14" font-family="TimesNewRomanPSMT"><tspan y="0" x="0 7">3.</tspan></text>
<g id="Layer-6" data-name="Span">
<text xml:space="preserve" transform="matrix(1 0 -0 1 294.475 278.1591)" font-size="14" font-family="TimesNewRomanPSMT"><tspan y="0" x="10.5"> </tspan></text>
</g>
</g>
<g id="Layer-5" data-name="P">
<text xml:space="preserve" transform="matrix(1 0 -0 1 294.475 294.1591)" font-size="14" font-family="TimesNewRomanPSMT"><tspan y="0" x="0 7">4.</tspan></text>
<g id="Layer-6" data-name="Span">
<text xml:space="preserve" transform="matrix(1 0 -0 1 294.475 294.1591)" font-size="14" font-family="TimesNewRomanPSMT"><tspan y="0" x="10.5"> </tspan></text>
</g>
</g>
<g id="Layer-5" data-name="P">
<text xml:space="preserve" transform="matrix(1 0 -0 1 294.475 310.1591)" font-size="14" font-family="TimesNewRomanPSMT"><tspan y="0" x="0 7">5.</tspan></text>
<g id="Layer-6" data-name="Span">
<text xml:space="preserve" transform="matrix(1 0 -0 1 294.475 310.1591)" font-size="14" font-family="TimesNewRomanPSMT"><tspan y="0" x="10.5"> </tspan></text>
</g>
</g>
<g id="Layer-5" data-name="P">
<text xml:space="preserve" transform="matrix(1 0 -0 1 294.475 326.1591)" font-size="14" font-family="TimesNewRomanPSMT"><tspan y="0" x="0 7">6.</tspan></text>
<g id="Layer-6" data-name="Span">
<text xml:space="preserve" transform="matrix(1 0 -0 1 294.475 326.1591)" font-size="14" font-family="TimesNewRomanPSMT"><tspan y="0" x="10.5"> </tspan></text>
</g>
</g>
<g id="Layer-5" data-name="P">
<text xml:space="preserve" transform="matrix(1 0 -0 1 294.475 342.15913)" font-size="14" font-family="TimesNewRomanPSMT"><tspan y="0" x="0 7">7.</tspan></text>
<g id="Layer-6" data-name="Span">
<text xml:space="preserve" transform="matrix(1 0 -0 1 294.475 342.15913)" font-size="14" font-family="TimesNewRomanPSMT"><tspan y="0" x="10.5"> </tspan></text>
</g>
</g>
<g id="Layer-5" data-name="P">
<text xml:space="preserve" transform="matrix(1 0 -0 1 294.475 358.15913)" font-size="14" font-family="TimesNewRomanPSMT"><tspan y="0" x="0 7">8.</tspan></text>
<g id="Layer-6" data-name="Span">
<text xml:space="preserve" transform="matrix(1 0 -0 1 294.475 358.15913)" font-size="14" font-family="TimesNewRomanPSMT"><tspan y="0" x="10.5"> </tspan></text>
</g>
</g>
<g id="Layer-5" data-name="P">
<text xml:space="preserve" transform="matrix(1 0 -0 1 294.475 374.15913)" font-size="14" font-family="TimesNewRomanPSMT"><tspan y="0" x="0 7">9.</tspan></text>
<g id="Layer-6" data-name="Span">
<text xml:space="preserve" transform="matrix(1 0 -0 1 294.475 374.15913)" font-size="14" font-family="TimesNewRomanPSMT"><tspan y="0" x="10.5"> </tspan></text>
</g>
</g>
<g id="Layer-5" data-name="P">
<text xml:space="preserve" transform="matrix(1 0 -0 1 290.975 390.15913)" font-size="14" font-family="TimesNewRomanPSMT"><tspan y="0" x="0 7 14">10.</tspan></text>
</g>
</g>
<g id="Layer-4" data-name="P">
<g id="Layer-5" data-name="P">
</g>
<clipPath id="cp6">
<path transform="matrix(1,0,0,-1,0,595)" d="M 346.175 197.8126 L 458.775 197.8126 L 458.775 365.2179 L 346.175 365.2179 Z "/>
</clipPath>
<g clip-path="url(#cp6)">
<text xml:space="preserve" transform="matrix(1 0 -0 1 391.975 246.15909)" font-size="14" font-family="TimesNewRomanPSMT"><tspan y="0" x="0 7 14">150</tspan></text>
<g id="Layer-6" data-name="Span">
<text xml:space="preserve" transform="matrix(1 0 -0 1 391.975 246.15909)" font-size="14" font-family="TimesNewRomanPSMT"><tspan y="0" x="21"> </tspan></text>
</g>
</g>
<g id="Layer-5" data-name="P">
<text xml:space="preserve" transform="matrix(1 0 -0 1 391.975 262.1591)" font-size="14" font-family="TimesNewRomanPSMT"><tspan y="0" x="0 7 14">160</tspan></text>
<g id="Layer-6" data-name="Span">
<text xml:space="preserve" transform="matrix(1 0 -0 1 391.975 262.1591)" font-size="14" font-family="TimesNewRomanPSMT"><tspan y="0" x="21"> </tspan></text>
</g>
</g>
<g id="Layer-5" data-name="P">
<text xml:space="preserve" transform="matrix(1 0 -0 1 391.975 278.1591)" font-size="14" font-family="TimesNewRomanPSMT"><tspan y="0" x="0 7 14">180</tspan></text>
<g id="Layer-6" data-name="Span">
<text xml:space="preserve" transform="matrix(1 0 -0 1 391.975 278.1591)" font-size="14" font-family="TimesNewRomanPSMT"><tspan y="0" x="21"> </tspan></text>
</g>
</g>
<g id="Layer-5" data-name="P">
<text xml:space="preserve" transform="matrix(1 0 -0 1 391.975 294.1591)" font-size="14" font-family="TimesNewRomanPSMT"><tspan y="0" x="0 7 14">200</tspan></text>
<g id="Layer-6" data-name="Span">
<text xml:space="preserve" transform="matrix(1 0 -0 1 391.975 294.1591)" font-size="14" font-family="TimesNewRomanPSMT"><tspan y="0" x="21"> </tspan></text>
</g>
</g>
<g id="Layer-5" data-name="P">
<text xml:space="preserve" transform="matrix(1 0 -0 1 391.975 310.1591)" font-size="14" font-family="TimesNewRomanPSMT"><tspan y="0" x="0 7 14">250</tspan></text>
<g id="Layer-6" data-name="Span">
<text xml:space="preserve" transform="matrix(1 0 -0 1 391.975 310.1591)" font-size="14" font-family="TimesNewRomanPSMT"><tspan y="0" x="21"> </tspan></text>
</g>
</g>
<g id="Layer-5" data-name="P">
<text xml:space="preserve" transform="matrix(1 0 -0 1 391.975 326.1591)" font-size="14" font-family="TimesNewRomanPSMT"><tspan y="0" x="0 7 14">240</tspan></text>
<g id="Layer-6" data-name="Span">
<text xml:space="preserve" transform="matrix(1 0 -0 1 391.975 326.1591)" font-size="14" font-family="TimesNewRomanPSMT"><tspan y="0" x="21"> </tspan></text>
</g>
</g>
<g id="Layer-5" data-name="P">
<text xml:space="preserve" transform="matrix(1 0 -0 1 391.975 342.15913)" font-size="14" font-family="TimesNewRomanPSMT"><tspan y="0" x="0 7 14">270</tspan></text>
<g id="Layer-6" data-name="Span">
<text xml:space="preserve" transform="matrix(1 0 -0 1 391.975 342.15913)" font-size="14" font-family="TimesNewRomanPSMT"><tspan y="0" x="21"> </tspan></text>
</g>
</g>
<g id="Layer-5" data-name="P">
<text xml:space="preserve" transform="matrix(1 0 -0 1 391.975 358.15913)" font-size="14" font-family="TimesNewRomanPSMT"><tspan y="0" x="0 7 14">300</tspan></text>
<g id="Layer-6" data-name="Span">
<text xml:space="preserve" transform="matrix(1 0 -0 1 391.975 358.15913)" font-size="14" font-family="TimesNewRomanPSMT"><tspan y="0" x="21"> </tspan></text>
</g>
</g>
<g id="Layer-5" data-name="P">
<text xml:space="preserve" transform="matrix(1 0 -0 1 391.975 374.15913)" font-size="14" font-family="TimesNewRomanPSMT"><tspan y="0" x="0 7 14">350</tspan></text>
<g id="Layer-6" data-name="Span">
<text xml:space="preserve" transform="matrix(1 0 -0 1 391.975 374.15913)" font-size="14" font-family="TimesNewRomanPSMT"><tspan y="0" x="21"> </tspan></text>
</g>
</g>
<g id="Layer-5" data-name="P">
<text xml:space="preserve" transform="matrix(1 0 -0 1 391.975 390.15913)" font-size="14" font-family="TimesNewRomanPSMT"><tspan y="0" x="0 7 14">330</tspan></text>
</g>
</g>
<g id="Layer-4" data-name="P">
<g id="Layer-5" data-name="P">
</g>
<clipPath id="cp7">
<path transform="matrix(1,0,0,-1,0,595)" d="M 459.525 197.8126 L 572.125 197.8126 L 572.125 365.2179 L 459.525 365.2179 Z "/>
</clipPath>
<g clip-path="url(#cp7)">
<text xml:space="preserve" transform="matrix(1 0 -0 1 496.1272 246.15909)" font-size="14" font-family="TimesNewRomanPSMT"><tspan y="0" x="0 7 14 17.5 24.5 32.396">18,1+k</tspan></text>
<g id="Layer-6" data-name="Span">
<text xml:space="preserve" transform="matrix(1 0 -0 1 496.1272 246.15909)" font-size="14" font-family="TimesNewRomanPSMT"><tspan y="0" x="39.39551"> </tspan></text>
</g>
</g>
<g id="Layer-5" data-name="P">
<text xml:space="preserve" transform="matrix(1 0 -0 1 496.1272 262.1591)" font-size="14" font-family="TimesNewRomanPSMT"><tspan y="0" x="0 7 14 17.5 24.5 32.396">21,1+k</tspan></text>
<g id="Layer-6" data-name="Span">
<text xml:space="preserve" transform="matrix(1 0 -0 1 496.1272 262.1591)" font-size="14" font-family="TimesNewRomanPSMT"><tspan y="0" x="39.39551"> </tspan></text>
</g>
</g>
<g id="Layer-5" data-name="P">
<text xml:space="preserve" transform="matrix(1 0 -0 1 496.1272 278.1591)" font-size="14" font-family="TimesNewRomanPSMT"><tspan y="0" x="0 7 14 17.5 24.5 32.396">22,9+k</tspan></text>
<g id="Layer-6" data-name="Span">
<text xml:space="preserve" transform="matrix(1 0 -0 1 496.1272 278.1591)" font-size="14" font-family="TimesNewRomanPSMT"><tspan y="0" x="39.39551"> </tspan></text>
</g>
</g>
<g id="Layer-5" data-name="P">
<text xml:space="preserve" transform="matrix(1 0 -0 1 496.1272 294.1591)" font-size="14" font-family="TimesNewRomanPSMT"><tspan y="0" x="0 7 14 17.5 24.5 32.396">18,9+k</tspan></text>
<g id="Layer-6" data-name="Span">
<text xml:space="preserve" transform="matrix(1 0 -0 1 496.1272 294.1591)" font-size="14" font-family="TimesNewRomanPSMT"><tspan y="0" x="39.39551"> </tspan></text>
</g>
</g>
<g id="Layer-5" data-name="P">
<text xml:space="preserve" transform="matrix(1 0 -0 1 496.1272 310.1591)" font-size="14" font-family="TimesNewRomanPSMT"><tspan y="0" x="0 7 14 17.5 24.5 32.396">18,6+k</tspan></text>
<g id="Layer-6" data-name="Span">
<text xml:space="preserve" transform="matrix(1 0 -0 1 496.1272 310.1591)" font-size="14" font-family="TimesNewRomanPSMT"><tspan y="0" x="39.39551"> </tspan></text>
</g>
</g>
<g id="Layer-5" data-name="P">
<text xml:space="preserve" transform="matrix(1 0 -0 1 496.1272 326.1591)" font-size="14" font-family="TimesNewRomanPSMT"><tspan y="0" x="0 7 14 17.5 24.5 32.396">30,5+k</tspan></text>
<g id="Layer-6" data-name="Span">
<text xml:space="preserve" transform="matrix(1 0 -0 1 496.1272 326.1591)" font-size="14" font-family="TimesNewRomanPSMT"><tspan y="0" x="39.39551"> </tspan></text>
</g>
</g>
<g id="Layer-5" data-name="P">
<text xml:space="preserve" transform="matrix(1 0 -0 1 496.1272 342.15913)" font-size="14" font-family="TimesNewRomanPSMT"><tspan y="0" x="0 7 14 17.5 24.5 32.396">23,4+k</tspan></text>
<g id="Layer-6" data-name="Span">
<text xml:space="preserve" transform="matrix(1 0 -0 1 496.1272 342.15913)" font-size="14" font-family="TimesNewRomanPSMT"><tspan y="0" x="39.39551"> </tspan></text>
</g>
</g>
<g id="Layer-5" data-name="P">
<text xml:space="preserve" transform="matrix(1 0 -0 1 496.1272 358.15913)" font-size="14" font-family="TimesNewRomanPSMT"><tspan y="0" x="0 7 14 17.5 24.5 32.396">27,6+k</tspan></text>
<g id="Layer-6" data-name="Span">
<text xml:space="preserve" transform="matrix(1 0 -0 1 496.1272 358.15913)" font-size="14" font-family="TimesNewRomanPSMT"><tspan y="0" x="39.39551"> </tspan></text>
</g>
</g>
<g id="Layer-5" data-name="P">
<text xml:space="preserve" transform="matrix(1 0 -0 1 496.1272 374.15913)" font-size="14" font-family="TimesNewRomanPSMT"><tspan y="0" x="0 7 14 17.5 24.5 32.396">20,9+k</tspan></text>
<g id="Layer-6" data-name="Span">
<text xml:space="preserve" transform="matrix(1 0 -0 1 496.1272 374.15913)" font-size="14" font-family="TimesNewRomanPSMT"><tspan y="0" x="39.39551"> </tspan></text>
</g>
</g>
<g id="Layer-5" data-name="P">
<text xml:space="preserve" transform="matrix(1 0 -0 1 496.1272 390.15913)" font-size="14" font-family="TimesNewRomanPSMT"><tspan y="0" x="0 7 14 17.5 24.5 32.396">18,2+k</tspan></text>
</g>
</g>
</g>
</g>
<clipPath id="cp8">
<path transform="matrix(1,0,0,-1,0,595)" d="M 267.5 195.7481 L 574.5 195.7481 L 574.5 423.7481 L 267.5 423.7481 Z "/>
</clipPath>
<g clip-path="url(#cp8)">
<path transform="matrix(1,0,0,1,267.5,171.25189)" stroke-width=".75" stroke-linecap="butt" stroke-miterlimit="4" stroke-linejoin="miter" fill="none" stroke="#404040" d="M 78.3 1.5 L 78.3 226.8105 "/>
<path transform="matrix(1,0,0,1,267.5,171.25189)" stroke-width=".75" stroke-linecap="butt" stroke-miterlimit="4" stroke-linejoin="miter" fill="none" stroke="#404040" d="M 191.65 1.5 L 191.65 226.8105 "/>
<path transform="matrix(1,0,0,1,267.5,171.25189)" stroke-width=".75" stroke-linecap="butt" stroke-miterlimit="4" stroke-linejoin="miter" fill="none" stroke="#404040" d="M 1.5 58.15527 L 305.5 58.15527 "/>
<path transform="matrix(1,0,0,1,267.5,171.25189)" stroke-width=".75" stroke-linecap="butt" stroke-miterlimit="4" stroke-linejoin="miter" fill="none" stroke="#404040" d="M 2 1.5 L 2 226.8105 "/>
<path transform="matrix(1,0,0,1,267.5,171.25189)" stroke-width=".75" stroke-linecap="butt" stroke-miterlimit="4" stroke-linejoin="miter" fill="none" stroke="#404040" d="M 305 1.5 L 305 226.8105 "/>
<path transform="matrix(1,0,0,1,267.5,171.25189)" stroke-width=".75" stroke-linecap="butt" stroke-miterlimit="4" stroke-linejoin="miter" fill="none" stroke="#404040" d="M 1.5 2 L 305.5 2 "/>
<path transform="matrix(1,0,0,1,267.5,171.25189)" stroke-width=".75" stroke-linecap="butt" stroke-miterlimit="4" stroke-linejoin="miter" fill="none" stroke="#404040" d="M 1.5 226.3105 L 305.5 226.3105 "/>
</g>
</g>
</g>
</g>
</svg>
