<?xml version="1.0" encoding="UTF-8" standalone="no"?>
<!DOCTYPE svg PUBLIC "-//W3C//DTD SVG 1.1//EN" "http://www.w3.org/Graphics/SVG/1.1/DTD/svg11.dtd">
<svg xmlns="http://www.w3.org/2000/svg" xmlns:xlink="http://www.w3.org/1999/xlink" version="1.1" width="595pt" height="842pt" viewBox="0 0 595 842">
<g enable-background="new">
<clipPath id="cp0">
<path transform="matrix(1,0,0,-1,0,842)" d="M 0 0 L 595 0 L 595 842 L 0 842 Z "/>
</clipPath>
<g clip-path="url(#cp0)">
<path transform="matrix(1,0,0,-1,0,842)" d="M 0 842 L 595 842 L 595 0 L 0 0 Z " fill="#ffffff"/>
<g id="Layer-1" data-name="P">
</g>
<clipPath id="cp1">
<path transform="matrix(1,0,0,-1,0,842)" d="M 80.0666 58.97227 L 557.4834 58.97227 L 557.4834 789.7297 L 80.0666 789.7297 Z "/>
</clipPath>
<g clip-path="url(#cp1)">
<text xml:space="preserve" transform="matrix(1 0 -0 1 123.657 70.55939)" font-size="16" font-family="TimesNewRomanPS" font-weight="bold"><tspan y="0" x="0 15.900801 25.9136 35.9264 45.9392 53.840005 62.492807 70.39361 80.08641 87.98721 96.640018 105.96481">&#x041c;&#x0438;&#x043d;&#x0438;&#x0441;&#x0442;&#x0435;&#x0440;&#x0441;&#x0442;&#x0432;&#x043e;</tspan></text>
<text xml:space="preserve" transform="matrix(1 0 -0 1 123.657 70.55939)" font-size="16" font-family="TimesNewRomanPS" font-weight="bold"><tspan y="0" x="114.76161"> </tspan></text>
<text xml:space="preserve" transform="matrix(1 0 -0 1 123.657 70.55939)" font-size="16" font-family="TimesNewRomanPS" font-weight="bold"><tspan y="0" x="119.55841 128.99521 142.28801 150.18881 164.48961 172.39041 180.05123">&#x0432;&#x044b;&#x0441;&#x0448;&#x0435;&#x0433;&#x043e;</tspan></text>
<text xml:space="preserve" transform="matrix(1 0 -0 1 123.657 70.55939)" font-size="16" font-family="TimesNewRomanPS" font-weight="bold"><tspan y="0" x="188.84803"> </tspan></text>
<text xml:space="preserve" transform="matrix(1 0 -0 1 123.657 70.55939)" font-size="16" font-family="TimesNewRomanPS" font-weight="bold"><tspan y="0" x="193.64482">&#x0438;</tspan></text>
<text xml:space="preserve" transform="matrix(1 0 -0 1 123.657 70.55939)" font-size="16" font-family="TimesNewRomanPS" font-weight="bold"><tspan y="0" x="203.65763"> </tspan></text>
<text xml:space="preserve" transform="matrix(1 0 -0 1 123.657 70.55939)" font-size="16" font-family="TimesNewRomanPS" font-weight="bold"><tspan y="0" x="208.45442 216.35523 226.04802 233.74083 242.63364 252.64644 260.54725 268.20805">&#x0441;&#x0440;&#x0435;&#x0434;&#x043d;&#x0435;&#x0433;&#x043e;</tspan></text>
<text xml:space="preserve" transform="matrix(1 0 -0 1 123.657 70.55939)" font-size="16" font-family="TimesNewRomanPS" font-weight="bold"><tspan y="0" x="277.00486"> </tspan></text>
<text xml:space="preserve" transform="matrix(1 0 -0 1 123.657 70.55939)" font-size="16" font-family="TimesNewRomanPS" font-weight="bold"><tspan y="0" x="281.80168 289.70246 299.71525 307.61604 317.6288 327.6416 336.58244 346.35523 355.61604 365.6288 374.42564 382.08644">&#x0441;&#x043f;&#x0435;&#x0446;&#x0438;&#x0430;&#x043b;&#x044c;&#x043d;&#x043e;&#x0433;&#x043e;</tspan></text>
<text xml:space="preserve" transform="matrix(1 0 -0 1 123.657 70.55939)" font-size="16" font-family="TimesNewRomanPS" font-weight="bold"><tspan y="0" x="390.88325"> </tspan></text>
<text xml:space="preserve" transform="matrix(1 0 -0 1 172.807 97.21948)" font-size="16" font-family="TimesNewRomanPS" font-weight="bold"><tspan y="0" x="0 8.8 17.6 27.296002 36.096 43.232004 51.632 61.072 69.872 79.888 89.904">&#x043e;&#x0431;&#x0440;&#x0430;&#x0437;&#x043e;&#x0432;&#x0430;&#x043d;&#x0438;&#x044f;</tspan></text>
<text xml:space="preserve" transform="matrix(1 0 -0 1 172.807 97.21948)" font-size="16" font-family="TimesNewRomanPS" font-weight="bold"><tspan y="0" x="99.36"> </tspan></text>
<text xml:space="preserve" transform="matrix(1 0 -0 1 172.807 97.21948)" font-size="16" font-family="TimesNewRomanPS" font-weight="bold"><tspan y="0" x="104.16 114.52801 122.62401 130.52802 140.54402 149.13603 157.53604 167.31204 177.32805 187.34406">&#x0420;&#x0435;&#x0441;&#x043f;&#x0443;&#x0431;&#x043b;&#x0438;&#x043a;&#x0438;</tspan></text>
<text xml:space="preserve" transform="matrix(1 0 -0 1 172.807 97.21948)" font-size="16" font-family="TimesNewRomanPS" font-weight="bold"><tspan y="0" x="197.36006"> </tspan></text>
<text xml:space="preserve" transform="matrix(1 0 -0 1 172.807 97.21948)" font-size="16" font-family="TimesNewRomanPS" font-weight="bold"><tspan y="0" x="202.16007 213.39208 220.62407 229.21608 237.12009 247.1361 257.1521 265.0561 273.90409 282.70408">&#x0423;&#x0437;&#x0431;&#x0435;&#x043a;&#x0438;&#x0441;&#x0442;&#x0430;&#x043d;</tspan></text>
<g id="Layer-2" data-name="Span">
<text xml:space="preserve" transform="matrix(1 0 -0 1 172.807 97.21948)" font-size="16" font-family="TimesNewRomanPS" font-weight="bold"><tspan y="0" x="292.7359"> </tspan></text>
</g>
</g>
<g id="Layer-1" data-name="P">
<text xml:space="preserve" transform="matrix(1 0 -0 1 98.47734 150.5398)" font-size="16" font-family="TimesNewRomanPS" font-weight="bold"><tspan y="0" x="0 13.244801 21.2256 30.0224 39.8432 49.856004">&#x041d;&#x0430;&#x0443;&#x0447;&#x043d;&#x043e;</tspan></text>
<text xml:space="preserve" transform="matrix(1 0 -0 1 98.47734 150.5398)" font-size="16" font-family="TimesNewRomanPS" font-weight="bold"><tspan y="0" x="58.6528"> </tspan></text>
<text xml:space="preserve" transform="matrix(1 0 -0 1 98.47734 150.5398)" font-size="16" font-family="TimesNewRomanPS" font-weight="bold"><tspan y="0" x="63.4496 73.4624 81.363208 89.26401 99.036808 106.72961 115.622409 124.0192 133.45601 141.8368 150.48961 158.39041 168.16321 177.42401 185.32482 195.33762 205.35042">&#x0438;&#x0441;&#x0441;&#x043b;&#x0435;&#x0434;&#x043e;&#x0432;&#x0430;&#x0442;&#x0435;&#x043b;&#x044c;&#x0441;&#x043a;&#x0438;&#x0439;</tspan></text>
<text xml:space="preserve" transform="matrix(1 0 -0 1 98.47734 150.5398)" font-size="16" font-family="TimesNewRomanPS" font-weight="bold"><tspan y="0" x="215.36322"> </tspan></text>
<text xml:space="preserve" transform="matrix(1 0 -0 1 98.47734 150.5398)" font-size="16" font-family="TimesNewRomanPS" font-weight="bold"><tspan y="0" x="220.16002 228.95682 238.96962 248.98242 258.41923 266.32 276.01283 283.9136 293.9264 302.5792 310.47999">&#x0443;&#x043d;&#x0438;&#x0432;&#x0435;&#x0440;&#x0441;&#x0438;&#x0442;&#x0435;&#x0442;</tspan></text>
<text xml:space="preserve" transform="matrix(1 0 -0 1 98.47734 150.5398)" font-size="16" font-family="TimesNewRomanPS" font-weight="bold"><tspan y="0" x="319.13279 323.9296"> &#x00ab;</tspan></text>
<text xml:space="preserve" transform="matrix(1 0 -0 1 98.47734 150.5398)" font-size="16" font-family="TimesNewRomanPS" font-weight="bold"><tspan y="0" x="332.7264 343.79524 352.59205 366.89286 376.52165 384.42243 394.4352 403.29603 411.1968 421.2096 431.22239">&#x0422;&#x0430;&#x0448;&#x043a;&#x0435;&#x043d;&#x0442;&#x0441;&#x043a;&#x0438;&#x0439;</tspan></text>
<text xml:space="preserve" transform="matrix(1 0 -0 1 98.47734 150.5398)" font-size="16" font-family="TimesNewRomanPS" font-weight="bold"><tspan y="0" x="441.23518 446.03199">  </tspan></text>
<text xml:space="preserve" transform="matrix(1 0 -0 1 126.1336 177.20001)" font-size="16" font-family="TimesNewRomanPS" font-weight="bold"><tspan y="0" x="0 10.0192 20.0384 27.945603 36.604806 46.624006 55.075204 63.878404">&#x0438;&#x043d;&#x0441;&#x0442;&#x0438;&#x0442;&#x0443;&#x0442;</tspan></text>
<text xml:space="preserve" transform="matrix(1 0 -0 1 126.1336 177.20001)" font-size="16" font-family="TimesNewRomanPS" font-weight="bold"><tspan y="0" x="72.537609 77.340808">  </tspan></text>
<text xml:space="preserve" transform="matrix(1 0 -0 1 126.1336 177.20001)" font-size="16" font-family="TimesNewRomanPS" font-weight="bold"><tspan y="0" x="82.144008 92.16321 102.18241 114.37761 122.28481 132.30402 140.21121 149.91042 158.31363">&#x0438;&#x043d;&#x0436;&#x0435;&#x043d;&#x0435;&#x0440;&#x043e;&#x0432;</tspan></text>
<text xml:space="preserve" transform="matrix(1 0 -0 1 126.1336 177.20001)" font-size="16" font-family="TimesNewRomanPS" font-weight="bold"><tspan y="0" x="167.75684 172.56003">  </tspan></text>
<text xml:space="preserve" transform="matrix(1 0 -0 1 126.1336 177.20001)" font-size="16" font-family="TimesNewRomanPS" font-weight="bold"><tspan y="0" x="177.36322 187.38242 197.08162 206.78083 216.80002 224.86722 233.67041 243.6896 253.7088">&#x0438;&#x0440;&#x0440;&#x0438;&#x0433;&#x0430;&#x0446;&#x0438;&#x0438;</tspan></text>
<text xml:space="preserve" transform="matrix(1 0 -0 1 126.1336 177.20001)" font-size="16" font-family="TimesNewRomanPS" font-weight="bold"><tspan y="0" x="263.728"> </tspan></text>
<text xml:space="preserve" transform="matrix(1 0 -0 1 126.1336 177.20001)" font-size="16" font-family="TimesNewRomanPS" font-weight="bold"><tspan y="0" x="268.5312">&#x0438;</tspan></text>
<text xml:space="preserve" transform="matrix(1 0 -0 1 126.1336 177.20001)" font-size="16" font-family="TimesNewRomanPS" font-weight="bold"><tspan y="0" x="278.55039"> </tspan></text>
<text xml:space="preserve" transform="matrix(1 0 -0 1 126.1336 177.20001)" font-size="16" font-family="TimesNewRomanPS" font-weight="bold"><tspan y="0" x="283.35359 295.05278 302.63996 311.23515 320.03834 330.05754 340.07673 347.31193 356.1151 366.1343 376.1535">&#x043c;&#x0435;&#x0445;&#x0430;&#x043d;&#x0438;&#x0437;&#x0430;&#x0446;&#x0438;&#x0438;</tspan></text>
<text xml:space="preserve" transform="matrix(1 0 -0 1 126.1336 177.20001)" font-size="16" font-family="TimesNewRomanPS" font-weight="bold"><tspan y="0" x="386.1727"> </tspan></text>
<text xml:space="preserve" transform="matrix(1 0 -0 1 234.1203 203.86023)" font-size="16" font-family="TimesNewRomanPS" font-weight="bold"><tspan y="0" x="0 8.097601 16.003203 25.780804 35.046403 42.952005 52.761606 61.5632 69.2288">&#x0441;&#x0435;&#x043b;&#x044c;&#x0441;&#x043a;&#x043e;&#x0433;&#x043e;</tspan></text>
<text xml:space="preserve" transform="matrix(1 0 -0 1 234.1203 203.86023)" font-size="16" font-family="TimesNewRomanPS" font-weight="bold"><tspan y="0" x="78.030399"> </tspan></text>
<text xml:space="preserve" transform="matrix(1 0 -0 1 234.1203 203.86023)" font-size="16" font-family="TimesNewRomanPS" font-weight="bold"><tspan y="0" x="82.83199 91.02559 99.82719 107.06078 116.51838 126.53598 134.44158 143.09917 152.54077">&#x0445;&#x043e;&#x0437;&#x044f;&#x0439;&#x0441;&#x0442;&#x0432;&#x0430;</tspan></text>
<text xml:space="preserve" transform="matrix(1 0 -0 1 234.1203 203.86023)" font-size="16" font-family="TimesNewRomanPS" font-weight="bold"><tspan y="0" x="161.34238">&#x00bb;</tspan></text>
<g id="Layer-2" data-name="Span">
<text xml:space="preserve" transform="matrix(1 0 -0 1 234.1203 203.86023)" font-size="16" font-family="TimesNewRomanPS" font-weight="bold"><tspan y="0" x="170.1094"> </tspan></text>
</g>
</g>
<g id="Layer-1" data-name="P">
<text xml:space="preserve" transform="matrix(1 0 -0 1 173.1939 270.24079)" font-size="11" font-family="TimesNewRomanPS" font-weight="bold"><tspan y="0" x="0 8.6306 14.929199 23.3398 28.8794 35.244005 42.158605">&#x041a;&#x0430;&#x0444;&#x0435;&#x0434;&#x0440;&#x0430;</tspan></text>
<text xml:space="preserve" transform="matrix(1 0 -0 1 173.1939 270.24079)" font-size="11" font-family="TimesNewRomanPS" font-weight="bold"><tspan y="0" x="48.457208 52.00581 55.554414">  &#x00ab;</tspan></text>
<text xml:space="preserve" transform="matrix(1 0 -0 1 173.1939 270.24079)" font-size="11" font-family="TimesNewRomanPS" font-weight="bold"><tspan y="0" x="61.853017 71.20962 80.566219 90.945819 100.302417 107.613018 118.795619 127.53622 136.89282 146.24942 155.60602 164.96262 174.31922 185.91982">&#x0418;&#x041d;&#x0424;&#x041e;&#x0420;&#x041c;&#x0410;&#x0426;&#x0418;&#x041e;&#x041d;&#x041d;&#x042b;&#x0415;</tspan></text>
<text xml:space="preserve" transform="matrix(1 0 -0 1 173.1939 270.24079)" font-size="11" font-family="TimesNewRomanPS" font-weight="bold"><tspan y="0" x="194.05542"> </tspan></text>
<text xml:space="preserve" transform="matrix(1 0 -0 1 173.1939 270.24079)" font-size="11" font-family="TimesNewRomanPS" font-weight="bold"><tspan y="0" x="197.60402 205.73963 213.87523 222.61583 231.97245 240.77904 249.77265 259.12925 266.92387 276.28047">&#x0422;&#x0415;&#x0425;&#x041d;&#x041e;&#x041b;&#x041e;&#x0413;&#x0418;&#x0418;</tspan></text>
<text xml:space="preserve" transform="matrix(1 0 -0 1 173.1939 270.24079)" font-size="11" font-family="TimesNewRomanPS" font-weight="bold"><tspan y="0" x="285.63706">&#x00bb;</tspan></text>
<g id="Layer-2" data-name="Span">
<text xml:space="preserve" transform="matrix(1 0 -0 1 173.1939 270.24079)" font-size="11" font-family="TimesNewRomanPS" font-weight="bold"><tspan y="0" x="291.9621"> </tspan></text>
</g>
</g>
<g id="Layer-1" data-name="P">
<text xml:space="preserve" transform="matrix(1 0 -0 1 206.7727 411.5662)" font-size="16" font-family="TimesNewRomanPS" font-weight="bold"><tspan y="0" x="0 15.900801 27.3728 38.6336 51.0816 62.8896 76.1344 88.6768 100.1488 112.504009 124.9056 138.1504">&#x041c;&#x0415;&#x0422;&#x041e;&#x0414;&#x0418;&#x0427;&#x0415;&#x0421;&#x041a;&#x0418;&#x0415;</tspan></text>
<text xml:space="preserve" transform="matrix(1 0 -0 1 206.7727 411.5662)" font-size="16" font-family="TimesNewRomanPS" font-weight="bold"><tspan y="0" x="149.6224"> </tspan></text>
<text xml:space="preserve" transform="matrix(1 0 -0 1 206.7727 411.5662)" font-size="16" font-family="TimesNewRomanPS" font-weight="bold"><tspan y="0" x="154.42241 167.6672 181.10721 193.46242 206.70722 218.08483 231.32962">&#x041f;&#x041e;&#x0421;&#x041e;&#x0411;&#x0418;&#x0415;</tspan></text>
<text xml:space="preserve" transform="matrix(1 0 -0 1 206.7727 411.5662)" font-size="16" font-family="TimesNewRomanPS" font-weight="bold"><tspan y="0" x="242.80162"> </tspan></text>
<g id="Layer-2" data-name="Span">
<text xml:space="preserve" transform="matrix(1 0 -0 1 206.7727 411.5662)" font-size="16" font-family="TimesNewRomanPS" font-weight="bold"><tspan y="0" x="247.6047"> </tspan></text>
</g>
</g>
<g id="Layer-1" data-name="P">
<text xml:space="preserve" transform="matrix(1 0 -0 1 164.4397 450.7088)" font-size="18" font-family="TimesNewRomanPSMT"><tspan y="0" x="0 9.9576 19.735199">&#x0434;&#x043b;&#x044f;</tspan></text>
<text xml:space="preserve" transform="matrix(1 0 -0 1 164.4397 450.7088)" font-size="18" font-family="TimesNewRomanPSMT"><tspan y="0" x="28.810799"> </tspan></text>
<text xml:space="preserve" transform="matrix(1 0 -0 1 164.4397 450.7088)" font-size="18" font-family="TimesNewRomanPSMT"><tspan y="0" x="34.1064 44.531999 54.3276 64.1232 73.32481 81.8784 91.836 100.6236 111.049198 121.47479">&#x043f;&#x0440;&#x043e;&#x0432;&#x0435;&#x0434;&#x0435;&#x043d;&#x0438;&#x044f;</tspan></text>
<text xml:space="preserve" transform="matrix(1 0 -0 1 164.4397 450.7088)" font-size="18" font-family="TimesNewRomanPSMT"><tspan y="0" x="130.55039 135.84598">  </tspan></text>
<text xml:space="preserve" transform="matrix(1 0 -0 1 164.4397 450.7088)" font-size="18" font-family="TimesNewRomanPSMT"><tspan y="0" x="141.14157 151.56717 161.36277 170.15036 179.45996 188.12157 198.54717 208.39676 217.63436 226.42195 235.96555 246.39115">&#x043f;&#x0440;&#x0430;&#x043a;&#x0442;&#x0438;&#x0447;&#x0435;&#x0441;&#x043a;&#x0438;&#x0445;</tspan></text>
<text xml:space="preserve" transform="matrix(1 0 -0 1 164.4397 450.7088)" font-size="18" font-family="TimesNewRomanPSMT"><tspan y="0" x="256.18675"> </tspan></text>
<text xml:space="preserve" transform="matrix(1 0 -0 1 164.4397 450.7088)" font-size="18" font-family="TimesNewRomanPSMT"><tspan y="0" x="261.48234 269.38795 278.17555 288.60115 297.67674 306.33833 316.76393">&#x0437;&#x0430;&#x043d;&#x044f;&#x0442;&#x0438;&#x0439;</tspan></text>
<text xml:space="preserve" transform="matrix(1 0 -0 1 164.4397 450.7088)" font-size="18" font-family="TimesNewRomanPSMT"><tspan y="0" x="327.1895"> </tspan></text>
<g id="Layer-2" data-name="Span">
<text xml:space="preserve" transform="matrix(1 0 -0 1 164.4397 450.7088)" font-size="18" font-family="TimesNewRomanPSMT"><tspan y="0" x="332.6205"> </tspan></text>
</g>
</g>
<g id="Layer-1" data-name="P">
<text xml:space="preserve" transform="matrix(1 0 -0 1 265.3756 481.8265)" font-size="18" font-family="TimesNewRomanPSMT"><tspan y="0" x="0 10.4328">&#x043f;&#x043e;</tspan></text>
<text xml:space="preserve" transform="matrix(1 0 -0 1 265.3756 481.8265)" font-size="18" font-family="TimesNewRomanPSMT"><tspan y="0" x="20.2356"> </tspan></text>
<text xml:space="preserve" transform="matrix(1 0 -0 1 265.3756 481.8265)" font-size="18" font-family="TimesNewRomanPSMT"><tspan y="0" x="25.538399 35.503198 45.935998 54.730798 65.1636 75.5964 86.0292 95.813999 106.246799 116.679599">&#x0434;&#x0438;&#x0441;&#x0446;&#x0438;&#x043f;&#x043b;&#x0438;&#x043d;&#x0435;</tspan></text>
<g id="Layer-2" data-name="Span">
<text xml:space="preserve" transform="matrix(1 0 -0 1 265.3756 481.8265)" font-size="16" font-family="TimesNewRomanPSMT"><tspan y="0" x="125.4488"> </tspan></text>
</g>
</g>
<g id="Layer-1" data-name="P">
<text xml:space="preserve" transform="matrix(1 0 -0 1 179.4172 547.1219)" font-size="16" font-family="TimesNewRomanPS" font-weight="bold"><tspan y="0" x="0">&#x00ab;</tspan></text>
<text xml:space="preserve" transform="matrix(1 0 -0 1 179.4172 547.1219)" font-size="16" font-family="TimesNewRomanPS" font-weight="bold"><tspan y="0" x="8.8 22.048 32.624 45.872 58.272005 70.992008 83.34401 95.15201 108.40001 120.752017">&#x041f;&#x0420;&#x0418;&#x041a;&#x041b;&#x0410;&#x0414;&#x041d;&#x0410;&#x042f;</tspan></text>
<text xml:space="preserve" transform="matrix(1 0 -0 1 179.4172 547.1219)" font-size="16" font-family="TimesNewRomanPS" font-weight="bold"><tspan y="0" x="133.10402"> </tspan></text>
<text xml:space="preserve" transform="matrix(1 0 -0 1 179.4172 547.1219)" font-size="16" font-family="TimesNewRomanPS" font-weight="bold"><tspan y="0" x="137.90402 149.55202 161.55202 174.80002 188.04802 201.29602 217.20003 228.67203 240.14403 250.72003 263.96803 276.368">&#x042d;&#x041a;&#x041e;&#x041d;&#x041e;&#x041c;&#x0415;&#x0422;&#x0420;&#x0418;&#x041a;&#x0410;</tspan></text>
<text xml:space="preserve" transform="matrix(1 0 -0 1 179.4172 547.1219)" font-size="16" font-family="TimesNewRomanPS" font-weight="bold"><tspan y="0" x="288.72">&#x00bb;</tspan></text>
<g id="Layer-2" data-name="Span">
<text xml:space="preserve" transform="matrix(1 0 -0 1 179.4172 547.1219)" font-size="16" font-family="TimesNewRomanPS" font-weight="bold"><tspan y="0" x="297.5156"> </tspan></text>
</g>
</g>
<g id="Layer-1" data-name="P">
<text xml:space="preserve" transform="matrix(1 0 -0 1 269.3021 665.5987)" font-size="14" font-family="TimesNewRomanPS" font-weight="bold"><tspan y="0" x="0 9.7888 17.589602 30.206402 38.721204 45.738004 54.602804">&#x0422;&#x0430;&#x0448;&#x043a;&#x0435;&#x043d;&#x0442;</tspan></text>
<text xml:space="preserve" transform="matrix(1 0 -0 1 269.3021 665.5987)" font-size="14" font-family="TimesNewRomanPS" font-weight="bold"><tspan y="0" x="62.277605 67.7404 75.5412 83.341999 91.14279">-2019</tspan></text>
<g id="Layer-2" data-name="Span">
<text xml:space="preserve" transform="matrix(1 0 -0 1 269.3021 665.5987)" font-size="14" font-family="TimesNewRomanPSMT"><tspan y="0" x="98.9457"> </tspan></text>
</g>
</g>
<g id="Layer-1" data-name="P">
<g id="Layer-2" data-name="Span">
</g>
<clipPath id="cp2">
<path transform="matrix(1,0,0,-1,0,842)" d="M 82.3 30.22227 L 555.25 30.22227 L 555.25 61.722269 L 82.3 61.722269 Z "/>
</clipPath>
<g clip-path="url(#cp2)">
<text xml:space="preserve" transform="matrix(1 0 -0 1 315.9874 790.85)" font-size="11" font-family="Calibri"><tspan y="0" x="5.575195"> </tspan></text>
</g>
<text xml:space="preserve" transform="matrix(1 0 -0 1 315.9874 790.85)" font-size="11" font-family="Calibri"><tspan y="0" x="0">1</tspan></text>
</g>
</g>
</g>
</svg>
