<?xml version="1.0" encoding="UTF-8" standalone="no"?>
<!DOCTYPE svg PUBLIC "-//W3C//DTD SVG 1.1//EN" "http://www.w3.org/Graphics/SVG/1.1/DTD/svg11.dtd">
<svg xmlns="http://www.w3.org/2000/svg" xmlns:xlink="http://www.w3.org/1999/xlink" version="1.1" width="595pt" height="842pt" viewBox="0 0 595 842">
<g enable-background="new">
<clipPath id="cp1252">
<path transform="matrix(1,0,0,-1,0,842)" d="M 0 0 L 595 0 L 595 842 L 0 842 Z "/>
</clipPath>
<g clip-path="url(#cp1252)">
<path transform="matrix(1,0,0,-1,0,842)" d="M 0 842 L 595 842 L 595 0 L 0 0 Z " fill="#ffffff"/>
</g>
<clipPath id="cp1253">
<path transform="matrix(1,0,0,-1,0,842)" d="M 79.91262 58.97227 L 557.6374 58.97227 L 557.6374 790.4374 L 79.91262 790.4374 Z "/>
</clipPath>
<g clip-path="url(#cp1253)">
<path transform="matrix(1,0,0,-1,0,842)" d="M 85.05 785.3 L 397.8557 785.3 L 397.8557 749.6271 L 85.05 749.6271 Z " fill="#ffffff"/>
<path transform="matrix(1,0,0,-1,0,842)" d="M 465.8187 785.3 L 469.3187 785.3 L 469.3187 749.6271 L 465.8187 749.6271 Z " fill="#ffffff"/>
<path transform="matrix(1,0,0,-1,0,842)" d="M 85.05 749.6271 L 552.5 749.6271 L 552.5 725.9244 L 85.05 725.9244 Z " fill="#ffffff"/>
<path transform="matrix(1,0,0,-1,0,842)" d="M 85.05 725.9244 L 136.4016 725.9244 L 136.4016 702.2218 L 85.05 702.2218 Z " fill="#ffffff"/>
<path transform="matrix(1,0,0,-1,0,842)" d="M 100.05 702.2218 L 250.6529 702.2218 L 250.6529 676.3165 L 100.05 676.3165 Z " fill="#ffffff"/>
<path transform="matrix(1,0,0,-1,0,842)" d="M 258.1623 702.2218 L 552.5 702.2218 L 552.5 676.3165 L 258.1623 676.3165 Z " fill="#ffffff"/>
<path transform="matrix(1,0,0,-1,0,842)" d="M 85.05 676.3165 L 552.5 676.3165 L 552.5 652.6138 L 85.05 652.6138 Z " fill="#ffffff"/>
<path transform="matrix(1,0,0,-1,0,842)" d="M 85.05 652.6138 L 307.4436 652.6138 L 307.4436 628.9112 L 85.05 628.9112 Z " fill="#ffffff"/>
<path transform="matrix(1,0,0,-1,0,842)" d="M 100.05 628.9112 L 398.0893 628.9112 L 398.0893 603.0059 L 100.05 603.0059 Z " fill="#ffffff"/>
<path transform="matrix(1,0,0,-1,0,842)" d="M 405.5987 628.9112 L 552.5 628.9112 L 552.5 603.0059 L 405.5987 603.0059 Z " fill="#ffffff"/>
<path transform="matrix(1,0,0,-1,0,842)" d="M 85.05 603.0059 L 526.2543 603.0059 L 526.2543 579.3032 L 85.05 579.3032 Z " fill="#ffffff"/>
<g id="Layer-1" data-name="P">
<text xml:space="preserve" transform="matrix(1 0 -0 1 85.05 73.429508)" font-size="14" font-family="TimesNewRomanPSMT"><tspan y="0" x="0 6.0914 13.0914 20.0914 27.0914 33.3046 39.9224 46.0404 53.533205 60.348405 67.348407 77.80781 88.58781 96.080608">&#x043a;&#x043e;&#x0440;&#x0440;&#x0435;&#x043a;&#x0442;&#x0438;&#x0440;&#x0443;&#x044e;&#x0449;&#x0438;&#x043c;</tspan></text>
<text xml:space="preserve" transform="matrix(1 0 -0 1 85.05 73.429508)" font-size="14" font-family="TimesNewRomanPSMT"><tspan y="0" x="104.939807"> </tspan></text>
<text xml:space="preserve" transform="matrix(1 0 -0 1 85.05 73.429508)" font-size="14" font-family="TimesNewRomanPSMT"><tspan y="0" x="108.439807 114.531208 121.702 127.628208 136.61762 145.68822 153.18103 160.67385 168.16666 174.37985 181.87267 187.80587 194.53986">&#x043a;&#x043e;&#x044d;&#x0444;&#x0444;&#x0438;&#x0446;&#x0438;&#x0435;&#x043d;&#x0442;&#x043e;&#x043c;</tspan></text>
<text xml:space="preserve" transform="matrix(1 0 -0 1 85.05 73.429508)" font-size="14" font-family="TimesNewRomanPSMT"><tspan y="0" x="203.39905 206.89905 213.89905 217.39905 224.39905 231.39905 238.39905 242.28824 249.28824 252.78824"> 0,075/4, </tspan></text>
<text xml:space="preserve" transform="matrix(1 0 -0 1 85.05 73.429508)" font-size="14" font-family="TimesNewRomanPSMT"><tspan y="0" x="256.28825 263.78105 270.78105">&#x043f;&#x0440;&#x0438;</tspan></text>
<text xml:space="preserve" transform="matrix(1 0 -0 1 85.05 73.429508)" font-size="14" font-family="TimesNewRomanPSMT"><tspan y="0" x="278.27384"> </tspan></text>
<text xml:space="preserve" transform="matrix(1 0 -0 1 85.05 73.429508)" font-size="14" font-family="TimesNewRomanPSMT"><tspan y="0" x="281.77384 287.78266 293.71586 300.44987">&#x044d;&#x0442;&#x043e;&#x043c;</tspan></text>
<text xml:space="preserve" transform="matrix(1 0 -0 1 85.05 73.429508)" font-size="14" font-family="TimesNewRomanPSMT"><tspan y="0" x="309.30906"> </tspan></text>
<text xml:space="preserve" transform="matrix(1 0 -0 1 85.05 73.429508)" font-size="14" font-family="TimesNewRomanPSMT"><tspan y="0" x="380.7687">.</tspan></text>
<g id="Layer-2" data-name="Span">
<text xml:space="preserve" transform="matrix(1 0 -0 1 85.05 73.429508)" font-size="14" font-family="TimesNewRomanPSMT"><tspan y="0" x="384.2687"> </tspan></text>
</g>
</g>
<g id="Layer-1" data-name="P">
<text xml:space="preserve" transform="matrix(1 0 -0 1 85.05 104.74988)" font-size="14" font-family="TimesNewRomanPSMT"><tspan y="0" x="0 7.788201 14.004202 19.940203 26.983603 33.199605">&#x0420;&#x0430;&#x0441;&#x0447;&#x0435;&#x0442;</tspan></text>
<text xml:space="preserve" transform="matrix(1 0 -0 1 85.05 104.74988)" font-size="14" font-family="TimesNewRomanPSMT"><tspan y="0" x="39.317605"> </tspan></text>
<text xml:space="preserve" transform="matrix(1 0 -0 1 85.05 104.74988)" font-size="14" font-family="TimesNewRomanPSMT"><tspan y="0" x="49.819005 56.110605 63.113405 69.32941 76.82361 83.94961 90.95241 97.469409 104.472209">&#x0442;&#x0440;&#x0435;&#x043d;&#x0434;&#x043e;&#x0432;&#x043e;&#x0439;</tspan></text>
<text xml:space="preserve" transform="matrix(1 0 -0 1 85.05 104.74988)" font-size="14" font-family="TimesNewRomanPSMT"><tspan y="0" x="111.965007"> </tspan></text>
<text xml:space="preserve" transform="matrix(1 0 -0 1 85.05 104.74988)" font-size="14" font-family="TimesNewRomanPSMT"><tspan y="0" x="122.4664 128.5592 135.2946 144.1566 151.6508 158.65361 166.14781 172.36382 179.85802 185.97882">&#x043a;&#x043e;&#x043c;&#x043f;&#x043e;&#x043d;&#x0435;&#x043d;&#x0442;&#x044b;</tspan></text>
<text xml:space="preserve" transform="matrix(1 0 -0 1 85.05 104.74988)" font-size="14" font-family="TimesNewRomanPSMT"><tspan y="0" x="195.38542"> </tspan></text>
<text xml:space="preserve" transform="matrix(1 0 -0 1 85.05 104.74988)" font-size="14" font-family="TimesNewRomanPSMT"><tspan y="0" x="205.88683">&#x0438;</tspan></text>
<text xml:space="preserve" transform="matrix(1 0 -0 1 85.05 104.74988)" font-size="14" font-family="TimesNewRomanPSMT"><tspan y="0" x="213.37964"> </tspan></text>
<text xml:space="preserve" transform="matrix(1 0 -0 1 85.05 104.74988)" font-size="14" font-family="TimesNewRomanPSMT"><tspan y="0" x="223.88105 230.88385 241.66666 249.16086 256.28688 263.28968">&#x043e;&#x0448;&#x0438;&#x0431;&#x043e;&#x043a;</tspan></text>
<text xml:space="preserve" transform="matrix(1 0 -0 1 85.05 104.74988)" font-size="14" font-family="TimesNewRomanPSMT"><tspan y="0" x="270.09086"> </tspan></text>
<text xml:space="preserve" transform="matrix(1 0 -0 1 85.05 104.74988)" font-size="14" font-family="TimesNewRomanPSMT"><tspan y="0" x="280.59226 287.20448 296.61387 304.10807 310.92607 317.91487 325.40907 331.62507 339.11927">&#x0432;&#x044b;&#x043f;&#x043e;&#x043b;&#x043d;&#x0435;&#x043d;&#x043e;</tspan></text>
<text xml:space="preserve" transform="matrix(1 0 -0 1 85.05 104.74988)" font-size="14" font-family="TimesNewRomanPSMT"><tspan y="0" x="346.11927"> </tspan></text>
<text xml:space="preserve" transform="matrix(1 0 -0 1 85.05 104.74988)" font-size="14" font-family="TimesNewRomanPSMT"><tspan y="0" x="356.62068">&#x0432;</tspan></text>
<text xml:space="preserve" transform="matrix(1 0 -0 1 85.05 104.74988)" font-size="14" font-family="TimesNewRomanPSMT"><tspan y="0" x="363.23149"> </tspan></text>
<text xml:space="preserve" transform="matrix(1 0 -0 1 85.05 104.74988)" font-size="14" font-family="TimesNewRomanPSMT"><tspan y="0" x="373.73289 380.3451 389.7545 400.5373 406.4047 413.4075 420.0001 426.2161 431.7489 437.9649 445.4591 452.9533 459.95613">&#x0432;&#x044b;&#x0448;&#x0435;&#x0443;&#x043a;&#x0430;&#x0437;&#x0430;&#x043d;&#x043d;&#x043e;&#x0439;</tspan></text>
<text xml:space="preserve" transform="matrix(1 0 -0 1 85.05 104.74988)" font-size="14" font-family="TimesNewRomanPSMT"><tspan y="0" x="467.4489"> </tspan></text>
<text xml:space="preserve" transform="matrix(1 0 -0 1 85.05 128.45252)" font-size="14" font-family="TimesNewRomanPSMT"><tspan y="0" x="0 6.2888004 12.502001 19.2766 26.2626 33.7554 41.248205">&#x0442;&#x0430;&#x0431;&#x043b;&#x0438;&#x0446;&#x0435;</tspan></text>
<text xml:space="preserve" transform="matrix(1 0 -0 1 85.05 128.45252)" font-size="14" font-family="TimesNewRomanPSMT"><tspan y="0" x="47.461404">:</tspan></text>
<g id="Layer-2" data-name="Span">
<text xml:space="preserve" transform="matrix(1 0 -0 1 85.05 128.45252)" font-size="14" font-family="TimesNewRomanPSMT"><tspan y="0" x="51.35156"> </tspan></text>
</g>
</g>
<g id="Layer-1" data-name="P">
<text xml:space="preserve" transform="matrix(1 0 -0 1 100.05 152.95001)" font-size="14" font-family="TimesNewRomanPSMT"><tspan y="0" x="0">&#x0412;</tspan></text>
<text xml:space="preserve" transform="matrix(1 0 -0 1 100.05 152.95001)" font-size="14" font-family="TimesNewRomanPSMT"><tspan y="0" x="9.338001"> </tspan></text>
<text xml:space="preserve" transform="matrix(1 0 -0 1 100.05 152.95001)" font-size="14" font-family="TimesNewRomanPSMT"><tspan y="0" x="17.208802 23.422 29.355202 36.170404 43.156404 50.279603 57.772405">&#x0441;&#x0442;&#x043e;&#x043b;&#x0431;&#x0446;&#x0435;</tspan></text>
<text xml:space="preserve" transform="matrix(1 0 -0 1 100.05 152.95001)" font-size="14" font-family="TimesNewRomanPSMT"><tspan y="0" x="63.985605"> </tspan></text>
<text xml:space="preserve" transform="matrix(1 0 -0 1 100.05 152.95001)" font-size="14" font-family="TimesNewRomanPS" font-style="italic"><tspan y="0" x="71.85732 82.15152 93.22972">&#x00ab;V-</tspan></text>
<text xml:space="preserve" transform="matrix(1 0 -0 1 100.05 152.95001)" font-size="14" font-family="TimesNewRomanPS" font-style="italic"><tspan y="0" x="101.1811 109.0519 116.0519 125.4991"> S= </tspan></text>
<text xml:space="preserve" transform="matrix(1 0 -0 1 100.05 152.95001)" font-size="14" font-family="TimesNewRomanPS" font-style="italic"><tspan y="0" x="133.3699">&#x0422;</tspan></text>
<text xml:space="preserve" transform="matrix(1 0 -0 1 100.05 152.95001)" font-size="14" font-family="TimesNewRomanPS" font-style="italic"><tspan y="0" x="141.15671">+</tspan></text>
<text xml:space="preserve" transform="matrix(1 0 -0 1 100.05 152.95001)" font-size="14" font-family="TimesNewRomanPS" font-style="italic"><tspan y="0" x="158.1123">&#x00bb;</tspan></text>
<text xml:space="preserve" transform="matrix(1 0 -0 1 100.05 152.95001)" font-size="14" font-family="TimesNewRomanPSMT"><tspan y="0" x="165.1123"> </tspan></text>
<text xml:space="preserve" transform="matrix(1 0 -0 1 100.05 152.95001)" font-size="14" font-family="TimesNewRomanPSMT"><tspan y="0" x="172.98311 180.47592 186.68912 193.49031 200.47632 210.40233 217.44293 223.65613 229.86933 236.15813 242.37133">&#x0438;&#x0441;&#x043a;&#x043b;&#x044e;&#x0447;&#x0430;&#x0435;&#x0442;&#x0441;&#x044f;</tspan></text>
<text xml:space="preserve" transform="matrix(1 0 -0 1 100.05 152.95001)" font-size="14" font-family="TimesNewRomanPSMT"><tspan y="0" x="248.81133"> </tspan></text>
<text xml:space="preserve" transform="matrix(1 0 -0 1 100.05 152.95001)" font-size="14" font-family="TimesNewRomanPSMT"><tspan y="0" x="256.68214 263.10813 270.09413 277.5869 284.02693 291.5197 299.0125">&#x0432;&#x043b;&#x0438;&#x044f;&#x043d;&#x0438;&#x0435;</tspan></text>
<text xml:space="preserve" transform="matrix(1 0 -0 1 100.05 152.95001)" font-size="14" font-family="TimesNewRomanPSMT"><tspan y="0" x="305.2257"> </tspan></text>
<text xml:space="preserve" transform="matrix(1 0 -0 1 100.05 152.95001)" font-size="14" font-family="TimesNewRomanPSMT"><tspan y="0" x="313.0965 319.4819 325.8673 331.3161 338.3161 345.8089 353.3017 360.3017">&#x0441;&#x0435;&#x0437;&#x043e;&#x043d;&#x043d;&#x043e;&#x0439;</tspan></text>
<text xml:space="preserve" transform="matrix(1 0 -0 1 100.05 152.95001)" font-size="14" font-family="TimesNewRomanPSMT"><tspan y="0" x="367.7945"> </tspan></text>
<text xml:space="preserve" transform="matrix(1 0 -0 1 100.05 152.95001)" font-size="14" font-family="TimesNewRomanPSMT"><tspan y="0" x="375.66529 381.75669 388.4907 397.34989 404.84269 411.84269 419.33549 425.54869 433.04148 439.1595">&#x043a;&#x043e;&#x043c;&#x043f;&#x043e;&#x043d;&#x0435;&#x043d;&#x0442;&#x044b;</tspan></text>
<text xml:space="preserve" transform="matrix(1 0 -0 1 100.05 152.95001)" font-size="14" font-family="TimesNewRomanPSMT"><tspan y="0" x="448.56608 452.45527">: </tspan></text>
<text xml:space="preserve" transform="matrix(1 0 -0 1 85.05 178.06049)" font-size="14" font-family="TimesNewRomanPSMT"><tspan y="0" x="0 6.6108005 16.0174 23.058 30.5508 36.8396 43.0528">&#x0432;&#x044b;&#x0447;&#x0438;&#x0442;&#x0430;&#x044f;</tspan></text>
<text xml:space="preserve" transform="matrix(1 0 -0 1 85.05 178.06049)" font-size="14" font-family="TimesNewRomanPSMT"><tspan y="0" x="49.492799"> </tspan></text>
<text xml:space="preserve" transform="matrix(1 0 -0 1 85.05 178.06049)" font-size="14" font-family="TimesNewRomanPSMT"><tspan y="0" x="56.945 63.1582">&#x0435;&#x0435;</tspan></text>
<text xml:space="preserve" transform="matrix(1 0 -0 1 85.05 178.06049)" font-size="14" font-family="TimesNewRomanPSMT"><tspan y="0" x="69.3714"> </tspan></text>
<text xml:space="preserve" transform="matrix(1 0 -0 1 85.05 178.06049)" font-size="14" font-family="TimesNewRomanPSMT"><tspan y="0" x="76.8236 82.3536 89.8464 95.4996 102.5402 108.7534 116.2462 123.739">&#x0437;&#x043d;&#x0430;&#x0447;&#x0435;&#x043d;&#x0438;&#x0435;</tspan></text>
<text xml:space="preserve" transform="matrix(1 0 -0 1 85.05 178.06049)" font-size="14" font-family="TimesNewRomanPSMT"><tspan y="0" x="129.9522"> </tspan></text>
<text xml:space="preserve" transform="matrix(1 0 -0 1 85.05 178.06049)" font-size="14" font-family="TimesNewRomanPSMT"><tspan y="0" x="137.40439 144.8972">&#x0438;&#x0437;</tspan></text>
<text xml:space="preserve" transform="matrix(1 0 -0 1 85.05 178.06049)" font-size="14" font-family="TimesNewRomanPSMT"><tspan y="0" x="150.4272"> </tspan></text>
<text xml:space="preserve" transform="matrix(1 0 -0 1 85.05 178.06049)" font-size="14" font-family="TimesNewRomanPSMT"><tspan y="0" x="157.8794 164.4692 170.68239 180.35498 187.47818 194.47818 199.87239">&#x043a;&#x0430;&#x0436;&#x0434;&#x043e;&#x0433;&#x043e;</tspan></text>
<text xml:space="preserve" transform="matrix(1 0 -0 1 85.05 178.06049)" font-size="14" font-family="TimesNewRomanPSMT"><tspan y="0" x="206.87239"> </tspan></text>
<text xml:space="preserve" transform="matrix(1 0 -0 1 85.05 178.06049)" font-size="14" font-family="TimesNewRomanPSMT"><tspan y="0" x="214.32459 221.32459 228.32459 235.32459 241.9354 249.4282">&#x0443;&#x0440;&#x043e;&#x0432;&#x043d;&#x044f;</tspan></text>
<text xml:space="preserve" transform="matrix(1 0 -0 1 85.05 178.06049)" font-size="14" font-family="TimesNewRomanPSMT"><tspan y="0" x="255.86821"> </tspan></text>
<text xml:space="preserve" transform="matrix(1 0 -0 1 85.05 178.06049)" font-size="14" font-family="TimesNewRomanPSMT"><tspan y="0" x="263.32044 270.81324 276.84306 283.30967 289.90647 297.02967 304.52247 311.52247 316.91667">&#x0438;&#x0441;&#x0445;&#x043e;&#x0434;&#x043d;&#x043e;&#x0433;&#x043e;</tspan></text>
<text xml:space="preserve" transform="matrix(1 0 -0 1 85.05 178.06049)" font-size="14" font-family="TimesNewRomanPSMT"><tspan y="0" x="323.91667"> </tspan></text>
<text xml:space="preserve" transform="matrix(1 0 -0 1 85.05 178.06049)" font-size="14" font-family="TimesNewRomanPSMT"><tspan y="0" x="331.36888 338.36888 344.80888 351.93208">&#x0440;&#x044f;&#x0434;&#x0430;</tspan></text>
<text xml:space="preserve" transform="matrix(1 0 -0 1 85.05 178.06049)" font-size="14" font-family="TimesNewRomanPSMT"><tspan y="0" x="358.14527 361.64527">, </tspan></text>
<text xml:space="preserve" transform="matrix(1 0 -0 1 85.05 178.06049)" font-size="14" font-family="TimesNewRomanPSMT"><tspan y="0" x="369.09748 376.59028 383.40547 390.39146 397.39146 404.43205 411.92485">&#x043f;&#x043e;&#x043b;&#x0443;&#x0447;&#x0438;&#x043c;</tspan></text>
<text xml:space="preserve" transform="matrix(1 0 -0 1 85.05 178.06049)" font-size="14" font-family="TimesNewRomanPSMT"><tspan y="0" x="420.78404"> </tspan></text>
<text xml:space="preserve" transform="matrix(1 0 -0 1 85.05 178.06049)" font-size="14" font-family="TimesNewRomanPSMT"><tspan y="0" x="428.23625 434.16944 440.98463 447.9706 454.35603 460.44743">&#x0442;&#x043e;&#x043b;&#x044c;&#x043a;&#x043e;</tspan></text>
<text xml:space="preserve" transform="matrix(1 0 -0 1 85.05 178.06049)" font-size="14" font-family="TimesNewRomanPSMT"><tspan y="0" x="467.44743"> </tspan></text>
<text xml:space="preserve" transform="matrix(1 0 -0 1 85.05 201.76313)" font-size="14" font-family="TimesNewRomanPSMT"><tspan y="0" x="0 6.118 12.331201 19.824002 26.9472 33.1604 40.653203 48.146005 55.638807">&#x0442;&#x0435;&#x043d;&#x0434;&#x0435;&#x043d;&#x0446;&#x0438;&#x044e;</tspan></text>
<text xml:space="preserve" transform="matrix(1 0 -0 1 85.05 201.76313)" font-size="14" font-family="TimesNewRomanPSMT"><tspan y="0" x="66.098209"> </tspan></text>
<text xml:space="preserve" transform="matrix(1 0 -0 1 85.05 201.76313)" font-size="14" font-family="TimesNewRomanPSMT"><tspan y="0" x="69.598209">&#x0438;</tspan></text>
<text xml:space="preserve" transform="matrix(1 0 -0 1 85.05 201.76313)" font-size="14" font-family="TimesNewRomanPSMT"><tspan y="0" x="77.091"> </tspan></text>
<text xml:space="preserve" transform="matrix(1 0 -0 1 85.05 201.76313)" font-size="14" font-family="TimesNewRomanPSMT"><tspan y="0" x="80.591 86.80421 93.79021 100.79021 107.8308 114.04401 121.536808 129.02962 136.02962">&#x0441;&#x043b;&#x0443;&#x0447;&#x0430;&#x0439;&#x043d;&#x0443;&#x044e;</tspan></text>
<text xml:space="preserve" transform="matrix(1 0 -0 1 85.05 201.76313)" font-size="14" font-family="TimesNewRomanPSMT"><tspan y="0" x="146.48902"> </tspan></text>
<text xml:space="preserve" transform="matrix(1 0 -0 1 85.05 201.76313)" font-size="14" font-family="TimesNewRomanPSMT"><tspan y="0" x="149.98902 156.08042 162.8144 171.6736 179.16641 186.16641 193.65923 199.87242 207.36524 213.29843">&#x043a;&#x043e;&#x043c;&#x043f;&#x043e;&#x043d;&#x0435;&#x043d;&#x0442;&#x0443;</tspan></text>
<text xml:space="preserve" transform="matrix(1 0 -0 1 85.05 201.76313)" font-size="14" font-family="TimesNewRomanPSMT"><tspan y="0" x="218.89704">.</tspan></text>
<g id="Layer-2" data-name="Span">
<text xml:space="preserve" transform="matrix(1 0 -0 1 85.05 201.76313)" font-size="14" font-family="TimesNewRomanPSMT"><tspan y="0" x="222.3936"> </tspan></text>
</g>
</g>
<g id="Layer-1" data-name="P">
<text xml:space="preserve" transform="matrix(1 0 -0 1 100.05 226.26062)" font-size="14" font-family="TimesNewRomanPSMT"><tspan y="0" x="0 10.110801 17.110802 24.110802 30.625002 37.2218 44.345">&#x041f;&#x0440;&#x043e;&#x0432;&#x043e;&#x0434;&#x044f;</tspan></text>
<text xml:space="preserve" transform="matrix(1 0 -0 1 100.05 226.26062)" font-size="14" font-family="TimesNewRomanPSMT"><tspan y="0" x="50.785"> </tspan></text>
<text xml:space="preserve" transform="matrix(1 0 -0 1 100.05 226.26062)" font-size="14" font-family="TimesNewRomanPSMT"><tspan y="0" x="54.9388 61.152 68.6448 74.9812 81.9672 89.46 95.578 103.0708 110.1114 116.6746 122.8878 128.9792 136.15001">&#x0430;&#x043d;&#x0430;&#x043b;&#x0438;&#x0442;&#x0438;&#x0447;&#x0435;&#x0441;&#x043a;&#x043e;&#x0435;</tspan></text>
<text xml:space="preserve" transform="matrix(1 0 -0 1 100.05 226.26062)" font-size="14" font-family="TimesNewRomanPSMT"><tspan y="0" x="142.3632"> </tspan></text>
<text xml:space="preserve" transform="matrix(1 0 -0 1 100.05 226.26062)" font-size="14" font-family="TimesNewRomanPSMT"><tspan y="0" x="146.517 153.1278 162.53441 169.53441 175.7476 182.35842 189.85123 197.34404 203.77004 209.98323 217.47605 224.96886">&#x0432;&#x044b;&#x0440;&#x0430;&#x0432;&#x043d;&#x0438;&#x0432;&#x0430;&#x043d;&#x0438;&#x0435;</tspan></text>
<text xml:space="preserve" transform="matrix(1 0 -0 1 100.05 226.26062)" font-size="14" font-family="TimesNewRomanPSMT"><tspan y="0" x="231.18206"> </tspan></text>
<text xml:space="preserve" transform="matrix(1 0 -0 1 100.05 226.26062)" font-size="14" font-family="TimesNewRomanPSMT"><tspan y="0" x="235.33585 242.33585 248.77585 255.89905">&#x0440;&#x044f;&#x0434;&#x0430;</tspan></text>
<text xml:space="preserve" transform="matrix(1 0 -0 1 100.05 226.26062)" font-size="14" font-family="TimesNewRomanPSMT"><tspan y="0" x="262.11225"> </tspan></text>
<text xml:space="preserve" transform="matrix(1 0 -0 1 100.05 226.26062)" font-size="14" font-family="TimesNewRomanPS" font-style="italic"><tspan y="0" x="266.2614">(</tspan></text>
<text xml:space="preserve" transform="matrix(1 0 -0 1 100.05 226.26062)" font-size="14" font-family="TimesNewRomanPS" font-style="italic"><tspan y="0" x="274.21763">&#x0422;</tspan></text>
<text xml:space="preserve" transform="matrix(1 0 -0 1 100.05 226.26062)" font-size="14" font-family="TimesNewRomanPS" font-style="italic"><tspan y="0" x="285.29585">+</tspan></text>
<text xml:space="preserve" transform="matrix(1 0 -0 1 100.05 226.26062)" font-size="14" font-family="TimesNewRomanPS" font-style="italic"><tspan y="0" x="305.5487">)</tspan></text>
<text xml:space="preserve" transform="matrix(1 0 -0 1 100.05 226.26062)" font-size="14" font-family="TimesNewRomanPSMT"><tspan y="0" x="313.5049"> </tspan></text>
<text xml:space="preserve" transform="matrix(1 0 -0 1 100.05 226.26062)" font-size="14" font-family="TimesNewRomanPSMT"><tspan y="0" x="317.65873">&#x0441;</tspan></text>
<text xml:space="preserve" transform="matrix(1 0 -0 1 100.05 226.26062)" font-size="14" font-family="TimesNewRomanPSMT"><tspan y="0" x="323.87193"> </tspan></text>
<text xml:space="preserve" transform="matrix(1 0 -0 1 100.05 226.26062)" font-size="14" font-family="TimesNewRomanPSMT"><tspan y="0" x="328.02574 335.51853 342.25254 351.11174 358.11174 368.89173 375.27714">&#x043f;&#x043e;&#x043c;&#x043e;&#x0449;&#x044c;&#x044e;</tspan></text>
<text xml:space="preserve" transform="matrix(1 0 -0 1 100.05 226.26062)" font-size="14" font-family="TimesNewRomanPSMT"><tspan y="0" x="385.73655"> </tspan></text>
<text xml:space="preserve" transform="matrix(1 0 -0 1 100.05 226.26062)" font-size="14" font-family="TimesNewRomanPSMT"><tspan y="0" x="389.89036 396.87635 404.36915 411.86195 418.07514 425.56794 433.06074 440.06074 445.45494">&#x043b;&#x0438;&#x043d;&#x0435;&#x0439;&#x043d;&#x043e;&#x0433;&#x043e;</tspan></text>
<text xml:space="preserve" transform="matrix(1 0 -0 1 100.05 226.26062)" font-size="14" font-family="TimesNewRomanPSMT"><tspan y="0" x="452.45494"> </tspan></text>
<text xml:space="preserve" transform="matrix(1 0 -0 1 85.05 251.3711)" font-size="14" font-family="TimesNewRomanPSMT"><tspan y="0" x="0 6.2888004 13.2888 19.502 26.9948 34.118">&#x0442;&#x0440;&#x0435;&#x043d;&#x0434;&#x0430;</tspan></text>
<text xml:space="preserve" transform="matrix(1 0 -0 1 85.05 251.3711)" font-size="14" font-family="TimesNewRomanPSMT"><tspan y="0" x="40.3312 43.8312">, </tspan></text>
<text xml:space="preserve" transform="matrix(1 0 -0 1 85.05 251.3711)" font-size="14" font-family="TimesNewRomanPSMT"><tspan y="0" x="47.3312 54.824 61.639204 68.6252 75.6252 82.665798 90.15859">&#x043f;&#x043e;&#x043b;&#x0443;&#x0447;&#x0438;&#x043c;</tspan></text>
<text xml:space="preserve" transform="matrix(1 0 -0 1 85.05 251.3711)" font-size="14" font-family="TimesNewRomanPSMT"><tspan y="0" x="99.01779"> </tspan></text>
<text xml:space="preserve" transform="matrix(1 0 -0 1 85.05 251.3711)" font-size="14" font-family="TimesNewRomanPSMT"><tspan y="0" x="102.51779 108.730998 115.716999 121.746799 128.87 135.87 146.3294 157.1094 163.3226">&#x0441;&#x043b;&#x0435;&#x0434;&#x0443;&#x044e;&#x0449;&#x0435;&#x0435;</tspan></text>
<text xml:space="preserve" transform="matrix(1 0 -0 1 85.05 251.3711)" font-size="14" font-family="TimesNewRomanPSMT"><tspan y="0" x="169.5358"> </tspan></text>
<text xml:space="preserve" transform="matrix(1 0 -0 1 85.05 251.3711)" font-size="14" font-family="TimesNewRomanPSMT"><tspan y="0" x="173.0358 180.0358 187.0358 193.249 199.8598 207.35262 213.56581 221.05863 228.55144">&#x0443;&#x0440;&#x0430;&#x0432;&#x043d;&#x0435;&#x043d;&#x0438;&#x0435;</tspan></text>
<text xml:space="preserve" transform="matrix(1 0 -0 1 85.05 251.3711)" font-size="14" font-family="TimesNewRomanPSMT"><tspan y="0" x="234.76464"> </tspan></text>
<text xml:space="preserve" transform="matrix(1 0 -0 1 85.05 251.3711)" font-size="14" font-family="TimesNewRomanPSMT"><tspan y="0" x="238.26464 245.25064 252.74346 260.23628 267.72908">&#x043b;&#x0438;&#x043d;&#x0438;&#x0438;</tspan></text>
<text xml:space="preserve" transform="matrix(1 0 -0 1 85.05 251.3711)" font-size="14" font-family="TimesNewRomanPSMT"><tspan y="0" x="275.22187"> </tspan></text>
<text xml:space="preserve" transform="matrix(1 0 -0 1 85.05 251.3711)" font-size="14" font-family="TimesNewRomanPSMT"><tspan y="0" x="278.72187 285.01069 292.01069 298.22389 305.71669 312.83988">&#x0442;&#x0440;&#x0435;&#x043d;&#x0434;&#x0430;</tspan></text>
<text xml:space="preserve" transform="matrix(1 0 -0 1 85.05 251.3711)" font-size="14" font-family="TimesNewRomanPSMT"><tspan y="0" x="319.05308 322.94227 326.44227">:  </tspan></text>
<text xml:space="preserve" transform="matrix(1 0 -0 1 85.05 251.3711)" font-size="14" font-family="TimesNewRomanPS" font-style="italic"><tspan y="0" x="329.9434">&#x0422;</tspan></text>
<text xml:space="preserve" transform="matrix(1 0 -0 1 85.05 251.3711)" font-size="14" font-family="TimesNewRomanPSMT"><tspan y="0" x="341.0236 344.5236 352.4196 355.9196 362.9196 366.4196 373.4196 380.4196 387.4196 390.9196 398.81559 402.31559 409.31559 412.81559 419.81559 426.81559 433.81559 437.70478"> = 5,706 + 0,187t.</tspan></text>
<g id="Layer-2" data-name="Span">
<text xml:space="preserve" transform="matrix(1 0 -0 1 85.05 251.3711)" font-size="14" font-family="TimesNewRomanPSMT"><tspan y="0" x="441.2043"> </tspan></text>
</g>
</g>
<g id="Layer-1" data-name="P">
</g>
<clipPath id="cp1254">
<path transform="matrix(1,0,0,-1,0,842)" d="M 401.2958 760.4966 L 465.40818 760.4966 L 465.40818 785.3 L 401.2958 785.3 Z "/>
</clipPath>
<g clip-path="url(#cp1254)">
<text xml:space="preserve" transform="matrix(1 0 -0 1 397.8557 107.983219)" font-size="17.10582" font-family="STIXSizeOneSym"><tspan y="-25.64162" x="1.900646">&#x2211;</tspan></text>
<text xml:space="preserve" transform="matrix(1 0 -0 1 397.8557 90.159)" font-size="17.10582" font-family="STIXGeneral" font-style="italic"><tspan y="-16.72949" x="26.85233">S</tspan></text>
<text xml:space="preserve" transform="matrix(1 0 -0 1 397.8557 98.711917)" font-size="12.14513" font-family="STIXGeneral" font-style="italic"><tspan y="-21.00594" x="34.80422">i</tspan></text>
<text xml:space="preserve" transform="matrix(1 0 -0 1 397.8557 90.159)" font-size="17.10582" font-family="STIXGeneral"><tspan y="-16.72949" x="42.94107">=</tspan></text>
<text xml:space="preserve" transform="matrix(1 0 -0 1 397.8557 90.159)" font-size="17.10582" font-family="STIXGeneral"><tspan y="-16.72949" x="59.41017">0</tspan></text>
</g>
<g id="Layer-1" data-name="P">
</g>
<clipPath id="cp1255">
<path transform="matrix(1,0,0,-1,0,842)" d="M 251.0805 688.8789 L 257.61494 688.8789 L 257.61494 696.91867 L 251.0805 696.91867 Z "/>
</clipPath>
<g clip-path="url(#cp1255)">
<text xml:space="preserve" transform="matrix(1 0 -0 1 250.6529 166.12183)" font-size="17.10582" font-family="STIXGeneral"><tspan y="-13.17181" x="0">&#x03b5;</tspan></text>
</g>
<g id="Layer-1" data-name="P">
</g>
<clipPath id="cp1256">
<path transform="matrix(1,0,0,-1,0,842)" d="M 396.8698 615.5683 L 403.40425 615.5683 L 403.40425 623.60806 L 396.8698 623.60806 Z "/>
</clipPath>
<g clip-path="url(#cp1256)">
<text xml:space="preserve" transform="matrix(1 0 -0 1 396.4422 239.43238)" font-size="17.10582" font-family="STIXGeneral"><tspan y="-13.17181" x="0">&#x03b5;</tspan></text>
</g>
<g id="Layer-1" data-name="P">
<g id="Layer-2" data-name="Span">
</g>
<clipPath id="cp1257">
<path transform="matrix(1,0,0,-1,0,842)" d="M 82.3 30.22227 L 555.25 30.22227 L 555.25 61.722269 L 82.3 61.722269 Z "/>
</clipPath>
<g clip-path="url(#cp1257)">
<text xml:space="preserve" transform="matrix(1 0 -0 1 313.1998 790.85)" font-size="11" font-family="Calibri"><tspan y="0" x="11.15039"> </tspan></text>
</g>
<text xml:space="preserve" transform="matrix(1 0 -0 1 313.1998 790.85)" font-size="11" font-family="Calibri"><tspan y="0" x="0 5.5748007">36</tspan></text>
</g>
</g>
</g>
</svg>
