<?xml version="1.0" encoding="UTF-8" standalone="no"?>
<!DOCTYPE svg PUBLIC "-//W3C//DTD SVG 1.1//EN" "http://www.w3.org/Graphics/SVG/1.1/DTD/svg11.dtd">
<svg xmlns="http://www.w3.org/2000/svg" xmlns:xlink="http://www.w3.org/1999/xlink" version="1.1" width="595pt" height="842pt" viewBox="0 0 595 842">
<g enable-background="new">
<clipPath id="cp1741">
<path transform="matrix(1,0,0,-1,0,842)" d="M 0 0 L 595 0 L 595 842 L 0 842 Z "/>
</clipPath>
<g clip-path="url(#cp1741)">
<path transform="matrix(1,0,0,-1,0,842)" d="M 0 842 L 595 842 L 595 0 L 0 0 Z " fill="#ffffff"/>
<g id="Layer-1" data-name="P">
<g id="Layer-2" data-name="P">
<g id="Layer-3" data-name="P">
</g>
<clipPath id="cp1742">
<path transform="matrix(1,0,0,-1,0,842)" d="M 81.17403 58.97227 L 556.37606 58.97227 L 556.37606 789.17599 L 81.17403 789.17599 Z "/>
</clipPath>
<g clip-path="url(#cp1742)">
<text xml:space="preserve" transform="matrix(1 0 -0 1 103.05 67.218997)" font-size="14" font-family="Symbol"><tspan y="0" x="0">&#x2022;</tspan></text>
</g>
<g id="Layer-3" data-name="P">
<text xml:space="preserve" transform="matrix(1 0 -0 1 121.05 69.07703)" font-size="14" font-family="TimesNewRomanPSMT"><tspan y="0" x="0 6.5632007 12.7764019 19.762402">&#x0435;&#x0441;&#x043b;&#x0438;</tspan></text>
<text xml:space="preserve" transform="matrix(1 0 -0 1 121.05 69.07703)" font-size="14" font-family="TimesNewRomanPSMT"><tspan y="0" x="27.255202"> </tspan></text>
<text xml:space="preserve" transform="matrix(1 0 -0 1 121.05 69.07703)" font-size="14" font-family="TimesNewRomanPSMT"><tspan y="0" x="30.755202 36.968404 43.230607 49.163808 56.163808 62.255208 69.2552 76.2552 83.2552 89.46841 96.45441 102.89441 110.38721 117.880008">&#x0430;&#x0432;&#x0442;&#x043e;&#x043a;&#x043e;&#x0440;&#x0440;&#x0435;&#x043b;&#x044f;&#x0446;&#x0438;&#x0438;</tspan></text>
<text xml:space="preserve" transform="matrix(1 0 -0 1 121.05 69.07703)" font-size="14" font-family="TimesNewRomanPSMT"><tspan y="0" x="125.3728 128.8728">  </tspan></text>
<text xml:space="preserve" transform="matrix(1 0 -0 1 121.05 69.07703)" font-size="14" font-family="TimesNewRomanPSMT"><tspan y="0" x="132.3728 139.86562 146.07881">&#x043d;&#x0435;&#x0442;</tspan></text>
<text xml:space="preserve" transform="matrix(1 0 -0 1 121.05 69.07703)" font-size="14" font-family="TimesNewRomanPSMT"><tspan y="0" x="151.14402 154.64402">, </tspan></text>
<text xml:space="preserve" transform="matrix(1 0 -0 1 121.05 69.07703)" font-size="14" font-family="TimesNewRomanPSMT"><tspan y="0" x="158.14402 164.07721">&#x0442;&#x043e;</tspan></text>
<text xml:space="preserve" transform="matrix(1 0 -0 1 121.05 69.07703)" font-size="14" font-family="TimesNewRomanPSMT"><tspan y="0" x="171.07721 174.57721 183.9152 191.8112"> R=0</tspan></text>
<g id="Layer-4" data-name="Span">
<text xml:space="preserve" transform="matrix(1 0 -0 1 121.05 69.07703)" font-size="14" font-family="TimesNewRomanPSMT"><tspan y="0" x="198.8096"> </tspan></text>
</g>
</g>
</g>
<g id="Layer-2" data-name="P">
<g id="Layer-3" data-name="P">
<text xml:space="preserve" transform="matrix(1 0 -0 1 103.05 90.92169)" font-size="14" font-family="Symbol"><tspan y="0" x="0">&#x2022;</tspan></text>
</g>
<g id="Layer-3" data-name="P">
<text xml:space="preserve" transform="matrix(1 0 -0 1 121.05 92.7796)" font-size="14" font-family="TimesNewRomanPSMT"><tspan y="0" x="0 6.5632007 12.7764019 19.762402">&#x0435;&#x0441;&#x043b;&#x0438;</tspan></text>
<text xml:space="preserve" transform="matrix(1 0 -0 1 121.05 92.7796)" font-size="14" font-family="TimesNewRomanPSMT"><tspan y="0" x="27.255202"> </tspan></text>
<text xml:space="preserve" transform="matrix(1 0 -0 1 121.05 92.7796)" font-size="14" font-family="TimesNewRomanPSMT"><tspan y="0" x="30.755202 36.968404 43.230607 49.163808 56.163808 62.255208 69.2552 76.2552 83.2552 89.46841 96.45441 102.89441 110.38721 117.880008">&#x0430;&#x0432;&#x0442;&#x043e;&#x043a;&#x043e;&#x0440;&#x0440;&#x0435;&#x043b;&#x044f;&#x0446;&#x0438;&#x044f;</tspan></text>
<text xml:space="preserve" transform="matrix(1 0 -0 1 121.05 92.7796)" font-size="14" font-family="TimesNewRomanPSMT"><tspan y="0" x="124.32001 127.82001">  </tspan></text>
<text xml:space="preserve" transform="matrix(1 0 -0 1 121.05 92.7796)" font-size="14" font-family="TimesNewRomanPSMT"><tspan y="0" x="131.32 138.81282 145.62802 152.61402 160.10683 166.32003">&#x043f;&#x043e;&#x043b;&#x043d;&#x0430;&#x044f;</tspan></text>
<text xml:space="preserve" transform="matrix(1 0 -0 1 121.05 92.7796)" font-size="14" font-family="TimesNewRomanPSMT"><tspan y="0" x="172.76003 176.26003">, </tspan></text>
<text xml:space="preserve" transform="matrix(1 0 -0 1 121.05 92.7796)" font-size="14" font-family="TimesNewRomanPSMT"><tspan y="0" x="179.76003 185.69322">&#x0442;&#x043e;</tspan></text>
<text xml:space="preserve" transform="matrix(1 0 -0 1 121.05 92.7796)" font-size="14" font-family="TimesNewRomanPSMT"><tspan y="0" x="192.69322 196.19322 205.53122 213.42722 221.32321 225.98522"> R=+-1</tspan></text>
<g id="Layer-4" data-name="Span">
<text xml:space="preserve" transform="matrix(1 0 -0 1 121.05 92.7796)" font-size="14" font-family="TimesNewRomanPSMT"><tspan y="0" x="232.9824"> </tspan></text>
</g>
</g>
</g>
</g>
<g id="Layer-1" data-name="P">
<text xml:space="preserve" transform="matrix(1 0 -0 1 85.05 116.48218)" font-size="14" font-family="TimesNewRomanPSMT"><tspan y="0" x="0 9.338001 16.338002 23.830801 29.948801 36.162004 43.162004 50.654806">&#x041a;&#x0440;&#x0438;&#x0442;&#x0435;&#x0440;&#x0438;&#x0439;</tspan></text>
<text xml:space="preserve" transform="matrix(1 0 -0 1 85.05 116.48218)" font-size="14" font-family="TimesNewRomanPSMT"><tspan y="0" x="58.147607"> </tspan></text>
<text xml:space="preserve" transform="matrix(1 0 -0 1 85.05 116.48218)" font-size="14" font-family="TimesNewRomanPSMT"><tspan y="0" x="61.647607 71.19701 77.41021 84.41021 91.53341 99.02621 106.519008">&#x0414;&#x0430;&#x0440;&#x0431;&#x0438;&#x043d;&#x0430;</tspan></text>
<text xml:space="preserve" transform="matrix(1 0 -0 1 85.05 116.48218)" font-size="14" font-family="TimesNewRomanPSMT"><tspan y="0" x="112.73221">-</tspan></text>
<text xml:space="preserve" transform="matrix(1 0 -0 1 85.05 116.48218)" font-size="14" font-family="TimesNewRomanPSMT"><tspan y="0" x="117.39421 125.72701 132.54222 138.83103 145.04422 152.04422 159.53704">&#x0423;&#x043e;&#x0442;&#x0441;&#x043e;&#x043d;&#x0430;</tspan></text>
<text xml:space="preserve" transform="matrix(1 0 -0 1 85.05 116.48218)" font-size="14" font-family="TimesNewRomanPSMT"><tspan y="0" x="165.75023"> </tspan></text>
<text xml:space="preserve" transform="matrix(1 0 -0 1 85.05 116.48218)" font-size="14" font-family="TimesNewRomanPSMT"><tspan y="0" x="169.25023 176.74304 183.74304 190.33284 196.54604 202.07604 211.48264 217.90863 224.12183 230.33502">&#x043f;&#x043e;&#x043a;&#x0430;&#x0437;&#x044b;&#x0432;&#x0430;&#x0435;&#x0442;</tspan></text>
<text xml:space="preserve" transform="matrix(1 0 -0 1 85.05 116.48218)" font-size="14" font-family="TimesNewRomanPSMT"><tspan y="0" x="236.45302"> </tspan></text>
<text xml:space="preserve" transform="matrix(1 0 -0 1 85.05 116.48218)" font-size="14" font-family="TimesNewRomanPSMT"><tspan y="0" x="239.95302 245.88622 252.88622 257.93183 265.05503">&#x0442;&#x043e;&#x0433;&#x0434;&#x0430;</tspan></text>
<text xml:space="preserve" transform="matrix(1 0 -0 1 85.05 116.48218)" font-size="14" font-family="TimesNewRomanPSMT"><tspan y="0" x="271.26823">:</tspan></text>
<g id="Layer-2" data-name="Span">
<text xml:space="preserve" transform="matrix(1 0 -0 1 85.05 116.48218)" font-size="14" font-family="TimesNewRomanPSMT"><tspan y="0" x="275.1602"> </tspan></text>
</g>
</g>
<g id="Layer-1" data-name="P">
<g id="Layer-2" data-name="P">
<g id="Layer-3" data-name="P">
<text xml:space="preserve" transform="matrix(1 0 -0 1 103.05 138.32703)" font-size="14" font-family="Symbol"><tspan y="0" x="0">&#x2022;</tspan></text>
</g>
<g id="Layer-3" data-name="P">
<text xml:space="preserve" transform="matrix(1 0 -0 1 121.05 140.18488)" font-size="14" font-family="TimesNewRomanPSMT"><tspan y="0" x="0 6.5632007 12.7764019 19.762402">&#x0435;&#x0441;&#x043b;&#x0438;</tspan></text>
<text xml:space="preserve" transform="matrix(1 0 -0 1 121.05 140.18488)" font-size="14" font-family="TimesNewRomanPSMT"><tspan y="0" x="27.255202"> </tspan></text>
<text xml:space="preserve" transform="matrix(1 0 -0 1 121.05 140.18488)" font-size="14" font-family="TimesNewRomanPSMT"><tspan y="0" x="30.755202 36.968404 43.230607 49.163808 56.163808 62.255208 69.2552 76.2552 83.2552 89.46841 96.45441 102.89441 110.38721 117.880008">&#x0430;&#x0432;&#x0442;&#x043e;&#x043a;&#x043e;&#x0440;&#x0440;&#x0435;&#x043b;&#x044f;&#x0446;&#x0438;&#x0438;</tspan></text>
<text xml:space="preserve" transform="matrix(1 0 -0 1 121.05 140.18488)" font-size="14" font-family="TimesNewRomanPSMT"><tspan y="0" x="125.3728 128.8728">  </tspan></text>
<text xml:space="preserve" transform="matrix(1 0 -0 1 121.05 140.18488)" font-size="14" font-family="TimesNewRomanPSMT"><tspan y="0" x="132.3728 139.86562 146.07881">&#x043d;&#x0435;&#x0442;</tspan></text>
<text xml:space="preserve" transform="matrix(1 0 -0 1 121.05 140.18488)" font-size="14" font-family="TimesNewRomanPSMT"><tspan y="0" x="151.14402 154.64402">, </tspan></text>
<text xml:space="preserve" transform="matrix(1 0 -0 1 121.05 140.18488)" font-size="14" font-family="TimesNewRomanPSMT"><tspan y="0" x="158.14402 164.07721">&#x0442;&#x043e;</tspan></text>
<text xml:space="preserve" transform="matrix(1 0 -0 1 121.05 140.18488)" font-size="14" font-family="TimesNewRomanPSMT"><tspan y="0" x="171.07721 174.57721 181.57721 189.4732"> d=2</tspan></text>
<g id="Layer-4" data-name="Span">
<text xml:space="preserve" transform="matrix(1 0 -0 1 121.05 140.18488)" font-size="14" font-family="TimesNewRomanPSMT"><tspan y="0" x="196.4717"> </tspan></text>
</g>
</g>
</g>
<g id="Layer-2" data-name="P">
<g id="Layer-3" data-name="P">
<text xml:space="preserve" transform="matrix(1 0 -0 1 103.05 162.0296)" font-size="14" font-family="Symbol"><tspan y="0" x="0">&#x2022;</tspan></text>
</g>
<g id="Layer-3" data-name="P">
<text xml:space="preserve" transform="matrix(1 0 -0 1 121.05 163.88751)" font-size="14" font-family="TimesNewRomanPSMT"><tspan y="0" x="0 6.5632007 12.7764019 19.762402">&#x0435;&#x0441;&#x043b;&#x0438;</tspan></text>
<text xml:space="preserve" transform="matrix(1 0 -0 1 121.05 163.88751)" font-size="14" font-family="TimesNewRomanPSMT"><tspan y="0" x="27.255202"> </tspan></text>
<text xml:space="preserve" transform="matrix(1 0 -0 1 121.05 163.88751)" font-size="14" font-family="TimesNewRomanPSMT"><tspan y="0" x="30.755202 36.968404 43.230607 49.163808 56.163808 62.255208 69.2552 76.2552 83.2552 89.46841 96.45441 103.44041 109.88041 117.37321 124.866008">&#x0430;&#x0432;&#x0442;&#x043e;&#x043a;&#x043e;&#x0440;&#x0440;&#x0435;&#x043b;&#x043b;&#x044f;&#x0446;&#x0438;&#x044f;</tspan></text>
<text xml:space="preserve" transform="matrix(1 0 -0 1 121.05 163.88751)" font-size="14" font-family="TimesNewRomanPSMT"><tspan y="0" x="131.306"> </tspan></text>
<text xml:space="preserve" transform="matrix(1 0 -0 1 121.05 163.88751)" font-size="14" font-family="TimesNewRomanPSMT"><tspan y="0" x="134.806 142.29882 149.11402 156.1 163.59282 169.80602">&#x043f;&#x043e;&#x043b;&#x043d;&#x0430;&#x044f;</tspan></text>
<text xml:space="preserve" transform="matrix(1 0 -0 1 121.05 163.88751)" font-size="14" font-family="TimesNewRomanPSMT"><tspan y="0" x="176.24602 179.74602">, </tspan></text>
<text xml:space="preserve" transform="matrix(1 0 -0 1 121.05 163.88751)" font-size="14" font-family="TimesNewRomanPSMT"><tspan y="0" x="183.24602 189.17922">&#x0442;&#x043e;</tspan></text>
<text xml:space="preserve" transform="matrix(1 0 -0 1 121.05 163.88751)" font-size="14" font-family="TimesNewRomanPSMT"><tspan y="0" x="196.17922 199.67922 209.01721 216.91321 223.91321"> R=0 </tspan></text>
<text xml:space="preserve" transform="matrix(1 0 -0 1 121.05 163.88751)" font-size="14" font-family="TimesNewRomanPSMT"><tspan y="0" x="227.41321 234.90602 241.89203">&#x0438;&#x043b;&#x0438;</tspan></text>
<text xml:space="preserve" transform="matrix(1 0 -0 1 121.05 163.88751)" font-size="14" font-family="TimesNewRomanPSMT"><tspan y="0" x="249.38484 252.88484"> 4</tspan></text>
<g id="Layer-4" data-name="Span">
<text xml:space="preserve" transform="matrix(1 0 -0 1 121.05 163.88751)" font-size="14" font-family="TimesNewRomanPSMT"><tspan y="0" x="259.8818"> </tspan></text>
</g>
</g>
</g>
</g>
<g id="Layer-1" data-name="P">
<text xml:space="preserve" transform="matrix(1 0 -0 1 85.05 187.59009)" font-size="14" font-family="TimesNewRomanPSMT"><tspan y="0" x="0 10.110801 17.603602 23.816803 31.309603 38.1108">&#x041e;&#x0446;&#x0435;&#x043d;&#x043a;&#x0438;</tspan></text>
<text xml:space="preserve" transform="matrix(1 0 -0 1 85.05 187.59009)" font-size="14" font-family="TimesNewRomanPSMT"><tspan y="0" x="45.603605 50.961404 60.299406"> R </tspan></text>
<text xml:space="preserve" transform="matrix(1 0 -0 1 85.05 187.59009)" font-size="14" font-family="TimesNewRomanPSMT"><tspan y="0" x="65.6572">&#x0438;</tspan></text>
<text xml:space="preserve" transform="matrix(1 0 -0 1 85.05 187.59009)" font-size="14" font-family="TimesNewRomanPSMT"><tspan y="0" x="73.15 78.507808 85.507808"> d </tspan></text>
<text xml:space="preserve" transform="matrix(1 0 -0 1 85.05 187.59009)" font-size="14" font-family="TimesNewRomanPSMT"><tspan y="0" x="90.86561 97.30561 103.73161 110.71761 117.157619 127.43221 133.72103 139.93422">&#x044f;&#x0432;&#x043b;&#x044f;&#x044e;&#x0442;&#x0441;&#x044f;</tspan></text>
<text xml:space="preserve" transform="matrix(1 0 -0 1 85.05 187.59009)" font-size="14" font-family="TimesNewRomanPSMT"><tspan y="0" x="146.37422"> </tspan></text>
<text xml:space="preserve" transform="matrix(1 0 -0 1 85.05 187.59009)" font-size="14" font-family="TimesNewRomanPSMT"><tspan y="0" x="151.73203 159.22484 166.71765 172.83565 179.04885 186.04885 192.47484 198.81125 205.79724 212.18265 219.67546 229.08206 237.94126">&#x0438;&#x043d;&#x0442;&#x0435;&#x0440;&#x0432;&#x0430;&#x043b;&#x044c;&#x043d;&#x044b;&#x043c;&#x0438;</tspan></text>
<text xml:space="preserve" transform="matrix(1 0 -0 1 85.05 187.59009)" font-size="14" font-family="TimesNewRomanPSMT"><tspan y="0" x="245.43407 248.93407">. </tspan></text>
<text xml:space="preserve" transform="matrix(1 0 -0 1 85.05 187.59009)" font-size="14" font-family="TimesNewRomanPSMT"><tspan y="0" x="254.29187 263.28129 270.28129 281.06129 287.62449 293.83769 299.9557 306.08769 312.90287 319.11607">&#x0421;&#x0443;&#x0449;&#x0435;&#x0441;&#x0442;&#x0432;&#x0443;&#x0435;&#x0442;</tspan></text>
<text xml:space="preserve" transform="matrix(1 0 -0 1 85.05 187.59009)" font-size="14" font-family="TimesNewRomanPSMT"><tspan y="0" x="325.23408"> </tspan></text>
<text xml:space="preserve" transform="matrix(1 0 -0 1 85.05 187.59009)" font-size="14" font-family="TimesNewRomanPSMT"><tspan y="0" x="330.59187 336.88069 343.09388 349.86848 356.85447 364.34727 371.84007">&#x0442;&#x0430;&#x0431;&#x043b;&#x0438;&#x0446;&#x0430;</tspan></text>
<text xml:space="preserve" transform="matrix(1 0 -0 1 85.05 187.59009)" font-size="14" font-family="TimesNewRomanPSMT"><tspan y="0" x="378.05326"> </tspan></text>
<text xml:space="preserve" transform="matrix(1 0 -0 1 85.05 187.59009)" font-size="14" font-family="TimesNewRomanPSMT"><tspan y="0" x="383.41105 390.21223 397.21223 404.70503 410.82304 417.03623 424.03623 431.52903">&#x043a;&#x0440;&#x0438;&#x0442;&#x0435;&#x0440;&#x0438;&#x044f;</tspan></text>
<text xml:space="preserve" transform="matrix(1 0 -0 1 85.05 187.59009)" font-size="14" font-family="TimesNewRomanPSMT"><tspan y="0" x="437.96903"> </tspan></text>
<text xml:space="preserve" transform="matrix(1 0 -0 1 85.05 187.59009)" font-size="14" font-family="TimesNewRomanPSMT"><tspan y="0" x="443.3268">&#x0414;</tspan></text>
<text xml:space="preserve" transform="matrix(1 0 -0 1 85.05 187.59009)" font-size="14" font-family="TimesNewRomanPSMT"><tspan y="0" x="452.87623">-</tspan></text>
<text xml:space="preserve" transform="matrix(1 0 -0 1 85.05 187.59009)" font-size="14" font-family="TimesNewRomanPSMT"><tspan y="0" x="457.5382">&#x0423;</tspan></text>
<text xml:space="preserve" transform="matrix(1 0 -0 1 85.05 187.59009)" font-size="14" font-family="TimesNewRomanPSMT"><tspan y="0" x="467.4502"> </tspan></text>
<text xml:space="preserve" transform="matrix(1 0 -0 1 85.05 211.29279)" font-size="14" font-family="TimesNewRomanPSMT"><tspan y="0" x="0 7.4928 14.4928">&#x043f;&#x0440;&#x0438;</tspan></text>
<text xml:space="preserve" transform="matrix(1 0 -0 1 85.05 211.29279)" font-size="14" font-family="TimesNewRomanPSMT"><tspan y="0" x="21.9856"> </tspan></text>
<text xml:space="preserve" transform="matrix(1 0 -0 1 85.05 211.29279)" font-size="14" font-family="TimesNewRomanPSMT"><tspan y="0" x="25.4856 32.4856 39.4856 46.4856 53.0964 60.589204">&#x0443;&#x0440;&#x043e;&#x0432;&#x043d;&#x0435;</tspan></text>
<text xml:space="preserve" transform="matrix(1 0 -0 1 85.05 211.29279)" font-size="14" font-family="TimesNewRomanPSMT"><tspan y="0" x="66.80241"> </tspan></text>
<text xml:space="preserve" transform="matrix(1 0 -0 1 85.05 211.29279)" font-size="14" font-family="TimesNewRomanPSMT"><tspan y="0" x="70.30241 76.33221 83.33221 94.112209 100.67541 106.88861 113.00661 119.534809 125.74801 133.24082 140.73363 148.08223 154.29543 160.41342">&#x0441;&#x0443;&#x0449;&#x0435;&#x0441;&#x0442;&#x0432;&#x0435;&#x043d;&#x043d;&#x043e;&#x0441;&#x0442;&#x0438;</tspan></text>
<text xml:space="preserve" transform="matrix(1 0 -0 1 85.05 211.29279)" font-size="14" font-family="TimesNewRomanPSMT"><tspan y="0" x="167.90624 171.40624 178.40624"> 5%</tspan></text>
<g id="Layer-2" data-name="Span">
<text xml:space="preserve" transform="matrix(1 0 -0 1 85.05 211.29279)" font-size="14" font-family="TimesNewRomanPSMT"><tspan y="0" x="190.0664"> </tspan></text>
</g>
</g>
<g id="Layer-1" data-name="P">
<g id="Layer-2" data-name="Span">
</g>
<clipPath id="cp1743">
<path transform="matrix(1,0,0,-1,0,842)" d="M 82.3 30.22227 L 555.25 30.22227 L 555.25 61.722269 L 82.3 61.722269 Z "/>
</clipPath>
<g clip-path="url(#cp1743)">
<text xml:space="preserve" transform="matrix(1 0 -0 1 313.1998 790.85)" font-size="11" font-family="Calibri"><tspan y="0" x="11.15039"> </tspan></text>
</g>
<text xml:space="preserve" transform="matrix(1 0 -0 1 313.1998 790.85)" font-size="11" font-family="Calibri"><tspan y="0" x="0 5.5748007">43</tspan></text>
</g>
</g>
</g>
</svg>
