<?xml version="1.0" encoding="UTF-8" standalone="no"?>
<!DOCTYPE svg PUBLIC "-//W3C//DTD SVG 1.1//EN" "http://www.w3.org/Graphics/SVG/1.1/DTD/svg11.dtd">
<svg xmlns="http://www.w3.org/2000/svg" xmlns:xlink="http://www.w3.org/1999/xlink" version="1.1" width="595pt" height="842pt" viewBox="0 0 595 842">
<g enable-background="new">
<clipPath id="cp1744">
<path transform="matrix(1,0,0,-1,0,842)" d="M 0 0 L 595 0 L 595 842 L 0 842 Z "/>
</clipPath>
<g clip-path="url(#cp1744)">
<path transform="matrix(1,0,0,-1,0,842)" d="M 0 842 L 595 842 L 595 0 L 0 0 Z " fill="#ffffff"/>
<g id="Layer-1" data-name="P">
</g>
<clipPath id="cp1745">
<path transform="matrix(1,0,0,-1,0,842)" d="M 81.17403 58.97227 L 563.546 58.97227 L 563.546 789.17599 L 81.17403 789.17599 Z "/>
</clipPath>
<g clip-path="url(#cp1745)">
<text xml:space="preserve" transform="matrix(1 0 -0 1 492.624 69.07703)" font-size="14" font-family="TimesNewRomanPSMT"><tspan y="0" x="0 8.2026 14.4158 21.1904 28.1764 35.6692 43.162004">&#x0422;&#x0430;&#x0431;&#x043b;&#x0438;&#x0446;&#x0430;</tspan></text>
<text xml:space="preserve" transform="matrix(1 0 -0 1 492.624 69.07703)" font-size="14" font-family="TimesNewRomanPSMT"><tspan y="0" x="49.375204 52.875204"> 4</tspan></text>
<g id="Layer-2" data-name="Span">
<text xml:space="preserve" transform="matrix(1 0 -0 1 492.624 69.07703)" font-size="14" font-family="TimesNewRomanPSMT"><tspan y="0" x="59.87598"> </tspan></text>
</g>
</g>
<g id="Layer-1" data-name="P">
<g id="Layer-2" data-name="Span">
</g>
<clipPath id="cp1746">
<path transform="matrix(1,0,0,-1,0,842)" d="M 82.3 30.22227 L 555.25 30.22227 L 555.25 61.722269 L 82.3 61.722269 Z "/>
</clipPath>
<g clip-path="url(#cp1746)">
<text xml:space="preserve" transform="matrix(1 0 -0 1 313.1998 790.85)" font-size="11" font-family="Calibri"><tspan y="0" x="11.15039"> </tspan></text>
</g>
<text xml:space="preserve" transform="matrix(1 0 -0 1 313.1998 790.85)" font-size="11" font-family="Calibri"><tspan y="0" x="0 5.5748007">44</tspan></text>
</g>
</g>
</g>
</svg>
