<?xml version="1.0" encoding="UTF-8" standalone="no"?>
<!DOCTYPE svg PUBLIC "-//W3C//DTD SVG 1.1//EN" "http://www.w3.org/Graphics/SVG/1.1/DTD/svg11.dtd">
<svg xmlns="http://www.w3.org/2000/svg" xmlns:xlink="http://www.w3.org/1999/xlink" version="1.1" width="595pt" height="842pt" viewBox="0 0 595 842">
<g enable-background="new">
<clipPath id="cp2015">
<path transform="matrix(1,0,0,-1,0,842)" d="M 0 0 L 595 0 L 595 842 L 0 842 Z "/>
</clipPath>
<g clip-path="url(#cp2015)">
<path transform="matrix(1,0,0,-1,0,842)" d="M 0 842 L 595 842 L 595 0 L 0 0 Z " fill="#ffffff"/>
<g id="Layer-1" data-name="P">
</g>
<clipPath id="cp2016">
<path transform="matrix(1,0,0,-1,0,842)" d="M 81.17403 51.04514 L 562.2288 51.04514 L 562.2288 789.17599 L 81.17403 789.17599 Z "/>
</clipPath>
<g clip-path="url(#cp2016)">
<text xml:space="preserve" transform="matrix(1 0 -0 1 281.5294 69.07703)" font-size="14" font-family="TimesNewRomanPS" font-weight="bold"><tspan y="0" x="0 10.431401 18.498202 25.375002 31.588204 39.375005 46.012407 52.704408 59.704408 67.49121">&#x041b;&#x0438;&#x0442;&#x0435;&#x0440;&#x0430;&#x0442;&#x0443;&#x0440;&#x0430;</tspan></text>
<g id="Layer-2" data-name="Span">
<text xml:space="preserve" transform="matrix(1 0 -0 1 281.5294 69.07703)" font-size="14" font-family="TimesNewRomanPS" font-weight="bold"><tspan y="0" x="74.49121"> </tspan></text>
</g>
</g>
<g id="Layer-1" data-name="P">
<g id="Layer-2" data-name="P">
<g id="Layer-3" data-name="P">
<text xml:space="preserve" transform="matrix(1 0 -0 1 92.15 97.387699)" font-size="14" font-family="TimesNewRomanPSMT"><tspan y="0" x="0 7">1.</tspan></text>
</g>
<g id="Layer-3" data-name="P">
<text xml:space="preserve" transform="matrix(1 0 -0 1 106.3 97.387699)" font-size="14" font-family="TimesNewRomanPSMT"><tspan y="0" x="0 7.014001 13.227201 22.086403 28.177803 35.177804">&#x0417;&#x0430;&#x043c;&#x043a;&#x043e;&#x0432;</tspan></text>
<text xml:space="preserve" transform="matrix(1 0 -0 1 106.3 97.387699)" font-size="14" font-family="TimesNewRomanPSMT"><tspan y="0" x="41.788606"> </tspan></text>
<text xml:space="preserve" transform="matrix(1 0 -0 1 106.3 97.387699)" font-size="14" font-family="TimesNewRomanPSMT"><tspan y="0" x="46.417005">&#x041e;</tspan></text>
<text xml:space="preserve" transform="matrix(1 0 -0 1 106.3 97.387699)" font-size="14" font-family="TimesNewRomanPSMT"><tspan y="0" x="56.527807">.</tspan></text>
<text xml:space="preserve" transform="matrix(1 0 -0 1 106.3 97.387699)" font-size="14" font-family="TimesNewRomanPSMT"><tspan y="0" x="60.027807">&#x041e;</tspan></text>
<text xml:space="preserve" transform="matrix(1 0 -0 1 106.3 97.387699)" font-size="14" font-family="TimesNewRomanPSMT"><tspan y="0" x="70.1386 73.6386">. </tspan></text>
<text xml:space="preserve" transform="matrix(1 0 -0 1 106.3 97.387699)" font-size="14" font-family="TimesNewRomanPSMT"><tspan y="0" x="78.267009">&#x0438;</tspan></text>
<text xml:space="preserve" transform="matrix(1 0 -0 1 106.3 97.387699)" font-size="14" font-family="TimesNewRomanPSMT"><tspan y="0" x="85.7598"> </tspan></text>
<text xml:space="preserve" transform="matrix(1 0 -0 1 106.3 97.387699)" font-size="14" font-family="TimesNewRomanPSMT"><tspan y="0" x="90.38821 97.511409">&#x0434;&#x0440;</tspan></text>
<text xml:space="preserve" transform="matrix(1 0 -0 1 106.3 97.387699)" font-size="14" font-family="TimesNewRomanPSMT"><tspan y="0" x="104.511409 108.011409">. </tspan></text>
<text xml:space="preserve" transform="matrix(1 0 -0 1 106.3 97.387699)" font-size="14" font-family="TimesNewRomanPSMT"><tspan y="0" x="112.63981 125.08861 130.94062 137.05861 143.2718 152.0358 157.8878 164.0058 171.49861 178.53922 185.10242 191.31562 198.1168 205.60962">&#x041c;&#x0430;&#x0442;&#x0435;&#x043c;&#x0430;&#x0442;&#x0438;&#x0447;&#x0435;&#x0441;&#x043a;&#x0438;&#x0435;</tspan></text>
<text xml:space="preserve" transform="matrix(1 0 -0 1 106.3 97.387699)" font-size="14" font-family="TimesNewRomanPSMT"><tspan y="0" x="211.82282"> </tspan></text>
<text xml:space="preserve" transform="matrix(1 0 -0 1 106.3 97.387699)" font-size="14" font-family="TimesNewRomanPSMT"><tspan y="0" x="216.45122 225.31041 231.5236 237.4568 244.0536 251.1768">&#x043c;&#x0435;&#x0442;&#x043e;&#x0434;&#x044b;</tspan></text>
<text xml:space="preserve" transform="matrix(1 0 -0 1 106.3 97.387699)" font-size="14" font-family="TimesNewRomanPSMT"><tspan y="0" x="260.5834"> </tspan></text>
<text xml:space="preserve" transform="matrix(1 0 -0 1 106.3 97.387699)" font-size="14" font-family="TimesNewRomanPSMT"><tspan y="0" x="265.2118">&#x0432;</tspan></text>
<text xml:space="preserve" transform="matrix(1 0 -0 1 106.3 97.387699)" font-size="14" font-family="TimesNewRomanPSMT"><tspan y="0" x="271.8226"> </tspan></text>
<text xml:space="preserve" transform="matrix(1 0 -0 1 106.3 97.387699)" font-size="14" font-family="TimesNewRomanPSMT"><tspan y="0" x="276.451 282.4598 288.5512 295.5512 303.044 309.778 318.6372 326.13 332.58259">&#x044d;&#x043a;&#x043e;&#x043d;&#x043e;&#x043c;&#x0438;&#x043a;&#x0435;</tspan></text>
<text xml:space="preserve" transform="matrix(1 0 -0 1 106.3 97.387699)" font-size="14" font-family="TimesNewRomanPSMT"><tspan y="0" x="338.79579 342.29579">. </tspan></text>
<text xml:space="preserve" transform="matrix(1 0 -0 1 106.3 97.387699)" font-size="14" font-family="TimesNewRomanPSMT"><tspan y="0" x="346.92417">&#x041c;</tspan></text>
<text xml:space="preserve" transform="matrix(1 0 -0 1 106.3 97.387699)" font-size="14" font-family="TimesNewRomanPSMT"><tspan y="0" x="359.373 362.873 366.373">., </tspan></text>
<text xml:space="preserve" transform="matrix(1 0 -0 1 106.3 97.387699)" font-size="14" font-family="TimesNewRomanPSMT"><tspan y="0" x="371.00138 378.49418 383.77217">&#x0438;&#x0437;&#x0434;</tspan></text>
<text xml:space="preserve" transform="matrix(1 0 -0 1 106.3 97.387699)" font-size="14" font-family="TimesNewRomanPSMT"><tspan y="0" x="390.89537">-</tspan></text>
<text xml:space="preserve" transform="matrix(1 0 -0 1 106.3 97.387699)" font-size="14" font-family="TimesNewRomanPSMT"><tspan y="0" x="395.55735 402.07154">&#x0432;&#x043e;</tspan></text>
<text xml:space="preserve" transform="matrix(1 0 -0 1 106.3 97.387699)" font-size="14" font-family="TimesNewRomanPSMT"><tspan y="0" x="409.07154"> </tspan></text>
<text xml:space="preserve" transform="matrix(1 0 -0 1 106.3 97.387699)" font-size="14" font-family="TimesNewRomanPSMT"><tspan y="0" x="413.69993 423.24934 433.36015">&#x0414;&#x0418;&#x0421;</tspan></text>
<text xml:space="preserve" transform="matrix(1 0 -0 1 106.3 97.387699)" font-size="14" font-family="TimesNewRomanPSMT"><tspan y="0" x="442.69816 446.19816">, </tspan></text>
<text xml:space="preserve" transform="matrix(1 0 -0 1 106.3 121.09039)" font-size="14" font-family="TimesNewRomanPSMT"><tspan y="0" x="0 7 14 21 28">1998.</tspan></text>
<g id="Layer-4" data-name="Span">
<text xml:space="preserve" transform="matrix(1 0 -0 1 106.3 121.09039)" font-size="14" font-family="TimesNewRomanPSMT"><tspan y="0" x="31.5"> </tspan></text>
</g>
</g>
</g>
<g id="Layer-2" data-name="P">
<g id="Layer-3" data-name="P">
<text xml:space="preserve" transform="matrix(1 0 -0 1 92.15 144.79303)" font-size="14" font-family="TimesNewRomanPSMT"><tspan y="0" x="0 7">2.</tspan></text>
</g>
<g id="Layer-3" data-name="P">
<text xml:space="preserve" transform="matrix(1 0 -0 1 106.3 144.79303)" font-size="14" font-family="TimesNewRomanPSMT"><tspan y="0" x="0 7.56 16.4192 23.4192 30.207802 38.9718 45.185">&#x0413;&#x043c;&#x0443;&#x0440;&#x043c;&#x0430;&#x043d;</tspan></text>
<text xml:space="preserve" transform="matrix(1 0 -0 1 106.3 144.79303)" font-size="14" font-family="TimesNewRomanPSMT"><tspan y="0" x="52.677804"> </tspan></text>
<text xml:space="preserve" transform="matrix(1 0 -0 1 106.3 144.79303)" font-size="14" font-family="TimesNewRomanPSMT"><tspan y="0" x="60.862207">&#x0412;</tspan></text>
<text xml:space="preserve" transform="matrix(1 0 -0 1 106.3 144.79303)" font-size="14" font-family="TimesNewRomanPSMT"><tspan y="0" x="70.20021">.</tspan></text>
<text xml:space="preserve" transform="matrix(1 0 -0 1 106.3 144.79303)" font-size="14" font-family="TimesNewRomanPSMT"><tspan y="0" x="73.70021">&#x0415;</tspan></text>
<text xml:space="preserve" transform="matrix(1 0 -0 1 106.3 144.79303)" font-size="14" font-family="TimesNewRomanPSMT"><tspan y="0" x="82.25141 85.75141">. </tspan></text>
<text xml:space="preserve" transform="matrix(1 0 -0 1 106.3 144.79303)" font-size="14" font-family="TimesNewRomanPSMT"><tspan y="0" x="93.935817 101.95502 108.16822 115.16822 122.16822 129.66103">&#x0422;&#x0435;&#x043e;&#x0440;&#x0438;&#x044f;</tspan></text>
<text xml:space="preserve" transform="matrix(1 0 -0 1 106.3 144.79303)" font-size="14" font-family="TimesNewRomanPSMT"><tspan y="0" x="136.10103"> </tspan></text>
<text xml:space="preserve" transform="matrix(1 0 -0 1 106.3 144.79303)" font-size="14" font-family="TimesNewRomanPSMT"><tspan y="0" x="144.28543 150.81363 157.02683 164.02683 170.76082 177.20082 183.31882 190.81163 198.16024 204.37343 210.49143 216.70462">&#x0432;&#x0435;&#x0440;&#x043e;&#x044f;&#x0442;&#x043d;&#x043e;&#x0441;&#x0442;&#x0435;&#x0439;</tspan></text>
<text xml:space="preserve" transform="matrix(1 0 -0 1 106.3 144.79303)" font-size="14" font-family="TimesNewRomanPSMT"><tspan y="0" x="224.19744"> </tspan></text>
<text xml:space="preserve" transform="matrix(1 0 -0 1 106.3 144.79303)" font-size="14" font-family="TimesNewRomanPSMT"><tspan y="0" x="232.38184">&#x0438;</tspan></text>
<text xml:space="preserve" transform="matrix(1 0 -0 1 106.3 144.79303)" font-size="14" font-family="TimesNewRomanPSMT"><tspan y="0" x="239.87465"> </tspan></text>
<text xml:space="preserve" transform="matrix(1 0 -0 1 106.3 144.79303)" font-size="14" font-family="TimesNewRomanPSMT"><tspan y="0" x="248.05905 256.82307 262.67506 268.79307 275.00627 283.77027 289.62226 295.74028 303.23307 310.27366 316.83686 323.05006 329.63984 335.85304">&#x043c;&#x0430;&#x0442;&#x0435;&#x043c;&#x0430;&#x0442;&#x0438;&#x0447;&#x0435;&#x0441;&#x043a;&#x0430;&#x044f;</tspan></text>
<text xml:space="preserve" transform="matrix(1 0 -0 1 106.3 144.79303)" font-size="14" font-family="TimesNewRomanPSMT"><tspan y="0" x="342.29304"> </tspan></text>
<text xml:space="preserve" transform="matrix(1 0 -0 1 106.3 144.79303)" font-size="14" font-family="TimesNewRomanPSMT"><tspan y="0" x="350.47743 356.6906 362.97944 368.83143 374.94944 382.44224 388.65544 394.77345 402.26625 408.85603">&#x0441;&#x0442;&#x0430;&#x0442;&#x0438;&#x0441;&#x0442;&#x0438;&#x043a;&#x0430;</tspan></text>
<text xml:space="preserve" transform="matrix(1 0 -0 1 106.3 144.79303)" font-size="14" font-family="TimesNewRomanPSMT"><tspan y="0" x="415.0692 418.5692">. </tspan></text>
<text xml:space="preserve" transform="matrix(1 0 -0 1 106.3 144.79303)" font-size="14" font-family="TimesNewRomanPSMT"><tspan y="0" x="426.7536">&#x041c;</tspan></text>
<text xml:space="preserve" transform="matrix(1 0 -0 1 106.3 144.79303)" font-size="14" font-family="TimesNewRomanPSMT"><tspan y="0" x="439.20243 442.70243 446.20243">., </tspan></text>
<text xml:space="preserve" transform="matrix(1 0 -0 1 106.3 168.49573)" font-size="14" font-family="TimesNewRomanPSMT"><tspan y="0" x="0 9.338001 18.744603 24.957802 35.7378 41.951">&#x0412;&#x044b;&#x0441;&#x0448;&#x0430;&#x044f;</tspan></text>
<text xml:space="preserve" transform="matrix(1 0 -0 1 106.3 168.49573)" font-size="14" font-family="TimesNewRomanPSMT"><tspan y="0" x="48.391"> </tspan></text>
<text xml:space="preserve" transform="matrix(1 0 -0 1 106.3 168.49573)" font-size="14" font-family="TimesNewRomanPSMT"><tspan y="0" x="51.891 62.670999 68.7624 75.5776 82.5636">&#x0448;&#x043a;&#x043e;&#x043b;&#x0430;</tspan></text>
<text xml:space="preserve" transform="matrix(1 0 -0 1 106.3 168.49573)" font-size="14" font-family="TimesNewRomanPSMT"><tspan y="0" x="88.7768 92.2768 95.7768 102.7768 109.7768 116.7768 123.7768">, 1991.</tspan></text>
<g id="Layer-4" data-name="Span">
<text xml:space="preserve" transform="matrix(1 0 -0 1 106.3 168.49573)" font-size="14" font-family="TimesNewRomanPSMT"><tspan y="0" x="127.2783"> </tspan></text>
</g>
</g>
</g>
<g id="Layer-2" data-name="P">
<g id="Layer-3" data-name="P">
<text xml:space="preserve" transform="matrix(1 0 -0 1 92.15 192.1983)" font-size="14" font-family="TimesNewRomanPSMT"><tspan y="0" x="0 7">3.</tspan></text>
</g>
<g id="Layer-3" data-name="P">
<text xml:space="preserve" transform="matrix(1 0 -0 1 106.3 192.1983)" font-size="14" font-family="TimesNewRomanPSMT"><tspan y="0" x="0 8.513401 15.556801 22.908202 30.136403 37.857404 45.578405 52.232606">&#x041a;&#x0443;&#x0431;&#x043e;&#x043d;&#x0438;&#x0432;&#x0430;</tspan></text>
<text xml:space="preserve" transform="matrix(1 0 -0 1 106.3 192.1983)" font-size="14" font-family="TimesNewRomanPSMT"><tspan y="0" x="58.445806"> </tspan></text>
<text xml:space="preserve" transform="matrix(1 0 -0 1 106.3 192.1983)" font-size="14" font-family="TimesNewRomanPSMT"><tspan y="0" x="69.059207">&#x041c;</tspan></text>
<text xml:space="preserve" transform="matrix(1 0 -0 1 106.3 192.1983)" font-size="14" font-family="TimesNewRomanPSMT"><tspan y="0" x="81.736209 85.236209">. </tspan></text>
<text xml:space="preserve" transform="matrix(1 0 -0 1 106.3 192.1983)" font-size="14" font-family="TimesNewRomanPSMT"><tspan y="0" x="95.84961 108.52661 114.60681 120.95301 127.39442 136.38663 142.46683 148.81302 156.53403 163.80284 170.59285 177.03426 183.85227 190.29367">&#x041c;&#x0430;&#x0442;&#x0435;&#x043c;&#x0430;&#x0442;&#x0438;&#x0447;&#x0435;&#x0441;&#x043a;&#x0430;&#x044f;</tspan></text>
<text xml:space="preserve" transform="matrix(1 0 -0 1 106.3 192.1983)" font-size="14" font-family="TimesNewRomanPSMT"><tspan y="0" x="196.73368"> </tspan></text>
<text xml:space="preserve" transform="matrix(1 0 -0 1 106.3 192.1983)" font-size="14" font-family="TimesNewRomanPSMT"><tspan y="0" x="207.34708 213.58408 219.90367 227.13187 234.85288 241.81508 250.90248 258.62348 265.44148">&#x044d;&#x043a;&#x043e;&#x043d;&#x043e;&#x043c;&#x0438;&#x043a;&#x0430;</tspan></text>
<text xml:space="preserve" transform="matrix(1 0 -0 1 106.3 192.1983)" font-size="14" font-family="TimesNewRomanPSMT"><tspan y="0" x="271.65467"> </tspan></text>
<text xml:space="preserve" transform="matrix(1 0 -0 1 106.3 192.1983)" font-size="14" font-family="TimesNewRomanPSMT"><tspan y="0" x="282.26808 289.98905">&#x043d;&#x0430;</tspan></text>
<text xml:space="preserve" transform="matrix(1 0 -0 1 106.3 192.1983)" font-size="14" font-family="TimesNewRomanPSMT"><tspan y="0" x="296.20225"> </tspan></text>
<text xml:space="preserve" transform="matrix(1 0 -0 1 106.3 192.1983)" font-size="14" font-family="TimesNewRomanPSMT"><tspan y="0" x="306.81565 317.15464">&#x041f;&#x041a;</tspan></text>
<text xml:space="preserve" transform="matrix(1 0 -0 1 106.3 192.1983)" font-size="14" font-family="TimesNewRomanPSMT"><tspan y="0" x="326.72087 330.22087">. </tspan></text>
<text xml:space="preserve" transform="matrix(1 0 -0 1 106.3 192.1983)" font-size="14" font-family="TimesNewRomanPSMT"><tspan y="0" x="340.83427">&#x041c;</tspan></text>
<text xml:space="preserve" transform="matrix(1 0 -0 1 106.3 192.1983)" font-size="14" font-family="TimesNewRomanPSMT"><tspan y="0" x="353.51127 357.23948 360.73948">., </tspan></text>
<text xml:space="preserve" transform="matrix(1 0 -0 1 106.3 192.1983)" font-size="14" font-family="TimesNewRomanPSMT"><tspan y="0" x="371.35289 382.64109 390.36207 398.08305 404.52445 412.24543 418.68684">&#x0424;&#x0438;&#x043d;&#x0430;&#x043d;&#x0441;&#x044b;</tspan></text>
<text xml:space="preserve" transform="matrix(1 0 -0 1 106.3 192.1983)" font-size="14" font-family="TimesNewRomanPSMT"><tspan y="0" x="428.0934"> </tspan></text>
<text xml:space="preserve" transform="matrix(1 0 -0 1 106.3 192.1983)" font-size="14" font-family="TimesNewRomanPSMT"><tspan y="0" x="438.70683">&#x0438;</tspan></text>
<text xml:space="preserve" transform="matrix(1 0 -0 1 106.3 192.1983)" font-size="14" font-family="TimesNewRomanPSMT"><tspan y="0" x="446.19963"> </tspan></text>
<text xml:space="preserve" transform="matrix(1 0 -0 1 106.3 215.90088)" font-size="14" font-family="TimesNewRomanPSMT"><tspan y="0" x="0 6.2132008 12.502001 18.354002 24.472002 31.964802 38.178 44.296 51.788805 58.378606">&#x0441;&#x0442;&#x0430;&#x0442;&#x0438;&#x0441;&#x0442;&#x0438;&#x043a;&#x0430;</tspan></text>
<text xml:space="preserve" transform="matrix(1 0 -0 1 106.3 215.90088)" font-size="14" font-family="TimesNewRomanPSMT"><tspan y="0" x="64.591808 68.091808 71.591808 78.591808 85.591808 92.591808 99.591808">, 1991.</tspan></text>
<g id="Layer-4" data-name="Span">
<text xml:space="preserve" transform="matrix(1 0 -0 1 106.3 215.90088)" font-size="14" font-family="TimesNewRomanPSMT"><tspan y="0" x="103.0928"> </tspan></text>
</g>
</g>
</g>
<g id="Layer-2" data-name="P">
<g id="Layer-3" data-name="P">
<text xml:space="preserve" transform="matrix(1 0 -0 1 92.15 239.60358)" font-size="14" font-family="TimesNewRomanPSMT"><tspan y="0" x="0 7">4.</tspan></text>
</g>
<g id="Layer-3" data-name="P">
<text xml:space="preserve" transform="matrix(1 0 -0 1 106.3 239.60358)" font-size="14" font-family="TimesNewRomanPSMT"><tspan y="0" x="0">&#x0420;</tspan></text>
<text xml:space="preserve" transform="matrix(1 0 -0 1 106.3 239.60358)" font-size="14" font-family="TimesNewRomanPSMT"><tspan y="0" x="6.036801">.</tspan></text>
<text xml:space="preserve" transform="matrix(1 0 -0 1 106.3 239.60358)" font-size="14" font-family="TimesNewRomanPSMT"><tspan y="0" x="9.5368">&#x0413;</tspan></text>
<text xml:space="preserve" transform="matrix(1 0 -0 1 106.3 239.60358)" font-size="14" font-family="TimesNewRomanPSMT"><tspan y="0" x="16.050999 19.550999">.K</tspan></text>
<text xml:space="preserve" transform="matrix(1 0 -0 1 106.3 239.60358)" font-size="14" font-family="TimesNewRomanPSMT"><tspan y="0" x="29.6618 36.6618 42.875 48.9524 55.993 62.2062 69.699 75.7904">&#x0440;&#x0430;&#x0432;&#x0447;&#x0435;&#x043d;&#x043a;&#x043e;</tspan></text>
<text xml:space="preserve" transform="matrix(1 0 -0 1 106.3 239.60358)" font-size="14" font-family="TimesNewRomanPSMT"><tspan y="0" x="82.7904 87.948"> &#x00ab;</tspan></text>
<text xml:space="preserve" transform="matrix(1 0 -0 1 106.3 239.60358)" font-size="14" font-family="TimesNewRomanPSMT"><tspan y="0" x="94.948 107.3968 113.5148 119.728008 128.492 134.34401 140.462 147.95482 154.99542 161.55863 167.77182 173.86322 181.03403">&#x041c;&#x0442;&#x0435;&#x043c;&#x0430;&#x0442;&#x0438;&#x0447;&#x0435;&#x0441;&#x043a;&#x043e;&#x0435;</tspan></text>
<text xml:space="preserve" transform="matrix(1 0 -0 1 106.3 239.60358)" font-size="14" font-family="TimesNewRomanPSMT"><tspan y="0" x="187.24723"> </tspan></text>
<text xml:space="preserve" transform="matrix(1 0 -0 1 106.3 239.60358)" font-size="14" font-family="TimesNewRomanPSMT"><tspan y="0" x="192.40482 201.264 207.86081 214.98401 221.1972 228.1832 235.67601 242.67601 249.67601 256.102 262.3152 269.80799 277.30079">&#x043c;&#x043e;&#x0434;&#x0435;&#x043b;&#x0438;&#x0440;&#x043e;&#x0432;&#x0430;&#x043d;&#x0438;&#x0435;</tspan></text>
<text xml:space="preserve" transform="matrix(1 0 -0 1 106.3 239.60358)" font-size="14" font-family="TimesNewRomanPSMT"><tspan y="0" x="283.51399"> </tspan></text>
<text xml:space="preserve" transform="matrix(1 0 -0 1 106.3 239.60358)" font-size="14" font-family="TimesNewRomanPSMT"><tspan y="0" x="288.67158 294.6804 300.7718 307.7718 315.2646 321.9986 330.8578 338.3506 345.39118 351.95439 358.16758 364.96876 372.46156">&#x044d;&#x043a;&#x043e;&#x043d;&#x043e;&#x043c;&#x0438;&#x0447;&#x0435;&#x0441;&#x043a;&#x0438;&#x0445;</tspan></text>
<text xml:space="preserve" transform="matrix(1 0 -0 1 106.3 239.60358)" font-size="14" font-family="TimesNewRomanPSMT"><tspan y="0" x="379.46156"> </tspan></text>
<text xml:space="preserve" transform="matrix(1 0 -0 1 106.3 239.60358)" font-size="14" font-family="TimesNewRomanPSMT"><tspan y="0" x="384.61915 392.11195 399.11195 406.11195 413.60475 420.16795 426.38114 432.59434 439.59434">&#x043f;&#x0440;&#x043e;&#x0446;&#x0435;&#x0441;&#x0441;&#x043e;&#x0432;</tspan></text>
<text xml:space="preserve" transform="matrix(1 0 -0 1 106.3 239.60358)" font-size="14" font-family="TimesNewRomanPSMT"><tspan y="0" x="446.20515"> </tspan></text>
<text xml:space="preserve" transform="matrix(1 0 -0 1 106.3 263.3062)" font-size="14" font-family="TimesNewRomanPSMT"><tspan y="0" x="0">&#x0432;</tspan></text>
<text xml:space="preserve" transform="matrix(1 0 -0 1 106.3 263.3062)" font-size="14" font-family="TimesNewRomanPSMT"><tspan y="0" x="6.6108005"> </tspan></text>
<text xml:space="preserve" transform="matrix(1 0 -0 1 106.3 263.3062)" font-size="14" font-family="TimesNewRomanPSMT"><tspan y="0" x="10.1108 16.4962 22.7094 29.6954 36.0808 42.294 48.3854 55.1194">&#x0441;&#x0435;&#x043b;&#x044c;&#x0441;&#x043a;&#x043e;&#x043c;</tspan></text>
<text xml:space="preserve" transform="matrix(1 0 -0 1 106.3 263.3062)" font-size="14" font-family="TimesNewRomanPSMT"><tspan y="0" x="63.9786"> </tspan></text>
<text xml:space="preserve" transform="matrix(1 0 -0 1 106.3 263.3062)" font-size="14" font-family="TimesNewRomanPSMT"><tspan y="0" x="67.4786 73.9452 80.9452 86.4752 92.9152 100.408 106.6212 112.7392 119.267398">&#x0445;&#x043e;&#x0437;&#x044f;&#x0439;&#x0441;&#x0442;&#x0432;&#x0435;</tspan></text>
<text xml:space="preserve" transform="matrix(1 0 -0 1 106.3 263.3062)" font-size="14" font-family="TimesNewRomanPSMT"><tspan y="0" x="125.4806 128.98059 132.48059 144.9294 148.81859 152.31859 159.31859 166.31859 173.31859">. M: 1978</tspan></text>
<text xml:space="preserve" transform="matrix(1 0 -0 1 106.3 263.3062)" font-size="14" font-family="TimesNewRomanPSMT"><tspan y="0" x="180.31859">&#x0433;</tspan></text>
<text xml:space="preserve" transform="matrix(1 0 -0 1 106.3 263.3062)" font-size="14" font-family="TimesNewRomanPSMT"><tspan y="0" x="184.4822 187.9822">. </tspan></text>
<g id="Layer-4" data-name="Span">
<text xml:space="preserve" transform="matrix(1 0 -0 1 106.3 263.3062)" font-size="14" font-family="TimesNewRomanPSMT"><tspan y="0" x="191.4814"> </tspan></text>
</g>
</g>
</g>
<g id="Layer-2" data-name="P">
<g id="Layer-3" data-name="P">
<text xml:space="preserve" transform="matrix(1 0 -0 1 92.15 287.0088)" font-size="14" font-family="TimesNewRomanPSMT"><tspan y="0" x="0 7">5.</tspan></text>
</g>
<g id="Layer-3" data-name="P">
<text xml:space="preserve" transform="matrix(1 0 -0 1 106.3 287.0088)" font-size="14" font-family="TimesNewRomanPSMT"><tspan y="0" x="0 10.110801 13.610801">K. </tspan></text>
<text xml:space="preserve" transform="matrix(1 0 -0 1 106.3 287.0088)" font-size="14" font-family="TimesNewRomanPSMT"><tspan y="0" x="17.110802 26.660202 33.1268 40.1268 45.684804 51.898004 58.713205 64.83121">&#x0414;&#x043e;&#x0443;&#x0433;&#x0435;&#x0440;&#x0442;&#x0438;</tspan></text>
<text xml:space="preserve" transform="matrix(1 0 -0 1 106.3 287.0088)" font-size="14" font-family="TimesNewRomanPSMT"><tspan y="0" x="72.324008 75.824008"> &#x00ab;</tspan></text>
<text xml:space="preserve" transform="matrix(1 0 -0 1 106.3 287.0088)" font-size="14" font-family="TimesNewRomanPSMT"><tspan y="0" x="82.824008 92.162 98.6902 104.72 111.8432 118.056407 125.5492 133.042">&#x0412;&#x0432;&#x0435;&#x0434;&#x0435;&#x043d;&#x0438;&#x0435;</tspan></text>
<text xml:space="preserve" transform="matrix(1 0 -0 1 106.3 287.0088)" font-size="14" font-family="TimesNewRomanPSMT"><tspan y="0" x="139.2552"> </tspan></text>
<text xml:space="preserve" transform="matrix(1 0 -0 1 106.3 287.0088)" font-size="14" font-family="TimesNewRomanPSMT"><tspan y="0" x="142.7552">&#x0432;</tspan></text>
<text xml:space="preserve" transform="matrix(1 0 -0 1 106.3 287.0088)" font-size="14" font-family="TimesNewRomanPSMT"><tspan y="0" x="149.36602"> </tspan></text>
<text xml:space="preserve" transform="matrix(1 0 -0 1 106.3 287.0088)" font-size="14" font-family="TimesNewRomanPSMT"><tspan y="0" x="152.86602 158.87482 164.96622 171.96622 179.45903 186.19303 195.05222 201.26541 207.55422 214.55422 222.04703 228.65084">&#x044d;&#x043a;&#x043e;&#x043d;&#x043e;&#x043c;&#x0435;&#x0442;&#x0440;&#x0438;&#x043a;&#x0443;</tspan></text>
<text xml:space="preserve" transform="matrix(1 0 -0 1 106.3 287.0088)" font-size="14" font-family="TimesNewRomanPSMT"><tspan y="0" x="235.99944 242.99944 246.49944">&#x00bb;, </tspan></text>
<text xml:space="preserve" transform="matrix(1 0 -0 1 106.3 287.0088)" font-size="14" font-family="TimesNewRomanPSMT"><tspan y="0" x="249.99944 257.49226 263.70545 270.70545 276.91865 283.43284 290.02964">&#x043f;&#x0435;&#x0440;&#x0435;&#x0432;&#x043e;&#x0434;</tspan></text>
<text xml:space="preserve" transform="matrix(1 0 -0 1 106.3 287.0088)" font-size="14" font-family="TimesNewRomanPSMT"><tspan y="0" x="297.15284"> </tspan></text>
<text xml:space="preserve" transform="matrix(1 0 -0 1 106.3 287.0088)" font-size="14" font-family="TimesNewRomanPSMT"><tspan y="0" x="300.65284">&#x0441;</tspan></text>
<text xml:space="preserve" transform="matrix(1 0 -0 1 106.3 287.0088)" font-size="14" font-family="TimesNewRomanPSMT"><tspan y="0" x="306.86604"> </tspan></text>
<text xml:space="preserve" transform="matrix(1 0 -0 1 106.3 287.0088)" font-size="14" font-family="TimesNewRomanPSMT"><tspan y="0" x="310.36604 316.57923 324.07203 329.1036 336.0896 343.5824 351.0752 357.2884 363.3798 370.3798 375.774">&#x0430;&#x043d;&#x0433;&#x043b;&#x0438;&#x0439;&#x0441;&#x043a;&#x043e;&#x0433;&#x043e;</tspan></text>
<text xml:space="preserve" transform="matrix(1 0 -0 1 106.3 287.0088)" font-size="14" font-family="TimesNewRomanPSMT"><tspan y="0" x="382.774 386.274 389.774 402.2228 405.7228 409.2228 416.2228 423.2228 430.2228">, M. 2001</tspan></text>
<text xml:space="preserve" transform="matrix(1 0 -0 1 106.3 287.0088)" font-size="14" font-family="TimesNewRomanPSMT"><tspan y="0" x="437.2228">&#x0433;</tspan></text>
<text xml:space="preserve" transform="matrix(1 0 -0 1 106.3 287.0088)" font-size="14" font-family="TimesNewRomanPSMT"><tspan y="0" x="441.3864">.</tspan></text>
<g id="Layer-4" data-name="Span">
<text xml:space="preserve" transform="matrix(1 0 -0 1 106.3 287.0088)" font-size="14" font-family="TimesNewRomanPSMT"><tspan y="0" x="444.8828"> </tspan></text>
</g>
</g>
</g>
<g id="Layer-2" data-name="P">
<g id="Layer-3" data-name="P">
<text xml:space="preserve" transform="matrix(1 0 -0 1 92.15 310.7115)" font-size="14" font-family="TimesNewRomanPSMT"><tspan y="0" x="0 7">6.</tspan></text>
</g>
<g id="Layer-3" data-name="P">
<text xml:space="preserve" transform="matrix(1 0 -0 1 106.3 310.7115)" font-size="14" font-family="TimesNewRomanPSMT"><tspan y="0" x="0 10.110801 16.926003 23.912003 30.912003 38.404806 45.897607">&#x041f;&#x043e;&#x043b;&#x0443;&#x043d;&#x0438;&#x043d;</tspan></text>
<text xml:space="preserve" transform="matrix(1 0 -0 1 106.3 310.7115)" font-size="14" font-family="TimesNewRomanPSMT"><tspan y="0" x="53.390409"> </tspan></text>
<text xml:space="preserve" transform="matrix(1 0 -0 1 106.3 310.7115)" font-size="14" font-family="TimesNewRomanPSMT"><tspan y="0" x="56.890409">&#x0418;</tspan></text>
<text xml:space="preserve" transform="matrix(1 0 -0 1 106.3 310.7115)" font-size="14" font-family="TimesNewRomanPSMT"><tspan y="0" x="67.001209">.</tspan></text>
<text xml:space="preserve" transform="matrix(1 0 -0 1 106.3 310.7115)" font-size="14" font-family="TimesNewRomanPSMT"><tspan y="0" x="70.501209">&#x0424;</tspan></text>
<text xml:space="preserve" transform="matrix(1 0 -0 1 106.3 310.7115)" font-size="14" font-family="TimesNewRomanPSMT"><tspan y="0" x="81.5612 85.0612">. </tspan></text>
<text xml:space="preserve" transform="matrix(1 0 -0 1 106.3 310.7115)" font-size="14" font-family="TimesNewRomanPSMT"><tspan y="0" x="88.5612 96.8464 103.8464 110.8464">&#x041a;&#x0443;&#x0440;&#x0441;</tspan></text>
<text xml:space="preserve" transform="matrix(1 0 -0 1 106.3 310.7115)" font-size="14" font-family="TimesNewRomanPSMT"><tspan y="0" x="117.0596"> </tspan></text>
<text xml:space="preserve" transform="matrix(1 0 -0 1 106.3 310.7115)" font-size="14" font-family="TimesNewRomanPSMT"><tspan y="0" x="120.5596 129.3236 135.1756 141.2936 147.50679 156.27079 162.12279 168.24079 175.7336 182.7742 189.3374 195.5506 201.642 208.642 214.03621">&#x043c;&#x0430;&#x0442;&#x0435;&#x043c;&#x0430;&#x0442;&#x0438;&#x0447;&#x0435;&#x0441;&#x043a;&#x043e;&#x0433;&#x043e;</tspan></text>
<text xml:space="preserve" transform="matrix(1 0 -0 1 106.3 310.7115)" font-size="14" font-family="TimesNewRomanPSMT"><tspan y="0" x="221.03621"> </tspan></text>
<text xml:space="preserve" transform="matrix(1 0 -0 1 106.3 310.7115)" font-size="14" font-family="TimesNewRomanPSMT"><tspan y="0" x="224.53621 232.02902 239.02902 246.02902 251.77184 258.77186 264.98506 273.84425 282.70344 290.19624 297.19624 304.19624 310.62223 316.83543 324.32823 331.821">&#x043f;&#x0440;&#x043e;&#x0433;&#x0440;&#x0430;&#x043c;&#x043c;&#x0438;&#x0440;&#x043e;&#x0432;&#x0430;&#x043d;&#x0438;&#x044f;</tspan></text>
<text xml:space="preserve" transform="matrix(1 0 -0 1 106.3 310.7115)" font-size="14" font-family="TimesNewRomanPSMT"><tspan y="0" x="338.26103 341.76103">. </tspan></text>
<text xml:space="preserve" transform="matrix(1 0 -0 1 106.3 310.7115)" font-size="14" font-family="TimesNewRomanPSMT"><tspan y="0" x="345.26103 357.70985 365.20265 372.69544 378.90864">&#x041c;&#x0438;&#x043d;&#x0441;&#x043a;</tspan></text>
<text xml:space="preserve" transform="matrix(1 0 -0 1 106.3 310.7115)" font-size="14" font-family="TimesNewRomanPSMT"><tspan y="0" x="385.7098 389.2098 392.7098 399.7098 406.7098 413.7098 420.7098">, 1975.</tspan></text>
<g id="Layer-4" data-name="Span">
<text xml:space="preserve" transform="matrix(1 0 -0 1 106.3 310.7115)" font-size="14" font-family="TimesNewRomanPSMT"><tspan y="0" x="424.2041"> </tspan></text>
</g>
</g>
</g>
<g id="Layer-2" data-name="P">
<g id="Layer-3" data-name="P">
<text xml:space="preserve" transform="matrix(1 0 -0 1 92.15 334.4141)" font-size="14" font-family="TimesNewRomanPSMT"><tspan y="0" x="0 7">7.</tspan></text>
</g>
<g id="Layer-3" data-name="P">
<text xml:space="preserve" transform="matrix(1 0 -0 1 106.3 334.4141)" font-size="14" font-family="TimesNewRomanPSMT"><tspan y="0" x="0 3.5">  </tspan></text>
<text xml:space="preserve" transform="matrix(1 0 -0 1 106.3 334.4141)" font-size="14" font-family="TimesNewRomanPSMT"><tspan y="0" x="7 16.153203 22.366402 29.489602">&#x041a;&#x0430;&#x0434;&#x0438;</tspan></text>
<text xml:space="preserve" transform="matrix(1 0 -0 1 106.3 334.4141)" font-size="14" font-family="TimesNewRomanPSMT"><tspan y="0" x="36.982404"> </tspan></text>
<text xml:space="preserve" transform="matrix(1 0 -0 1 106.3 334.4141)" font-size="14" font-family="TimesNewRomanPSMT"><tspan y="0" x="40.482404 50.031805">&#x0414;&#x0436;</tspan></text>
<text xml:space="preserve" transform="matrix(1 0 -0 1 106.3 334.4141)" font-size="14" font-family="TimesNewRomanPSMT"><tspan y="0" x="59.704404 63.204404">. </tspan></text>
<text xml:space="preserve" transform="matrix(1 0 -0 1 106.3 334.4141)" font-size="14" font-family="TimesNewRomanPSMT"><tspan y="0" x="66.70441 75.34521 82.16041 89.14641 96.639209 103.6798 110.243007 116.45621 122.5742 129.1024 135.3156 142.80841 150.30123 159.70783">&#x041a;&#x043e;&#x043b;&#x0438;&#x0447;&#x0435;&#x0441;&#x0442;&#x0432;&#x0435;&#x043d;&#x043d;&#x044b;&#x0435;</tspan></text>
<text xml:space="preserve" transform="matrix(1 0 -0 1 106.3 334.4141)" font-size="14" font-family="TimesNewRomanPSMT"><tspan y="0" x="165.92102"> </tspan></text>
<text xml:space="preserve" transform="matrix(1 0 -0 1 106.3 334.4141)" font-size="14" font-family="TimesNewRomanPSMT"><tspan y="0" x="169.42102 178.28022 184.49341 190.4266 197.0234 204.1466">&#x043c;&#x0435;&#x0442;&#x043e;&#x0434;&#x044b;</tspan></text>
<text xml:space="preserve" transform="matrix(1 0 -0 1 106.3 334.4141)" font-size="14" font-family="TimesNewRomanPSMT"><tspan y="0" x="213.5532"> </tspan></text>
<text xml:space="preserve" transform="matrix(1 0 -0 1 106.3 334.4141)" font-size="14" font-family="TimesNewRomanPSMT"><tspan y="0" x="217.0532">&#x0432;</tspan></text>
<text xml:space="preserve" transform="matrix(1 0 -0 1 106.3 334.4141)" font-size="14" font-family="TimesNewRomanPSMT"><tspan y="0" x="223.66402"> </tspan></text>
<text xml:space="preserve" transform="matrix(1 0 -0 1 106.3 334.4141)" font-size="14" font-family="TimesNewRomanPSMT"><tspan y="0" x="227.16402 233.17282 239.26422 246.26422 253.75704 260.49104 269.35023 276.84303 283.2956">&#x044d;&#x043a;&#x043e;&#x043d;&#x043e;&#x043c;&#x0438;&#x043a;&#x0435;</tspan></text>
<text xml:space="preserve" transform="matrix(1 0 -0 1 106.3 334.4141)" font-size="14" font-family="TimesNewRomanPSMT"><tspan y="0" x="289.5088 293.0088">. </tspan></text>
<text xml:space="preserve" transform="matrix(1 0 -0 1 106.3 334.4141)" font-size="14" font-family="TimesNewRomanPSMT"><tspan y="0" x="296.5088">&#x041c;</tspan></text>
<text xml:space="preserve" transform="matrix(1 0 -0 1 106.3 334.4141)" font-size="14" font-family="TimesNewRomanPSMT"><tspan y="0" x="308.9576 312.4576 319.4576 326.4576 333.4576 340.4576 343.9576">,1977. </tspan></text>
<g id="Layer-4" data-name="Span">
<text xml:space="preserve" transform="matrix(1 0 -0 1 106.3 334.4141)" font-size="14" font-family="TimesNewRomanPSMT"><tspan y="0" x="347.457"> </tspan></text>
</g>
</g>
</g>
<g id="Layer-2" data-name="P">
<g id="Layer-3" data-name="P">
<text xml:space="preserve" transform="matrix(1 0 -0 1 92.15 358.1167)" font-size="14" font-family="TimesNewRomanPSMT"><tspan y="0" x="0 7">8.</tspan></text>
</g>
<g id="Layer-3" data-name="P">
<g id="Layer-4" data-name="P">
<text xml:space="preserve" transform="matrix(1 0 -0 1 106.3 358.1167)" font-size="14" font-family="TimesNewRomanPSMT"><tspan y="0" x="0 9.242801 15.334201 22.334202 29.827002 36.561006 45.420206 52.913007 59.502809">&#x042d;&#x043a;&#x043e;&#x043d;&#x043e;&#x043c;&#x0438;&#x043a;&#x0430;</tspan></text>
<text xml:space="preserve" transform="matrix(1 0 -0 1 106.3 358.1167)" font-size="14" font-family="TimesNewRomanPSMT"><tspan y="0" x="65.71601"> </tspan></text>
<text xml:space="preserve" transform="matrix(1 0 -0 1 106.3 358.1167)" font-size="14" font-family="TimesNewRomanPSMT"><tspan y="0" x="69.21601">&#x0438;</tspan></text>
<text xml:space="preserve" transform="matrix(1 0 -0 1 106.3 358.1167)" font-size="14" font-family="TimesNewRomanPSMT"><tspan y="0" x="76.70881"> </tspan></text>
<text xml:space="preserve" transform="matrix(1 0 -0 1 106.3 358.1167)" font-size="14" font-family="TimesNewRomanPSMT"><tspan y="0" x="80.20881 88.97281 94.824817 100.94281 107.15601 115.92001 121.77202 127.890018 135.38283 142.42343 148.98664 155.19983 162.00102 169.49384">&#x043c;&#x0430;&#x0442;&#x0435;&#x043c;&#x0430;&#x0442;&#x0438;&#x0447;&#x0435;&#x0441;&#x043a;&#x0438;&#x0435;</tspan></text>
<text xml:space="preserve" transform="matrix(1 0 -0 1 106.3 358.1167)" font-size="14" font-family="TimesNewRomanPSMT"><tspan y="0" x="175.70703"> </tspan></text>
<text xml:space="preserve" transform="matrix(1 0 -0 1 106.3 358.1167)" font-size="14" font-family="TimesNewRomanPSMT"><tspan y="0" x="179.20703 188.06623 194.27942 200.21262 206.80942 213.93262">&#x043c;&#x0435;&#x0442;&#x043e;&#x0434;&#x044b;</tspan></text>
<text xml:space="preserve" transform="matrix(1 0 -0 1 106.3 358.1167)" font-size="14" font-family="TimesNewRomanPSMT"><tspan y="0" x="223.33922 226.83922">. </tspan></text>
</g>
<g id="Layer-4" data-name="P">
<text xml:space="preserve" transform="matrix(1 0 -0 1 106.3 358.1167)" font-size="14" font-family="TimesNewRomanPSMT"><tspan y="0" x="230.3369 240.44771 250.55852 259.7593 263.2593 270.2593 274.1485 281.1485 292.0377 298.2509 305.2509 308.7509 313.41288">www.bigmax.ru</tspan></text>
</g>
<g id="Layer-4" data-name="P">
<text xml:space="preserve" transform="matrix(1 0 -0 1 106.3 358.1167)" font-size="14" font-family="TimesNewRomanPSMT"><tspan y="0" x="320.4141 323.9141">  </tspan></text>
<g id="Layer-5" data-name="Span">
<text xml:space="preserve" transform="matrix(1 0 -0 1 106.3 358.1167)" font-size="14" font-family="TimesNewRomanPSMT"><tspan y="0" x="327.4141"> </tspan></text>
</g>
</g>
</g>
</g>
<g id="Layer-2" data-name="P">
<g id="Layer-3" data-name="P">
<text xml:space="preserve" transform="matrix(1 0 -0 1 92.15 381.8194)" font-size="14" font-family="TimesNewRomanPSMT"><tspan y="0" x="0 7">9.</tspan></text>
</g>
<g id="Layer-3" data-name="P">
<g id="Layer-4" data-name="P">
<text xml:space="preserve" transform="matrix(1 0 -0 1 106.3 381.8194)" font-size="14" font-family="TimesNewRomanPSMT"><tspan y="0" x="0"> </tspan></text>
<text xml:space="preserve" transform="matrix(1 0 -0 1 106.3 381.8194)" font-size="14" font-family="TimesNewRomanPSMT"><tspan y="0" x="3.5 15.948801 21.800803 27.918803 34.132005 42.896005 48.748006 54.866006 62.358808 69.39941 75.96261 82.17581 88.97701 96.46981">&#x041c;&#x0430;&#x0442;&#x0435;&#x043c;&#x0430;&#x0442;&#x0438;&#x0447;&#x0435;&#x0441;&#x043a;&#x0438;&#x0435;</tspan></text>
<text xml:space="preserve" transform="matrix(1 0 -0 1 106.3 381.8194)" font-size="14" font-family="TimesNewRomanPSMT"><tspan y="0" x="102.683017"> </tspan></text>
<text xml:space="preserve" transform="matrix(1 0 -0 1 106.3 381.8194)" font-size="14" font-family="TimesNewRomanPSMT"><tspan y="0" x="106.183017 115.04221 121.25542 127.188617 133.78542 140.90862">&#x043c;&#x0435;&#x0442;&#x043e;&#x0434;&#x044b;</tspan></text>
<text xml:space="preserve" transform="matrix(1 0 -0 1 106.3 381.8194)" font-size="14" font-family="TimesNewRomanPSMT"><tspan y="0" x="150.31522"> </tspan></text>
<text xml:space="preserve" transform="matrix(1 0 -0 1 106.3 381.8194)" font-size="14" font-family="TimesNewRomanPSMT"><tspan y="0" x="153.81522 160.02841 167.52123 173.85764 180.84363 188.33644 193.86644">&#x0430;&#x043d;&#x0430;&#x043b;&#x0438;&#x0437;&#x0430;</tspan></text>
<text xml:space="preserve" transform="matrix(1 0 -0 1 106.3 381.8194)" font-size="14" font-family="TimesNewRomanPSMT"><tspan y="0" x="200.07964"> </tspan></text>
<text xml:space="preserve" transform="matrix(1 0 -0 1 106.3 381.8194)" font-size="14" font-family="TimesNewRomanPSMT"><tspan y="0" x="203.57964 209.58844 215.67984 222.67984 230.17266 236.90665 245.76584 253.25865 260.05986">&#x044d;&#x043a;&#x043e;&#x043d;&#x043e;&#x043c;&#x0438;&#x043a;&#x0438;</tspan></text>
<text xml:space="preserve" transform="matrix(1 0 -0 1 106.3 381.8194)" font-size="14" font-family="TimesNewRomanPSMT"><tspan y="0" x="267.55265 271.05265">. </tspan></text>
</g>
<g id="Layer-4" data-name="P">
<text xml:space="preserve" transform="matrix(1 0 -0 1 106.3 381.8194)" font-size="14" font-family="TimesNewRomanPSMT"><tspan y="0" x="274.5518 281.5518 285.44099 289.33018 296.33018 300.21937 304.10856 307.99775 318.10856 328.21937 337.42018 340.92018 346.369 353.369 360.369 367.369 374.369 377.869 382.53099">http://www.shop4.ru</tspan></text>
</g>
<g id="Layer-4" data-name="P">
<g id="Layer-5" data-name="Span">
<text xml:space="preserve" transform="matrix(1 0 -0 1 106.3 381.8194)" font-size="14" font-family="TimesNewRomanPSMT"><tspan y="0" x="389.5322"> </tspan></text>
</g>
</g>
</g>
</g>
<g id="Layer-2" data-name="P">
<g id="Layer-3" data-name="P">
<text xml:space="preserve" transform="matrix(1 0 -0 1 92.15 405.522)" font-size="14" font-family="TimesNewRomanPSMT"><tspan y="0" x="0 7 14">10.</tspan></text>
</g>
<g id="Layer-3" data-name="P">
<g id="Layer-4" data-name="P">
<text xml:space="preserve" transform="matrix(1 0 -0 1 109.65 405.522)" font-size="14" font-family="TimesNewRomanPSMT"><tspan y="0" x="0 11.860801 18.860802 25.860802 33.353605 39.690004">&#x0416;&#x0443;&#x0440;&#x043d;&#x0430;&#x043b;</tspan></text>
<text xml:space="preserve" transform="matrix(1 0 -0 1 109.65 405.522)" font-size="14" font-family="TimesNewRomanPSMT"><tspan y="0" x="46.676004 50.176004"> &#x00ab;</tspan></text>
<text xml:space="preserve" transform="matrix(1 0 -0 1 109.65 405.522)" font-size="14" font-family="TimesNewRomanPSMT"><tspan y="0" x="57.176004 66.4188 72.5102 79.5102 87.003 93.737 102.5962 110.089 116.678798">&#x042d;&#x043a;&#x043e;&#x043d;&#x043e;&#x043c;&#x0438;&#x043a;&#x0430;</tspan></text>
<text xml:space="preserve" transform="matrix(1 0 -0 1 109.65 405.522)" font-size="14" font-family="TimesNewRomanPSMT"><tspan y="0" x="122.892"> </tspan></text>
<text xml:space="preserve" transform="matrix(1 0 -0 1 109.65 405.522)" font-size="14" font-family="TimesNewRomanPSMT"><tspan y="0" x="126.392">&#x0438;</tspan></text>
<text xml:space="preserve" transform="matrix(1 0 -0 1 109.65 405.522)" font-size="14" font-family="TimesNewRomanPSMT"><tspan y="0" x="133.88481"> </tspan></text>
<text xml:space="preserve" transform="matrix(1 0 -0 1 109.65 405.522)" font-size="14" font-family="TimesNewRomanPSMT"><tspan y="0" x="137.38481 146.1488 152.00081 158.1188 164.332 173.096 178.948 185.066 192.5588 199.59941 206.16262 212.37581 219.177 226.66982">&#x043c;&#x0430;&#x0442;&#x0435;&#x043c;&#x0430;&#x0442;&#x0438;&#x0447;&#x0435;&#x0441;&#x043a;&#x0438;&#x0435;</tspan></text>
<text xml:space="preserve" transform="matrix(1 0 -0 1 109.65 405.522)" font-size="14" font-family="TimesNewRomanPSMT"><tspan y="0" x="232.88301"> </tspan></text>
<text xml:space="preserve" transform="matrix(1 0 -0 1 109.65 405.522)" font-size="14" font-family="TimesNewRomanPSMT"><tspan y="0" x="236.38301 245.2422 251.4554 257.38859 263.98539 271.10859">&#x043c;&#x0435;&#x0442;&#x043e;&#x0434;&#x044b;</tspan></text>
<text xml:space="preserve" transform="matrix(1 0 -0 1 109.65 405.522)" font-size="14" font-family="TimesNewRomanPSMT"><tspan y="0" x="280.51518 287.51518 291.01518">&#x00bb;. </tspan></text>
</g>
<g id="Layer-4" data-name="P">
<text xml:space="preserve" transform="matrix(1 0 -0 1 109.65 405.522)" font-size="14" font-family="TimesNewRomanPSMT"><tspan y="0" x="294.5127 300.7259 307.7259 313.9391 320.9391 324.82829 328.71748 334.1663 337.6663 342.32829">adeptis.ru</tspan></text>
</g>
<g id="Layer-4" data-name="P">
<text xml:space="preserve" transform="matrix(1 0 -0 1 109.65 405.522)" font-size="14" font-family="TimesNewRomanPSMT"><tspan y="0" x="349.3301"> </tspan></text>
<g id="Layer-5" data-name="Span">
<text xml:space="preserve" transform="matrix(1 0 -0 1 109.65 405.522)" font-size="14" font-family="TimesNewRomanPSMT"><tspan y="0" x="352.8301"> </tspan></text>
</g>
</g>
</g>
</g>
</g>
<g id="Layer-1" data-name="P">
<g id="Layer-2" data-name="P">
<g id="Layer-3" data-name="P">
<text xml:space="preserve" transform="matrix(1 0 -0 1 85.05 429.2247)" font-size="14" font-family="TimesNewRomanPSMT"><tspan y="0" x="0 6.4806 13.4806">11.</tspan></text>
</g>
<g id="Layer-3" data-name="P">
<g id="Layer-4" data-name="P">
<text xml:space="preserve" transform="matrix(1 0 -0 1 102.0305 429.2247)" font-size="14" font-family="TimesNewRomanPSMT"><tspan y="0" x="0 10.110801 16.926003 23.912003 30.030003 36.243204 43.243204 50.243204 56.854005 64.3468">&#x041f;&#x043e;&#x043b;&#x0442;&#x0435;&#x0440;&#x043e;&#x0432;&#x0438;&#x0447;</tspan></text>
<text xml:space="preserve" transform="matrix(1 0 -0 1 102.0305 429.2247)" font-size="14" font-family="TimesNewRomanPSMT"><tspan y="0" x="71.3874"> </tspan></text>
<text xml:space="preserve" transform="matrix(1 0 -0 1 102.0305 429.2247)" font-size="14" font-family="TimesNewRomanPSMT"><tspan y="0" x="74.8874">&#x0412;</tspan></text>
<text xml:space="preserve" transform="matrix(1 0 -0 1 102.0305 429.2247)" font-size="14" font-family="TimesNewRomanPSMT"><tspan y="0" x="84.2254">.</tspan></text>
<text xml:space="preserve" transform="matrix(1 0 -0 1 102.0305 429.2247)" font-size="14" font-family="TimesNewRomanPSMT"><tspan y="0" x="87.7254">&#x041c;</tspan></text>
<text xml:space="preserve" transform="matrix(1 0 -0 1 102.0305 429.2247)" font-size="14" font-family="TimesNewRomanPSMT"><tspan y="0" x="100.1742 103.6742">. </tspan></text>
<text xml:space="preserve" transform="matrix(1 0 -0 1 102.0305 429.2247)" font-size="14" font-family="TimesNewRomanPSMT"><tspan y="0" x="107.1742 116.417 122.5084 129.50839 137.0012 143.7352 152.59439 160.0872 166.677">&#x042d;&#x043a;&#x043e;&#x043d;&#x043e;&#x043c;&#x0438;&#x043a;&#x0430;</tspan></text>
<text xml:space="preserve" transform="matrix(1 0 -0 1 102.0305 429.2247)" font-size="14" font-family="TimesNewRomanPSMT"><tspan y="0" x="172.8902"> </tspan></text>
<text xml:space="preserve" transform="matrix(1 0 -0 1 102.0305 429.2247)" font-size="14" font-family="TimesNewRomanPSMT"><tspan y="0" x="176.3902">&#x0438;</tspan></text>
<text xml:space="preserve" transform="matrix(1 0 -0 1 102.0305 429.2247)" font-size="14" font-family="TimesNewRomanPSMT"><tspan y="0" x="183.88301"> </tspan></text>
<text xml:space="preserve" transform="matrix(1 0 -0 1 102.0305 429.2247)" font-size="14" font-family="TimesNewRomanPSMT"><tspan y="0" x="187.38301 196.147 201.99901 208.117 214.3302 223.0942 228.9462 235.0642 242.557 249.59761 256.16084 262.37403 269.1752 276.668">&#x043c;&#x0430;&#x0442;&#x0435;&#x043c;&#x0430;&#x0442;&#x0438;&#x0447;&#x0435;&#x0441;&#x043a;&#x0438;&#x0435;</tspan></text>
<text xml:space="preserve" transform="matrix(1 0 -0 1 102.0305 429.2247)" font-size="14" font-family="TimesNewRomanPSMT"><tspan y="0" x="282.8812"> </tspan></text>
<text xml:space="preserve" transform="matrix(1 0 -0 1 102.0305 429.2247)" font-size="14" font-family="TimesNewRomanPSMT"><tspan y="0" x="286.3812 295.2404 301.45359 307.38679 313.98359 321.10679">&#x043c;&#x0435;&#x0442;&#x043e;&#x0434;&#x044b;</tspan></text>
<text xml:space="preserve" transform="matrix(1 0 -0 1 102.0305 429.2247)" font-size="14" font-family="TimesNewRomanPSMT"><tspan y="0" x="330.51338 334.01338 337.51338">.  </tspan></text>
</g>
<g id="Layer-4" data-name="P">
<text xml:space="preserve" transform="matrix(1 0 -0 1 99.2 452.9273)" font-size="14" font-family="TimesNewRomanPSMT"><tspan y="0" x="0 10.110801 20.221602 29.422402 32.9224 43.811605 50.024805 57.024805 63.238004 70.23801 76.45121 87.34041 93.55361 100.55361 104.44281 107.94281 114.15601 121.15601 128.156 131.656 136.31801">www.management.edu.ru</tspan></text>
</g>
<g id="Layer-4" data-name="P">
<text xml:space="preserve" transform="matrix(1 0 -0 1 99.2 452.9273)" font-size="14" font-family="TimesNewRomanPSMT"><tspan y="0" x="143.3223 146.8223 150.3223 153.8223">    </tspan></text>
<g id="Layer-5" data-name="Span">
<text xml:space="preserve" transform="matrix(1 0 -0 1 99.2 452.9273)" font-size="14" font-family="TimesNewRomanPSMT"><tspan y="0" x="157.3223"> </tspan></text>
</g>
</g>
</g>
</g>
</g>
<g id="Layer-1" data-name="P">
<text xml:space="preserve" transform="matrix(1 0 -0 1 282.0968 775.7532)" font-size="14" font-family="TimesNewRomanPSMT"><tspan y="0" x="0 9.338001 15.934801 23.058 29.271203 36.271203 45.9438 52.157 59.649805 67.1426">&#x0421;&#x043e;&#x0434;&#x0435;&#x0440;&#x0436;&#x0430;&#x043d;&#x0438;&#x0435;</tspan></text>
<g id="Layer-2" data-name="Span">
<text xml:space="preserve" transform="matrix(1 0 -0 1 282.0968 775.7532)" font-size="14" font-family="TimesNewRomanPSMT"><tspan y="0" x="73.35645"> </tspan></text>
</g>
</g>
<path transform="matrix(1,0,0,1,85.05,56.700014)" stroke-width=".6835938" stroke-linecap="butt" stroke-miterlimit="10" stroke-linejoin="miter" fill="none" stroke="#000000" d="M 251.5869 302.9412 L 341.6641 302.9412 "/>
<path transform="matrix(1,0,0,1,85.05,56.700014)" stroke-width=".6835938" stroke-linecap="butt" stroke-miterlimit="10" stroke-linejoin="miter" fill="none" stroke="#000000" d="M 295.8018 326.6438 L 410.7822 326.6438 "/>
<path transform="matrix(1,0,0,1,85.05,56.700014)" stroke-width=".6835938" stroke-linecap="butt" stroke-miterlimit="10" stroke-linejoin="miter" fill="none" stroke="#000000" d="M 319.1127 350.3464 L 373.9301 350.3464 "/>
<path transform="matrix(1,0,0,1,85.05,56.700014)" stroke-width=".6835938" stroke-linecap="butt" stroke-miterlimit="10" stroke-linejoin="miter" fill="none" stroke="#000000" d="M 14.15 397.7517 L 157.4723 397.7517 "/>
<g id="Layer-1" data-name="P">
<g id="Layer-2" data-name="Span">
</g>
<clipPath id="cp2017">
<path transform="matrix(1,0,0,-1,0,842)" d="M 82.3 30.22227 L 555.25 30.22227 L 555.25 61.722269 L 82.3 61.722269 Z "/>
</clipPath>
<g clip-path="url(#cp2017)">
<text xml:space="preserve" transform="matrix(1 0 -0 1 313.1998 790.85)" font-size="11" font-family="Calibri"><tspan y="0" x="11.15039"> </tspan></text>
</g>
<text xml:space="preserve" transform="matrix(1 0 -0 1 313.1998 790.85)" font-size="11" font-family="Calibri"><tspan y="0" x="0 5.5748007">49</tspan></text>
</g>
</g>
</g>
</svg>
