<?xml version="1.0" encoding="UTF-8" standalone="no"?>
<!DOCTYPE svg PUBLIC "-//W3C//DTD SVG 1.1//EN" "http://www.w3.org/Graphics/SVG/1.1/DTD/svg11.dtd">
<svg xmlns="http://www.w3.org/2000/svg" xmlns:xlink="http://www.w3.org/1999/xlink" version="1.1" width="595pt" height="842pt" viewBox="0 0 595 842">
<g enable-background="new">
<clipPath id="cp12">
<path transform="matrix(1,0,0,-1,0,842)" d="M 0 0 L 595 0 L 595 842 L 0 842 Z "/>
</clipPath>
<g clip-path="url(#cp12)">
<path transform="matrix(1,0,0,-1,0,842)" d="M 0 842 L 595 842 L 595 0 L 0 0 Z " fill="#ffffff"/>
<g id="Layer-1" data-name="P">
<g id="Layer-2" data-name="P">
<g id="Layer-3" data-name="P">
</g>
<clipPath id="cp13">
<path transform="matrix(1,0,0,-1,0,842)" d="M 81.17403 58.97227 L 556.37606 58.97227 L 556.37606 789.17599 L 81.17403 789.17599 Z "/>
</clipPath>
<g clip-path="url(#cp13)">
<text xml:space="preserve" transform="matrix(1 0 -0 1 102.05 69.07703)" font-size="14" font-family="TimesNewRomanPSMT"><tspan y="0" x="0 7 14">12.</tspan></text>
</g>
<g id="Layer-3" data-name="P">
<text xml:space="preserve" transform="matrix(1 0 -0 1 120.05 69.07703)" font-size="14" font-family="TimesNewRomanPSMT"><tspan y="0" x="0"> </tspan></text>
<text xml:space="preserve" transform="matrix(1 0 -0 1 120.05 69.07703)" font-size="14" font-family="TimesNewRomanPSMT"><tspan y="0" x="5.4222 15.533001 22.533 28.7462 34.8642">&#x041f;&#x0443;&#x0441;&#x0442;&#x044c;</tspan></text>
<text xml:space="preserve" transform="matrix(1 0 -0 1 120.05 69.07703)" font-size="14" font-family="TimesNewRomanPSMT"><tspan y="0" x="41.2496"> </tspan></text>
<text xml:space="preserve" transform="matrix(1 0 -0 1 120.05 69.07703)" font-size="14" font-family="TimesNewRomanPSMT"><tspan y="0" x="46.6718 55.742399 63.2352 70.023799 78.787799">&#x0444;&#x0438;&#x0440;&#x043c;&#x0430;</tspan></text>
<text xml:space="preserve" transform="matrix(1 0 -0 1 120.05 69.07703)" font-size="14" font-family="TimesNewRomanPSMT"><tspan y="0" x="85.001"> </tspan></text>
<text xml:space="preserve" transform="matrix(1 0 -0 1 120.05 69.07703)" font-size="14" font-family="TimesNewRomanPSMT"><tspan y="0" x="90.4232 97.034008 106.4406 113.933399 120.933399 127.1466 133.73639 139.94959 146.16278">&#x0432;&#x044b;&#x043f;&#x0443;&#x0441;&#x043a;&#x0430;&#x0435;&#x0442;</tspan></text>
<text xml:space="preserve" transform="matrix(1 0 -0 1 120.05 69.07703)" font-size="14" font-family="TimesNewRomanPSMT"><tspan y="0" x="152.28078"> </tspan></text>
<text xml:space="preserve" transform="matrix(1 0 -0 1 120.05 69.07703)" font-size="14" font-family="TimesNewRomanPSMT"><tspan y="0" x="157.70298 164.29978 171.42298 178.91579">&#x043e;&#x0434;&#x0438;&#x043d;</tspan></text>
<text xml:space="preserve" transform="matrix(1 0 -0 1 120.05 69.07703)" font-size="14" font-family="TimesNewRomanPSMT"><tspan y="0" x="186.4086"> </tspan></text>
<text xml:space="preserve" transform="matrix(1 0 -0 1 120.05 69.07703)" font-size="14" font-family="TimesNewRomanPSMT"><tspan y="0" x="191.8308 198.4416 205.93442">&#x0432;&#x0438;&#x0434;</tspan></text>
<text xml:space="preserve" transform="matrix(1 0 -0 1 120.05 69.07703)" font-size="14" font-family="TimesNewRomanPSMT"><tspan y="0" x="213.05762"> </tspan></text>
<text xml:space="preserve" transform="matrix(1 0 -0 1 120.05 69.07703)" font-size="14" font-family="TimesNewRomanPSMT"><tspan y="0" x="218.47982 225.97263 232.97263 239.56943 246.69263 253.69263 260.4938 267.9866 275.4794">&#x043f;&#x0440;&#x043e;&#x0434;&#x0443;&#x043a;&#x0446;&#x0438;&#x0438;</tspan></text>
<text xml:space="preserve" transform="matrix(1 0 -0 1 120.05 69.07703)" font-size="14" font-family="TimesNewRomanPSMT"><tspan y="0" x="282.9722 286.4722">, </tspan></text>
<text xml:space="preserve" transform="matrix(1 0 -0 1 120.05 69.07703)" font-size="14" font-family="TimesNewRomanPSMT"><tspan y="0" x="291.8944 299.3872 306.3872 313.88 320.9206 327.1338">&#x043f;&#x0440;&#x0438;&#x0447;&#x0435;&#x043c;</tspan></text>
<text xml:space="preserve" transform="matrix(1 0 -0 1 120.05 69.07703)" font-size="14" font-family="TimesNewRomanPSMT"><tspan y="0" x="335.99299"> </tspan></text>
<text xml:space="preserve" transform="matrix(1 0 -0 1 120.05 69.07703)" font-size="14" font-family="TimesNewRomanPSMT"><tspan y="0" x="341.4152 348.4152 355.1898 362.4292 368.6424">&#x043e;&#x0431;&#x044a;&#x0435;&#x043c;</tspan></text>
<text xml:space="preserve" transform="matrix(1 0 -0 1 120.05 69.07703)" font-size="14" font-family="TimesNewRomanPSMT"><tspan y="0" x="377.5016"> </tspan></text>
<text xml:space="preserve" transform="matrix(1 0 -0 1 120.05 69.07703)" font-size="14" font-family="TimesNewRomanPSMT"><tspan y="0" x="382.9238 389.5346 398.9412 406.434 413.434 419.6472 426.23698">&#x0432;&#x044b;&#x043f;&#x0443;&#x0441;&#x043a;&#x0430;</tspan></text>
<text xml:space="preserve" transform="matrix(1 0 -0 1 120.05 69.07703)" font-size="14" font-family="TimesNewRomanPSMT"><tspan y="0" x="432.45018"> </tspan></text>
<text xml:space="preserve" transform="matrix(1 0 -0 1 120.05 92.7796)" font-size="14" font-family="TimesNewRomanPSMT"><tspan y="0" x="0 5.53 11.7432 18.354 25.8468 32.06 39.552804">&#x0437;&#x0430;&#x0432;&#x0438;&#x0441;&#x0438;&#x0442;</tspan></text>
<text xml:space="preserve" transform="matrix(1 0 -0 1 120.05 92.7796)" font-size="14" font-family="TimesNewRomanPSMT"><tspan y="0" x="45.670804"> </tspan></text>
<text xml:space="preserve" transform="matrix(1 0 -0 1 120.05 92.7796)" font-size="14" font-family="TimesNewRomanPSMT"><tspan y="0" x="50.024805 56.840005">&#x043e;&#x0442;</tspan></text>
<text xml:space="preserve" transform="matrix(1 0 -0 1 120.05 92.7796)" font-size="14" font-family="TimesNewRomanPSMT"><tspan y="0" x="62.958005"> </tspan></text>
<text xml:space="preserve" transform="matrix(1 0 -0 1 120.05 92.7796)" font-size="14" font-family="TimesNewRomanPSMT"><tspan y="0" x="67.31201 72.84201 78.694019 84.98281 91.98281 97.834819">&#x0437;&#x0430;&#x0442;&#x0440;&#x0430;&#x0442;</tspan></text>
<text xml:space="preserve" transform="matrix(1 0 -0 1 120.05 92.7796)" font-size="14" font-family="TimesNewRomanPSMT"><tspan y="0" x="103.95282"> </tspan></text>
<text xml:space="preserve" transform="matrix(1 0 -0 1 120.05 92.7796)" font-size="14" font-family="TimesNewRomanPSMT"><tspan y="0" x="108.30682 114.24002 121.05522 128.04123 134.42664 140.51804">&#x0442;&#x043e;&#x043b;&#x044c;&#x043a;&#x043e;</tspan></text>
<text xml:space="preserve" transform="matrix(1 0 -0 1 120.05 92.7796)" font-size="14" font-family="TimesNewRomanPSMT"><tspan y="0" x="147.51804"> </tspan></text>
<text xml:space="preserve" transform="matrix(1 0 -0 1 120.05 92.7796)" font-size="14" font-family="TimesNewRomanPSMT"><tspan y="0" x="151.87204 158.99524 165.12725 172.12725">&#x0434;&#x0432;&#x0443;&#x0445;</tspan></text>
<text xml:space="preserve" transform="matrix(1 0 -0 1 120.05 92.7796)" font-size="14" font-family="TimesNewRomanPSMT"><tspan y="0" x="179.12725"> </tspan></text>
<text xml:space="preserve" transform="matrix(1 0 -0 1 120.05 92.7796)" font-size="14" font-family="TimesNewRomanPSMT"><tspan y="0" x="183.48125 192.55185 198.76505 205.38285 211.31604 218.31604 225.31604 232.31604">&#x0444;&#x0430;&#x043a;&#x0442;&#x043e;&#x0440;&#x043e;&#x0432;</tspan></text>
<text xml:space="preserve" transform="matrix(1 0 -0 1 120.05 92.7796)" font-size="14" font-family="TimesNewRomanPSMT"><tspan y="0" x="238.92685 242.81604">: </tspan></text>
<text xml:space="preserve" transform="matrix(1 0 -0 1 120.05 92.7796)" font-size="14" font-family="TimesNewRomanPSMT"><tspan y="0" x="247.17005 253.45885 260.27406 266.39207 273.51527">&#x0442;&#x0440;&#x0443;&#x0434;&#x0430;</tspan></text>
<text xml:space="preserve" transform="matrix(1 0 -0 1 120.05 92.7796)" font-size="14" font-family="TimesNewRomanPSMT"><tspan y="0" x="279.72846"> </tspan></text>
<text xml:space="preserve" transform="matrix(1 0 -0 1 120.05 92.7796)" font-size="14" font-family="TimesNewRomanPSMT"><tspan y="0" x="284.08247">&#x0438;</tspan></text>
<text xml:space="preserve" transform="matrix(1 0 -0 1 120.05 92.7796)" font-size="14" font-family="TimesNewRomanPSMT"><tspan y="0" x="291.57527"> </tspan></text>
<text xml:space="preserve" transform="matrix(1 0 -0 1 120.05 92.7796)" font-size="14" font-family="TimesNewRomanPSMT"><tspan y="0" x="295.92927 302.51905 308.54887 316.04167 323.53446 329.82328 336.15968 343.14567">&#x043a;&#x0430;&#x043f;&#x0438;&#x0442;&#x0430;&#x043b;&#x0430;</tspan></text>
<text xml:space="preserve" transform="matrix(1 0 -0 1 120.05 92.7796)" font-size="14" font-family="TimesNewRomanPSMT"><tspan y="0" x="349.35887 352.85887">. </tspan></text>
<text xml:space="preserve" transform="matrix(1 0 -0 1 120.05 92.7796)" font-size="14" font-family="TimesNewRomanPSMT"><tspan y="0" x="357.21287 364.22688 370.44007 377.56327 383.77647 391.26927">&#x0417;&#x0430;&#x0434;&#x0430;&#x043d;&#x044b;</tspan></text>
<text xml:space="preserve" transform="matrix(1 0 -0 1 120.05 92.7796)" font-size="14" font-family="TimesNewRomanPSMT"><tspan y="0" x="400.67585"> </tspan></text>
<text xml:space="preserve" transform="matrix(1 0 -0 1 120.05 92.7796)" font-size="14" font-family="TimesNewRomanPSMT"><tspan y="0" x="405.02986 412.52265 418.73585 426.22865">&#x0446;&#x0435;&#x043d;&#x0430;</tspan></text>
<text xml:space="preserve" transform="matrix(1 0 -0 1 120.05 92.7796)" font-size="14" font-family="TimesNewRomanPSMT"><tspan y="0" x="432.44184"> </tspan></text>
<text xml:space="preserve" transform="matrix(1 0 -0 1 120.05 116.48218)" font-size="14" font-family="TimesNewRomanPSMT"><tspan y="0" x="0 6.0298006 13.153 20.6458 28.1386 35.6314 43.124204">&#x0435;&#x0434;&#x0438;&#x043d;&#x0438;&#x0446;&#x044b;</tspan></text>
<text xml:space="preserve" transform="matrix(1 0 -0 1 120.05 116.48218)" font-size="14" font-family="TimesNewRomanPSMT"><tspan y="0" x="52.530805"> </tspan></text>
<text xml:space="preserve" transform="matrix(1 0 -0 1 120.05 116.48218)" font-size="14" font-family="TimesNewRomanPSMT"><tspan y="0" x="61.128206 67.417 74.2322 80.3502 87.4734">&#x0442;&#x0440;&#x0443;&#x0434;&#x0430;</tspan></text>
<text xml:space="preserve" transform="matrix(1 0 -0 1 120.05 116.48218)" font-size="14" font-family="TimesNewRomanPSMT"><tspan y="0" x="93.6866 102.284"> (</tspan></text>
<text xml:space="preserve" transform="matrix(1 0 -0 1 120.05 116.48218)" font-size="14" font-family="TimesNewRomanPSMT"><tspan y="0" x="106.946 113.1592 119.448009 125.66121 132.27202 138.86182">&#x0441;&#x0442;&#x0430;&#x0432;&#x043a;&#x0430;</tspan></text>
<text xml:space="preserve" transform="matrix(1 0 -0 1 120.05 116.48218)" font-size="14" font-family="TimesNewRomanPSMT"><tspan y="0" x="145.07501"> </tspan></text>
<text xml:space="preserve" transform="matrix(1 0 -0 1 120.05 116.48218)" font-size="14" font-family="TimesNewRomanPSMT"><tspan y="0" x="153.67241 159.20241 165.4156 172.4156 178.6288 185.752 192.5672 198.6852 206.17801 213.17801">&#x0437;&#x0430;&#x0440;&#x0430;&#x0431;&#x043e;&#x0442;&#x043d;&#x043e;&#x0439;</tspan></text>
<text xml:space="preserve" transform="matrix(1 0 -0 1 120.05 116.48218)" font-size="14" font-family="TimesNewRomanPSMT"><tspan y="0" x="220.67082"> </tspan></text>
<text xml:space="preserve" transform="matrix(1 0 -0 1 120.05 116.48218)" font-size="14" font-family="TimesNewRomanPSMT"><tspan y="0" x="229.26822 236.76103 243.74704 249.59905 255.71704">&#x043f;&#x043b;&#x0430;&#x0442;&#x044b;</tspan></text>
<text xml:space="preserve" transform="matrix(1 0 -0 1 120.05 116.48218)" font-size="14" font-family="TimesNewRomanPSMT"><tspan y="0" x="265.12364 269.7856 273.2856">), </tspan></text>
<text xml:space="preserve" transform="matrix(1 0 -0 1 120.05 116.48218)" font-size="14" font-family="TimesNewRomanPSMT"><tspan y="0" x="281.88304 289.37583 295.58903 303.08183">&#x0446;&#x0435;&#x043d;&#x0430;</tspan></text>
<text xml:space="preserve" transform="matrix(1 0 -0 1 120.05 116.48218)" font-size="14" font-family="TimesNewRomanPSMT"><tspan y="0" x="309.295"> </tspan></text>
<text xml:space="preserve" transform="matrix(1 0 -0 1 120.05 116.48218)" font-size="14" font-family="TimesNewRomanPSMT"><tspan y="0" x="317.89244 323.92225 331.04545 338.53825 346.03105 353.52384 361.01664">&#x0435;&#x0434;&#x0438;&#x043d;&#x0438;&#x0446;&#x044b;</tspan></text>
<text xml:space="preserve" transform="matrix(1 0 -0 1 120.05 116.48218)" font-size="14" font-family="TimesNewRomanPSMT"><tspan y="0" x="370.42323"> </tspan></text>
<text xml:space="preserve" transform="matrix(1 0 -0 1 120.05 116.48218)" font-size="14" font-family="TimesNewRomanPSMT"><tspan y="0" x="379.02064 385.6104 391.64024 399.13304 406.62583 412.91465 419.25105 426.23704">&#x043a;&#x0430;&#x043f;&#x0438;&#x0442;&#x0430;&#x043b;&#x0430;</tspan></text>
<text xml:space="preserve" transform="matrix(1 0 -0 1 120.05 116.48218)" font-size="14" font-family="TimesNewRomanPSMT"><tspan y="0" x="432.45024"> </tspan></text>
<text xml:space="preserve" transform="matrix(1 0 -0 1 120.05 140.18488)" font-size="14" font-family="TimesNewRomanPSMT"><tspan y="0" x="0">(</tspan></text>
<text xml:space="preserve" transform="matrix(1 0 -0 1 120.05 140.18488)" font-size="14" font-family="TimesNewRomanPSMT"><tspan y="0" x="4.662 10.8752 17.164 23.377202 29.988 36.5778">&#x0441;&#x0442;&#x0430;&#x0432;&#x043a;&#x0430;</tspan></text>
<text xml:space="preserve" transform="matrix(1 0 -0 1 120.05 140.18488)" font-size="14" font-family="TimesNewRomanPSMT"><tspan y="0" x="42.791"> </tspan></text>
<text xml:space="preserve" transform="matrix(1 0 -0 1 120.05 140.18488)" font-size="14" font-family="TimesNewRomanPSMT"><tspan y="0" x="49.2156 56.7084 63.7084 70.708408 78.2012 84.414409 91.9072 98.19601">&#x043f;&#x0440;&#x043e;&#x0446;&#x0435;&#x043d;&#x0442;&#x0430;</tspan></text>
<text xml:space="preserve" transform="matrix(1 0 -0 1 120.05 140.18488)" font-size="14" font-family="TimesNewRomanPSMT"><tspan y="0" x="104.40921 109.07121">) </tspan></text>
<text xml:space="preserve" transform="matrix(1 0 -0 1 120.05 140.18488)" font-size="14" font-family="TimesNewRomanPSMT"><tspan y="0" x="115.49581">&#x0438;</tspan></text>
<text xml:space="preserve" transform="matrix(1 0 -0 1 120.05 140.18488)" font-size="14" font-family="TimesNewRomanPSMT"><tspan y="0" x="122.98861"> </tspan></text>
<text xml:space="preserve" transform="matrix(1 0 -0 1 120.05 140.18488)" font-size="14" font-family="TimesNewRomanPSMT"><tspan y="0" x="129.41321 136.90602 142.18402 149.30722 155.52042 162.52042 172.19301 178.9942">&#x0438;&#x0437;&#x0434;&#x0435;&#x0440;&#x0436;&#x043a;&#x0438;</tspan></text>
<text xml:space="preserve" transform="matrix(1 0 -0 1 120.05 140.18488)" font-size="14" font-family="TimesNewRomanPSMT"><tspan y="0" x="186.48702"> </tspan></text>
<text xml:space="preserve" transform="matrix(1 0 -0 1 120.05 140.18488)" font-size="14" font-family="TimesNewRomanPSMT"><tspan y="0" x="192.91162 201.98223 209.47504 216.26364 225.12284">&#x0444;&#x0438;&#x0440;&#x043c;&#x044b;</tspan></text>
<text xml:space="preserve" transform="matrix(1 0 -0 1 120.05 140.18488)" font-size="14" font-family="TimesNewRomanPSMT"><tspan y="0" x="234.52944 238.02944">. </tspan></text>
<text xml:space="preserve" transform="matrix(1 0 -0 1 120.05 140.18488)" font-size="14" font-family="TimesNewRomanPSMT"><tspan y="0" x="244.45404 251.46805 257.68125 264.80445 270.45765 277.49824">&#x0417;&#x0430;&#x0434;&#x0430;&#x0447;&#x0430;</tspan></text>
<text xml:space="preserve" transform="matrix(1 0 -0 1 120.05 140.18488)" font-size="14" font-family="TimesNewRomanPSMT"><tspan y="0" x="283.71144"> </tspan></text>
<text xml:space="preserve" transform="matrix(1 0 -0 1 120.05 140.18488)" font-size="14" font-family="TimesNewRomanPSMT"><tspan y="0" x="290.13603 296.3492 303.6978 309.911 315.8442 322.8442 330.337">&#x0441;&#x043e;&#x0441;&#x0442;&#x043e;&#x0438;&#x0442;</tspan></text>
<text xml:space="preserve" transform="matrix(1 0 -0 1 120.05 140.18488)" font-size="14" font-family="TimesNewRomanPSMT"><tspan y="0" x="336.45503"> </tspan></text>
<text xml:space="preserve" transform="matrix(1 0 -0 1 120.05 140.18488)" font-size="14" font-family="TimesNewRomanPSMT"><tspan y="0" x="342.8796">&#x0432;</tspan></text>
<text xml:space="preserve" transform="matrix(1 0 -0 1 120.05 140.18488)" font-size="14" font-family="TimesNewRomanPSMT"><tspan y="0" x="349.49043"> </tspan></text>
<text xml:space="preserve" transform="matrix(1 0 -0 1 120.05 140.18488)" font-size="14" font-family="TimesNewRomanPSMT"><tspan y="0" x="355.915 362.915 370.4078 377.4078 383.43763 390.56083 396.77403 403.76 409.9732 417.466 424.9588">&#x043e;&#x043f;&#x0440;&#x0435;&#x0434;&#x0435;&#x043b;&#x0435;&#x043d;&#x0438;&#x0438;</tspan></text>
<text xml:space="preserve" transform="matrix(1 0 -0 1 120.05 140.18488)" font-size="14" font-family="TimesNewRomanPSMT"><tspan y="0" x="432.4516"> </tspan></text>
<text xml:space="preserve" transform="matrix(1 0 -0 1 120.05 163.88751)" font-size="14" font-family="TimesNewRomanPSMT"><tspan y="0" x="0 7 13.774599 21.014 27.2272 36.0864 43.0864">&#x043e;&#x0431;&#x044a;&#x0435;&#x043c;&#x043e;&#x0432;</tspan></text>
<text xml:space="preserve" transform="matrix(1 0 -0 1 120.05 163.88751)" font-size="14" font-family="TimesNewRomanPSMT"><tspan y="0" x="49.6972"> </tspan></text>
<text xml:space="preserve" transform="matrix(1 0 -0 1 120.05 163.88751)" font-size="14" font-family="TimesNewRomanPSMT"><tspan y="0" x="56.263204 61.7932 67.6452 73.934 80.934 86.786">&#x0437;&#x0430;&#x0442;&#x0440;&#x0430;&#x0442;</tspan></text>
<text xml:space="preserve" transform="matrix(1 0 -0 1 120.05 163.88751)" font-size="14" font-family="TimesNewRomanPSMT"><tspan y="0" x="92.90401"> </tspan></text>
<text xml:space="preserve" transform="matrix(1 0 -0 1 120.05 163.88751)" font-size="14" font-family="TimesNewRomanPSMT"><tspan y="0" x="99.47001 105.75881 112.57401 118.69201 125.81521">&#x0442;&#x0440;&#x0443;&#x0434;&#x0430;</tspan></text>
<text xml:space="preserve" transform="matrix(1 0 -0 1 120.05 163.88751)" font-size="14" font-family="TimesNewRomanPSMT"><tspan y="0" x="132.0284"> </tspan></text>
<text xml:space="preserve" transform="matrix(1 0 -0 1 120.05 163.88751)" font-size="14" font-family="TimesNewRomanPSMT"><tspan y="0" x="138.59439">&#x0438;</tspan></text>
<text xml:space="preserve" transform="matrix(1 0 -0 1 120.05 163.88751)" font-size="14" font-family="TimesNewRomanPSMT"><tspan y="0" x="146.0872"> </tspan></text>
<text xml:space="preserve" transform="matrix(1 0 -0 1 120.05 163.88751)" font-size="14" font-family="TimesNewRomanPSMT"><tspan y="0" x="152.6532 159.243 165.2728 172.76561 180.25843 186.54723 192.88364 199.86963">&#x043a;&#x0430;&#x043f;&#x0438;&#x0442;&#x0430;&#x043b;&#x0430;</tspan></text>
<text xml:space="preserve" transform="matrix(1 0 -0 1 120.05 163.88751)" font-size="14" font-family="TimesNewRomanPSMT"><tspan y="0" x="206.08283 209.58283">, </tspan></text>
<text xml:space="preserve" transform="matrix(1 0 -0 1 120.05 163.88751)" font-size="14" font-family="TimesNewRomanPSMT"><tspan y="0" x="216.14882 224.91281 231.126 237.57862 243.79181 251.28462 260.14384 267.63664 273.16664 280.65943 287.4746 294.4746 304.93403 315.71403 323.20683">&#x043c;&#x0430;&#x043a;&#x0441;&#x0438;&#x043c;&#x0438;&#x0437;&#x0438;&#x0440;&#x0443;&#x044e;&#x0449;&#x0438;&#x0445;</tspan></text>
<text xml:space="preserve" transform="matrix(1 0 -0 1 120.05 163.88751)" font-size="14" font-family="TimesNewRomanPSMT"><tspan y="0" x="330.20683"> </tspan></text>
<text xml:space="preserve" transform="matrix(1 0 -0 1 120.05 163.88751)" font-size="14" font-family="TimesNewRomanPSMT"><tspan y="0" x="336.77284 343.77284 350.54743 357.78684 364.00004">&#x043e;&#x0431;&#x044a;&#x0435;&#x043c;</tspan></text>
<text xml:space="preserve" transform="matrix(1 0 -0 1 120.05 163.88751)" font-size="14" font-family="TimesNewRomanPSMT"><tspan y="0" x="372.85923"> </tspan></text>
<text xml:space="preserve" transform="matrix(1 0 -0 1 120.05 163.88751)" font-size="14" font-family="TimesNewRomanPSMT"><tspan y="0" x="379.42524 386.03605 395.44264 402.93544 409.93544 416.14863 422.7384">&#x0432;&#x044b;&#x043f;&#x0443;&#x0441;&#x043a;&#x0430;</tspan></text>
<text xml:space="preserve" transform="matrix(1 0 -0 1 120.05 163.88751)" font-size="14" font-family="TimesNewRomanPSMT"><tspan y="0" x="428.9516 432.4516">. </tspan></text>
<text xml:space="preserve" transform="matrix(1 0 -0 1 120.05 187.59009)" font-size="14" font-family="TimesNewRomanPSMT"><tspan y="0" x="0 10.110801 17.459403 23.672604 29.961403 36.961404 43.961404 51.454206 57.572206">&#x041f;&#x043e;&#x0441;&#x0442;&#x0440;&#x043e;&#x0439;&#x0442;&#x0435;</tspan></text>
<text xml:space="preserve" transform="matrix(1 0 -0 1 120.05 187.59009)" font-size="14" font-family="TimesNewRomanPSMT"><tspan y="0" x="63.785406"> </tspan></text>
<text xml:space="preserve" transform="matrix(1 0 -0 1 120.05 187.59009)" font-size="14" font-family="TimesNewRomanPSMT"><tspan y="0" x="67.2854 73.498607 80.498607 87.313808 93.43181 99.96001 106.17321 112.46201 118.67522 124.79321 130.92522 137.92522 148.38462 159.16461 166.16461">&#x0441;&#x043e;&#x043e;&#x0442;&#x0432;&#x0435;&#x0442;&#x0441;&#x0442;&#x0432;&#x0443;&#x044e;&#x0449;&#x0443;&#x044e;</tspan></text>
<text xml:space="preserve" transform="matrix(1 0 -0 1 120.05 187.59009)" font-size="14" font-family="TimesNewRomanPSMT"><tspan y="0" x="176.62403"> </tspan></text>
<text xml:space="preserve" transform="matrix(1 0 -0 1 120.05 187.59009)" font-size="14" font-family="TimesNewRomanPSMT"><tspan y="0" x="180.12403 186.13283 192.22423 199.22423 206.71704 213.45104 222.31023 229.80304 235.89444">&#x044d;&#x043a;&#x043e;&#x043d;&#x043e;&#x043c;&#x0438;&#x043a;&#x043e;</tspan></text>
<text xml:space="preserve" transform="matrix(1 0 -0 1 120.05 187.59009)" font-size="14" font-family="TimesNewRomanPSMT"><tspan y="0" x="242.89444">-</tspan></text>
<text xml:space="preserve" transform="matrix(1 0 -0 1 120.05 187.59009)" font-size="14" font-family="TimesNewRomanPSMT"><tspan y="0" x="247.55644 256.32048 262.17247 268.29048 274.50367 283.26768 289.11967 295.23768 302.73048 309.77107 316.33427 322.54747 329.15126 336.15126">&#x043c;&#x0430;&#x0442;&#x0435;&#x043c;&#x0430;&#x0442;&#x0438;&#x0447;&#x0435;&#x0441;&#x043a;&#x0443;&#x044e;</tspan></text>
<text xml:space="preserve" transform="matrix(1 0 -0 1 120.05 187.59009)" font-size="14" font-family="TimesNewRomanPSMT"><tspan y="0" x="346.61067"> </tspan></text>
<text xml:space="preserve" transform="matrix(1 0 -0 1 120.05 187.59009)" font-size="14" font-family="TimesNewRomanPSMT"><tspan y="0" x="350.11067 358.96986 365.56666 372.68986 378.90306 385.88905">&#x043c;&#x043e;&#x0434;&#x0435;&#x043b;&#x044c;</tspan></text>
<text xml:space="preserve" transform="matrix(1 0 -0 1 120.05 187.59009)" font-size="14" font-family="TimesNewRomanPSMT"><tspan y="0" x="392.27445">.</tspan></text>
<g id="Layer-4" data-name="Span">
<text xml:space="preserve" transform="matrix(1 0 -0 1 120.05 187.59009)" font-size="14" font-family="TimesNewRomanPSMT"><tspan y="0" x="395.7734"> </tspan></text>
</g>
</g>
</g>
</g>
<g id="Layer-1" data-name="P">
<g id="Layer-2" data-name="Span">
</g>
<clipPath id="cp14">
<path transform="matrix(1,0,0,-1,0,842)" d="M 82.3 30.22227 L 555.25 30.22227 L 555.25 61.722269 L 82.3 61.722269 Z "/>
</clipPath>
<g clip-path="url(#cp14)">
<text xml:space="preserve" transform="matrix(1 0 -0 1 315.9874 790.85)" font-size="11" font-family="Calibri"><tspan y="0" x="5.575195"> </tspan></text>
</g>
<text xml:space="preserve" transform="matrix(1 0 -0 1 315.9874 790.85)" font-size="11" font-family="Calibri"><tspan y="0" x="0">5</tspan></text>
</g>
</g>
</g>
</svg>
