<?xml version="1.0" encoding="UTF-8" standalone="no"?>
<!DOCTYPE svg PUBLIC "-//W3C//DTD SVG 1.1//EN" "http://www.w3.org/Graphics/SVG/1.1/DTD/svg11.dtd">
<svg xmlns="http://www.w3.org/2000/svg" xmlns:xlink="http://www.w3.org/1999/xlink" version="1.1" width="595pt" height="842pt" viewBox="0 0 595 842">
<g enable-background="new">
<clipPath id="cp2018">
<path transform="matrix(1,0,0,-1,0,842)" d="M 0 0 L 595 0 L 595 842 L 0 842 Z "/>
</clipPath>
<g clip-path="url(#cp2018)">
<path transform="matrix(1,0,0,-1,0,842)" d="M 0 842 L 595 842 L 595 0 L 0 0 Z " fill="#ffffff"/>
<g id="Layer-1" data-name="P">
</g>
<clipPath id="cp2019">
<path transform="matrix(1,0,0,-1,0,842)" d="M 81.05611 58.97227 L 556.4939 58.97227 L 556.4939 789.17599 L 81.05611 789.17599 Z "/>
</clipPath>
<g clip-path="url(#cp2019)">
<text xml:space="preserve" transform="matrix(1 0 -0 1 85.05 69.07703)" font-size="14" font-family="TimesNewRomanPSMT"><tspan y="0" x="0 9.338001 15.866201 21.896004 29.019204 35.232404 42.725206 50.218008">&#x0412;&#x0432;&#x0435;&#x0434;&#x0435;&#x043d;&#x0438;&#x0435;</tspan></text>
<text xml:space="preserve" transform="matrix(1 0 -0 1 85.05 69.07703)" font-size="14" font-family="TimesNewRomanPSMT"><tspan y="0" x="56.431207 59.931207 64.59321 69.25521 73.91721 78.579219 83.24122 87.90322 92.56522 97.22723 101.88923 106.55123 111.213237 115.87524 120.53724 125.19924 129.86124 134.52324 139.18524 143.84725 148.50925 153.17125 157.83325 162.49526 167.15726 171.81926 176.48126 181.14327 185.80527 190.46727 195.12928 199.79128 204.45328 209.11528 213.77729 218.43929 223.10129 227.76329 232.4253 237.0873 241.7493 246.4113 251.0733 255.7353 260.3973 265.0593 269.72129 274.38328 279.04527 283.70726 288.36924 293.03123 297.6932 302.3552 307.01719 311.67918 316.34117 321.00315 325.66514 330.32713 334.9891 339.6511 344.31309 348.97508 353.63706 358.29905 362.96104 367.62303 372.285 376.947 381.60899 386.27098 390.93296 395.59495 400.25694 404.9189 409.5809 414.2429"> ----------------------------------------------------------------------------3</tspan></text>
<g id="Layer-2" data-name="Span">
<text xml:space="preserve" transform="matrix(1 0 -0 1 85.05 69.07703)" font-size="14" font-family="TimesNewRomanPSMT"><tspan y="0" x="421.251"> </tspan></text>
</g>
</g>
<g id="Layer-1" data-name="P">
<text xml:space="preserve" transform="matrix(1 0 -0 1 85.05 102.7796)" font-size="14" font-family="TimesNewRomanPSMT"><tspan y="0" x="0 10.110801 17.110802 23.324002 29.941803 36.059804 43.552606 50.593206 57.156404 63.369604 69.461 76.6318">&#x041f;&#x0440;&#x0430;&#x043a;&#x0442;&#x0438;&#x0447;&#x0435;&#x0441;&#x043a;&#x043e;&#x0435;</tspan></text>
<text xml:space="preserve" transform="matrix(1 0 -0 1 85.05 102.7796)" font-size="14" font-family="TimesNewRomanPSMT"><tspan y="0" x="82.845"> </tspan></text>
<text xml:space="preserve" transform="matrix(1 0 -0 1 85.05 102.7796)" font-size="14" font-family="TimesNewRomanPSMT"><tspan y="0" x="86.345 91.875 98.0882 105.2114 111.42461 118.917407 126.4102">&#x0437;&#x0430;&#x0434;&#x0430;&#x043d;&#x0438;&#x0435;</tspan></text>
<text xml:space="preserve" transform="matrix(1 0 -0 1 85.05 102.7796)" font-size="14" font-family="TimesNewRomanPSMT"><tspan y="0" x="132.6234"> </tspan></text>
<text xml:space="preserve" transform="matrix(1 0 -0 1 85.05 102.7796)" font-size="14" font-family="TimesNewRomanPSMT"><tspan y="0" x="136.1234">&#x2116;</tspan></text>
<text xml:space="preserve" transform="matrix(1 0 -0 1 85.05 102.7796)" font-size="14" font-family="TimesNewRomanPSMT"><tspan y="0" x="149.4808 156.4808 159.9808 164.6428 169.30481 173.96681 178.62882 183.29082 187.95282 192.61483 197.27683 201.93883 206.60083 211.26284 215.92484 220.58684 225.24884 229.91085 234.57285 239.23485 243.89685 248.55886 253.22086 257.88285 262.54484 267.20683 271.8688 276.5308 281.19279 285.85478 290.51676 295.17875 299.84074 304.50273 309.1647 313.8267 318.48869 323.15068 327.81266 332.47465 337.13664 341.7986 346.4606 351.1226 355.78459 360.44657 365.10856 369.77055 374.43254 379.0945 383.7565 388.4185 393.08049 397.74247 402.40446 407.06645 411.72843 416.3904">1 -------------------------------------------------------4</tspan></text>
<g id="Layer-2" data-name="Span">
<text xml:space="preserve" transform="matrix(1 0 -0 1 85.05 102.7796)" font-size="10" font-family="TimesNewRomanPSMT"><tspan y="0" x="423.3975"> </tspan></text>
</g>
</g>
<g id="Layer-1" data-name="P">
<text xml:space="preserve" transform="matrix(1 0 -0 1 85.05 126.48218)" font-size="14" font-family="TimesNewRomanPSMT"><tspan y="0" x="0 10.110801 17.110802 23.324002 29.941803 36.059804 43.552606 50.593206 57.156404 63.369604 69.461 76.6318">&#x041f;&#x0440;&#x0430;&#x043a;&#x0442;&#x0438;&#x0447;&#x0435;&#x0441;&#x043a;&#x043e;&#x0435;</tspan></text>
<text xml:space="preserve" transform="matrix(1 0 -0 1 85.05 126.48218)" font-size="14" font-family="TimesNewRomanPSMT"><tspan y="0" x="82.845"> </tspan></text>
<text xml:space="preserve" transform="matrix(1 0 -0 1 85.05 126.48218)" font-size="14" font-family="TimesNewRomanPSMT"><tspan y="0" x="86.345 91.875 98.0882 105.2114 111.42461 118.917407 126.4102">&#x0437;&#x0430;&#x0434;&#x0430;&#x043d;&#x0438;&#x0435;</tspan></text>
<text xml:space="preserve" transform="matrix(1 0 -0 1 85.05 126.48218)" font-size="14" font-family="TimesNewRomanPSMT"><tspan y="0" x="132.6234"> </tspan></text>
<text xml:space="preserve" transform="matrix(1 0 -0 1 85.05 126.48218)" font-size="14" font-family="TimesNewRomanPSMT"><tspan y="0" x="136.1234">&#x2116;</tspan></text>
<text xml:space="preserve" transform="matrix(1 0 -0 1 85.05 126.48218)" font-size="14" font-family="TimesNewRomanPSMT"><tspan y="0" x="149.4808 156.4808 159.9808 164.6428 169.30481 173.96681 178.62882 183.29082 187.95282 192.61483 197.27683 201.93883 206.60083 211.26284 215.92484 220.58684 225.24884 229.91085 234.57285 239.23485 243.89685 248.55886 253.22086 257.88285 262.54484 267.20683 271.8688 276.5308 281.19279 285.85478 290.51676 295.17875 299.84074 304.50273 309.1647 313.8267 318.48869 323.15068 327.81266 332.47465 337.13664 341.7986 346.4606 351.1226 355.78459 360.44657 365.10856 369.77055 374.43254 379.0945 383.7565 388.4185 393.08049 397.74247 402.40446 407.06645 411.72843 416.3904">2 -------------------------------------------------------5</tspan></text>
<g id="Layer-2" data-name="Span">
<text xml:space="preserve" transform="matrix(1 0 -0 1 85.05 126.48218)" font-size="10" font-family="TimesNewRomanPSMT"><tspan y="0" x="423.3975"> </tspan></text>
</g>
</g>
<g id="Layer-1" data-name="P">
<text xml:space="preserve" transform="matrix(1 0 -0 1 85.05 150.18488)" font-size="14" font-family="TimesNewRomanPSMT"><tspan y="0" x="0 10.110801 17.110802 23.324002 29.941803 36.059804 43.552606 50.593206 57.156404 63.369604 69.461 76.6318">&#x041f;&#x0440;&#x0430;&#x043a;&#x0442;&#x0438;&#x0447;&#x0435;&#x0441;&#x043a;&#x043e;&#x0435;</tspan></text>
<text xml:space="preserve" transform="matrix(1 0 -0 1 85.05 150.18488)" font-size="14" font-family="TimesNewRomanPSMT"><tspan y="0" x="82.845"> </tspan></text>
<text xml:space="preserve" transform="matrix(1 0 -0 1 85.05 150.18488)" font-size="14" font-family="TimesNewRomanPSMT"><tspan y="0" x="86.345 91.875 98.0882 105.2114 111.42461 118.917407 126.4102">&#x0437;&#x0430;&#x0434;&#x0430;&#x043d;&#x0438;&#x0435;</tspan></text>
<text xml:space="preserve" transform="matrix(1 0 -0 1 85.05 150.18488)" font-size="14" font-family="TimesNewRomanPSMT"><tspan y="0" x="132.6234"> </tspan></text>
<text xml:space="preserve" transform="matrix(1 0 -0 1 85.05 150.18488)" font-size="14" font-family="TimesNewRomanPSMT"><tspan y="0" x="136.1234">&#x2116;</tspan></text>
<text xml:space="preserve" transform="matrix(1 0 -0 1 85.05 150.18488)" font-size="14" font-family="TimesNewRomanPSMT"><tspan y="0" x="149.4808 156.4808 159.9808 164.6428 169.30481 173.96681 178.62882 183.29082 187.95282 192.61483 197.27683 201.93883 206.60083 211.26284 215.92484 220.58684 225.24884 229.91085 234.57285 239.23485 243.89685 248.55886 253.22086 257.88285 262.54484 267.20683 271.8688 276.5308 281.19279 285.85478 290.51676 295.17875 299.84074 304.50273 309.1647 313.8267 318.48869 323.15068 327.81266 332.47465 337.13664 341.7986 346.4606 351.1226 355.78459 360.44657 365.10856 369.77055 374.43254 379.0945 383.7565 388.4185 393.08049 397.74247 402.40446 407.06645 411.72843 416.3904">3 -------------------------------------------------------6</tspan></text>
<g id="Layer-2" data-name="Span">
<text xml:space="preserve" transform="matrix(1 0 -0 1 85.05 150.18488)" font-size="10" font-family="TimesNewRomanPSMT"><tspan y="0" x="423.3975"> </tspan></text>
</g>
</g>
<g id="Layer-1" data-name="P">
<text xml:space="preserve" transform="matrix(1 0 -0 1 85.05 173.88751)" font-size="14" font-family="TimesNewRomanPSMT"><tspan y="0" x="0 10.110801 17.110802 23.324002 29.941803 36.059804 43.552606 50.593206 57.156404 63.369604 69.461 76.6318">&#x041f;&#x0440;&#x0430;&#x043a;&#x0442;&#x0438;&#x0447;&#x0435;&#x0441;&#x043a;&#x043e;&#x0435;</tspan></text>
<text xml:space="preserve" transform="matrix(1 0 -0 1 85.05 173.88751)" font-size="14" font-family="TimesNewRomanPSMT"><tspan y="0" x="82.845"> </tspan></text>
<text xml:space="preserve" transform="matrix(1 0 -0 1 85.05 173.88751)" font-size="14" font-family="TimesNewRomanPSMT"><tspan y="0" x="86.345 91.875 98.0882 105.2114 111.42461 118.917407 126.4102">&#x0437;&#x0430;&#x0434;&#x0430;&#x043d;&#x0438;&#x0435;</tspan></text>
<text xml:space="preserve" transform="matrix(1 0 -0 1 85.05 173.88751)" font-size="14" font-family="TimesNewRomanPSMT"><tspan y="0" x="132.6234"> </tspan></text>
<text xml:space="preserve" transform="matrix(1 0 -0 1 85.05 173.88751)" font-size="14" font-family="TimesNewRomanPSMT"><tspan y="0" x="136.1234">&#x2116;</tspan></text>
<text xml:space="preserve" transform="matrix(1 0 -0 1 85.05 173.88751)" font-size="14" font-family="TimesNewRomanPSMT"><tspan y="0" x="149.4808 156.4808 159.9808 164.6428 169.30481 173.96681 178.62882 183.29082 187.95282 192.61483 197.27683 201.93883 206.60083 211.26284 215.92484 220.58684 225.24884 229.91085 234.57285 239.23485 243.89685 248.55886 253.22086 257.88285 262.54484 267.20683 271.8688 276.5308 281.19279 285.85478 290.51676 295.17875 299.84074 304.50273 309.1647 313.8267 318.48869 323.15068 327.81266 332.47465 337.13664 341.7986 346.4606 351.1226 355.78459 360.44657 365.10856 369.77055 374.43254 379.0945 383.7565 388.4185 393.08049 397.74247 402.40446 407.06645 411.72843 416.3904">4 -------------------------------------------------------9</tspan></text>
<g id="Layer-2" data-name="Span">
<text xml:space="preserve" transform="matrix(1 0 -0 1 85.05 173.88751)" font-size="10" font-family="TimesNewRomanPSMT"><tspan y="0" x="423.3975"> </tspan></text>
</g>
</g>
<g id="Layer-1" data-name="P">
<text xml:space="preserve" transform="matrix(1 0 -0 1 85.05 197.59009)" font-size="14" font-family="TimesNewRomanPSMT"><tspan y="0" x="0 10.110801 17.110802 23.324002 29.941803 36.059804 43.552606 50.593206 57.156404 63.369604 69.461 76.6318">&#x041f;&#x0440;&#x0430;&#x043a;&#x0442;&#x0438;&#x0447;&#x0435;&#x0441;&#x043a;&#x043e;&#x0435;</tspan></text>
<text xml:space="preserve" transform="matrix(1 0 -0 1 85.05 197.59009)" font-size="14" font-family="TimesNewRomanPSMT"><tspan y="0" x="82.845"> </tspan></text>
<text xml:space="preserve" transform="matrix(1 0 -0 1 85.05 197.59009)" font-size="14" font-family="TimesNewRomanPSMT"><tspan y="0" x="86.345 91.875 98.0882 105.2114 111.42461 118.917407 126.4102">&#x0437;&#x0430;&#x0434;&#x0430;&#x043d;&#x0438;&#x0435;</tspan></text>
<text xml:space="preserve" transform="matrix(1 0 -0 1 85.05 197.59009)" font-size="14" font-family="TimesNewRomanPSMT"><tspan y="0" x="132.6234"> </tspan></text>
<text xml:space="preserve" transform="matrix(1 0 -0 1 85.05 197.59009)" font-size="14" font-family="TimesNewRomanPSMT"><tspan y="0" x="136.1234">&#x2116;</tspan></text>
<text xml:space="preserve" transform="matrix(1 0 -0 1 85.05 197.59009)" font-size="14" font-family="TimesNewRomanPSMT"><tspan y="0" x="149.4808 156.4808 159.9808 164.6428 169.30481 173.96681 178.62882 183.29082 187.95282 192.61483 197.27683 201.93883 206.60083 211.26284 215.92484 220.58684 225.24884 229.91085 234.57285 239.23485 243.89685 248.55886 253.22086 257.88285 262.54484 267.20683 271.8688 276.5308 281.19279 285.85478 290.51676 295.17875 299.84074 304.50273 309.1647 313.8267 318.48869 323.15068 327.81266 332.47465 337.13664 341.7986 346.4606 351.1226 355.78459 360.44657 365.10856 369.77055 374.43254 379.0945 383.7565 388.4185 393.08049 397.74247 402.40446 407.06645 411.72843 416.3904 422.871">5 -------------------------------------------------------11</tspan></text>
<g id="Layer-2" data-name="Span">
<text xml:space="preserve" transform="matrix(1 0 -0 1 85.05 197.59009)" font-size="10" font-family="TimesNewRomanPSMT"><tspan y="0" x="429.8779"> </tspan></text>
</g>
</g>
<g id="Layer-1" data-name="P">
<text xml:space="preserve" transform="matrix(1 0 -0 1 85.05 221.29279)" font-size="14" font-family="TimesNewRomanPSMT"><tspan y="0" x="0 10.110801 17.110802 23.324002 29.941803 36.059804 43.552606 50.593206 57.156404 63.369604 69.461 76.6318">&#x041f;&#x0440;&#x0430;&#x043a;&#x0442;&#x0438;&#x0447;&#x0435;&#x0441;&#x043a;&#x043e;&#x0435;</tspan></text>
<text xml:space="preserve" transform="matrix(1 0 -0 1 85.05 221.29279)" font-size="14" font-family="TimesNewRomanPSMT"><tspan y="0" x="82.845"> </tspan></text>
<text xml:space="preserve" transform="matrix(1 0 -0 1 85.05 221.29279)" font-size="14" font-family="TimesNewRomanPSMT"><tspan y="0" x="86.345 91.875 98.0882 105.2114 111.42461 118.917407 126.4102">&#x0437;&#x0430;&#x0434;&#x0430;&#x043d;&#x0438;&#x0435;</tspan></text>
<text xml:space="preserve" transform="matrix(1 0 -0 1 85.05 221.29279)" font-size="14" font-family="TimesNewRomanPSMT"><tspan y="0" x="132.6234"> </tspan></text>
<text xml:space="preserve" transform="matrix(1 0 -0 1 85.05 221.29279)" font-size="14" font-family="TimesNewRomanPSMT"><tspan y="0" x="136.1234">&#x2116;</tspan></text>
<text xml:space="preserve" transform="matrix(1 0 -0 1 85.05 221.29279)" font-size="14" font-family="TimesNewRomanPSMT"><tspan y="0" x="149.4808 156.4808 159.9808 164.6428 169.30481 173.96681 178.62882 183.29082 187.95282 192.61483 197.27683 201.93883 206.60083 211.26284 215.92484 220.58684 225.24884 229.91085 234.57285 239.23485 243.89685 248.55886 253.22086 257.88285 262.54484 267.20683 271.8688 276.5308 281.19279 285.85478 290.51676 295.17875 299.84074 304.50273 309.1647 313.8267 318.48869 323.15068 327.81266 332.47465 337.13664 341.7986 346.4606 351.1226 355.78459 360.44657 365.10856 369.77055 374.43254 379.0945 383.7565 388.4185 393.08049 397.74247 402.40446 407.06645 411.72843 416.3904 423.3904">6 -------------------------------------------------------14</tspan></text>
<g id="Layer-2" data-name="Span">
<text xml:space="preserve" transform="matrix(1 0 -0 1 85.05 221.29279)" font-size="10" font-family="TimesNewRomanPSMT"><tspan y="0" x="430.3975"> </tspan></text>
</g>
</g>
<g id="Layer-1" data-name="P">
<text xml:space="preserve" transform="matrix(1 0 -0 1 85.05 244.99542)" font-size="14" font-family="TimesNewRomanPSMT"><tspan y="0" x="0 10.110801 17.110802 23.324002 29.941803 36.059804 43.552606 50.593206 57.156404 63.369604 69.461 76.6318">&#x041f;&#x0440;&#x0430;&#x043a;&#x0442;&#x0438;&#x0447;&#x0435;&#x0441;&#x043a;&#x043e;&#x0435;</tspan></text>
<text xml:space="preserve" transform="matrix(1 0 -0 1 85.05 244.99542)" font-size="14" font-family="TimesNewRomanPSMT"><tspan y="0" x="82.845"> </tspan></text>
<text xml:space="preserve" transform="matrix(1 0 -0 1 85.05 244.99542)" font-size="14" font-family="TimesNewRomanPSMT"><tspan y="0" x="86.345 91.875 98.0882 105.2114 111.42461 118.917407 126.4102">&#x0437;&#x0430;&#x0434;&#x0430;&#x043d;&#x0438;&#x0435;</tspan></text>
<text xml:space="preserve" transform="matrix(1 0 -0 1 85.05 244.99542)" font-size="14" font-family="TimesNewRomanPSMT"><tspan y="0" x="132.6234"> </tspan></text>
<text xml:space="preserve" transform="matrix(1 0 -0 1 85.05 244.99542)" font-size="14" font-family="TimesNewRomanPSMT"><tspan y="0" x="136.1234">&#x2116;</tspan></text>
<text xml:space="preserve" transform="matrix(1 0 -0 1 85.05 244.99542)" font-size="14" font-family="TimesNewRomanPSMT"><tspan y="0" x="149.4808 156.4808 159.9808 164.6428 169.30481 173.96681 178.62882 183.29082 187.95282 192.61483 197.27683 201.93883 206.60083 211.26284 215.92484 220.58684 225.24884 229.91085 234.57285 239.23485 243.89685 248.55886 253.22086 257.88285 262.54484 267.20683 271.8688 276.5308 281.19279 285.85478 290.51676 295.17875 299.84074 304.50273 309.1647 313.8267 318.48869 323.15068 327.81266 332.47465 337.13664 341.7986 346.4606 351.1226 355.78459 360.44657 365.10856 369.77055 374.43254 379.0945 383.7565 388.4185 393.08049 397.74247 402.40446 407.06645 411.72843 416.3904 423.3904">7 -------------------------------------------------------16</tspan></text>
<g id="Layer-2" data-name="Span">
<text xml:space="preserve" transform="matrix(1 0 -0 1 85.05 244.99542)" font-size="10" font-family="TimesNewRomanPSMT"><tspan y="0" x="430.3975"> </tspan></text>
</g>
</g>
<g id="Layer-1" data-name="P">
<text xml:space="preserve" transform="matrix(1 0 -0 1 85.05 268.698)" font-size="14" font-family="TimesNewRomanPSMT"><tspan y="0" x="0 10.110801 17.110802 23.324002 29.941803 36.059804 43.552606 50.593206 57.156404 63.369604 69.461 76.6318">&#x041f;&#x0440;&#x0430;&#x043a;&#x0442;&#x0438;&#x0447;&#x0435;&#x0441;&#x043a;&#x043e;&#x0435;</tspan></text>
<text xml:space="preserve" transform="matrix(1 0 -0 1 85.05 268.698)" font-size="14" font-family="TimesNewRomanPSMT"><tspan y="0" x="82.845"> </tspan></text>
<text xml:space="preserve" transform="matrix(1 0 -0 1 85.05 268.698)" font-size="14" font-family="TimesNewRomanPSMT"><tspan y="0" x="86.345 91.875 98.0882 105.2114 111.42461 118.917407 126.4102">&#x0437;&#x0430;&#x0434;&#x0430;&#x043d;&#x0438;&#x0435;</tspan></text>
<text xml:space="preserve" transform="matrix(1 0 -0 1 85.05 268.698)" font-size="14" font-family="TimesNewRomanPSMT"><tspan y="0" x="132.6234"> </tspan></text>
<text xml:space="preserve" transform="matrix(1 0 -0 1 85.05 268.698)" font-size="14" font-family="TimesNewRomanPSMT"><tspan y="0" x="136.1234">&#x2116;</tspan></text>
<text xml:space="preserve" transform="matrix(1 0 -0 1 85.05 268.698)" font-size="14" font-family="TimesNewRomanPSMT"><tspan y="0" x="149.4808 156.4808 159.9808 164.6428 169.30481 173.96681 178.62882 183.29082 187.95282 192.61483 197.27683 201.93883 206.60083 211.26284 215.92484 220.58684 225.24884 229.91085 234.57285 239.23485 243.89685 248.55886 253.22086 257.88285 262.54484 267.20683 271.8688 276.5308 281.19279 285.85478 290.51676 295.17875 299.84074 304.50273 309.1647 313.8267 318.48869 323.15068 327.81266 332.47465 337.13664 341.7986 346.4606 351.1226 355.78459 360.44657 365.10856 369.77055 374.43254 379.0945 383.7565 388.4185 393.08049 397.74247 402.40446 407.06645 411.72843 416.3904 423.3904">8 -------------------------------------------------------19</tspan></text>
<g id="Layer-2" data-name="Span">
<text xml:space="preserve" transform="matrix(1 0 -0 1 85.05 268.698)" font-size="14" font-family="TimesNewRomanPSMT"><tspan y="0" x="430.3975"> </tspan></text>
</g>
</g>
<g id="Layer-1" data-name="P">
<text xml:space="preserve" transform="matrix(1 0 -0 1 85.05 292.4007)" font-size="14" font-family="TimesNewRomanPSMT"><tspan y="0" x="0 10.110801 17.110802 23.324002 29.941803 36.059804 43.552606 50.593206 57.156404 63.369604 69.461 76.6318">&#x041f;&#x0440;&#x0430;&#x043a;&#x0442;&#x0438;&#x0447;&#x0435;&#x0441;&#x043a;&#x043e;&#x0435;</tspan></text>
<text xml:space="preserve" transform="matrix(1 0 -0 1 85.05 292.4007)" font-size="14" font-family="TimesNewRomanPSMT"><tspan y="0" x="82.845"> </tspan></text>
<text xml:space="preserve" transform="matrix(1 0 -0 1 85.05 292.4007)" font-size="14" font-family="TimesNewRomanPSMT"><tspan y="0" x="86.345 91.875 98.0882 105.2114 111.42461 118.917407 126.4102">&#x0437;&#x0430;&#x0434;&#x0430;&#x043d;&#x0438;&#x0435;</tspan></text>
<text xml:space="preserve" transform="matrix(1 0 -0 1 85.05 292.4007)" font-size="14" font-family="TimesNewRomanPSMT"><tspan y="0" x="132.6234"> </tspan></text>
<text xml:space="preserve" transform="matrix(1 0 -0 1 85.05 292.4007)" font-size="14" font-family="TimesNewRomanPSMT"><tspan y="0" x="136.1234">&#x2116;</tspan></text>
<text xml:space="preserve" transform="matrix(1 0 -0 1 85.05 292.4007)" font-size="14" font-family="TimesNewRomanPSMT"><tspan y="0" x="149.4808 156.4808 161.1428 165.80481 170.46681 175.12882 179.79082 184.45282 189.11483 193.77683 198.43883 203.10083 207.76284 212.42484 217.08684 221.74884 226.41085 231.07285 235.73485 240.39685 245.05886 249.72086 254.38286 259.04487 263.70686 268.36885 273.03083 277.6928 282.3548 287.01679 291.67878 296.34077 301.00276 305.66474 310.32673 314.9887 319.6507 324.31269 328.97468 333.63667 338.29866 342.96064 347.62263 352.2846 356.9466 361.60859 366.27058 370.93257 375.59455 380.25654 384.91853 389.5805 394.2425 398.90449 403.56648 408.22846 412.89045 417.55244 424.55244">9--------------------------------------------------------21</tspan></text>
<g id="Layer-2" data-name="Span">
<text xml:space="preserve" transform="matrix(1 0 -0 1 85.05 292.4007)" font-size="14" font-family="TimesNewRomanPSMT"><tspan y="0" x="431.5596"> </tspan></text>
</g>
</g>
<g id="Layer-1" data-name="P">
<text xml:space="preserve" transform="matrix(1 0 -0 1 85.05 316.10328)" font-size="14" font-family="TimesNewRomanPSMT"><tspan y="0" x="0 10.110801 17.110802 23.324002 29.941803 36.059804 43.552606 50.593206 57.156404 63.369604 69.461 76.6318">&#x041f;&#x0440;&#x0430;&#x043a;&#x0442;&#x0438;&#x0447;&#x0435;&#x0441;&#x043a;&#x043e;&#x0435;</tspan></text>
<text xml:space="preserve" transform="matrix(1 0 -0 1 85.05 316.10328)" font-size="14" font-family="TimesNewRomanPSMT"><tspan y="0" x="82.845"> </tspan></text>
<text xml:space="preserve" transform="matrix(1 0 -0 1 85.05 316.10328)" font-size="14" font-family="TimesNewRomanPSMT"><tspan y="0" x="86.345 91.875 98.0882 105.2114 111.42461 118.917407 126.4102">&#x0437;&#x0430;&#x0434;&#x0430;&#x043d;&#x0438;&#x0435;</tspan></text>
<text xml:space="preserve" transform="matrix(1 0 -0 1 85.05 316.10328)" font-size="14" font-family="TimesNewRomanPSMT"><tspan y="0" x="132.6234"> </tspan></text>
<text xml:space="preserve" transform="matrix(1 0 -0 1 85.05 316.10328)" font-size="14" font-family="TimesNewRomanPSMT"><tspan y="0" x="136.1234">&#x2116;</tspan></text>
<text xml:space="preserve" transform="matrix(1 0 -0 1 85.05 316.10328)" font-size="14" font-family="TimesNewRomanPSMT"><tspan y="0" x="149.4808 156.4808 163.4808 168.1428 172.80481 177.46681 182.12882 186.79082 191.45282 196.11483 200.77683 205.43883 210.10083 214.76284 219.42484 224.08684 228.74884 233.41085 238.07285 242.73485 247.39685 252.05886 256.72087 261.38285 266.04484 270.70683 275.3688 280.0308 284.69279 289.35478 294.01676 298.67875 303.34074 308.00273 312.6647 317.3267 321.98869 326.65068 331.31266 335.97465 340.63664 345.2986 349.9606 354.6226 359.28459 363.94657 368.60856 373.27055 377.93254 382.5945 387.2565 391.9185 396.58049 401.24247 405.90446 410.56645 415.22843 419.8904 426.8904">10-------------------------------------------------------25</tspan></text>
<g id="Layer-2" data-name="Span">
<text xml:space="preserve" transform="matrix(1 0 -0 1 85.05 316.10328)" font-size="14" font-family="TimesNewRomanPSMT"><tspan y="0" x="433.8975"> </tspan></text>
</g>
</g>
<g id="Layer-1" data-name="P">
<text xml:space="preserve" transform="matrix(1 0 -0 1 85.05 339.806)" font-size="14" font-family="TimesNewRomanPSMT"><tspan y="0" x="0 10.110801 17.110802 23.324002 29.941803 36.059804 43.552606 50.593206 57.156404 63.369604 69.461 76.6318">&#x041f;&#x0440;&#x0430;&#x043a;&#x0442;&#x0438;&#x0447;&#x0435;&#x0441;&#x043a;&#x043e;&#x0435;</tspan></text>
<text xml:space="preserve" transform="matrix(1 0 -0 1 85.05 339.806)" font-size="14" font-family="TimesNewRomanPSMT"><tspan y="0" x="82.845"> </tspan></text>
<text xml:space="preserve" transform="matrix(1 0 -0 1 85.05 339.806)" font-size="14" font-family="TimesNewRomanPSMT"><tspan y="0" x="86.345 91.875 98.0882 105.2114 111.42461 118.917407 126.4102">&#x0437;&#x0430;&#x0434;&#x0430;&#x043d;&#x0438;&#x0435;</tspan></text>
<text xml:space="preserve" transform="matrix(1 0 -0 1 85.05 339.806)" font-size="14" font-family="TimesNewRomanPSMT"><tspan y="0" x="132.6234"> </tspan></text>
<text xml:space="preserve" transform="matrix(1 0 -0 1 85.05 339.806)" font-size="14" font-family="TimesNewRomanPSMT"><tspan y="0" x="136.1234">&#x2116;</tspan></text>
<text xml:space="preserve" transform="matrix(1 0 -0 1 85.05 339.806)" font-size="14" font-family="TimesNewRomanPSMT"><tspan y="0" x="149.4808 155.96141 162.96141 167.62342 172.28542 176.94742 181.60942 186.27143 190.93343 195.59543 200.25743 204.91944 209.58144 214.24344 218.90544 223.56745 228.22945 232.89145 237.55345 242.21546 246.87746 251.53946 256.20146 260.86344 265.52543 270.1874 274.8494 279.51139 284.17338 288.83537 293.49736 298.15934 302.82133 307.4833 312.1453 316.80729 321.46928 326.13127 330.79325 335.45524 340.11723 344.7792 349.4412 354.10319 358.76518 363.42716 368.08915 372.75114 377.41313 382.0751 386.7371 391.39909 396.06108 400.72306 405.38505 410.04704 414.709 419.371 426.371">11-------------------------------------------------------35</tspan></text>
<g id="Layer-2" data-name="Span">
<text xml:space="preserve" transform="matrix(1 0 -0 1 85.05 339.806)" font-size="14" font-family="TimesNewRomanPSMT"><tspan y="0" x="433.3779"> </tspan></text>
</g>
</g>
<g id="Layer-1" data-name="P">
<text xml:space="preserve" transform="matrix(1 0 -0 1 85.05 397.2112)" font-size="14" font-family="TimesNewRomanPSMT"><tspan y="0" x="0 9.494801 16.9876 23.1056 29.318802 36.3188 42.170804 48.104005 55.104005 62.104005">&#x041b;&#x0438;&#x0442;&#x0435;&#x0440;&#x0430;&#x0442;&#x0443;&#x0440;&#x0430;</tspan></text>
<text xml:space="preserve" transform="matrix(1 0 -0 1 85.05 397.2112)" font-size="14" font-family="TimesNewRomanPSMT"><tspan y="0" x="68.31721 72.97921 77.64121 82.303218 86.96522 91.62722 96.28922 100.951229 105.61323 110.27523 114.93723 119.599239 124.26124 128.92324 133.58524 138.24724 142.90924 147.57125 152.23325 156.89525 161.55725 166.21926 170.88126 175.54326 180.20526 184.86727 189.52927 194.19127 198.85327 203.51528 208.17728 212.83928 217.50128 222.16329 226.82529 231.48729 236.14929 240.8113 245.4733 250.1353 254.7973 259.4593 264.12129 268.78327 273.44526 278.10725 282.76924 287.4312 292.0932 296.7552 301.41719 306.07917 310.74116 315.40315 320.06513 324.7271 329.3891 334.0511 338.71308 343.37507 348.03706 352.69905 357.36103 362.023 366.685 371.347 376.00898 380.67097 385.33296 389.99494 394.65693 399.3189 403.9809">-------------------------------------------------------------------------</tspan></text>
<text xml:space="preserve" transform="matrix(1 0 -0 1 85.05 397.2112)" font-size="14" font-family="Calibri"><tspan y="0" x="408.6523 412.93913">--</tspan></text>
<text xml:space="preserve" transform="matrix(1 0 -0 1 85.05 397.2112)" font-size="14" font-family="TimesNewRomanPSMT"><tspan y="0" x="417.2246 424.2246">40</tspan></text>
<g id="Layer-2" data-name="Span">
<text xml:space="preserve" transform="matrix(1 0 -0 1 85.05 397.2112)" font-size="14" font-family="TimesNewRomanPSMT"><tspan y="0" x="431.2246"> </tspan></text>
</g>
</g>
<g id="Layer-1" data-name="P">
<g id="Layer-2" data-name="Span">
</g>
<clipPath id="cp2020">
<path transform="matrix(1,0,0,-1,0,842)" d="M 82.3 30.22227 L 555.25 30.22227 L 555.25 61.722269 L 82.3 61.722269 Z "/>
</clipPath>
<g clip-path="url(#cp2020)">
<text xml:space="preserve" transform="matrix(1 0 -0 1 313.1998 790.85)" font-size="11" font-family="Calibri"><tspan y="0" x="11.15039"> </tspan></text>
</g>
<text xml:space="preserve" transform="matrix(1 0 -0 1 313.1998 790.85)" font-size="11" font-family="Calibri"><tspan y="0" x="0 5.5748007">50</tspan></text>
</g>
</g>
</g>
</svg>
