<?xml version="1.0" encoding="UTF-8" standalone="no"?>
<!DOCTYPE svg PUBLIC "-//W3C//DTD SVG 1.1//EN" "http://www.w3.org/Graphics/SVG/1.1/DTD/svg11.dtd">
<svg xmlns="http://www.w3.org/2000/svg" xmlns:xlink="http://www.w3.org/1999/xlink" version="1.1" width="595pt" height="842pt" viewBox="0 0 595 842">
<g enable-background="new">
<clipPath id="cp2021">
<path transform="matrix(1,0,0,-1,0,842)" d="M 0 0 L 595 0 L 595 842 L 0 842 Z "/>
</clipPath>
<g clip-path="url(#cp2021)">
<path transform="matrix(1,0,0,-1,0,842)" d="M 0 842 L 595 842 L 595 0 L 0 0 Z " fill="#ffffff"/>
<g id="Layer-1" data-name="P">
</g>
<clipPath id="cp2022">
<path transform="matrix(1,0,0,-1,0,842)" d="M 81.17403 58.97227 L 556.37606 58.97227 L 556.37606 789.17599 L 81.17403 789.17599 Z "/>
</clipPath>
<g clip-path="url(#cp2022)">
<text xml:space="preserve" transform="matrix(1 0 -0 1 258.5401 69.07703)" font-size="14" font-family="TimesNewRomanPSMT"><tspan y="0" x="0 14.123201 20.336403 27.459603 36.223604 42.436803 49.929605 56.929605 63.355607">&#x0428;&#x0430;&#x0434;&#x043c;&#x0430;&#x043d;&#x043e;&#x0432;&#x0430;</tspan></text>
<text xml:space="preserve" transform="matrix(1 0 -0 1 258.5401 69.07703)" font-size="14" font-family="TimesNewRomanPSMT"><tspan y="0" x="69.56881"> </tspan></text>
<text xml:space="preserve" transform="matrix(1 0 -0 1 258.5401 69.07703)" font-size="14" font-family="TimesNewRomanPSMT"><tspan y="0" x="73.06881 80.628818 87.01421 94.00021 101.04081 107.25401 114.25401">&#x0413;&#x0443;&#x043b;&#x0447;&#x0435;&#x0440;&#x0430;</tspan></text>
<g id="Layer-2" data-name="Span">
<text xml:space="preserve" transform="matrix(1 0 -0 1 258.5401 69.07703)" font-size="14" font-family="TimesNewRomanPSMT"><tspan y="0" x="120.4697"> </tspan></text>
</g>
</g>
<g id="Layer-1" data-name="P">
<text xml:space="preserve" transform="matrix(1 0 -0 1 223.4068 97.387699)" font-size="14" font-family="TimesNewRomanPSMT"><tspan y="0" x="0 12.448801 19.9416 27.1124 32.6424 38.8556 45.068799">&#x041c;&#x0438;&#x0440;&#x0437;&#x0430;&#x0435;&#x0432;</tspan></text>
<text xml:space="preserve" transform="matrix(1 0 -0 1 223.4068 97.387699)" font-size="14" font-family="TimesNewRomanPSMT"><tspan y="0" x="51.6796"> </tspan></text>
<text xml:space="preserve" transform="matrix(1 0 -0 1 223.4068 97.387699)" font-size="14" font-family="TimesNewRomanPSMT"><tspan y="0" x="55.1796 64.5176 70.730808 78.2236 85.7164 92.491 99.6142 109.2868 115.5">&#x0421;&#x0430;&#x0439;&#x0438;&#x0431;&#x0434;&#x0436;&#x0430;&#x043d;</tspan></text>
<text xml:space="preserve" transform="matrix(1 0 -0 1 223.4068 97.387699)" font-size="14" font-family="TimesNewRomanPSMT"><tspan y="0" x="122.9928"> </tspan></text>
<text xml:space="preserve" transform="matrix(1 0 -0 1 223.4068 97.387699)" font-size="14" font-family="TimesNewRomanPSMT"><tspan y="0" x="126.4928 135.8308 142.04399 149.16719 156.66 162.5932 169.5932 176.20401 183.69683">&#x0421;&#x0430;&#x0431;&#x0438;&#x0442;&#x043e;&#x0432;&#x0438;&#x0447;</tspan></text>
<g id="Layer-2" data-name="Span">
<text xml:space="preserve" transform="matrix(1 0 -0 1 223.4068 97.387699)" font-size="14" font-family="TimesNewRomanPSMT"><tspan y="0" x="190.7363"> </tspan></text>
</g>
</g>
<g id="Layer-1" data-name="P">
<text xml:space="preserve" transform="matrix(1 0 -0 1 233.0968 238.94171)" font-size="14" font-family="TimesNewRomanPSMT"><tspan y="0" x="0">&#x00ab;</tspan></text>
<text xml:space="preserve" transform="matrix(1 0 -0 1 233.0968 238.94171)" font-size="14" font-family="TimesNewRomanPSMT"><tspan y="0" x="7 17.110802 24.110802 31.603602 38.4048 45.3908 51.604 58.7272 66.22 72.433208">&#x041f;&#x0440;&#x0438;&#x043a;&#x043b;&#x0430;&#x0434;&#x043d;&#x0430;&#x044f;</tspan></text>
<text xml:space="preserve" transform="matrix(1 0 -0 1 233.0968 238.94171)" font-size="14" font-family="TimesNewRomanPSMT"><tspan y="0" x="78.87321"> </tspan></text>
<text xml:space="preserve" transform="matrix(1 0 -0 1 233.0968 238.94171)" font-size="14" font-family="TimesNewRomanPSMT"><tspan y="0" x="82.37321 88.38201 94.47341 101.47341 108.96621 115.70021 124.55941 130.7726 137.0614 144.0614 151.55422 158.14402">&#x044d;&#x043a;&#x043e;&#x043d;&#x043e;&#x043c;&#x0435;&#x0442;&#x0440;&#x0438;&#x043a;&#x0430;</tspan></text>
<text xml:space="preserve" transform="matrix(1 0 -0 1 233.0968 238.94171)" font-size="14" font-family="TimesNewRomanPSMT"><tspan y="0" x="164.35721">&#x00bb;</tspan></text>
<g id="Layer-2" data-name="Span">
<text xml:space="preserve" transform="matrix(1 0 -0 1 233.0968 238.94171)" font-size="14" font-family="TimesNewRomanPSMT"><tspan y="0" x="171.3564"> </tspan></text>
</g>
</g>
<g id="Layer-1" data-name="P">
<text xml:space="preserve" transform="matrix(1 0 -0 1 85.05 368.3604)" font-size="14" font-family="TimesNewRomanPSMT"><tspan y="0" x="0 7.6020009 13.631801 20.755002 26.9682 33.586004 39.519205 46.519205">&#x0420;&#x0435;&#x0434;&#x0430;&#x043a;&#x0442;&#x043e;&#x0440;</tspan></text>
<text xml:space="preserve" transform="matrix(1 0 -0 1 85.05 368.3604)" font-size="14" font-family="TimesNewRomanPSMT"><tspan y="0" x="53.519205 57.019205 60.519205 64.0192 67.5192 71.0192 74.5192 78.0192 81.5192 85.0192 88.5192 92.0192 95.5192 99.0192 102.5192 106.0192 109.5192 113.0192 116.5192 120.0192 123.5192 127.0192 130.5192 134.0192 137.5192 141.0192 144.5192 148.0192 151.5192">                             </tspan></text>
<g id="Layer-2" data-name="Span">
<text xml:space="preserve" transform="matrix(1 0 -0 1 85.05 368.3604)" font-size="14" font-family="TimesNewRomanPSMT"><tspan y="0" x="155.0186"> </tspan></text>
</g>
<g id="Layer-2" data-name="Span">
<text xml:space="preserve" transform="matrix(1 0 -0 1 85.05 368.3604)" font-size="14" font-family="TimesNewRomanPSMT"><tspan y="0" x="177"> </tspan></text>
</g>
</g>
<g id="Layer-1" data-name="P">
<g id="Layer-2" data-name="Span">
<text xml:space="preserve" transform="matrix(1 0 -0 1 85.05 469.4683)" font-size="14" font-family="TimesNewRomanPSMT"><tspan y="0" x="0"> </tspan></text>
</g>
<g id="Layer-2" data-name="Span">
<text xml:space="preserve" transform="matrix(1 0 -0 1 85.05 469.4683)" font-size="14" font-family="TimesNewRomanPSMT"><tspan y="0" x="35.4"> </tspan></text>
</g>
</g>
<g id="Layer-1" data-name="P">
<text xml:space="preserve" transform="matrix(1 0 -0 1 85.05 616.41409)" font-size="14" font-family="TimesNewRomanPSMT"><tspan y="0" x="0 10.110801 16.707602 23.830801 31.3236 38.816404 45.2018 51.415 58.907804">&#x041f;&#x043e;&#x0434;&#x043f;&#x0438;&#x0441;&#x0430;&#x043d;&#x043e;</tspan></text>
<text xml:space="preserve" transform="matrix(1 0 -0 1 85.05 616.41409)" font-size="14" font-family="TimesNewRomanPSMT"><tspan y="0" x="65.90781 72.57181">  </tspan></text>
<text xml:space="preserve" transform="matrix(1 0 -0 1 85.05 616.41409)" font-size="14" font-family="TimesNewRomanPSMT"><tspan y="0" x="77.65381">&#x0432;</tspan></text>
<text xml:space="preserve" transform="matrix(1 0 -0 1 85.05 616.41409)" font-size="14" font-family="TimesNewRomanPSMT"><tspan y="0" x="84.26461"> </tspan></text>
<text xml:space="preserve" transform="matrix(1 0 -0 1 85.05 616.41409)" font-size="14" font-family="TimesNewRomanPSMT"><tspan y="0" x="89.34661 96.83941 102.70401 109.744609 115.59661 121.714618">&#x043f;&#x0435;&#x0447;&#x0430;&#x0442;&#x044c;</tspan></text>
<text xml:space="preserve" transform="matrix(1 0 -0 1 85.05 616.41409)" font-size="14" font-family="TimesNewRomanPSMT"><tspan y="0" x="128.10002 135.10002 142.10002 149.10002 156.10002 163.10002 170.10002 177.10002 184.10002 191.10002 198.10002 205.10002 212.10002">________2022 </tspan></text>
<text xml:space="preserve" transform="matrix(1 0 -0 1 85.05 616.41409)" font-size="14" font-family="TimesNewRomanPSMT"><tspan y="0" x="217.18202">&#x0433;</tspan></text>
<text xml:space="preserve" transform="matrix(1 0 -0 1 85.05 616.41409)" font-size="14" font-family="TimesNewRomanPSMT"><tspan y="0" x="221.34563 224.84563">. </tspan></text>
<text xml:space="preserve" transform="matrix(1 0 -0 1 85.05 616.41409)" font-size="14" font-family="TimesNewRomanPSMT"><tspan y="0" x="229.92763 240.98763 247.98763 254.77623 263.54026 269.39225">&#x0424;&#x043e;&#x0440;&#x043c;&#x0430;&#x0442;</tspan></text>
<text xml:space="preserve" transform="matrix(1 0 -0 1 85.05 616.41409)" font-size="14" font-family="TimesNewRomanPSMT"><tspan y="0" x="275.51026"> </tspan></text>
<text xml:space="preserve" transform="matrix(1 0 -0 1 85.05 616.41409)" font-size="14" font-family="TimesNewRomanPSMT"><tspan y="0" x="280.59226 287.18208 293.99726 302.76127 308.97447 314.71726">&#x0431;&#x0443;&#x043c;&#x0430;&#x0433;&#x0438;</tspan></text>
<text xml:space="preserve" transform="matrix(1 0 -0 1 85.05 616.41409)" font-size="14" font-family="TimesNewRomanPSMT"><tspan y="0" x="322.21006 327.29206 334.29206"> 60</tspan></text>
<text xml:space="preserve" transform="matrix(1 0 -0 1 85.05 616.41409)" font-size="14" font-family="TimesNewRomanPSMT"><tspan y="0" x="341.29206">&#x0445;</tspan></text>
<text xml:space="preserve" transform="matrix(1 0 -0 1 85.05 616.41409)" font-size="14" font-family="TimesNewRomanPSMT"><tspan y="0" x="348.29206 355.29206 362.29206 365.79206">84. </tspan></text>
<text xml:space="preserve" transform="matrix(1 0 -0 1 85.05 616.41409)" font-size="14" font-family="TimesNewRomanPSMT"><tspan y="0" x="370.87406 380.98487 387.75947 394.99888 401.21208">&#x041e;&#x0431;&#x044a;&#x0435;&#x043c;</tspan></text>
<text xml:space="preserve" transform="matrix(1 0 -0 1 85.05 616.41409)" font-size="14" font-family="TimesNewRomanPSMT"><tspan y="0" x="410.07127 415.15327"> _</tspan></text>
<text xml:space="preserve" transform="matrix(1 0 -0 1 85.05 616.41409)" font-size="14" font-family="TimesNewRomanPSMT"><tspan y="0" x="422.1448 428.8088">  </tspan></text>
<text xml:space="preserve" transform="matrix(1 0 -0 1 85.05 616.41409)" font-size="14" font-family="TimesNewRomanPSMT"><tspan y="0" x="433.8898 440.8898">_ </tspan></text>
<text xml:space="preserve" transform="matrix(1 0 -0 1 85.05 616.41409)" font-size="14" font-family="TimesNewRomanPSMT"><tspan y="0" x="445.9718">&#x043f;</tspan></text>
<text xml:space="preserve" transform="matrix(1 0 -0 1 85.05 616.41409)" font-size="14" font-family="TimesNewRomanPSMT"><tspan y="0" x="453.4646">.</tspan></text>
<text xml:space="preserve" transform="matrix(1 0 -0 1 85.05 616.41409)" font-size="14" font-family="TimesNewRomanPSMT"><tspan y="0" x="456.9646">&#x043b;</tspan></text>
<text xml:space="preserve" transform="matrix(1 0 -0 1 85.05 616.41409)" font-size="14" font-family="TimesNewRomanPSMT"><tspan y="0" x="463.9506 467.4506 467.4506 467.4506">.   </tspan></text>
<text xml:space="preserve" transform="matrix(1 0 -0 1 85.05 634.7249)" font-size="14" font-family="TimesNewRomanPSMT"><tspan y="0" x="0 8.2026 15.6954 22.6954 28.9086">&#x0422;&#x0438;&#x0440;&#x0430;&#x0436;</tspan></text>
<text xml:space="preserve" transform="matrix(1 0 -0 1 85.05 634.7249)" font-size="14" font-family="TimesNewRomanPSMT"><tspan y="0" x="38.5812"> </tspan></text>
<text xml:space="preserve" transform="matrix(1 0 -0 1 85.05 634.7249)" font-size="14" font-family="TimesNewRomanPSMT"><tspan y="0" x="42.08203 49.08203">15</tspan></text>
<text xml:space="preserve" transform="matrix(1 0 -0 1 85.05 634.7249)" font-size="14" font-family="TimesNewRomanPSMT"><tspan y="0" x="56.08203 59.58203">. </tspan></text>
<text xml:space="preserve" transform="matrix(1 0 -0 1 85.05 634.7249)" font-size="14" font-family="TimesNewRomanPSMT"><tspan y="0" x="63.08203 70.09603 76.309238 82.89903 89.112239">&#x0417;&#x0430;&#x043a;&#x0430;&#x0437;</tspan></text>
<text xml:space="preserve" transform="matrix(1 0 -0 1 85.05 634.7249)" font-size="14" font-family="TimesNewRomanPSMT"><tspan y="0" x="94.642238 98.142238">  </tspan></text>
<text xml:space="preserve" transform="matrix(1 0 -0 1 85.05 634.7249)" font-size="14" font-family="TimesNewRomanPSMT"><tspan y="0" x="101.642238">&#x2116;</tspan></text>
<text xml:space="preserve" transform="matrix(1 0 -0 1 85.05 634.7249)" font-size="14" font-family="TimesNewRomanPSMT"><tspan y="0" x="114.99964 121.99964 128.99964 135.99964 142.99964 146.49964 149.99964 153.49964">____.   </tspan></text>
<text xml:space="preserve" transform="matrix(1 0 -0 1 85.05 634.7249)" font-size="14" font-family="TimesNewRomanPSMT"><tspan y="0" x="156.99964 167.11045 173.22844 180.72126 186.58586 193.62647 199.47847 205.76728 211.98047 219.47328">&#x041e;&#x0442;&#x043f;&#x0435;&#x0447;&#x0430;&#x0442;&#x0430;&#x043d;&#x043e;</tspan></text>
<text xml:space="preserve" transform="matrix(1 0 -0 1 85.05 634.7249)" font-size="14" font-family="TimesNewRomanPSMT"><tspan y="0" x="226.47328"> </tspan></text>
<text xml:space="preserve" transform="matrix(1 0 -0 1 85.05 634.7249)" font-size="14" font-family="TimesNewRomanPSMT"><tspan y="0" x="229.97328">&#x0432;</tspan></text>
<text xml:space="preserve" transform="matrix(1 0 -0 1 85.05 634.7249)" font-size="14" font-family="TimesNewRomanPSMT"><tspan y="0" x="236.58409"> </tspan></text>
<text xml:space="preserve" transform="matrix(1 0 -0 1 85.05 634.7249)" font-size="14" font-family="TimesNewRomanPSMT"><tspan y="0" x="240.08409 246.20209 253.6949 261.1877 268.1877 273.9305 280.9305 287.1437 296.2143 303.7071">&#x0442;&#x0438;&#x043f;&#x043e;&#x0433;&#x0440;&#x0430;&#x0444;&#x0438;&#x0438;</tspan></text>
<text xml:space="preserve" transform="matrix(1 0 -0 1 85.05 634.7249)" font-size="14" font-family="TimesNewRomanPSMT"><tspan y="0" x="311.1999"> </tspan></text>
<text xml:space="preserve" transform="matrix(1 0 -0 1 85.05 634.7249)" font-size="14" font-family="TimesNewRomanPSMT"><tspan y="0" x="314.6999 324.8107 334.9215">&#x041d;&#x0418;&#x0423;</tspan></text>
<text xml:space="preserve" transform="matrix(1 0 -0 1 85.05 634.7249)" font-size="14" font-family="TimesNewRomanPSMT"><tspan y="0" x="344.8335 348.3335"> &#x00ab;</tspan></text>
<text xml:space="preserve" transform="matrix(1 0 -0 1 85.05 634.7249)" font-size="14" font-family="TimesNewRomanPSMT"><tspan y="0" x="355.3335 363.88468 373.99549 384.1063 394.2171 406.66593 415.64134">&#x0422;&#x0418;&#x0418;&#x0418;&#x041c;&#x0421;&#x0425;</tspan></text>
<text xml:space="preserve" transform="matrix(1 0 -0 1 85.05 634.7249)" font-size="14" font-family="TimesNewRomanPSMT"><tspan y="0" x="425.75215 432.75215 436.25215">&#x00bb;. </tspan></text>
<g id="Layer-2" data-name="Span">
<text xml:space="preserve" transform="matrix(1 0 -0 1 85.05 634.7249)" font-size="14" font-family="TimesNewRomanPSMT"><tspan y="0" x="439.749"> </tspan></text>
</g>
</g>
<g id="Layer-1" data-name="P">
<text xml:space="preserve" transform="matrix(1 0 -0 1 186.8893 691.3465)" font-size="14" font-family="TimesNewRomanPSMT"><tspan y="0" x="0 8.2026 14.4158 25.1958 31.648402 37.861604 45.354406">&#x0422;&#x0430;&#x0448;&#x043a;&#x0435;&#x043d;&#x0442;</tspan></text>
<text xml:space="preserve" transform="matrix(1 0 -0 1 186.8893 691.3465)" font-size="14" font-family="TimesNewRomanPSMT"><tspan y="0" x="51.472406 56.134405 63.134405 70.1344 77.1344 84.1344 91.1344 98.1344 101.6344 105.1344">-100000,  </tspan></text>
<text xml:space="preserve" transform="matrix(1 0 -0 1 186.8893 691.3465)" font-size="14" font-family="TimesNewRomanPSMT"><tspan y="0" x="108.6344 115.0198 122.0058 129.49861 136.99143">&#x0443;&#x043b;&#x0438;&#x0446;&#x0430;</tspan></text>
<text xml:space="preserve" transform="matrix(1 0 -0 1 186.8893 691.3465)" font-size="14" font-family="TimesNewRomanPSMT"><tspan y="0" x="143.20462 146.70462">  </tspan></text>
<text xml:space="preserve" transform="matrix(1 0 -0 1 186.8893 691.3465)" font-size="14" font-family="TimesNewRomanPSMT"><tspan y="0" x="150.20462 159.35782 165.57102 172.57102">&#x041a;&#x0430;&#x0440;&#x044b;</tspan></text>
<text xml:space="preserve" transform="matrix(1 0 -0 1 186.8893 691.3465)" font-size="14" font-family="TimesNewRomanPSMT"><tspan y="0" x="181.97762">-</tspan></text>
<text xml:space="preserve" transform="matrix(1 0 -0 1 186.8893 691.3465)" font-size="14" font-family="TimesNewRomanPSMT"><tspan y="0" x="186.63962 196.75043 204.24324 210.68325 216.13204 223.13204 229.55803">&#x041d;&#x0438;&#x044f;&#x0437;&#x043e;&#x0432;&#x0430;</tspan></text>
<text xml:space="preserve" transform="matrix(1 0 -0 1 186.8893 691.3465)" font-size="14" font-family="TimesNewRomanPSMT"><tspan y="0" x="235.77123 239.27123 242.77123 246.27123 253.27123 260.27125">,  39.</tspan></text>
<g id="Layer-2" data-name="Span">
<text xml:space="preserve" transform="matrix(1 0 -0 1 186.8893 691.3465)" font-size="14" font-family="TimesNewRomanPSMT"><tspan y="0" x="263.7715"> </tspan></text>
</g>
</g>
<path transform="matrix(1,0,0,1,85.05,56.700014)" stroke-width=".6835938" stroke-linecap="butt" stroke-miterlimit="10" stroke-linejoin="miter" fill="none" stroke="#000000" d="M 422.1448 561.2385 L 433.8898 561.2385 "/>
<path transform="matrix(1,0,0,1,85.05,56.700014)" stroke-width=".6835938" stroke-linecap="butt" stroke-miterlimit="10" stroke-linejoin="miter" fill="none" stroke="#000000" d="M 42.08203 579.5493 L 56.08203 579.5493 "/>
<g id="Layer-1" data-name="P">
<g id="Layer-2" data-name="Span">
</g>
<clipPath id="cp2023">
<path transform="matrix(1,0,0,-1,0,842)" d="M 82.3 30.22227 L 555.25 30.22227 L 555.25 61.722269 L 82.3 61.722269 Z "/>
</clipPath>
<g clip-path="url(#cp2023)">
<text xml:space="preserve" transform="matrix(1 0 -0 1 313.1998 790.85)" font-size="11" font-family="Calibri"><tspan y="0" x="11.15039"> </tspan></text>
</g>
<text xml:space="preserve" transform="matrix(1 0 -0 1 313.1998 790.85)" font-size="11" font-family="Calibri"><tspan y="0" x="0 5.5748007">51</tspan></text>
</g>
</g>
</g>
</svg>
