<?xml version="1.0" encoding="UTF-8" standalone="no"?>
<!DOCTYPE svg PUBLIC "-//W3C//DTD SVG 1.1//EN" "http://www.w3.org/Graphics/SVG/1.1/DTD/svg11.dtd">
<svg xmlns="http://www.w3.org/2000/svg" xmlns:xlink="http://www.w3.org/1999/xlink" version="1.1" width="720pt" height="540pt" viewBox="0 0 720 540">
<g enable-background="new">
<clipPath id="cp34">
<path transform="matrix(1,0,0,-1,0,540)" d="M 0 0 L 720 0 L 720 540 L 0 540 Z "/>
</clipPath>
<g clip-path="url(#cp34)">
<path transform="matrix(1,0,0,-1,0,540)" d="M 0 540 L 720 540 L 720 0 L 0 0 Z " fill="#ffffff"/>
<g id="Layer-1" data-name="P">
</g>
<g id="Layer-1" data-name="P">
</g>
<clipPath id="cp35">
<path transform="matrix(1,0,0,-1,0,540)" d="M 80.94766 454.725 L 713.92739 454.725 L 713.92739 519.525 L 80.94766 519.525 Z "/>
</clipPath>
<g clip-path="url(#cp35)">
<text fill="#333399" xml:space="preserve" transform="matrix(1 0 -0 1 304.9902 76.387088)" font-size="44" font-family="Tahoma"><tspan y="0" x="0 29.7132 54.014406 78.79961 106.88481 130.042 154.3432">&#x041f;&#x0440;&#x0438;&#x043c;&#x0435;&#x0440;&#x044b;</tspan></text>
</g>
<g id="Layer-1" data-name="P">
</g>
<g id="Layer-1" data-name="P">
</g>
<clipPath id="cp36">
<path transform="matrix(1,0,0,-1,0,540)" d="M 0 0 L 720 0 L 720 540 L 0 540 Z "/>
</clipPath>
<g clip-path="url(#cp36)">
<text xml:space="preserve" transform="matrix(1 0 -0 1 34.725 129.03879)" font-size="26.32" font-family="Tahoma"><tspan y="0" x="0 14.368088 22.335152">1. </tspan></text>
<text xml:space="preserve" transform="matrix(1 0 -0 1 34.725 129.03879)" font-size="26.32" font-family="Tahoma"><tspan y="0" x="30.56015 48.5525 63.165369">&#x0414;&#x043b;&#x044f;</tspan></text>
<text xml:space="preserve" transform="matrix(1 0 -0 1 34.725 129.03879)" font-size="26.32" font-family="Tahoma"><tspan y="0" x="77.05706"> </tspan></text>
<text xml:space="preserve" transform="matrix(1 0 -0 1 34.725 129.03879)" font-size="26.32" font-family="Tahoma"><tspan y="0" x="85.28206 105.28 119.13485 133.68192 150.49251 164.34735 178.89443 191.03847 204.14583 218.43759 229.3604">&#x0444;&#x0435;&#x0440;&#x043c;&#x0435;&#x0440;&#x0441;&#x043a;&#x043e;&#x0433;&#x043e;</tspan></text>
<text xml:space="preserve" transform="matrix(1 0 -0 1 34.725 129.03879)" font-size="26.32" font-family="Tahoma"><tspan y="0" x="243.65216"> </tspan></text>
<text xml:space="preserve" transform="matrix(1 0 -0 1 34.725 129.03879)" font-size="26.32" font-family="Tahoma"><tspan y="0" x="251.87717 264.9082 279.19996 291.24137 305.1331 319.9644 332.10844 344.39463 358.19685">&#x0445;&#x043e;&#x0437;&#x044f;&#x0439;&#x0441;&#x0442;&#x0432;&#x0430;</tspan></text>
<text xml:space="preserve" transform="matrix(1 0 -0 1 34.725 129.03879)" font-size="26.32" font-family="Tahoma"><tspan y="0" x="372.0122"> </tspan></text>
<text xml:space="preserve" transform="matrix(1 0 -0 1 34.725 129.03879)" font-size="26.32" font-family="Tahoma"><tspan y="0" x="380.2372 395.0685 409.36027 421.5043 433.7905 448.33757 462.6293 476.48417 491.3023">&#x043f;&#x043e;&#x0441;&#x0442;&#x0440;&#x043e;&#x0435;&#x043d;&#x0430;</tspan></text>
<text xml:space="preserve" transform="matrix(1 0 -0 1 34.725 129.03879)" font-size="26.32" font-family="Tahoma"><tspan y="0" x="505.11769"> </tspan></text>
<text xml:space="preserve" transform="matrix(1 0 -0 1 34.725 129.03879)" font-size="26.32" font-family="Tahoma"><tspan y="0" x="513.34268 525.4867 540.09957 553.95437 568.64358 581.7509 601.7989 622.5917 636.40707">&#x0441;&#x043b;&#x0435;&#x0434;&#x0443;&#x044e;&#x0449;&#x0430;&#x044f;</tspan></text>
<text xml:space="preserve" transform="matrix(1 0 -0 1 34.725 129.03879)" font-size="26.32" font-family="Tahoma"><tspan y="0" x="650.29879"> </tspan></text>
<text xml:space="preserve" transform="matrix(1 0 -0 1 34.725 160.03879)" font-size="26.32" font-family="Tahoma"><tspan y="0" x="0 17.773898">&#x041f;&#x0424;</tspan></text>
<text xml:space="preserve" transform="matrix(1 0 -0 1 34.725 160.03879)" font-size="26.32" font-family="Tahoma"><tspan y="0" x="37.47442"> </tspan></text>
<text xml:space="preserve" transform="matrix(1 0 -0 1 34.725 160.03879)" font-size="26.32" font-family="Tahoma"><tspan y="0" x="45.699419 58.806779 73.35384 87.64561 106.87237 120.68774 135.51905 150.3372 164.62897 176.77301 189.05919">&#x0443;&#x0440;&#x043e;&#x0436;&#x0430;&#x0439;&#x043d;&#x043e;&#x0441;&#x0442;&#x0438;</tspan></text>
<text xml:space="preserve" transform="matrix(1 0 -0 1 34.725 160.03879)" font-size="26.32" font-family="Tahoma"><tspan y="0" x="203.8905">:</tspan></text>
<g id="Layer-2" data-name="Span">
<text xml:space="preserve" transform="matrix(1 0 -0 1 34.725 160.03879)" font-size="26.32" font-family="Tahoma"><tspan y="0" x="213.1946"> </tspan></text>
</g>
</g>
<g id="Layer-1" data-name="P">
<text xml:space="preserve" transform="matrix(1 0 -0 1 133.1149 197.35559)" font-size="26.32" font-family="Tahoma" font-weight="bold"><tspan y="0" x="0 15.152424 22.864184 44.404474 52.116235 68.874179 76.58594 98.12623 105.83799 122.59593 130.82094 147.57889 164.33684">y = 3 + 0,26x</tspan></text>
<text xml:space="preserve" transform="matrix(1 0 -0 1 133.1149 197.35559)" font-size="17.54667" font-family="Tahoma" font-weight="bold"><tspan y="7.132071" x="180.2432">1</tspan></text>
<text xml:space="preserve" transform="matrix(1 0 -0 1 133.1149 197.35559)" font-size="26.32" font-family="Tahoma" font-weight="bold"><tspan y="0" x="191.4155 199.12726 220.66754 228.3793 245.13726 253.36226 270.1202 286.87815 303.63609"> + 0,036x</tspan></text>
<text xml:space="preserve" transform="matrix(1 0 -0 1 133.1149 197.35559)" font-size="17.54667" font-family="Tahoma" font-weight="bold"><tspan y="7.132071" x="319.5455">2</tspan></text>
<text xml:space="preserve" transform="matrix(1 0 -0 1 133.1149 197.35559)" font-size="26.32" font-family="Tahoma" font-weight="bold"><tspan y="0" x="330.7178 338.42958 359.96986 367.6816 384.43955 392.66456 409.4225 426.18043 442.93836"> + 0,001x</tspan></text>
<text xml:space="preserve" transform="matrix(1 0 -0 1 133.1149 197.35559)" font-size="17.54667" font-family="Tahoma" font-weight="bold"><tspan y="7.132071" x="458.8479">3</tspan></text>
<g id="Layer-2" data-name="Span">
<text xml:space="preserve" transform="matrix(1 0 -0 1 133.1149 197.35559)" font-size="17.54667" font-family="Tahoma" font-weight="bold"><tspan y="7.132071" x="470.0202"> </tspan></text>
</g>
</g>
<g id="Layer-1" data-name="P">
<text xml:space="preserve" transform="matrix(1 0 -0 1 34.725 239.9924)" font-size="26.32" font-family="Tahoma"><tspan y="0" x="0 10.9228 25.611992">&#x0433;&#x0434;&#x0435;</tspan></text>
<text xml:space="preserve" transform="matrix(1 0 -0 1 34.725 239.9924)" font-size="26.32" font-family="Tahoma"><tspan y="0" x="39.466844"> </tspan></text>
<text xml:space="preserve" transform="matrix(1 0 -0 1 34.725 239.9924)" font-size="26.32" font-family="Tahoma" font-weight="bold"><tspan y="0" x="47.69215">x</tspan></text>
<text xml:space="preserve" transform="matrix(1 0 -0 1 34.725 239.9924)" font-size="17.54667" font-family="Tahoma" font-weight="bold"><tspan y="7.132071" x="63.60238 74.774349">1 </tspan></text>
<text xml:space="preserve" transform="matrix(1 0 -0 1 34.725 239.9924)" font-size="26.32" font-family="Tahoma"><tspan y="0" x="79.9153 94.28339">&#x2013; </tspan></text>
<text xml:space="preserve" transform="matrix(1 0 -0 1 34.725 239.9924)" font-size="26.32" font-family="Tahoma"><tspan y="0" x="102.508388 115.615749 129.43112 143.72289 157.57773 169.72177 182.00795 195.81017">&#x043a;&#x0430;&#x0447;&#x0435;&#x0441;&#x0442;&#x0432;&#x043e;</tspan></text>
<text xml:space="preserve" transform="matrix(1 0 -0 1 34.725 239.9924)" font-size="26.32" font-family="Tahoma"><tspan y="0" x="210.10193"> </tspan></text>
<text xml:space="preserve" transform="matrix(1 0 -0 1 34.725 239.9924)" font-size="26.32" font-family="Tahoma"><tspan y="0" x="218.32694 233.15825 247.45001 261.74177 275.54399">&#x043f;&#x043e;&#x0447;&#x0432;&#x044b;</tspan></text>
<text xml:space="preserve" transform="matrix(1 0 -0 1 34.725 239.9924)" font-size="26.32" font-family="Tahoma"><tspan y="0" x="293.7811 301.74815">, </tspan></text>
<text xml:space="preserve" transform="matrix(1 0 -0 1 34.725 239.9924)" font-size="26.32" font-family="Tahoma"><tspan y="0" x="309.97315 324.4439 338.25929 352.87214">&#x0431;&#x0430;&#x043b;&#x043b;</tspan></text>
<text xml:space="preserve" transform="matrix(1 0 -0 1 34.725 239.9924)" font-size="26.32" font-family="Tahoma"><tspan y="0" x="367.485"> </tspan></text>
<text xml:space="preserve" transform="matrix(1 0 -0 1 34.725 239.9924)" font-size="26.32" font-family="Tahoma"><tspan y="0" x="375.71 390.18077 404.4725 419.29066 434.12196 446.40815 460.263 472.5492">&#x0431;&#x043e;&#x043d;&#x0438;&#x0442;&#x0435;&#x0442;&#x0430;</tspan></text>
<text xml:space="preserve" transform="matrix(1 0 -0 1 34.725 239.9924)" font-size="26.32" font-family="Tahoma"><tspan y="0" x="486.36457">;</tspan></text>
<g id="Layer-2" data-name="Span">
<text xml:space="preserve" transform="matrix(1 0 -0 1 34.725 239.9924)" font-size="26.32" font-family="Tahoma"><tspan y="0" x="495.6633"> </tspan></text>
</g>
</g>
<g id="Layer-1" data-name="P">
<text xml:space="preserve" transform="matrix(1 0 -0 1 34.725 282.6292)" font-size="26.32" font-family="Tahoma" font-weight="bold"><tspan y="0" x="0">x</tspan></text>
<text xml:space="preserve" transform="matrix(1 0 -0 1 34.725 282.6292)" font-size="17.54667" font-family="Tahoma" font-weight="bold"><tspan y="7.132071" x="15.91023">2</tspan></text>
<text xml:space="preserve" transform="matrix(1 0 -0 1 34.725 282.6292)" font-size="26.32" font-family="Tahoma"><tspan y="0" x="27.08253 35.30753 43.532529 53.094587">  - </tspan></text>
<text xml:space="preserve" transform="matrix(1 0 -0 1 34.725 282.6292)" font-size="26.32" font-family="Tahoma"><tspan y="0" x="61.319585 74.42694 88.718708 103.331569 118.16289 132.45465 146.3095 158.45354 170.73972 184.54193">&#x043a;&#x043e;&#x043b;&#x0438;&#x0447;&#x0435;&#x0441;&#x0442;&#x0432;&#x043e;</tspan></text>
<text xml:space="preserve" transform="matrix(1 0 -0 1 34.725 282.6292)" font-size="26.32" font-family="Tahoma"><tspan y="0" x="198.8337"> </tspan></text>
<text xml:space="preserve" transform="matrix(1 0 -0 1 34.725 282.6292)" font-size="26.32" font-family="Tahoma"><tspan y="0" x="207.0587 220.86092 235.67908 249.53392 261.67799 275.53285 290.35099 305.16914 323.40626">&#x0432;&#x043d;&#x0435;&#x0441;&#x0435;&#x043d;&#x043d;&#x044b;&#x0445;</tspan></text>
<text xml:space="preserve" transform="matrix(1 0 -0 1 34.725 282.6292)" font-size="26.32" font-family="Tahoma"><tspan y="0" x="336.4373"> </tspan></text>
<text xml:space="preserve" transform="matrix(1 0 -0 1 34.725 282.6292)" font-size="26.32" font-family="Tahoma"><tspan y="0" x="344.6623 357.76966 372.45884 386.75059 401.22135 415.7684 429.62327 444.4414 459.2727">&#x0443;&#x0434;&#x043e;&#x0431;&#x0440;&#x0435;&#x043d;&#x0438;&#x0439;</tspan></text>
<text xml:space="preserve" transform="matrix(1 0 -0 1 34.725 282.6292)" font-size="26.32" font-family="Tahoma"><tspan y="0" x="474.104 482.07106">, </tspan></text>
<text xml:space="preserve" transform="matrix(1 0 -0 1 34.725 282.6292)" font-size="26.32" font-family="Tahoma"><tspan y="0" x="490.29606 503.4034">&#x043a;&#x0433;</tspan></text>
<text xml:space="preserve" transform="matrix(1 0 -0 1 34.725 282.6292)" font-size="26.32" font-family="Tahoma"><tspan y="0" x="514.32626">/</tspan></text>
<text xml:space="preserve" transform="matrix(1 0 -0 1 34.725 282.6292)" font-size="26.32" font-family="Tahoma"><tspan y="0" x="524.38839 535.31118">&#x0433;&#x0430;</tspan></text>
<text xml:space="preserve" transform="matrix(1 0 -0 1 34.725 282.6292)" font-size="26.32" font-family="Tahoma"><tspan y="0" x="549.1265">;</tspan></text>
<g id="Layer-2" data-name="Span">
<text xml:space="preserve" transform="matrix(1 0 -0 1 34.725 282.6292)" font-size="26.32" font-family="Tahoma" font-weight="bold"><tspan y="0" x="558.4304"> </tspan></text>
</g>
</g>
<g id="Layer-1" data-name="P">
<text xml:space="preserve" transform="matrix(1 0 -0 1 34.725 325.266)" font-size="26.32" font-family="Tahoma" font-weight="bold"><tspan y="0" x="0">x</tspan></text>
<text xml:space="preserve" transform="matrix(1 0 -0 1 34.725 325.266)" font-size="17.54667" font-family="Tahoma" font-weight="bold"><tspan y="7.132071" x="15.91023">3</tspan></text>
<text xml:space="preserve" transform="matrix(1 0 -0 1 34.725 325.266)" font-size="26.32" font-family="Tahoma"><tspan y="0" x="27.08253 35.30753 43.532529 53.094587">  - </tspan></text>
<text xml:space="preserve" transform="matrix(1 0 -0 1 34.725 325.266)" font-size="26.32" font-family="Tahoma"><tspan y="0" x="61.319585 75.61134 90.08208 103.93693 116.08098 130.9123 144.76714 159.0589 172.91374 187.7319 202.55007 216.84183 228.98587 241.27205">&#x043e;&#x0431;&#x0435;&#x0441;&#x043f;&#x0435;&#x0447;&#x0435;&#x043d;&#x043d;&#x043e;&#x0441;&#x0442;&#x044c;</tspan></text>
<text xml:space="preserve" transform="matrix(1 0 -0 1 34.725 325.266)" font-size="26.32" font-family="Tahoma"><tspan y="0" x="254.4452"> </tspan></text>
<text xml:space="preserve" transform="matrix(1 0 -0 1 34.725 325.266)" font-size="26.32" font-family="Tahoma"><tspan y="0" x="262.67024 276.96199 289.10603 303.92417 318.2159 332.01814 346.83628 365.0734 381.88398">&#x043e;&#x0441;&#x043d;&#x043e;&#x0432;&#x043d;&#x044b;&#x043c;&#x0438;</tspan></text>
<text xml:space="preserve" transform="matrix(1 0 -0 1 34.725 325.266)" font-size="26.32" font-family="Tahoma"><tspan y="0" x="396.71528"> </tspan></text>
<text xml:space="preserve" transform="matrix(1 0 -0 1 34.725 325.266)" font-size="26.32" font-family="Tahoma"><tspan y="0" x="404.94029 424.93824 439.22999 454.04814 468.7373 482.55268 499.36326">&#x0444;&#x043e;&#x043d;&#x0434;&#x0430;&#x043c;&#x0438;</tspan></text>
<text xml:space="preserve" transform="matrix(1 0 -0 1 34.725 325.266)" font-size="26.32" font-family="Tahoma"><tspan y="0" x="514.1946 522.1617">, </tspan></text>
<text xml:space="preserve" transform="matrix(1 0 -0 1 34.725 325.266)" font-size="26.32" font-family="Tahoma"><tspan y="0" x="530.38668 542.67288 560.91">&#x0442;&#x044b;&#x0441;</tspan></text>
<text xml:space="preserve" transform="matrix(1 0 -0 1 34.725 325.266)" font-size="26.32" font-family="Tahoma"><tspan y="0" x="573.054">.</tspan></text>
<text xml:space="preserve" transform="matrix(1 0 -0 1 34.725 325.266)" font-size="26.32" font-family="Tahoma"><tspan y="0" x="581.0211 593.16519 606.2725">&#x0441;&#x0443;&#x043c;</tspan></text>
<text xml:space="preserve" transform="matrix(1 0 -0 1 34.725 325.266)" font-size="26.32" font-family="Tahoma"><tspan y="0" x="623.0831">/</tspan></text>
<text xml:space="preserve" transform="matrix(1 0 -0 1 34.725 325.266)" font-size="26.32" font-family="Tahoma"><tspan y="0" x="633.14529 644.06808">&#x0433;&#x0430;</tspan></text>
<text xml:space="preserve" transform="matrix(1 0 -0 1 34.725 325.266)" font-size="26.32" font-family="Tahoma"><tspan y="0" x="657.8834">.</tspan></text>
<g id="Layer-2" data-name="Span">
<text xml:space="preserve" transform="matrix(1 0 -0 1 34.725 325.266)" font-size="26.32" font-family="Tahoma" font-weight="bold"><tspan y="0" x="665.8437"> </tspan></text>
</g>
</g>
<g id="Layer-1" data-name="P">
<text xml:space="preserve" transform="matrix(1 0 -0 1 34.725 367.9028)" font-size="26.32" font-family="Tahoma"><tspan y="0" x="0 17.952872 31.957745 46.962778 59.414766">&#x041d;&#x0430;&#x0439;&#x0442;&#x0438;</tspan></text>
<text xml:space="preserve" transform="matrix(1 0 -0 1 34.725 367.9028)" font-size="26.32" font-family="Tahoma"><tspan y="0" x="74.23556"> </tspan></text>
<text xml:space="preserve" transform="matrix(1 0 -0 1 34.725 367.9028)" font-size="26.32" font-family="Tahoma"><tspan y="0" x="95.71531 110.720348 125.43585 139.91449 151.02416 166.02919 180.50783 192.72295 207.72798 222.20662">&#x043f;&#x0440;&#x043e;&#x0433;&#x043d;&#x043e;&#x0437;&#x043d;&#x043e;&#x0435;</tspan></text>
<text xml:space="preserve" transform="matrix(1 0 -0 1 34.725 367.9028)" font-size="26.32" font-family="Tahoma"><tspan y="0" x="236.05358"> </tspan></text>
<text xml:space="preserve" transform="matrix(1 0 -0 1 34.725 367.9028)" font-size="26.32" font-family="Tahoma"><tspan y="0" x="257.53334 269.74845 284.75349 298.75837 313.237 327.2682 342.27323 357.27827">&#x0437;&#x043d;&#x0430;&#x0447;&#x0435;&#x043d;&#x0438;&#x0435;</tspan></text>
<text xml:space="preserve" transform="matrix(1 0 -0 1 34.725 367.9028)" font-size="26.32" font-family="Tahoma"><tspan y="0" x="371.1252"> </tspan></text>
<text xml:space="preserve" transform="matrix(1 0 -0 1 34.725 367.9028)" font-size="26.32" font-family="Tahoma"><tspan y="0" x="392.60496 405.89918 420.6147 435.09333 454.4938 468.4987 483.50373 498.50877 512.98739 525.30776 537.75979">&#x0443;&#x0440;&#x043e;&#x0436;&#x0430;&#x0439;&#x043d;&#x043e;&#x0441;&#x0442;&#x0438;</tspan></text>
<text xml:space="preserve" transform="matrix(1 0 -0 1 34.725 367.9028)" font-size="26.32" font-family="Tahoma"><tspan y="0" x="552.5805"> </tspan></text>
<text xml:space="preserve" transform="matrix(1 0 -0 1 34.725 367.9028)" font-size="26.32" font-family="Tahoma"><tspan y="0" x="574.0603 587.2756 602.07009 616.5487 631.5537 644.84799">&#x0445;&#x043b;&#x043e;&#x043f;&#x043a;&#x0430;</tspan></text>
<text xml:space="preserve" transform="matrix(1 0 -0 1 34.725 367.9028)" font-size="26.32" font-family="Tahoma"><tspan y="0" x="658.85287 666.8304">, </tspan></text>
<text xml:space="preserve" transform="matrix(1 0 -0 1 34.725 398.9028)" font-size="26.32" font-family="Tahoma"><tspan y="0" x="0 13.854849 25.998898 40.617029">&#x0435;&#x0441;&#x043b;&#x0438;</tspan></text>
<text xml:space="preserve" transform="matrix(1 0 -0 1 34.725 398.9028)" font-size="26.32" font-family="Tahoma"><tspan y="0" x="55.445718"> </tspan></text>
<text xml:space="preserve" transform="matrix(1 0 -0 1 34.725 398.9028)" font-size="26.32" font-family="Tahoma" font-weight="bold"><tspan y="0" x="63.66664">x</tspan></text>
<text xml:space="preserve" transform="matrix(1 0 -0 1 34.725 398.9028)" font-size="17.54667" font-family="Tahoma" font-weight="bold"><tspan y="7.132071" x="79.57688">1</tspan></text>
<text xml:space="preserve" transform="matrix(1 0 -0 1 34.725 398.9028)" font-size="26.32" font-family="Tahoma"><tspan y="0" x="90.74917 98.97417 118.12196 132.47953 146.83708 154.79889"> =70, </tspan></text>
<text xml:space="preserve" transform="matrix(1 0 -0 1 34.725 398.9028)" font-size="26.32" font-family="Tahoma" font-weight="bold"><tspan y="0" x="163.0521">x</tspan></text>
<text xml:space="preserve" transform="matrix(1 0 -0 1 34.725 398.9028)" font-size="17.54667" font-family="Tahoma" font-weight="bold"><tspan y="7.132071" x="178.9623">2</tspan></text>
<text xml:space="preserve" transform="matrix(1 0 -0 1 34.725 398.9028)" font-size="26.32" font-family="Tahoma"><tspan y="0" x="190.1346 198.3596 217.5074 225.7324 240.08997 254.44753 268.80509 276.76689"> = 200, </tspan></text>
<text xml:space="preserve" transform="matrix(1 0 -0 1 34.725 398.9028)" font-size="26.32" font-family="Tahoma" font-weight="bold"><tspan y="0" x="285.0305">x</tspan></text>
<text xml:space="preserve" transform="matrix(1 0 -0 1 34.725 398.9028)" font-size="17.54667" font-family="Tahoma" font-weight="bold"><tspan y="7.132071" x="300.9408">3</tspan></text>
<text xml:space="preserve" transform="matrix(1 0 -0 1 34.725 398.9028)" font-size="26.32" font-family="Tahoma"><tspan y="0" x="312.113 320.338 339.4858 353.84339 368.20094 382.55848 390.52027 398.74528"> =400.  </tspan></text>
<g id="Layer-2" data-name="Span">
<text xml:space="preserve" transform="matrix(1 0 -0 1 34.725 398.9028)" font-size="26.32" font-family="Tahoma"><tspan y="0" x="407.009"> </tspan></text>
</g>
</g>
<g id="Layer-1" data-name="P">
<text xml:space="preserve" transform="matrix(1 0 -0 1 34.725 441.53959)" font-size="26.32" font-family="Tahoma" font-weight="bold"><tspan y="0" x="0 15.152424 22.864184 44.404474 52.116235 68.874179 85.63212 93.85712 110.61506">y = 28,8 </tspan></text>
<text xml:space="preserve" transform="matrix(1 0 -0 1 34.725 441.53959)" font-size="26.32" font-family="Tahoma"><tspan y="0" x="118.3243">&#x0446;</tspan></text>
<text xml:space="preserve" transform="matrix(1 0 -0 1 34.725 441.53959)" font-size="26.32" font-family="Tahoma"><tspan y="0" x="133.37409">/</tspan></text>
<text xml:space="preserve" transform="matrix(1 0 -0 1 34.725 441.53959)" font-size="26.32" font-family="Tahoma"><tspan y="0" x="143.43622 154.35903">&#x0433;&#x0430;</tspan></text>
<text xml:space="preserve" transform="matrix(1 0 -0 1 34.725 441.53959)" font-size="26.32" font-family="Tahoma"><tspan y="0" x="168.17441 176.14148 184.36649">.  </tspan></text>
</g>
</g>
</g>
</svg>
