<?xml version="1.0" encoding="UTF-8" standalone="no"?>
<!DOCTYPE svg PUBLIC "-//W3C//DTD SVG 1.1//EN" "http://www.w3.org/Graphics/SVG/1.1/DTD/svg11.dtd">
<svg xmlns="http://www.w3.org/2000/svg" xmlns:xlink="http://www.w3.org/1999/xlink" version="1.1" width="720pt" height="540pt" viewBox="0 0 720 540">
<g enable-background="new">
<clipPath id="cp37">
<path transform="matrix(1,0,0,-1,0,540)" d="M 0 0 L 720 0 L 720 540 L 0 540 Z "/>
</clipPath>
<g clip-path="url(#cp37)">
<path transform="matrix(1,0,0,-1,0,540)" d="M 0 540 L 720 540 L 720 0 L 0 0 Z " fill="#ffffff"/>
<g id="Layer-1" data-name="P">
</g>
<g id="Layer-1" data-name="P">
</g>
<clipPath id="cp38">
<path transform="matrix(1,0,0,-1,0,540)" d="M 80.94766 466.725 L 713.92739 466.725 L 713.92739 519.525 L 80.94766 519.525 Z "/>
</clipPath>
<g clip-path="url(#cp38)">
<text fill="#333399" xml:space="preserve" transform="matrix(1 0 -0 1 304.9902 64.387088)" font-size="44" font-family="Tahoma"><tspan y="0" x="0 29.7132 54.014406 78.79961 106.88481 130.042 154.3432">&#x041f;&#x0440;&#x0438;&#x043c;&#x0435;&#x0440;&#x044b;</tspan></text>
</g>
<g id="Layer-1" data-name="P">
</g>
<g id="Layer-1" data-name="P">
</g>
<clipPath id="cp39">
<path transform="matrix(1,0,0,-1,0,540)" d="M 0 0 L 720 0 L 720 540 L 0 540 Z "/>
</clipPath>
<g clip-path="url(#cp39)">
<text xml:space="preserve" transform="matrix(1 0 -0 1 51.725 148.6918)" font-size="28" font-family="Tahoma"><tspan y="0" x="0 15.2852 23.7608">2. </tspan></text>
<text xml:space="preserve" transform="matrix(1 0 -0 1 51.725 148.6918)" font-size="28" font-family="Tahoma"><tspan y="0" x="32.5108 48.6164 61.535604 74.606 89.3032 105.0672 120.2712 134.9544 150.5 165.2392 181.0032">&#x0423;&#x0441;&#x0442;&#x0430;&#x043d;&#x043e;&#x0432;&#x043b;&#x0435;&#x043d;&#x0430;</tspan></text>
<text xml:space="preserve" transform="matrix(1 0 -0 1 51.725 148.6918)" font-size="28" font-family="Tahoma"><tspan y="0" x="195.7004"> </tspan></text>
<text xml:space="preserve" transform="matrix(1 0 -0 1 51.725 148.6918)" font-size="28" font-family="Tahoma"><tspan y="0" x="204.4504 217.3696 232.91519 247.65439 263.2812 277.2252 298.5528 320.6728 335.37">&#x0441;&#x043b;&#x0435;&#x0434;&#x0443;&#x044e;&#x0449;&#x0430;&#x044f;</tspan></text>
<text xml:space="preserve" transform="matrix(1 0 -0 1 51.725 148.6918)" font-size="28" font-family="Tahoma"><tspan y="0" x="350.14839"> </tspan></text>
<text xml:space="preserve" transform="matrix(1 0 -0 1 51.725 148.6918)" font-size="28" font-family="Tahoma"><tspan y="0" x="358.89839 371.70838 386.40559 401.08879 416.8668 429.78599 445.564 463.4476 478.6516 491.5708 504.64118">&#x0437;&#x0430;&#x0432;&#x0438;&#x0441;&#x0438;&#x043c;&#x043e;&#x0441;&#x0442;&#x044c;</tspan></text>
<text xml:space="preserve" transform="matrix(1 0 -0 1 51.725 148.6918)" font-size="28" font-family="Tahoma"><tspan y="0" x="518.65518"> </tspan></text>
<text xml:space="preserve" transform="matrix(1 0 -0 1 51.725 182.6918)" font-size="28" font-family="Tahoma"><tspan y="0" x="0 12.919201 25.989602 41.193605 56.971605 74.8552 90.059207 102.97841 116.04881">&#x0441;&#x0442;&#x043e;&#x0438;&#x043c;&#x043e;&#x0441;&#x0442;&#x0438;</tspan></text>
<text xml:space="preserve" transform="matrix(1 0 -0 1 51.725 182.6918)" font-size="28" font-family="Tahoma"><tspan y="0" x="131.82683"> </tspan></text>
<text xml:space="preserve" transform="matrix(1 0 -0 1 51.725 182.6918)" font-size="28" font-family="Tahoma"><tspan y="0" x="140.57683 155.26003 169.95722 185.5028 200.7068 215.39 230.594">&#x0432;&#x0430;&#x043b;&#x043e;&#x0432;&#x043e;&#x0439;</tspan></text>
<text xml:space="preserve" transform="matrix(1 0 -0 1 51.725 182.6918)" font-size="28" font-family="Tahoma"><tspan y="0" x="246.37201"> </tspan></text>
<text xml:space="preserve" transform="matrix(1 0 -0 1 51.725 182.6918)" font-size="28" font-family="Tahoma"><tspan y="0" x="255.12201 270.90003 286.37565 301.57966 317.20646 331.15046 345.09446 361.10484 376.88285">&#x043f;&#x0440;&#x043e;&#x0434;&#x0443;&#x043a;&#x0446;&#x0438;&#x0438;</tspan></text>
<text xml:space="preserve" transform="matrix(1 0 -0 1 51.725 182.6918)" font-size="28" font-family="Tahoma"><tspan y="0" x="392.66087"> </tspan></text>
<text xml:space="preserve" transform="matrix(1 0 -0 1 51.725 182.6918)" font-size="28" font-family="Tahoma"><tspan y="0" x="401.41087 416.61488">&#x043e;&#x0442;</tspan></text>
<text xml:space="preserve" transform="matrix(1 0 -0 1 51.725 182.6918)" font-size="28" font-family="Tahoma"><tspan y="0" x="429.68525"> </tspan></text>
<text xml:space="preserve" transform="matrix(1 0 -0 1 51.725 182.6918)" font-size="28" font-family="Tahoma"><tspan y="0" x="438.43525 454.21327 469.75889 484.9629 507.0829 521.7801 537.4069">&#x043f;&#x043b;&#x043e;&#x0449;&#x0430;&#x0434;&#x0438;</tspan></text>
<text xml:space="preserve" transform="matrix(1 0 -0 1 51.725 182.6918)" font-size="28" font-family="Tahoma"><tspan y="0" x="553.1849"> </tspan></text>
<text xml:space="preserve" transform="matrix(1 0 -0 1 51.725 182.6918)" font-size="28" font-family="Tahoma"><tspan y="0" x="561.9349">&#x0441;</tspan></text>
<text xml:space="preserve" transform="matrix(1 0 -0 1 51.725 182.6918)" font-size="28" font-family="Tahoma"><tspan y="0" x="574.8541">/</tspan></text>
<text xml:space="preserve" transform="matrix(1 0 -0 1 51.725 182.6918)" font-size="28" font-family="Tahoma"><tspan y="0" x="585.55856">&#x0445;</tspan></text>
<text xml:space="preserve" transform="matrix(1 0 -0 1 51.725 182.6918)" font-size="28" font-family="Tahoma"><tspan y="0" x="599.4213"> </tspan></text>
<text xml:space="preserve" transform="matrix(1 0 -0 1 51.725 216.6918)" font-size="28" font-family="Tahoma"><tspan y="0" x="0 13.944 25.564002 40.768 56.394804 72.172809">&#x0443;&#x0433;&#x043e;&#x0434;&#x0438;&#x0439;</tspan></text>
<text xml:space="preserve" transform="matrix(1 0 -0 1 51.725 216.6918)" font-size="28" font-family="Tahoma"><tspan y="0" x="87.950809">:</tspan></text>
<g id="Layer-2" data-name="Span">
<text xml:space="preserve" transform="matrix(1 0 -0 1 51.725 216.6918)" font-size="28" font-family="Tahoma"><tspan y="0" x="97.84961"> </tspan></text>
</g>
</g>
<g id="Layer-1" data-name="P">
<text xml:space="preserve" transform="matrix(1 0 -0 1 51.725 257.4118)" font-size="28" font-family="Tahoma" font-weight="bold"><tspan y="0" x="0 16.1196 24.3236 47.2388 55.442804 73.2704 82.0204 99.848 117.6756 125.8796 148.7948 156.9988 174.82639 183.57639 201.40398 219.23157 236.15758 244.36157 256.43519 264.6392 282.4668 291.2168 309.0444 326.872 344.69963 362.52723">y = 0,34 + 0,31x - 0,0045x</tspan></text>
<text xml:space="preserve" transform="matrix(1 0 -0 1 51.725 257.4118)" font-size="18.66667" font-family="Tahoma" font-weight="bold"><tspan y="-6.225808" x="379.4492">2</tspan></text>
<text xml:space="preserve" transform="matrix(1 0 -0 1 51.725 257.4118)" font-size="28" font-family="Tahoma" font-weight="bold"><tspan y="0" x="391.3346"> </tspan></text>
<g id="Layer-2" data-name="Span">
<text xml:space="preserve" transform="matrix(1 0 -0 1 51.725 257.4118)" font-size="18.66667" font-family="Tahoma" font-weight="bold"><tspan y="7.247735" x="399.5378"> </tspan></text>
</g>
</g>
<g id="Layer-1" data-name="P">
<text xml:space="preserve" transform="matrix(1 0 -0 1 51.725 298.1318)" font-size="28" font-family="Tahoma"><tspan y="0" x="0 11.620001 27.246802">&#x0433;&#x0434;&#x0435;</tspan></text>
<text xml:space="preserve" transform="matrix(1 0 -0 1 51.725 298.1318)" font-size="28" font-family="Tahoma"><tspan y="0" x="41.986"> </tspan></text>
<text xml:space="preserve" transform="matrix(1 0 -0 1 51.725 298.1318)" font-size="28" font-family="Tahoma" font-weight="bold"><tspan y="0" x="50.73633">y</tspan></text>
<text xml:space="preserve" transform="matrix(1 0 -0 1 51.725 298.1318)" font-size="28" font-family="Tahoma"><tspan y="0" x="66.85547 75.60547 90.89067"> &#x2013; </tspan></text>
<text xml:space="preserve" transform="matrix(1 0 -0 1 51.725 298.1318)" font-size="28" font-family="Tahoma"><tspan y="0" x="99.64067 112.559879 125.63028 140.83428 156.61229 174.49588 189.69988 202.61908 215.68949">&#x0441;&#x0442;&#x043e;&#x0438;&#x043c;&#x043e;&#x0441;&#x0442;&#x044c;</tspan></text>
<text xml:space="preserve" transform="matrix(1 0 -0 1 51.725 298.1318)" font-size="28" font-family="Tahoma"><tspan y="0" x="229.70349"> </tspan></text>
<text xml:space="preserve" transform="matrix(1 0 -0 1 51.725 298.1318)" font-size="28" font-family="Tahoma"><tspan y="0" x="238.45349 253.13669 267.8339 283.37953 298.58354 313.26673 328.47074">&#x0432;&#x0430;&#x043b;&#x043e;&#x0432;&#x043e;&#x0439;</tspan></text>
<text xml:space="preserve" transform="matrix(1 0 -0 1 51.725 298.1318)" font-size="28" font-family="Tahoma"><tspan y="0" x="344.24876"> </tspan></text>
<text xml:space="preserve" transform="matrix(1 0 -0 1 51.725 298.1318)" font-size="28" font-family="Tahoma"><tspan y="0" x="352.99876 368.77677 384.25239 399.4564 415.0832 429.0272 442.9712 458.98158 474.75959">&#x043f;&#x0440;&#x043e;&#x0434;&#x0443;&#x043a;&#x0446;&#x0438;&#x0438;</tspan></text>
<text xml:space="preserve" transform="matrix(1 0 -0 1 51.725 298.1318)" font-size="28" font-family="Tahoma"><tspan y="0" x="490.5376 499.0132">, </tspan></text>
<text xml:space="preserve" transform="matrix(1 0 -0 1 51.725 298.1318)" font-size="28" font-family="Tahoma"><tspan y="0" x="507.7632 525.6468 541.1924">&#x043c;&#x043b;&#x043d;</tspan></text>
<text xml:space="preserve" transform="matrix(1 0 -0 1 51.725 298.1318)" font-size="28" font-family="Tahoma"><tspan y="0" x="556.95639">.</tspan></text>
<text xml:space="preserve" transform="matrix(1 0 -0 1 51.725 298.1318)" font-size="28" font-family="Tahoma"><tspan y="0" x="565.43197 578.3512 592.29519">&#x0441;&#x0443;&#x043c;</tspan></text>
<text xml:space="preserve" transform="matrix(1 0 -0 1 51.725 298.1318)" font-size="28" font-family="Tahoma"><tspan y="0" x="610.1788">,</tspan></text>
<g id="Layer-2" data-name="Span">
<text xml:space="preserve" transform="matrix(1 0 -0 1 51.725 298.1318)" font-size="28" font-family="Tahoma"><tspan y="0" x="618.6523"> </tspan></text>
</g>
</g>
<g id="Layer-1" data-name="P">
<text xml:space="preserve" transform="matrix(1 0 -0 1 51.725 338.8518)" font-size="28" font-family="Tahoma" font-weight="bold"><tspan y="0" x="0">x</tspan></text>
<text xml:space="preserve" transform="matrix(1 0 -0 1 51.725 338.8518)" font-size="28" font-family="Tahoma"><tspan y="0" x="16.92578 25.675782 40.960985"> &#x2013; </tspan></text>
<text xml:space="preserve" transform="matrix(1 0 -0 1 51.725 338.8518)" font-size="28" font-family="Tahoma"><tspan y="0" x="49.710985 65.48898 81.034587 96.23859 118.35859 133.05579 148.68259">&#x043f;&#x043b;&#x043e;&#x0449;&#x0430;&#x0434;&#x044c;</tspan></text>
<text xml:space="preserve" transform="matrix(1 0 -0 1 51.725 338.8518)" font-size="28" font-family="Tahoma"><tspan y="0" x="162.6966"> </tspan></text>
<text xml:space="preserve" transform="matrix(1 0 -0 1 51.725 338.8518)" font-size="28" font-family="Tahoma"><tspan y="0" x="171.4466">&#x0441;</tspan></text>
<text xml:space="preserve" transform="matrix(1 0 -0 1 51.725 338.8518)" font-size="28" font-family="Tahoma"><tspan y="0" x="184.3658">/</tspan></text>
<text xml:space="preserve" transform="matrix(1 0 -0 1 51.725 338.8518)" font-size="28" font-family="Tahoma"><tspan y="0" x="195.0702">&#x0445;</tspan></text>
<text xml:space="preserve" transform="matrix(1 0 -0 1 51.725 338.8518)" font-size="28" font-family="Tahoma"><tspan y="0" x="208.93302"> </tspan></text>
<text xml:space="preserve" transform="matrix(1 0 -0 1 51.725 338.8518)" font-size="28" font-family="Tahoma"><tspan y="0" x="217.68302 231.62702 243.24701 258.45103 274.07783 289.85585">&#x0443;&#x0433;&#x043e;&#x0434;&#x0438;&#x0439;</tspan></text>
<text xml:space="preserve" transform="matrix(1 0 -0 1 51.725 338.8518)" font-size="28" font-family="Tahoma"><tspan y="0" x="305.63386 314.10948">, </tspan></text>
<text xml:space="preserve" transform="matrix(1 0 -0 1 51.725 338.8518)" font-size="28" font-family="Tahoma"><tspan y="0" x="322.85948 334.47947">&#x0433;&#x0430;</tspan></text>
<text xml:space="preserve" transform="matrix(1 0 -0 1 51.725 338.8518)" font-size="28" font-family="Tahoma"><tspan y="0" x="349.17668">.</tspan></text>
<g id="Layer-2" data-name="Span">
<text xml:space="preserve" transform="matrix(1 0 -0 1 51.725 338.8518)" font-size="28" font-family="Tahoma" font-weight="bold"><tspan y="0" x="357.6562"> </tspan></text>
</g>
</g>
<g id="Layer-1" data-name="P">
<text xml:space="preserve" transform="matrix(1 0 -0 1 51.725 380.5318)" font-size="28" font-family="Tahoma"><tspan y="0" x="0 18.9084 33.6056 49.3836 62.454">&#x041d;&#x0430;&#x0439;&#x0442;&#x0438;</tspan></text>
<text xml:space="preserve" transform="matrix(1 0 -0 1 51.725 380.5318)" font-size="28" font-family="Tahoma"><tspan y="0" x="78.232"> </tspan></text>
<text xml:space="preserve" transform="matrix(1 0 -0 1 51.725 380.5318)" font-size="28" font-family="Tahoma"><tspan y="0" x="86.982 104.86561 119.56281 133.5068 146.42601 162.20403 180.08762 194.7848 210.3304 224.3444 240.10842 255.31241">&#x043c;&#x0430;&#x043a;&#x0441;&#x0438;&#x043c;&#x0430;&#x043b;&#x044c;&#x043d;&#x043e;&#x0435;</tspan></text>
<text xml:space="preserve" transform="matrix(1 0 -0 1 51.725 380.5318)" font-size="28" font-family="Tahoma"><tspan y="0" x="270.0516"> </tspan></text>
<text xml:space="preserve" transform="matrix(1 0 -0 1 51.725 380.5318)" font-size="28" font-family="Tahoma"><tspan y="0" x="278.8016 291.6116 307.3756 322.0728 337.27684 352.01603 367.78004 383.55805">&#x0437;&#x043d;&#x0430;&#x0447;&#x0435;&#x043d;&#x0438;&#x0435;</tspan></text>
<text xml:space="preserve" transform="matrix(1 0 -0 1 51.725 380.5318)" font-size="28" font-family="Tahoma"><tspan y="0" x="398.29725"> </tspan></text>
<text xml:space="preserve" transform="matrix(1 0 -0 1 51.725 380.5318)" font-size="28" font-family="Tahoma"><tspan y="0" x="407.04725 419.96644 433.0368 448.2408 464.01884 481.90245 497.10646 510.02565 523.096">&#x0441;&#x0442;&#x043e;&#x0438;&#x043c;&#x043e;&#x0441;&#x0442;&#x0438;</tspan></text>
<text xml:space="preserve" transform="matrix(1 0 -0 1 51.725 380.5318)" font-size="28" font-family="Tahoma"><tspan y="0" x="538.87399"> </tspan></text>
<text xml:space="preserve" transform="matrix(1 0 -0 1 51.725 418.7056)" font-size="28" font-family="Tahoma"><tspan y="0" x="0 14.683201 29.380402 44.926004 60.130006 74.8132 90.017208">&#x0432;&#x0430;&#x043b;&#x043e;&#x0432;&#x043e;&#x0439;</tspan></text>
<text xml:space="preserve" transform="matrix(1 0 -0 1 51.725 418.7056)" font-size="28" font-family="Tahoma"><tspan y="0" x="105.795207"> </tspan></text>
<text xml:space="preserve" transform="matrix(1 0 -0 1 51.725 418.7056)" font-size="28" font-family="Tahoma"><tspan y="0" x="114.545207 130.32321 145.79882 161.0028 176.62961 190.57361 204.51761 220.52802 236.30603">&#x043f;&#x0440;&#x043e;&#x0434;&#x0443;&#x043a;&#x0446;&#x0438;&#x0438;</tspan></text>
<text xml:space="preserve" transform="matrix(1 0 -0 1 51.725 418.7056)" font-size="28" font-family="Tahoma"><tspan y="0" x="252.08405">.</tspan></text>
<text xml:space="preserve" transform="matrix(1 0 -0 1 51.725 418.7056)" font-size="32" font-family="Tahoma"><tspan y="0" x="260.5586 270.5586">  </tspan></text>
<g id="Layer-2" data-name="Span">
<text xml:space="preserve" transform="matrix(1 0 -0 1 51.725 418.7056)" font-size="32" font-family="Tahoma"><tspan y="0" x="280.5586"> </tspan></text>
</g>
</g>
<g id="Layer-1" data-name="P">
<text xml:space="preserve" transform="matrix(1 0 -0 1 51.725 465.38563)" font-size="32" font-family="Tahoma" font-weight="bold"><tspan y="0" x="0 19.344002 28.720002 54.908803 64.284809 84.65921 105.033618 115.033618">x = 34,4</tspan></text>
<text xml:space="preserve" transform="matrix(1 0 -0 1 51.725 465.38563)" font-size="32" font-family="Tahoma"><tspan y="0" x="135.4062"> </tspan></text>
<text xml:space="preserve" transform="matrix(1 0 -0 1 51.725 465.38563)" font-size="32" font-family="Tahoma"><tspan y="0" x="145.4062 158.6862">&#x0433;&#x0430;</tspan></text>
<text xml:space="preserve" transform="matrix(1 0 -0 1 51.725 465.38563)" font-size="32" font-family="Tahoma"><tspan y="0" x="175.483 185.1694">, </tspan></text>
<text xml:space="preserve" transform="matrix(1 0 -0 1 51.725 465.38563)" font-size="32" font-family="Tahoma" font-weight="bold"><tspan y="0" x="195.1719 213.59432 222.97032 249.15912 258.53514 278.90953 288.90953 309.2839 329.6583">y = 5,68 </tspan></text>
<text xml:space="preserve" transform="matrix(1 0 -0 1 51.725 465.38563)" font-size="32" font-family="Tahoma"><tspan y="0" x="339.0312 359.46958 377.236">&#x043c;&#x043b;&#x043d;</tspan></text>
<text xml:space="preserve" transform="matrix(1 0 -0 1 51.725 465.38563)" font-size="32" font-family="Tahoma"><tspan y="0" x="395.25199">.</tspan></text>
<text xml:space="preserve" transform="matrix(1 0 -0 1 51.725 465.38563)" font-size="32" font-family="Tahoma"><tspan y="0" x="404.9384 419.7032 435.6392">&#x0441;&#x0443;&#x043c;</tspan></text>
<text xml:space="preserve" transform="matrix(1 0 -0 1 51.725 465.38563)" font-size="32" font-family="Tahoma"><tspan y="0" x="456.07759">.</tspan></text>
</g>
</g>
</g>
</svg>
