<?xml version="1.0" encoding="UTF-8" standalone="no"?>
<!DOCTYPE svg PUBLIC "-//W3C//DTD SVG 1.1//EN" "http://www.w3.org/Graphics/SVG/1.1/DTD/svg11.dtd">
<svg xmlns="http://www.w3.org/2000/svg" xmlns:xlink="http://www.w3.org/1999/xlink" version="1.1" width="595pt" height="842pt" viewBox="0 0 595 842">
<g enable-background="new">
<clipPath id="cp132">
<path transform="matrix(1,0,0,-1,0,842)" d="M 0 0 L 595 0 L 595 842 L 0 842 Z "/>
</clipPath>
<g clip-path="url(#cp132)">
<path transform="matrix(1,0,0,-1,0,842)" d="M 0 842 L 595 842 L 595 0 L 0 0 Z " fill="#ffffff"/>
<g id="Layer-1" data-name="P">
</g>
<g id="Layer-1" data-name="P">
</g>
<clipPath id="cp133">
<path transform="matrix(1,0,0,-1,0,842)" d="M 83.3 763.05 L 418.3 763.05 L 418.3 787.05 L 83.3 787.05 Z "/>
</clipPath>
<g clip-path="url(#cp133)">
<path transform="matrix(1,0,0,-1,0,842)" d="M 85.3 785.05 L 138.1 785.05 L 138.1 765.15 L 85.3 765.15 Z " fill="#ffffff"/>
<path transform="matrix(1,0,0,-1,0,842)" d="M 138.1 785.05 L 197.4 785.05 L 197.4 765.15 L 138.1 765.15 Z " fill="#ffffff"/>
<path transform="matrix(1,0,0,-1,0,842)" d="M 197.4 785.05 L 262.45 785.05 L 262.45 765.15 L 197.4 765.15 Z " fill="#ffffff"/>
<path transform="matrix(1,0,0,-1,0,842)" d="M 262.45 785.05 L 302.55 785.05 L 302.55 765.15 L 262.45 765.15 Z " fill="#ffffff"/>
<path transform="matrix(1,0,0,-1,0,842)" d="M 302.55 785.05 L 359.45 785.05 L 359.45 765.15 L 302.55 765.15 Z " fill="#ffffff"/>
<path transform="matrix(1,0,0,-1,0,842)" d="M 359.45 785.05 L 416.35 785.05 L 416.35 765.15 L 359.45 765.15 Z " fill="#ffffff"/>
<g id="Layer-2" data-name="P">
<g id="Layer-3" data-name="P">
<g id="Layer-4" data-name="P">
<g id="Layer-5" data-name="P">
</g>
<clipPath id="cp134">
<path transform="matrix(1,0,0,-1,0,842)" d="M 85.55 765.4 L 137.85 765.4 L 137.85 784.80007 L 85.55 784.80007 Z "/>
</clipPath>
<g clip-path="url(#cp134)">
<text xml:space="preserve" transform="matrix(1 0 -0 1 105.625 73.09448)" font-size="12" font-family="TimesNewRomanPS" font-weight="bold"><tspan y="0" x="0 6.1499998">10</tspan></text>
</g>
</g>
<g id="Layer-4" data-name="P">
<g id="Layer-5" data-name="P">
</g>
<clipPath id="cp135">
<path transform="matrix(1,0,0,-1,0,842)" d="M 138.35 765.4 L 197.15001 765.4 L 197.15001 784.80007 L 138.35 784.80007 Z "/>
</clipPath>
<g clip-path="url(#cp135)">
<text xml:space="preserve" transform="matrix(1 0 -0 1 154.952 73.09448)" font-size="12" font-family="TimesNewRomanPS" font-weight="bold"><tspan y="0" x="0 4.146 10.296 13.445999 19.595999">-0,13</tspan></text>
</g>
</g>
<g id="Layer-4" data-name="P">
</g>
<clipPath id="cp136">
<path transform="matrix(1,0,0,-1,0,842)" d="M 83.3 763.05 L 418.3 763.05 L 418.3 787.05 L 83.3 787.05 Z "/>
</clipPath>
<g clip-path="url(#cp136)">
<path transform="matrix(1,0,0,-1,0,842)" d="M 197.4 785.05 L 262.45 785.05 L 262.45 765.15 L 197.4 765.15 Z " fill="#bdc4eb" fill-opacity="0"/>
</g>
<g id="Layer-4" data-name="P">
<g id="Layer-5" data-name="P">
</g>
<clipPath id="cp137">
<path transform="matrix(1,0,0,-1,0,842)" d="M 262.7 765.4 L 302.30003 765.4 L 302.30003 784.80007 L 262.7 784.80007 Z "/>
</clipPath>
<g clip-path="url(#cp137)">
<text xml:space="preserve" transform="matrix(1 0 -0 1 278.7 73.09448)" font-size="12" font-family="TimesNewRomanPS" font-weight="bold"><tspan y="0" x="0 6.1499998">20</tspan></text>
</g>
</g>
<g id="Layer-4" data-name="P">
<g id="Layer-5" data-name="P">
</g>
<clipPath id="cp138">
<path transform="matrix(1,0,0,-1,0,842)" d="M 302.8 765.4 L 359.19999 765.4 L 359.19999 784.80007 L 302.8 784.80007 Z "/>
</clipPath>
<g clip-path="url(#cp138)">
<text xml:space="preserve" transform="matrix(1 0 -0 1 320.275 73.09448)" font-size="12" font-family="TimesNewRomanPS" font-weight="bold"><tspan y="0" x="0 6.1499998 9.299999 15.449999">1,42</tspan></text>
</g>
</g>
<g id="Layer-4" data-name="P">
</g>
<clipPath id="cp139">
<path transform="matrix(1,0,0,-1,0,842)" d="M 83.3 763.05 L 418.3 763.05 L 418.3 787.05 L 83.3 787.05 Z "/>
</clipPath>
<g clip-path="url(#cp139)">
<path transform="matrix(1,0,0,-1,0,842)" d="M 359.45 785.05 L 416.35 785.05 L 416.35 765.15 L 359.45 765.15 Z " fill="#b9f77e" fill-opacity="0"/>
</g>
</g>
<path transform="matrix(1,0,0,1,83.3,54.950014)" stroke-width=".5" stroke-linecap="butt" stroke-miterlimit="4" stroke-linejoin="miter" fill="none" stroke="#7f7f7f" d="M 54.8 1.5 L 54.8 22.4 "/>
<path transform="matrix(1,0,0,1,83.3,54.950014)" stroke-width=".5" stroke-linecap="butt" stroke-miterlimit="4" stroke-linejoin="miter" fill="none" stroke="#7f7f7f" d="M 114.1 1.5 L 114.1 22.4 "/>
<path transform="matrix(1,0,0,1,83.3,54.950014)" stroke-width=".5" stroke-linecap="butt" stroke-miterlimit="4" stroke-linejoin="miter" fill="none" stroke="#7f7f7f" d="M 179.15 1.5 L 179.15 22.4 "/>
<path transform="matrix(1,0,0,1,83.3,54.950014)" stroke-width=".5" stroke-linecap="butt" stroke-miterlimit="4" stroke-linejoin="miter" fill="none" stroke="#7f7f7f" d="M 219.25 1.5 L 219.25 22.4 "/>
<path transform="matrix(1,0,0,1,83.3,54.950014)" stroke-width=".5" stroke-linecap="butt" stroke-miterlimit="4" stroke-linejoin="miter" fill="none" stroke="#7f7f7f" d="M 276.15 1.5 L 276.15 22.4 "/>
<path transform="matrix(1,0,0,1,83.3,54.950014)" stroke-width=".5" stroke-linecap="butt" stroke-miterlimit="4" stroke-linejoin="miter" fill="none" stroke="#7f7f7f" d="M 1.5 2 L 333.55 2 "/>
<path transform="matrix(1,0,0,1,83.3,54.950014)" stroke-width=".5" stroke-linecap="butt" stroke-miterlimit="4" stroke-linejoin="miter" fill="none" stroke="#7f7f7f" d="M 2 1.5 L 2 22.4 "/>
<path transform="matrix(1,0,0,1,83.3,54.950014)" stroke-width=".5" stroke-linecap="butt" stroke-miterlimit="4" stroke-linejoin="miter" fill="none" stroke="#7f7f7f" d="M 333.05 1.5 L 333.05 22.4 "/>
<path transform="matrix(1,0,0,1,83.3,54.950014)" stroke-width=".5" stroke-linecap="butt" stroke-miterlimit="4" stroke-linejoin="miter" fill="none" stroke="#7f7f7f" d="M 1.5 21.9 L 333.55 21.9 "/>
</g>
</g>
</g>
</g>
</svg>
