<?xml version="1.0" encoding="UTF-8" standalone="no"?>
<!DOCTYPE svg PUBLIC "-//W3C//DTD SVG 1.1//EN" "http://www.w3.org/Graphics/SVG/1.1/DTD/svg11.dtd">
<svg xmlns="http://www.w3.org/2000/svg" xmlns:xlink="http://www.w3.org/1999/xlink" version="1.1" width="595pt" height="842pt" viewBox="0 0 595 842">
<g enable-background="new">
<clipPath id="cp280">
<path transform="matrix(1,0,0,-1,0,842)" d="M 0 0 L 595 0 L 595 842 L 0 842 Z "/>
</clipPath>
<g clip-path="url(#cp280)">
<path transform="matrix(1,0,0,-1,0,842)" d="M 0 842 L 595 842 L 595 0 L 0 0 Z " fill="#ffffff"/>
<g id="Layer-1" data-name="P">
</g>
<clipPath id="cp281">
<path transform="matrix(1,0,0,-1,0,842)" d="M 81.17403 56.3 L 556.37606 56.3 L 556.37606 789.17599 L 81.17403 789.17599 Z "/>
</clipPath>
<g clip-path="url(#cp281)">
<text xml:space="preserve" transform="matrix(1 0 -0 1 120.5 69.07703)" font-size="14" font-family="TimesNewRomanPSMT"><tspan y="0" x="0 12.166001 18.886002 28.630003 36.190004">&#x041c;&#x043e;&#x0436;&#x043d;&#x043e;</tspan></text>
<text xml:space="preserve" transform="matrix(1 0 -0 1 120.5 69.07703)" font-size="14" font-family="TimesNewRomanPSMT"><tspan y="0" x="43.260004"> </tspan></text>
<text xml:space="preserve" transform="matrix(1 0 -0 1 120.5 69.07703)" font-size="14" font-family="TimesNewRomanPSMT"><tspan y="0" x="50.344 55.944 62.23 71.161998 77.44799 83.63599 91.195987 97.38398">&#x0437;&#x0430;&#x043c;&#x0435;&#x0442;&#x0438;&#x0442;&#x044c;</tspan></text>
<text xml:space="preserve" transform="matrix(1 0 -0 1 120.5 69.07703)" font-size="14" font-family="TimesNewRomanPSMT"><tspan y="0" x="103.837978 107.407978">, </tspan></text>
<text xml:space="preserve" transform="matrix(1 0 -0 1 120.5 69.07703)" font-size="14" font-family="TimesNewRomanPSMT"><tspan y="0" x="114.491977 121.60397 127.60997">&#x0447;&#x0442;&#x043e;</tspan></text>
<text xml:space="preserve" transform="matrix(1 0 -0 1 120.5 69.07703)" font-size="14" font-family="TimesNewRomanPSMT"><tspan y="0" x="134.67998 138.24999">, </tspan></text>
<text xml:space="preserve" transform="matrix(1 0 -0 1 120.5 69.07703)" font-size="14" font-family="TimesNewRomanPSMT"><tspan y="0" x="145.33399 152.894 159.53 165.81601 174.74802 181.63602 187.99202 195.06203">&#x043d;&#x0435;&#x0441;&#x043c;&#x043e;&#x0442;&#x0440;&#x044f;</tspan></text>
<text xml:space="preserve" transform="matrix(1 0 -0 1 120.5 69.07703)" font-size="14" font-family="TimesNewRomanPSMT"><tspan y="0" x="201.57204"> </tspan></text>
<text xml:space="preserve" transform="matrix(1 0 -0 1 120.5 69.07703)" font-size="14" font-family="TimesNewRomanPSMT"><tspan y="0" x="208.65604 216.21605">&#x043d;&#x0430;</tspan></text>
<text xml:space="preserve" transform="matrix(1 0 -0 1 120.5 69.07703)" font-size="14" font-family="TimesNewRomanPSMT"><tspan y="0" x="222.50206"> </tspan></text>
<text xml:space="preserve" transform="matrix(1 0 -0 1 120.5 69.07703)" font-size="14" font-family="TimesNewRomanPSMT"><tspan y="0" x="229.58606 235.59206">&#x0442;&#x043e;</tspan></text>
<text xml:space="preserve" transform="matrix(1 0 -0 1 120.5 69.07703)" font-size="14" font-family="TimesNewRomanPSMT"><tspan y="0" x="242.66207"> </tspan></text>
<text xml:space="preserve" transform="matrix(1 0 -0 1 120.5 69.07703)" font-size="14" font-family="TimesNewRomanPSMT"><tspan y="0" x="249.74607 256.85807 262.86408">&#x0447;&#x0442;&#x043e;</tspan></text>
<text xml:space="preserve" transform="matrix(1 0 -0 1 120.5 69.07703)" font-size="14" font-family="TimesNewRomanPSMT"><tspan y="0" x="269.93409"> </tspan></text>
<text xml:space="preserve" transform="matrix(1 0 -0 1 120.5 69.07703)" font-size="14" font-family="TimesNewRomanPSMT"><tspan y="0" x="277.0181">&#x0432;</tspan></text>
<text xml:space="preserve" transform="matrix(1 0 -0 1 120.5 69.07703)" font-size="14" font-family="TimesNewRomanPSMT"><tspan y="0" x="283.6961"> </tspan></text>
<text xml:space="preserve" transform="matrix(1 0 -0 1 120.5 69.07703)" font-size="14" font-family="TimesNewRomanPSMT"><tspan y="0" x="290.78013 297.44413 304.64015 312.20014 319.76014">&#x043e;&#x0434;&#x043d;&#x0438;&#x0445;</tspan></text>
<text xml:space="preserve" transform="matrix(1 0 -0 1 120.5 69.07703)" font-size="14" font-family="TimesNewRomanPSMT"><tspan y="0" x="326.83015"> </tspan></text>
<text xml:space="preserve" transform="matrix(1 0 -0 1 120.5 69.07703)" font-size="14" font-family="TimesNewRomanPSMT"><tspan y="0" x="333.91416 340.20018 347.25617 354.32618 361.43818 367.72419 374.2342">&#x0441;&#x043b;&#x0443;&#x0447;&#x0430;&#x044f;&#x0445;</tspan></text>
<text xml:space="preserve" transform="matrix(1 0 -0 1 120.5 69.07703)" font-size="14" font-family="TimesNewRomanPSMT"><tspan y="0" x="381.3042"> </tspan></text>
<text xml:space="preserve" transform="matrix(1 0 -0 1 120.5 69.07703)" font-size="14" font-family="TimesNewRomanPSMT"><tspan y="0" x="388.3882 395.45823 403.01823 409.30424 416.86424 423.73823">&#x043e;&#x0446;&#x0435;&#x043d;&#x043a;&#x0438;</tspan></text>
<text xml:space="preserve" transform="matrix(1 0 -0 1 120.5 69.07703)" font-size="14" font-family="TimesNewRomanPSMT"><tspan y="0" x="431.29823"> </tspan></text>
<text xml:space="preserve" transform="matrix(1 0 -0 1 86.05 87.387699)" font-size="14" font-family="TimesNewRomanPSMT"><tspan y="0" x="0 7.5586 14.627199 22.185799 29.744399 37.302999 46.135599 52.420198 62.764799">&#x043f;&#x0440;&#x0438;&#x043d;&#x0438;&#x043c;&#x0430;&#x044e;&#x0442;</tspan></text>
<text xml:space="preserve" transform="matrix(1 0 -0 1 86.05 87.387699)" font-size="14" font-family="TimesNewRomanPSMT"><tspan y="0" x="68.9514"> </tspan></text>
<text xml:space="preserve" transform="matrix(1 0 -0 1 86.05 87.387699)" font-size="14" font-family="TimesNewRomanPSMT"><tspan y="0" x="77.16801 82.76661 89.05121 96.60981 104.16841 113.72901 120.01361 127.57221 135.13082 144.60742">&#x0437;&#x0430;&#x043d;&#x0438;&#x0436;&#x0435;&#x043d;&#x043d;&#x044b;&#x0435;</tspan></text>
<text xml:space="preserve" transform="matrix(1 0 -0 1 86.05 87.387699)" font-size="14" font-family="TimesNewRomanPSMT"><tspan y="0" x="150.89203"> </tspan></text>
<text xml:space="preserve" transform="matrix(1 0 -0 1 86.05 87.387699)" font-size="14" font-family="TimesNewRomanPSMT"><tspan y="0" x="159.10863 164.70723 172.26583 177.99044 185.10103 191.38564 198.94423 206.50283">&#x0437;&#x043d;&#x0430;&#x0447;&#x0435;&#x043d;&#x0438;&#x044f;</tspan></text>
<text xml:space="preserve" transform="matrix(1 0 -0 1 86.05 87.387699)" font-size="14" font-family="TimesNewRomanPSMT"><tspan y="0" x="213.01143 216.58003">, </tspan></text>
<text xml:space="preserve" transform="matrix(1 0 -0 1 86.05 87.387699)" font-size="14" font-family="TimesNewRomanPSMT"><tspan y="0" x="224.79663">&#x0430;</tspan></text>
<text xml:space="preserve" transform="matrix(1 0 -0 1 86.05 87.387699)" font-size="14" font-family="TimesNewRomanPSMT"><tspan y="0" x="231.08124"> </tspan></text>
<text xml:space="preserve" transform="matrix(1 0 -0 1 86.05 87.387699)" font-size="14" font-family="TimesNewRomanPSMT"><tspan y="0" x="239.29784">&#x0432;</tspan></text>
<text xml:space="preserve" transform="matrix(1 0 -0 1 86.05 87.387699)" font-size="14" font-family="TimesNewRomanPSMT"><tspan y="0" x="245.97444"> </tspan></text>
<text xml:space="preserve" transform="matrix(1 0 -0 1 86.05 87.387699)" font-size="14" font-family="TimesNewRomanPSMT"><tspan y="0" x="254.19104 261.38566 268.27226 275.34086 281.14945 288.70805">&#x0434;&#x0440;&#x0443;&#x0433;&#x0438;&#x0445;</tspan></text>
<text xml:space="preserve" transform="matrix(1 0 -0 1 86.05 87.387699)" font-size="14" font-family="TimesNewRomanPSMT"><tspan y="0" x="295.77665 303.99327 318.06187"> &#x2014; </tspan></text>
<text xml:space="preserve" transform="matrix(1 0 -0 1 86.05 87.387699)" font-size="14" font-family="TimesNewRomanPSMT"><tspan y="0" x="326.27848 331.87709 338.16169 344.8383 354.31489 365.16349 371.4481 379.00669 386.56529 396.04188">&#x0437;&#x0430;&#x0432;&#x044b;&#x0448;&#x0435;&#x043d;&#x043d;&#x044b;&#x0435;</tspan></text>
<text xml:space="preserve" transform="matrix(1 0 -0 1 86.05 87.387699)" font-size="14" font-family="TimesNewRomanPSMT"><tspan y="0" x="402.32649 405.89509">, </tspan></text>
<text xml:space="preserve" transform="matrix(1 0 -0 1 86.05 87.387699)" font-size="14" font-family="TimesNewRomanPSMT"><tspan y="0" x="414.1117">&#x0432;</tspan></text>
<text xml:space="preserve" transform="matrix(1 0 -0 1 86.05 87.387699)" font-size="14" font-family="TimesNewRomanPSMT"><tspan y="0" x="420.7883"> </tspan></text>
<text xml:space="preserve" transform="matrix(1 0 -0 1 86.05 87.387699)" font-size="14" font-family="TimesNewRomanPSMT"><tspan y="0" x="429.0049 436.5635 442.8481 449.9027 456.70533">&#x0446;&#x0435;&#x043b;&#x043e;&#x043c;</tspan></text>
<text xml:space="preserve" transform="matrix(1 0 -0 1 86.05 87.387699)" font-size="14" font-family="TimesNewRomanPSMT"><tspan y="0" x="465.63594"> </tspan></text>
<text xml:space="preserve" transform="matrix(1 0 -0 1 86.05 110.571598)" font-size="14" font-family="TimesNewRomanPSMT"><tspan y="0" x="0 5.5972 13.1544 18.8776 25.986802 32.27 39.8272 47.384405">&#x0437;&#x043d;&#x0430;&#x0447;&#x0435;&#x043d;&#x0438;&#x044f;</tspan></text>
<text xml:space="preserve" transform="matrix(1 0 -0 1 86.05 110.571598)" font-size="14" font-family="TimesNewRomanPSMT"><tspan y="0" x="53.8916"> </tspan></text>
<text xml:space="preserve" transform="matrix(1 0 -0 1 86.05 110.571598)" font-size="14" font-family="TimesNewRomanPSMT"><tspan y="0" x="69.58786">&#x0438;</tspan></text>
<text xml:space="preserve" transform="matrix(1 0 -0 1 86.05 110.571598)" font-size="14" font-family="TimesNewRomanPSMT"><tspan y="0" x="77.14646"> </tspan></text>
<text xml:space="preserve" transform="matrix(1 0 -0 1 86.05 110.571598)" font-size="14" font-family="TimesNewRomanPSMT"><tspan y="0" x="92.23013"> </tspan></text>
<text xml:space="preserve" transform="matrix(1 0 -0 1 86.05 110.571598)" font-size="14" font-family="TimesNewRomanPSMT"><tspan y="0" x="96.68073 102.48933 109.37592 116.44452 124.00311 131.5617 139.1203 146.00691 153.07552 163.42012 169.77472 176.05931">&#x0433;&#x0440;&#x0443;&#x043f;&#x043f;&#x0438;&#x0440;&#x0443;&#x044e;&#x0442;&#x0441;&#x044f;</tspan></text>
<text xml:space="preserve" transform="matrix(1 0 -0 1 86.05 110.571598)" font-size="14" font-family="TimesNewRomanPSMT"><tspan y="0" x="182.5679"> </tspan></text>
<text xml:space="preserve" transform="matrix(1 0 -0 1 86.05 110.571598)" font-size="14" font-family="TimesNewRomanPSMT"><tspan y="0" x="187.01851 193.5971 200.66571 207.5383 214.42491 221.49352">&#x0432;&#x043e;&#x043a;&#x0440;&#x0443;&#x0433;</tspan></text>
<text xml:space="preserve" transform="matrix(1 0 -0 1 86.05 110.571598)" font-size="14" font-family="TimesNewRomanPSMT"><tspan y="0" x="227.30211"> </tspan></text>
<text xml:space="preserve" transform="matrix(1 0 -0 1 86.05 110.571598)" font-size="14" font-family="TimesNewRomanPSMT"><tspan y="0" x="231.75272 239.31131 245.5959 251.7825 259.34114 266.89976 274.45838 283.935">&#x0438;&#x0441;&#x0442;&#x0438;&#x043d;&#x043d;&#x044b;&#x0445;</tspan></text>
<text xml:space="preserve" transform="matrix(1 0 -0 1 86.05 110.571598)" font-size="14" font-family="TimesNewRomanPSMT"><tspan y="0" x="291.0036"> </tspan></text>
<text xml:space="preserve" transform="matrix(1 0 -0 1 86.05 110.571598)" font-size="14" font-family="TimesNewRomanPSMT"><tspan y="0" x="295.4542 301.0528 308.61143 314.33604 321.44667 327.73127 335.2899 342.8485">&#x0437;&#x043d;&#x0430;&#x0447;&#x0435;&#x043d;&#x0438;&#x0439;</tspan></text>
<text xml:space="preserve" transform="matrix(1 0 -0 1 86.05 110.571598)" font-size="14" font-family="TimesNewRomanPSMT"><tspan y="0" x="350.40715"> </tspan></text>
<text xml:space="preserve" transform="matrix(1 0 -0 1 86.05 110.571598)" font-size="14" font-family="TimesNewRomanPSMT"><tspan y="0" x="368.435"> </tspan></text>
<text xml:space="preserve" transform="matrix(1 0 -0 1 86.05 110.571598)" font-size="14" font-family="TimesNewRomanPSMT"><tspan y="0" x="376.8182">&#x0438;</tspan></text>
<text xml:space="preserve" transform="matrix(1 0 -0 1 86.05 110.571598)" font-size="14" font-family="TimesNewRomanPSMT"><tspan y="0" x="388.30943"> </tspan></text>
<text xml:space="preserve" transform="matrix(1 0 -0 1 86.05 110.571598)" font-size="14" font-family="TimesNewRomanPSMT"><tspan y="0" x="409.444">,</tspan></text>
<text xml:space="preserve" transform="matrix(1 0 -0 1 86.05 110.571598)" font-size="14" font-family="TimesNewRomanPSMT"><tspan y="0" x="416.944"> </tspan></text>
<text xml:space="preserve" transform="matrix(1 0 -0 1 86.05 110.571598)" font-size="14" font-family="TimesNewRomanPSMT"><tspan y="0" x="421.3946 428.4632 434.7478 441.4244 448.98304 458.45967">&#x0440;&#x0430;&#x0432;&#x043d;&#x044b;&#x0445;</tspan></text>
<text xml:space="preserve" transform="matrix(1 0 -0 1 86.05 110.571598)" font-size="14" font-family="TimesNewRomanPSMT"><tspan y="0" x="465.52827"> </tspan></text>
<text xml:space="preserve" transform="matrix(1 0 -0 1 86.05 128.89722)" font-size="14" font-family="TimesNewRomanPSMT"><tspan y="0" x="0 6.2804005 13.3448 20.2272 26.4096 32.998 39.2784 45.6288 51.9092 58.0916 64.68 70.9604 78.5148 86.0692">&#x0441;&#x043e;&#x043e;&#x0442;&#x0432;&#x0435;&#x0442;&#x0441;&#x0442;&#x0432;&#x0435;&#x043d;&#x043d;&#x043e;</tspan></text>
<text xml:space="preserve" transform="matrix(1 0 -0 1 86.05 128.89722)" font-size="14" font-family="TimesNewRomanPSMT"><tspan y="0" x="93.1336 96.768 103.8324 107.3968 114.4612 121.5256"> 2,00 </tspan></text>
<text xml:space="preserve" transform="matrix(1 0 -0 1 86.05 128.89722)" font-size="14" font-family="TimesNewRomanPSMT"><tspan y="0" x="125.159999">&#x0438;</tspan></text>
<text xml:space="preserve" transform="matrix(1 0 -0 1 86.05 128.89722)" font-size="14" font-family="TimesNewRomanPSMT"><tspan y="0" x="132.7144 136.34882 143.41321 146.9776 154.04199 161.10639 164.67078"> 0,50. </tspan></text>
<text xml:space="preserve" transform="matrix(1 0 -0 1 86.05 128.89722)" font-size="14" font-family="TimesNewRomanPSMT"><tspan y="0" x="168.30518 178.47757 185.54196">&#x041f;&#x0440;&#x0438;</tspan></text>
<text xml:space="preserve" transform="matrix(1 0 -0 1 86.05 128.89722)" font-size="14" font-family="TimesNewRomanPSMT"><tspan y="0" x="193.09636"> </tspan></text>
<text xml:space="preserve" transform="matrix(1 0 -0 1 86.05 128.89722)" font-size="14" font-family="TimesNewRomanPSMT"><tspan y="0" x="196.73078 202.80118 208.80158 215.59996">&#x044d;&#x0442;&#x043e;&#x043c;</tspan></text>
<text xml:space="preserve" transform="matrix(1 0 -0 1 86.05 128.89722)" font-size="14" font-family="TimesNewRomanPSMT"><tspan y="0" x="224.52637"> </tspan></text>
<text xml:space="preserve" transform="matrix(1 0 -0 1 86.05 128.89722)" font-size="14" font-family="TimesNewRomanPSMT"><tspan y="0" x="228.16077 234.69316 241.75757 248.82196 255.88636 266.73075 274.28517">&#x0445;&#x043e;&#x0440;&#x043e;&#x0448;&#x0438;&#x0445;</tspan></text>
<text xml:space="preserve" transform="matrix(1 0 -0 1 86.05 128.89722)" font-size="14" font-family="TimesNewRomanPSMT"><tspan y="0" x="281.34956"> </tspan></text>
<text xml:space="preserve" transform="matrix(1 0 -0 1 86.05 128.89722)" font-size="14" font-family="TimesNewRomanPSMT"><tspan y="0" x="284.98396 292.04835 299.60276 305.88316 313.43757 320.50196">&#x043e;&#x0446;&#x0435;&#x043d;&#x043e;&#x043a;</tspan></text>
<text xml:space="preserve" transform="matrix(1 0 -0 1 86.05 128.89722)" font-size="14" font-family="TimesNewRomanPSMT"><tspan y="0" x="327.37037"> </tspan></text>
<text xml:space="preserve" transform="matrix(1 0 -0 1 86.05 128.89722)" font-size="14" font-family="TimesNewRomanPSMT"><tspan y="0" x="331.00477 338.55918 345.44157 352.49195 359.55635 366.66276 372.94316 380.49757">&#x043f;&#x043e;&#x043b;&#x0443;&#x0447;&#x0435;&#x043d;&#x043e;</tspan></text>
<text xml:space="preserve" transform="matrix(1 0 -0 1 86.05 128.89722)" font-size="14" font-family="TimesNewRomanPSMT"><tspan y="0" x="387.56196"> </tspan></text>
<text xml:space="preserve" transform="matrix(1 0 -0 1 86.05 128.89722)" font-size="14" font-family="TimesNewRomanPSMT"><tspan y="0" x="391.19636 398.38676 405.26914 412.31953 418.7679 429.6123">&#x0431;&#x043e;&#x043b;&#x044c;&#x0448;&#x0435;</tspan></text>
<text xml:space="preserve" transform="matrix(1 0 -0 1 86.05 128.89722)" font-size="14" font-family="TimesNewRomanPSMT"><tspan y="0" x="435.8927 439.4571">, </tspan></text>
<text xml:space="preserve" transform="matrix(1 0 -0 1 86.05 128.89722)" font-size="14" font-family="TimesNewRomanPSMT"><tspan y="0" x="443.0915 450.1979 456.4783">&#x0447;&#x0435;&#x043c;</tspan></text>
<text xml:space="preserve" transform="matrix(1 0 -0 1 86.05 128.89722)" font-size="14" font-family="TimesNewRomanPSMT"><tspan y="0" x="465.4047"> </tspan></text>
<text xml:space="preserve" transform="matrix(1 0 -0 1 86.05 149.831)" font-size="14" font-family="TimesNewRomanPSMT"><tspan y="0" x="0 7.5586 14.613199 21.331799 28.400399 35.959">&#x043f;&#x043b;&#x043e;&#x0445;&#x0438;&#x0445;</tspan></text>
<text xml:space="preserve" transform="matrix(1 0 -0 1 86.05 149.831)" font-size="14" font-family="TimesNewRomanPSMT"><tspan y="0" x="43.0276 46.5962">. </tspan></text>
<text xml:space="preserve" transform="matrix(1 0 -0 1 86.05 149.831)" font-size="14" font-family="TimesNewRomanPSMT"><tspan y="0" x="56.8988 67.0754 73.164 80.7226 87.7912 95.3498 104.2804 110.565">&#x041d;&#x0430;&#x043f;&#x0440;&#x0438;&#x043c;&#x0435;&#x0440;</tspan></text>
<text xml:space="preserve" transform="matrix(1 0 -0 1 86.05 149.831)" font-size="14" font-family="TimesNewRomanPSMT"><tspan y="0" x="117.633609 121.20221">, </tspan></text>
<text xml:space="preserve" transform="matrix(1 0 -0 1 86.05 149.831)" font-size="14" font-family="TimesNewRomanPSMT"><tspan y="0" x="131.5048 140.6454 148.204 154.7266 161.0112 168.5698 175.45639 182.17499">&#x0444;&#x0438;&#x043a;&#x0441;&#x0438;&#x0440;&#x0443;&#x044f;</tspan></text>
<text xml:space="preserve" transform="matrix(1 0 -0 1 86.05 149.831)" font-size="14" font-family="TimesNewRomanPSMT"><tspan y="0" x="188.6836"> </tspan></text>
<text xml:space="preserve" transform="matrix(1 0 -0 1 86.05 149.831)" font-size="14" font-family="TimesNewRomanPSMT"><tspan y="0" x="198.98619 204.5848 212.14339 217.868 224.97859 231.2632 238.8218 246.38039">&#x0437;&#x043d;&#x0430;&#x0447;&#x0435;&#x043d;&#x0438;&#x044f;</tspan></text>
<text xml:space="preserve" transform="matrix(1 0 -0 1 86.05 149.831)" font-size="14" font-family="TimesNewRomanPSMT"><tspan y="0" x="252.88899"> </tspan></text>
<text xml:space="preserve" transform="matrix(1 0 -0 1 86.05 149.831)" font-size="14" font-family="TimesNewRomanPSMT"><tspan y="0" x="279.6084"> </tspan></text>
<text xml:space="preserve" transform="matrix(1 0 -0 1 86.05 149.831)" font-size="14" font-family="TimesNewRomanPSMT"><tspan y="0" x="289.9068 297.46119 304.52558">&#x043f;&#x0440;&#x0438;</tspan></text>
<text xml:space="preserve" transform="matrix(1 0 -0 1 86.05 149.831)" font-size="14" font-family="TimesNewRomanPSMT"><tspan y="0" x="312.07997"> </tspan></text>
<text xml:space="preserve" transform="matrix(1 0 -0 1 86.05 149.831)" font-size="14" font-family="TimesNewRomanPSMT"><tspan y="0" x="322.37837 329.07878 336.18516 342.46556 350.01994">&#x043e;&#x0447;&#x0435;&#x043d;&#x044c;</tspan></text>
<text xml:space="preserve" transform="matrix(1 0 -0 1 86.05 149.831)" font-size="14" font-family="TimesNewRomanPSMT"><tspan y="0" x="356.46833"> </tspan></text>
<text xml:space="preserve" transform="matrix(1 0 -0 1 86.05 149.831)" font-size="14" font-family="TimesNewRomanPSMT"><tspan y="0" x="366.76673 373.95713 380.83955 387.88993 394.33833 405.1827 411.9811">&#x0431;&#x043e;&#x043b;&#x044c;&#x0448;&#x043e;&#x043c;</tspan></text>
<text xml:space="preserve" transform="matrix(1 0 -0 1 86.05 149.831)" font-size="14" font-family="TimesNewRomanPSMT"><tspan y="0" x="420.9075"> </tspan></text>
<text xml:space="preserve" transform="matrix(1 0 -0 1 86.05 149.831)" font-size="14" font-family="TimesNewRomanPSMT"><tspan y="0" x="431.2059 438.3123 445.86668 452.14707 459.19746">&#x0447;&#x0438;&#x0441;&#x043b;&#x0435;</tspan></text>
<text xml:space="preserve" transform="matrix(1 0 -0 1 86.05 149.831)" font-size="14" font-family="TimesNewRomanPSMT"><tspan y="0" x="465.47785"> </tspan></text>
<text xml:space="preserve" transform="matrix(1 0 -0 1 86.05 168.15662)" font-size="14" font-family="TimesNewRomanPSMT"><tspan y="0" x="0 7.5586 14.627199 20.953799 26.958399 34.027 41.0956 47.3802 54.9388 62.497404">&#x043f;&#x043e;&#x0432;&#x0442;&#x043e;&#x0440;&#x0435;&#x043d;&#x0438;&#x0439;</tspan></text>
<text xml:space="preserve" transform="matrix(1 0 -0 1 86.05 168.15662)" font-size="14" font-family="TimesNewRomanPSMT"><tspan y="0" x="70.056"> </tspan></text>
<text xml:space="preserve" transform="matrix(1 0 -0 1 86.05 168.15662)" font-size="14" font-family="TimesNewRomanPSMT"><tspan y="0" x="78.10461 84.17921 90.701808 96.986408 104.545009 110.829608 117.89821 125.45681 134.3874 140.67201 148.2306 154.5852">&#x044d;&#x043a;&#x0441;&#x043f;&#x0435;&#x0440;&#x0438;&#x043c;&#x0435;&#x043d;&#x0442;&#x0430;</tspan></text>
<text xml:space="preserve" transform="matrix(1 0 -0 1 86.05 168.15662)" font-size="14" font-family="TimesNewRomanPSMT"><tspan y="0" x="160.86981 164.43842">, </tspan></text>
<text xml:space="preserve" transform="matrix(1 0 -0 1 86.05 168.15662)" font-size="14" font-family="TimesNewRomanPSMT"><tspan y="0" x="172.48702 181.41762 188.13622 197.87882 205.43741">&#x043c;&#x043e;&#x0436;&#x043d;&#x043e;</tspan></text>
<text xml:space="preserve" transform="matrix(1 0 -0 1 86.05 168.15662)" font-size="14" font-family="TimesNewRomanPSMT"><tspan y="0" x="212.50601"> </tspan></text>
<text xml:space="preserve" transform="matrix(1 0 -0 1 86.05 168.15662)" font-size="14" font-family="TimesNewRomanPSMT"><tspan y="0" x="220.55461 228.1132 235.53182 241.81642 248.17102 255.23963 262.30824 269.86683 276.05345">&#x043f;&#x043e;&#x0441;&#x0442;&#x0440;&#x043e;&#x0438;&#x0442;&#x044c;</tspan></text>
<text xml:space="preserve" transform="matrix(1 0 -0 1 86.05 168.15662)" font-size="14" font-family="TimesNewRomanPSMT"><tspan y="0" x="282.50605"> </tspan></text>
<text xml:space="preserve" transform="matrix(1 0 -0 1 86.05 168.15662)" font-size="14" font-family="TimesNewRomanPSMT"><tspan y="0" x="290.55467 296.90928 303.19389 310.03849 317.09309 324.65168 332.21028">&#x0442;&#x0430;&#x0431;&#x043b;&#x0438;&#x0446;&#x0443;</tspan></text>
<text xml:space="preserve" transform="matrix(1 0 -0 1 86.05 168.15662)" font-size="14" font-family="TimesNewRomanPSMT"><tspan y="0" x="339.27888"> </tspan></text>
<text xml:space="preserve" transform="matrix(1 0 -0 1 86.05 168.15662)" font-size="14" font-family="TimesNewRomanPSMT"><tspan y="0" x="347.32749 354.43809 360.7227 367.0073 373.0119 379.8985">&#x0447;&#x0430;&#x0441;&#x0442;&#x043e;&#x0442;</tspan></text>
<text xml:space="preserve" transform="matrix(1 0 -0 1 86.05 168.15662)" font-size="14" font-family="TimesNewRomanPSMT"><tspan y="0" x="386.0851"> </tspan></text>
<text xml:space="preserve" transform="matrix(1 0 -0 1 86.05 168.15662)" font-size="14" font-family="TimesNewRomanPSMT"><tspan y="0" x="394.13374">&#x0438;</tspan></text>
<text xml:space="preserve" transform="matrix(1 0 -0 1 86.05 168.15662)" font-size="14" font-family="TimesNewRomanPSMT"><tspan y="0" x="401.69233"> </tspan></text>
<text xml:space="preserve" transform="matrix(1 0 -0 1 86.05 168.15662)" font-size="14" font-family="TimesNewRomanPSMT"><tspan y="0" x="409.74095 417.29954 424.18614 431.24073 438.30934 445.41993 452.97853 459.16514">&#x043f;&#x043e;&#x043b;&#x0443;&#x0447;&#x0438;&#x0442;&#x044c;</tspan></text>
<text xml:space="preserve" transform="matrix(1 0 -0 1 86.05 168.15662)" font-size="14" font-family="TimesNewRomanPSMT"><tspan y="0" x="465.61775"> </tspan></text>
<text xml:space="preserve" transform="matrix(1 0 -0 1 86.05 186.4674)" font-size="14" font-family="TimesNewRomanPSMT"><tspan y="0" x="0 6.0956008 13.661201 21.226799 28.288399 35.35 41.8656 48.1432 55.7088 64.5344 70.812007 78.3776 85.9432">&#x0430;&#x043f;&#x043f;&#x0440;&#x043e;&#x043a;&#x0441;&#x0438;&#x043c;&#x0430;&#x0446;&#x0438;&#x044e;</tspan></text>
<text xml:space="preserve" transform="matrix(1 0 -0 1 86.05 186.4674)" font-size="14" font-family="TimesNewRomanPSMT"><tspan y="0" x="96.4628"> </tspan></text>
<text xml:space="preserve" transform="matrix(1 0 -0 1 86.05 186.4674)" font-size="14" font-family="TimesNewRomanPSMT"><tspan y="0" x="102.6984 111.482 118.5436 126.1092 132.97481 140.5404 148.106">&#x0444;&#x0443;&#x043d;&#x043a;&#x0446;&#x0438;&#x0438;</tspan></text>
<text xml:space="preserve" transform="matrix(1 0 -0 1 86.05 186.4674)" font-size="14" font-family="TimesNewRomanPSMT"><tspan y="0" x="155.6716"> </tspan></text>
<text xml:space="preserve" transform="matrix(1 0 -0 1 86.05 186.4674)" font-size="14" font-family="TimesNewRomanPSMT"><tspan y="0" x="161.9072 169.4728 176.5204 183.4 189.5796 197.1452 204.5568 210.8344 217.014">&#x043f;&#x043b;&#x043e;&#x0442;&#x043d;&#x043e;&#x0441;&#x0442;&#x0438;</tspan></text>
<text xml:space="preserve" transform="matrix(1 0 -0 1 86.05 186.4674)" font-size="14" font-family="TimesNewRomanPSMT"><tspan y="0" x="224.5796"> </tspan></text>
<text xml:space="preserve" transform="matrix(1 0 -0 1 86.05 186.4674)" font-size="14" font-family="TimesNewRomanPSMT"><tspan y="0" x="230.8152 237.4148 243.6924 250.754 257.5496 264.0512 270.2308 277.79643 285.20805 291.48567 297.66526">&#x0432;&#x0435;&#x0440;&#x043e;&#x044f;&#x0442;&#x043d;&#x043e;&#x0441;&#x0442;&#x0438;</tspan></text>
<text xml:space="preserve" transform="matrix(1 0 -0 1 86.05 186.4674)" font-size="14" font-family="TimesNewRomanPSMT"><tspan y="0" x="305.23088 308.79249">, </tspan></text>
<text xml:space="preserve" transform="matrix(1 0 -0 1 86.05 186.4674)" font-size="14" font-family="TimesNewRomanPSMT"><tspan y="0" x="315.02809 322.5937 329.6553 336.31089 342.5885 348.1801 354.45774 362.02336 369.58897 376.65058">&#x043f;&#x043e;&#x043a;&#x0430;&#x0437;&#x0430;&#x043d;&#x043d;&#x0443;&#x044e;</tspan></text>
<text xml:space="preserve" transform="matrix(1 0 -0 1 86.05 186.4674)" font-size="14" font-family="TimesNewRomanPSMT"><tspan y="0" x="387.17018"> </tspan></text>
<text xml:space="preserve" transform="matrix(1 0 -0 1 86.05 186.4674)" font-size="14" font-family="TimesNewRomanPSMT"><tspan y="0" x="393.40577 400.97138">&#x043d;&#x0430;</tspan></text>
<text xml:space="preserve" transform="matrix(1 0 -0 1 86.05 186.4674)" font-size="14" font-family="TimesNewRomanPSMT"><tspan y="0" x="407.249"> </tspan></text>
<text xml:space="preserve" transform="matrix(1 0 -0 1 86.05 186.4674)" font-size="14" font-family="TimesNewRomanPSMT"><tspan y="0" x="413.4846 420.5462 428.11183">&#x0440;&#x0438;&#x0441;</tspan></text>
<text xml:space="preserve" transform="matrix(1 0 -0 1 86.05 186.4674)" font-size="14" font-family="TimesNewRomanPSMT"><tspan y="0" x="434.38945 437.95106 444.18666 451.24827 454.80989 461.8715 465.4331">. 3.1. </tspan></text>
<text xml:space="preserve" transform="matrix(1 0 -0 1 86.05 204.7782)" font-size="14" font-family="TimesNewRomanPSMT"><tspan y="0" x="0 9.3086 15.313201">&#x042d;&#x0442;&#x043e;</tspan></text>
<text xml:space="preserve" transform="matrix(1 0 -0 1 86.05 204.7782)" font-size="14" font-family="TimesNewRomanPSMT"><tspan y="0" x="22.381802"> </tspan></text>
<text xml:space="preserve" transform="matrix(1 0 -0 1 86.05 204.7782)" font-size="14" font-family="TimesNewRomanPSMT"><tspan y="0" x="26.1044 33.663003 40.7316 47.590204 56.422803 62.8334 69.888 76.3406 83.8992 91.1358">&#x043d;&#x043e;&#x0440;&#x043c;&#x0430;&#x043b;&#x044c;&#x043d;&#x043e;&#x0435;</tspan></text>
<text xml:space="preserve" transform="matrix(1 0 -0 1 86.05 204.7782)" font-size="14" font-family="TimesNewRomanPSMT"><tspan y="0" x="97.4204"> </tspan></text>
<text xml:space="preserve" transform="matrix(1 0 -0 1 86.05 204.7782)" font-size="14" font-family="TimesNewRomanPSMT"><tspan y="0" x="101.143009 108.21161 114.49621 120.78081 128.3394 135.408 141.49662 148.69121 154.97582 162.03041 168.31502 175.87361 183.4322">&#x0440;&#x0430;&#x0441;&#x043f;&#x0440;&#x0435;&#x0434;&#x0435;&#x043b;&#x0435;&#x043d;&#x0438;&#x0435;</tspan></text>
<text xml:space="preserve" transform="matrix(1 0 -0 1 86.05 204.7782)" font-size="14" font-family="TimesNewRomanPSMT"><tspan y="0" x="189.71681"> </tspan></text>
<text xml:space="preserve" transform="matrix(1 0 -0 1 86.05 204.7782)" font-size="14" font-family="TimesNewRomanPSMT"><tspan y="0" x="193.43943 199.72403">&#x0441;&#x043e;</tspan></text>
<text xml:space="preserve" transform="matrix(1 0 -0 1 86.05 204.7782)" font-size="14" font-family="TimesNewRomanPSMT"><tspan y="0" x="206.79264"> </tspan></text>
<text xml:space="preserve" transform="matrix(1 0 -0 1 86.05 204.7782)" font-size="14" font-family="TimesNewRomanPSMT"><tspan y="0" x="210.51525 216.79985 223.86846 229.95706 237.15166 244.71025 252.26885">&#x0441;&#x0440;&#x0435;&#x0434;&#x043d;&#x0438;&#x043c;</tspan></text>
<text xml:space="preserve" transform="matrix(1 0 -0 1 86.05 204.7782)" font-size="14" font-family="TimesNewRomanPSMT"><tspan y="0" x="261.19944 264.92204 271.99064 275.55924 282.62785 289.69645"> 0,50 </tspan></text>
<text xml:space="preserve" transform="matrix(1 0 -0 1 86.05 204.7782)" font-size="14" font-family="TimesNewRomanPSMT"><tspan y="0" x="293.41905">&#x0438;</tspan></text>
<text xml:space="preserve" transform="matrix(1 0 -0 1 86.05 204.7782)" font-size="14" font-family="TimesNewRomanPSMT"><tspan y="0" x="300.97764"> </tspan></text>
<text xml:space="preserve" transform="matrix(1 0 -0 1 86.05 204.7782)" font-size="14" font-family="TimesNewRomanPSMT"><tspan y="0" x="304.70024 310.98484 317.33946 323.62406 331.18266 338.37727 344.66188 351.54847 357.73509 365.29368 374.77027">&#x0441;&#x0442;&#x0430;&#x043d;&#x0434;&#x0430;&#x0440;&#x0442;&#x043d;&#x044b;&#x043c;</tspan></text>
<text xml:space="preserve" transform="matrix(1 0 -0 1 86.05 204.7782)" font-size="14" font-family="TimesNewRomanPSMT"><tspan y="0" x="383.70088"> </tspan></text>
<text xml:space="preserve" transform="matrix(1 0 -0 1 86.05 204.7782)" font-size="14" font-family="TimesNewRomanPSMT"><tspan y="0" x="387.42347 394.31007 400.49668 407.36927 414.42387 421.49247 429.05107 435.33567 442.89427 450.45286 456.73747">&#x043e;&#x0442;&#x043a;&#x043b;&#x043e;&#x043d;&#x0435;&#x043d;&#x0438;&#x0435;&#x043c;</tspan></text>
<text xml:space="preserve" transform="matrix(1 0 -0 1 86.05 204.7782)" font-size="14" font-family="TimesNewRomanPSMT"><tspan y="0" x="465.66807"> </tspan></text>
<text xml:space="preserve" transform="matrix(1 0 -0 1 86.05 223.08899)" font-size="14" font-family="TimesNewRomanPSMT"><tspan y="0" x="0 7.0672 10.6344 17.701601 24.7688 31.836 38.903203">0,0388.</tspan></text>
<g id="Layer-2" data-name="Span">
<text xml:space="preserve" transform="matrix(1 0 -0 1 86.05 223.08899)" font-size="14" font-family="TimesNewRomanPSMT"><tspan y="0" x="42.46667"> </tspan></text>
</g>
</g>
<g id="Layer-1" data-name="P">
</g>
<clipPath id="cp282">
<path transform="matrix(1,0,0,-1,0,842)" d="M 143.9128 731.4284 L 155.1628 731.4284 L 155.1628 743.4284 L 143.9128 743.4284 Z "/>
</clipPath>
<g clip-path="url(#cp282)">
<text xml:space="preserve" transform="matrix(.03196023 0 -0 .03125 145.7346 107.571598)" font-size="448" font-family="TimesNewRomanPS" font-style="italic"><tspan y="0" x="0">a</tspan></text>
</g>
<g id="Layer-1" data-name="P">
</g>
<clipPath id="cp283">
<path transform="matrix(1,0,0,-1,0,842)" d="M 167.6134 731.4284 L 177.3634 731.4284 L 177.3634 746.4284 L 167.6134 746.4284 Z "/>
</clipPath>
<g clip-path="url(#cp283)">
<text xml:space="preserve" transform="matrix(.03046875 0 -0 .03125 168.9236 107.571598)" font-size="448" font-family="TimesNewRomanPS" font-style="italic"><tspan y="0" x="0">b</tspan></text>
</g>
<g id="Layer-1" data-name="P">
</g>
<clipPath id="cp284">
<path transform="matrix(1,0,0,-1,0,842)" d="M 440.8183 731.4284 L 453.5683 731.4284 L 453.5683 743.4284 L 440.8183 743.4284 Z "/>
</clipPath>
<g clip-path="url(#cp284)">
<text xml:space="preserve" transform="matrix(.03064904 0 -0 .03125 441.4926 107.571598)" font-size="448" font-family="Symbol"><tspan y="0" x="0">&#x03b1;</tspan></text>
</g>
<g id="Layer-1" data-name="P">
</g>
<clipPath id="cp285">
<path transform="matrix(1,0,0,-1,0,842)" d="M 480.3023 731.4284 L 493.0523 731.4284 L 493.0523 748.6784 L 480.3023 748.6784 Z "/>
</clipPath>
<g clip-path="url(#cp285)">
<text xml:space="preserve" transform="matrix(.03064904 0 -0 .03170956 482.2638 105.49811)" font-size="448" font-family="Symbol"><tspan y="0" x="0">&#x03b2;</tspan></text>
</g>
<g id="Layer-1" data-name="P">
</g>
<clipPath id="cp286">
<path transform="matrix(1,0,0,-1,0,842)" d="M 349.1439 692.169 L 358.8939 692.169 L 358.8939 707.169 L 349.1439 707.169 Z "/>
</clipPath>
<g clip-path="url(#cp286)">
<text xml:space="preserve" transform="matrix(.03046875 0 -0 .03125 350.4541 146.831)" font-size="448" font-family="TimesNewRomanPS" font-style="italic"><tspan y="0" x="0">b</tspan></text>
</g>
</g>
</g>
</svg>
