<?xml version="1.0" encoding="UTF-8" standalone="no"?>
<!DOCTYPE svg PUBLIC "-//W3C//DTD SVG 1.1//EN" "http://www.w3.org/Graphics/SVG/1.1/DTD/svg11.dtd">
<svg xmlns="http://www.w3.org/2000/svg" xmlns:xlink="http://www.w3.org/1999/xlink" version="1.1" width="595pt" height="842pt" viewBox="0 0 595 842">
<g enable-background="new">
<clipPath id="cp0">
<path transform="matrix(1,0,0,-1,0,842)" d="M 0 0 L 595 0 L 595 842 L 0 842 Z "/>
</clipPath>
<g clip-path="url(#cp0)">
<path transform="matrix(1,0,0,-1,0,842)" d="M 0 842 L 595 842 L 595 0 L 0 0 Z " fill="#ffffff"/>
<g id="Layer-1" data-name="P">
</g>
<clipPath id="cp1">
<path transform="matrix(1,0,0,-1,0,842)" d="M 81.17403 56.7 L 556.37606 56.7 L 556.37606 789.176 L 81.17403 789.176 Z "/>
</clipPath>
<g clip-path="url(#cp1)">
<text xml:space="preserve" transform="matrix(1 0 -0 1 241.9254 69.07703)" font-size="14" font-family="TimesNewRomanPS" font-weight="bold"><tspan y="0" x="0 10.889201 18.676003 25.676003 33.7428 40.619604 48.6864 56.5824 62.9678 69.181 77.063 84.063">&#x041f;&#x0440;&#x0430;&#x043a;&#x0442;&#x0438;&#x0447;&#x0435;&#x0441;&#x043a;&#x043e;&#x0435;</tspan></text>
<text xml:space="preserve" transform="matrix(1 0 -0 1 241.9254 69.07703)" font-size="14" font-family="TimesNewRomanPS" font-weight="bold"><tspan y="0" x="90.27621"> </tspan></text>
<text xml:space="preserve" transform="matrix(1 0 -0 1 241.9254 69.07703)" font-size="14" font-family="TimesNewRomanPS" font-weight="bold"><tspan y="0" x="93.77621 99.4028 106.4028 114.469608 122.0436 128.92041 136.98722">&#x0437;&#x0430;&#x043d;&#x044f;&#x0442;&#x0438;&#x0435;</tspan></text>
<text xml:space="preserve" transform="matrix(1 0 -0 1 241.9254 69.07703)" font-size="14" font-family="TimesNewRomanPS" font-weight="bold"><tspan y="0" x="143.20041 146.70041"> 3</tspan></text>
<g id="Layer-2" data-name="Span">
<text xml:space="preserve" transform="matrix(1 0 -0 1 241.9254 69.07703)" font-size="14" font-family="TimesNewRomanPS" font-weight="bold"><tspan y="0" x="153.6992"> </tspan></text>
</g>
</g>
<g id="Layer-1" data-name="P">
<text xml:space="preserve" transform="matrix(1 0 -0 1 85.05 97.387699)" font-size="14" font-family="TimesNewRomanPSMT"><tspan y="0" x="0 7.6020009 13.815201 24.595202 32.088 38.206">&#x0420;&#x0435;&#x0448;&#x0438;&#x0442;&#x044c;</tspan></text>
<text xml:space="preserve" transform="matrix(1 0 -0 1 85.05 97.387699)" font-size="14" font-family="TimesNewRomanPSMT"><tspan y="0" x="44.5914"> </tspan></text>
<text xml:space="preserve" transform="matrix(1 0 -0 1 85.05 97.387699)" font-size="14" font-family="TimesNewRomanPSMT"><tspan y="0" x="48.0914 54.3046 61.2906 67.3204 74.443599 81.443599 91.903 102.683 109.683">&#x0441;&#x043b;&#x0435;&#x0434;&#x0443;&#x044e;&#x0449;&#x0443;&#x044e;</tspan></text>
<text xml:space="preserve" transform="matrix(1 0 -0 1 85.05 97.387699)" font-size="14" font-family="TimesNewRomanPSMT"><tspan y="0" x="120.1424"> </tspan></text>
<text xml:space="preserve" transform="matrix(1 0 -0 1 85.05 97.387699)" font-size="14" font-family="TimesNewRomanPSMT"><tspan y="0" x="123.6424 129.17241 135.3856 142.5088 148.162 155.2026">&#x0437;&#x0430;&#x0434;&#x0430;&#x0447;&#x0443;</tspan></text>
<text xml:space="preserve" transform="matrix(1 0 -0 1 85.05 97.387699)" font-size="14" font-family="TimesNewRomanPSMT"><tspan y="0" x="162.0178">:</tspan></text>
<g id="Layer-2" data-name="Span">
<text xml:space="preserve" transform="matrix(1 0 -0 1 85.05 97.387699)" font-size="14" font-family="TimesNewRomanPSMT"><tspan y="0" x="165.9082"> </tspan></text>
</g>
</g>
<g id="Layer-1" data-name="P">
<text xml:space="preserve" transform="matrix(1 0 -0 1 85.05 125.69849)" font-size="14" font-family="TimesNewRomanPSMT"><tspan y="0" x="0">&#x0412;</tspan></text>
<text xml:space="preserve" transform="matrix(1 0 -0 1 85.05 125.69849)" font-size="14" font-family="TimesNewRomanPSMT"><tspan y="0" x="9.338001"> </tspan></text>
<text xml:space="preserve" transform="matrix(1 0 -0 1 85.05 125.69849)" font-size="14" font-family="TimesNewRomanPSMT"><tspan y="0" x="12.838001 19.0512 26.0372 32.067 39.1902 46.1902 56.6496 67.4296 73.64281">&#x0441;&#x043b;&#x0435;&#x0434;&#x0443;&#x044e;&#x0449;&#x0435;&#x0439;</tspan></text>
<text xml:space="preserve" transform="matrix(1 0 -0 1 85.05 125.69849)" font-size="14" font-family="TimesNewRomanPSMT"><tspan y="0" x="81.135608"> </tspan></text>
<text xml:space="preserve" transform="matrix(1 0 -0 1 85.05 125.69849)" font-size="14" font-family="TimesNewRomanPSMT"><tspan y="0" x="84.635608 90.9244 97.1376 103.9122 110.8982 118.391 125.8838">&#x0442;&#x0430;&#x0431;&#x043b;&#x0438;&#x0446;&#x0435;</tspan></text>
<text xml:space="preserve" transform="matrix(1 0 -0 1 85.05 125.69849)" font-size="14" font-family="TimesNewRomanPSMT"><tspan y="0" x="132.09699"> </tspan></text>
<text xml:space="preserve" transform="matrix(1 0 -0 1 85.05 125.69849)" font-size="14" font-family="TimesNewRomanPSMT"><tspan y="0" x="135.59699 143.0898 150.0898 157.58261 164.09682 170.69362 177.81682 184.25682 190.54563 196.75882">&#x043f;&#x0440;&#x0438;&#x0432;&#x043e;&#x0434;&#x044f;&#x0442;&#x0441;&#x044f;</tspan></text>
<text xml:space="preserve" transform="matrix(1 0 -0 1 85.05 125.69849)" font-size="14" font-family="TimesNewRomanPSMT"><tspan y="0" x="203.19882"> </tspan></text>
<text xml:space="preserve" transform="matrix(1 0 -0 1 85.05 125.69849)" font-size="14" font-family="TimesNewRomanPSMT"><tspan y="0" x="206.69882 213.82202 220.03522 227.52803 235.02085 244.42745">&#x0434;&#x0430;&#x043d;&#x043d;&#x044b;&#x0435;</tspan></text>
<text xml:space="preserve" transform="matrix(1 0 -0 1 85.05 125.69849)" font-size="14" font-family="TimesNewRomanPSMT"><tspan y="0" x="250.64064"> </tspan></text>
<text xml:space="preserve" transform="matrix(1 0 -0 1 85.05 125.69849)" font-size="14" font-family="TimesNewRomanPSMT"><tspan y="0" x="254.14064 261.26383 268.24983">&#x0434;&#x043b;&#x044f;</tspan></text>
<text xml:space="preserve" transform="matrix(1 0 -0 1 85.05 125.69849)" font-size="14" font-family="TimesNewRomanPSMT"><tspan y="0" x="274.68983 278.18983 285.18983 292.18983"> 10 </tspan></text>
<text xml:space="preserve" transform="matrix(1 0 -0 1 85.05 125.69849)" font-size="14" font-family="TimesNewRomanPSMT"><tspan y="0" x="295.68983 304.7604 310.9736 317.7622 326.6214 332.8346 339.8346 346.0478 352.84898 360.34178">&#x0444;&#x0435;&#x0440;&#x043c;&#x0435;&#x0440;&#x0441;&#x043a;&#x0438;&#x0445;</tspan></text>
<text xml:space="preserve" transform="matrix(1 0 -0 1 85.05 125.69849)" font-size="14" font-family="TimesNewRomanPSMT"><tspan y="0" x="367.34178"> </tspan></text>
<text xml:space="preserve" transform="matrix(1 0 -0 1 85.05 125.69849)" font-size="14" font-family="TimesNewRomanPSMT"><tspan y="0" x="370.84178 377.30839 384.30839 389.83839 396.27839 403.77119 409.98439 416.1024">&#x0445;&#x043e;&#x0437;&#x044f;&#x0439;&#x0441;&#x0442;&#x0432;</tspan></text>
<text xml:space="preserve" transform="matrix(1 0 -0 1 85.05 125.69849)" font-size="14" font-family="TimesNewRomanPSMT"><tspan y="0" x="422.7132 426.2132">. </tspan></text>
<g id="Layer-2" data-name="Span">
<text xml:space="preserve" transform="matrix(1 0 -0 1 85.05 125.69849)" font-size="14" font-family="TimesNewRomanPSMT"><tspan y="0" x="429.7139"> </tspan></text>
</g>
</g>
<g id="Layer-1" data-name="P">
</g>
<g id="Layer-1" data-name="P">
<text xml:space="preserve" transform="matrix(1 0 -0 1 85.05 659.4889)" font-size="14" font-family="TimesNewRomanPSMT"><tspan y="0" x="0 6.792801 14.047602 20.742403 27.087204">&#x0417;&#x0434;&#x0435;&#x0441;&#x044c;</tspan></text>
<text xml:space="preserve" transform="matrix(1 0 -0 1 85.05 659.4889)" font-size="14" font-family="TimesNewRomanPSMT"><tspan y="0" x="33.600004"> </tspan></text>
<text xml:space="preserve" transform="matrix(1 0 -0 1 85.05 659.4889)" font-size="14" font-family="TimesNewRomanPSMT"><tspan y="0" x="37.2288">&#x043a;</tspan></text>
<text xml:space="preserve" transform="matrix(1 0 -0 1 85.05 659.4889)" font-size="14" font-family="TimesNewRomanPSMT"><tspan y="0" x="44.161603 47.7904 54.9192"> &#x2013; </tspan></text>
<text xml:space="preserve" transform="matrix(1 0 -0 1 85.05 659.4889)" font-size="14" font-family="TimesNewRomanPSMT"><tspan y="0" x="58.548 66.1668 73.2956 80.4244 86.9932 94.248 100.466808 107.595607 114.332408 123.8692">&#x043f;&#x043e;&#x0440;&#x044f;&#x0434;&#x043a;&#x043e;&#x0432;&#x044b;&#x0439;</tspan></text>
<text xml:space="preserve" transform="matrix(1 0 -0 1 85.05 659.4889)" font-size="14" font-family="TimesNewRomanPSMT"><tspan y="0" x="131.488"> </tspan></text>
<text xml:space="preserve" transform="matrix(1 0 -0 1 85.05 659.4889)" font-size="14" font-family="TimesNewRomanPSMT"><tspan y="0" x="135.1168 142.73561 149.5984 158.5892 164.934">&#x043d;&#x043e;&#x043c;&#x0435;&#x0440;</tspan></text>
<text xml:space="preserve" transform="matrix(1 0 -0 1 85.05 659.4889)" font-size="14" font-family="TimesNewRomanPSMT"><tspan y="0" x="172.0628"> </tspan></text>
<text xml:space="preserve" transform="matrix(1 0 -0 1 85.05 659.4889)" font-size="14" font-family="TimesNewRomanPSMT"><tspan y="0" x="175.6916 182.0364 188.10121 194.348 201.60282 207.94762 215.56642 221.98123">&#x0441;&#x0442;&#x0443;&#x0434;&#x0435;&#x043d;&#x0442;&#x0430;</tspan></text>
<text xml:space="preserve" transform="matrix(1 0 -0 1 85.05 659.4889)" font-size="14" font-family="TimesNewRomanPSMT"><tspan y="0" x="228.32604"> </tspan></text>
<text xml:space="preserve" transform="matrix(1 0 -0 1 85.05 659.4889)" font-size="14" font-family="TimesNewRomanPSMT"><tspan y="0" x="231.95484 239.57364">&#x043f;&#x043e;</tspan></text>
<text xml:space="preserve" transform="matrix(1 0 -0 1 85.05 659.4889)" font-size="14" font-family="TimesNewRomanPSMT"><tspan y="0" x="246.70244"> </tspan></text>
<text xml:space="preserve" transform="matrix(1 0 -0 1 85.05 659.4889)" font-size="14" font-family="TimesNewRomanPSMT"><tspan y="0" x="250.33124 260.13404 267.26286 274.39167 282.01048 288.4813 295.5961">&#x0436;&#x0443;&#x0440;&#x043d;&#x0430;&#x043b;&#x0443;</tspan></text>
<text xml:space="preserve" transform="matrix(1 0 -0 1 85.05 659.4889)" font-size="14" font-family="TimesNewRomanPSMT"><tspan y="0" x="301.32493">.</tspan></text>
<g id="Layer-2" data-name="Span">
<text xml:space="preserve" transform="matrix(1 0 -0 1 85.05 659.4889)" font-size="14" font-family="TimesNewRomanPSMT"><tspan y="0" x="304.8627"> </tspan></text>
</g>
</g>
<g id="Layer-1" data-name="P">
<g id="Layer-2" data-name="P">
<g id="Layer-3" data-name="P">
<text xml:space="preserve" transform="matrix(1 0 -0 1 103.05 708.9105)" font-size="14" font-family="TimesNewRomanPSMT"><tspan y="0" x="0 7">1.</tspan></text>
</g>
<g id="Layer-3" data-name="P">
<text xml:space="preserve" transform="matrix(1 0 -0 1 121.05 708.9105)" font-size="14" font-family="TimesNewRomanPSMT"><tspan y="0" x="0 10.110801 16.324002 23.816802 29.934802">&#x041d;&#x0430;&#x0439;&#x0442;&#x0438;</tspan></text>
<text xml:space="preserve" transform="matrix(1 0 -0 1 121.05 708.9105)" font-size="14" font-family="TimesNewRomanPSMT"><tspan y="0" x="37.4276"> </tspan></text>
<text xml:space="preserve" transform="matrix(1 0 -0 1 121.05 708.9105)" font-size="14" font-family="TimesNewRomanPSMT"><tspan y="0" x="40.9276 47.019 54.1898 60.116 69.1054 78.175998 85.66879 93.16159 100.65439 106.86759 114.36039 120.47839">&#x043a;&#x043e;&#x044d;&#x0444;&#x0444;&#x0438;&#x0446;&#x0438;&#x0435;&#x043d;&#x0442;&#x044b;</tspan></text>
<text xml:space="preserve" transform="matrix(1 0 -0 1 121.05 708.9105)" font-size="14" font-family="TimesNewRomanPSMT"><tspan y="0" x="129.885"> </tspan></text>
<text xml:space="preserve" transform="matrix(1 0 -0 1 121.05 708.9105)" font-size="14" font-family="TimesNewRomanPSMT"><tspan y="0" x="133.385 139.4764 146.4764 152.90239 159.11559 166.11559 173.6084 179.8216 187.3144 194.80722">&#x043a;&#x043e;&#x0432;&#x0430;&#x0440;&#x0438;&#x0430;&#x0446;&#x0438;&#x0438;</tspan></text>
<text xml:space="preserve" transform="matrix(1 0 -0 1 121.05 708.9105)" font-size="14" font-family="TimesNewRomanPSMT"><tspan y="0" x="202.30004 205.80004">, </tspan></text>
<text xml:space="preserve" transform="matrix(1 0 -0 1 121.05 708.9105)" font-size="14" font-family="TimesNewRomanPSMT"><tspan y="0" x="209.30004 215.39144 222.39144 229.39144 236.39144 242.60463 249.59064 256.03065 263.52345 271.01625">&#x043a;&#x043e;&#x0440;&#x0440;&#x0435;&#x043b;&#x044f;&#x0446;&#x0438;&#x0438;</tspan></text>
<text xml:space="preserve" transform="matrix(1 0 -0 1 121.05 708.9105)" font-size="14" font-family="TimesNewRomanPSMT"><tspan y="0" x="278.50904"> </tspan></text>
<text xml:space="preserve" transform="matrix(1 0 -0 1 121.05 708.9105)" font-size="14" font-family="TimesNewRomanPSMT"><tspan y="0" x="282.00904">&#x0438;</tspan></text>
<text xml:space="preserve" transform="matrix(1 0 -0 1 121.05 708.9105)" font-size="14" font-family="TimesNewRomanPSMT"><tspan y="0" x="289.50184"> </tspan></text>
<text xml:space="preserve" transform="matrix(1 0 -0 1 121.05 708.9105)" font-size="14" font-family="TimesNewRomanPSMT"><tspan y="0" x="293.00184 300.12504 306.33824 312.45625 318.66944 325.45805 334.31724 341.81004 349.30284 355.51603 363.00883 370.50163">&#x0434;&#x0435;&#x0442;&#x0435;&#x0440;&#x043c;&#x0438;&#x043d;&#x0430;&#x0446;&#x0438;&#x0438;</tspan></text>
<text xml:space="preserve" transform="matrix(1 0 -0 1 121.05 708.9105)" font-size="14" font-family="TimesNewRomanPSMT"><tspan y="0" x="377.99443">.</tspan></text>
<g id="Layer-4" data-name="Span">
<text xml:space="preserve" transform="matrix(1 0 -0 1 121.05 708.9105)" font-size="14" font-family="TimesNewRomanPSMT"><tspan y="0" x="381.4863"> </tspan></text>
</g>
</g>
</g>
<g id="Layer-2" data-name="P">
<g id="Layer-3" data-name="P">
<text xml:space="preserve" transform="matrix(1 0 -0 1 103.05 737.2213)" font-size="14" font-family="TimesNewRomanPSMT"><tspan y="0" x="0 7">2.</tspan></text>
</g>
<g id="Layer-3" data-name="P">
<text xml:space="preserve" transform="matrix(1 0 -0 1 121.05 737.2213)" font-size="14" font-family="TimesNewRomanPSMT"><tspan y="0" x="0 10.110801 17.459403 23.672604 29.961403 36.961404 43.961404 51.454206 57.572206">&#x041f;&#x043e;&#x0441;&#x0442;&#x0440;&#x043e;&#x0438;&#x0442;&#x044c;</tspan></text>
<text xml:space="preserve" transform="matrix(1 0 -0 1 121.05 737.2213)" font-size="14" font-family="TimesNewRomanPSMT"><tspan y="0" x="63.957605"> </tspan></text>
<text xml:space="preserve" transform="matrix(1 0 -0 1 121.05 737.2213)" font-size="14" font-family="TimesNewRomanPSMT"><tspan y="0" x="67.4576 74.4576 81.4576 87.67081 94.28161 101.77441 107.98761 115.48041 122.973209">&#x0443;&#x0440;&#x0430;&#x0432;&#x043d;&#x0435;&#x043d;&#x0438;&#x0435;</tspan></text>
<text xml:space="preserve" transform="matrix(1 0 -0 1 121.05 737.2213)" font-size="14" font-family="TimesNewRomanPSMT"><tspan y="0" x="129.1864"> </tspan></text>
<text xml:space="preserve" transform="matrix(1 0 -0 1 121.05 737.2213)" font-size="14" font-family="TimesNewRomanPSMT"><tspan y="0" x="132.6864 139.6864 145.8996 151.64241 158.64241 165.20561 171.41881 177.632 185.12482">&#x0440;&#x0435;&#x0433;&#x0440;&#x0435;&#x0441;&#x0441;&#x0438;&#x0438;</tspan></text>
<text xml:space="preserve" transform="matrix(1 0 -0 1 121.05 737.2213)" font-size="14" font-family="TimesNewRomanPSMT"><tspan y="0" x="192.61763">.</tspan></text>
<g id="Layer-4" data-name="Span">
<text xml:space="preserve" transform="matrix(1 0 -0 1 121.05 737.2213)" font-size="14" font-family="TimesNewRomanPSMT"><tspan y="0" x="196.1162"> </tspan></text>
</g>
</g>
</g>
<g id="Layer-2" data-name="P">
<g id="Layer-3" data-name="P">
<text xml:space="preserve" transform="matrix(1 0 -0 1 103.05 765.5321)" font-size="14" font-family="TimesNewRomanPSMT"><tspan y="0" x="0 7">3.</tspan></text>
</g>
<g id="Layer-3" data-name="P">
<text xml:space="preserve" transform="matrix(1 0 -0 1 121.05 765.5321)" font-size="14" font-family="TimesNewRomanPSMT"><tspan y="0" x="0 10.110801 17.110802 24.110802 30.639002 37.2022 43.4154 49.5334">&#x041f;&#x0440;&#x043e;&#x0432;&#x0435;&#x0441;&#x0442;&#x0438;</tspan></text>
<text xml:space="preserve" transform="matrix(1 0 -0 1 121.05 765.5321)" font-size="14" font-family="TimesNewRomanPSMT"><tspan y="0" x="57.026205"> </tspan></text>
<text xml:space="preserve" transform="matrix(1 0 -0 1 121.05 765.5321)" font-size="14" font-family="TimesNewRomanPSMT"><tspan y="0" x="60.526205 66.7394 74.2322 80.5686 87.5546 95.0474">&#x0430;&#x043d;&#x0430;&#x043b;&#x0438;&#x0437;</tspan></text>
<text xml:space="preserve" transform="matrix(1 0 -0 1 121.05 765.5321)" font-size="14" font-family="TimesNewRomanPSMT"><tspan y="0" x="100.5774"> </tspan></text>
<text xml:space="preserve" transform="matrix(1 0 -0 1 121.05 765.5321)" font-size="14" font-family="TimesNewRomanPSMT"><tspan y="0" x="104.0774 111.5702 118.3854 125.3714 132.3714 139.412 145.6252 153.11801 160.61083 170.01743">&#x043f;&#x043e;&#x043b;&#x0443;&#x0447;&#x0435;&#x043d;&#x043d;&#x044b;&#x0445;</tspan></text>
<text xml:space="preserve" transform="matrix(1 0 -0 1 121.05 765.5321)" font-size="14" font-family="TimesNewRomanPSMT"><tspan y="0" x="177.01743"> </tspan></text>
<text xml:space="preserve" transform="matrix(1 0 -0 1 121.05 765.5321)" font-size="14" font-family="TimesNewRomanPSMT"><tspan y="0" x="180.51743 187.51743 193.90283 199.13883 205.52423 212.51023 218.36223 224.65103 230.50304 236.43624 243.43624">&#x0440;&#x0435;&#x0437;&#x0443;&#x043b;&#x044c;&#x0442;&#x0430;&#x0442;&#x043e;&#x0432;</tspan></text>
<text xml:space="preserve" transform="matrix(1 0 -0 1 121.05 765.5321)" font-size="14" font-family="TimesNewRomanPSMT"><tspan y="0" x="250.04705 253.54705">. </tspan></text>
<g id="Layer-4" data-name="Span">
<text xml:space="preserve" transform="matrix(1 0 -0 1 121.05 765.5321)" font-size="14" font-family="TimesNewRomanPSMT"><tspan y="0" x="257.0449"> </tspan></text>
</g>
</g>
</g>
</g>
<g id="Layer-1" data-name="P">
<g id="Layer-2" data-name="P">
<g id="Layer-3" data-name="P">
<g id="Layer-4" data-name="P">
<g id="Layer-5" data-name="P">
</g>
<clipPath id="cp2">
<path transform="matrix(1,0,0,-1,0,842)" d="M 126.45 622.1016 L 202 622.1016 L 202 677.5069 L 126.45 677.5069 Z "/>
</clipPath>
<g clip-path="url(#cp2)">
<text xml:space="preserve" transform="matrix(1 0 -0 1 133.8939 196.87012)" font-size="14" font-family="TimesNewRomanPSMT"><tspan y="0" x="0 9.228801 16.228802 21.758803 28.198803 35.691606 41.904806 48.022806 54.448808">&#x0425;&#x043e;&#x0437;&#x044f;&#x0439;&#x0441;&#x0442;&#x0432;&#x0430;</tspan></text>
</g>
</g>
<g id="Layer-4" data-name="P">
<g id="Layer-5" data-name="P">
</g>
<clipPath id="cp3">
<path transform="matrix(1,0,0,-1,0,842)" d="M 202.75 622.1016 L 315.35 622.1016 L 315.35 677.5069 L 202.75 677.5069 Z "/>
</clipPath>
<g clip-path="url(#cp3)">
<text xml:space="preserve" transform="matrix(1 0 -0 1 211.5778 180.87012)" font-size="14" font-family="TimesNewRomanPSMT"><tspan y="0" x="0 9.153201 14.806401 21.847002 28.410204 34.623407 40.741407 47.255609">&#x041a;&#x0430;&#x0447;&#x0435;&#x0441;&#x0442;&#x0432;&#x043e;</tspan></text>
<text xml:space="preserve" transform="matrix(1 0 -0 1 211.5778 180.87012)" font-size="14" font-family="TimesNewRomanPSMT"><tspan y="0" x="54.255609"> </tspan></text>
<text xml:space="preserve" transform="matrix(1 0 -0 1 211.5778 180.87012)" font-size="14" font-family="TimesNewRomanPSMT"><tspan y="0" x="57.755609 65.248409 71.8858 78.9264 85.5372">&#x043f;&#x043e;&#x0447;&#x0432;&#x044b;</tspan></text>
<text xml:space="preserve" transform="matrix(1 0 -0 1 211.5778 180.87012)" font-size="14" font-family="TimesNewRomanPSMT"><tspan y="0" x="94.9438"> </tspan></text>
<text xml:space="preserve" transform="matrix(1 0 -0 1 231.3383 196.87012)" font-size="14" font-family="TimesNewRomanPSMT"><tspan y="0" x="0">(</tspan></text>
<text xml:space="preserve" transform="matrix(1 0 -0 1 231.3383 196.87012)" font-size="14" font-family="TimesNewRomanPSMT"><tspan y="0" x="4.662">&#x0445;</tspan></text>
<text xml:space="preserve" transform="matrix(1 0 -0 1 231.3383 196.87012)" font-size="9.333334" font-family="TimesNewRomanPSMT"><tspan y="1.00944" x="11.66211">1</tspan></text>
<text xml:space="preserve" transform="matrix(1 0 -0 1 231.3383 196.87012)" font-size="14" font-family="TimesNewRomanPSMT"><tspan y="0" x="16.32878 20.99078 24.49078">), </tspan></text>
<text xml:space="preserve" transform="matrix(1 0 -0 1 231.3383 196.87012)" font-size="14" font-family="TimesNewRomanPSMT"><tspan y="0" x="27.99078 35.11398 41.45038 48.43638">&#x0431;&#x0430;&#x043b;&#x043b;</tspan></text>
<text xml:space="preserve" transform="matrix(1 0 -0 1 231.3383 196.87012)" font-size="14" font-family="TimesNewRomanPSMT"><tspan y="0" x="55.42238"> </tspan></text>
<text xml:space="preserve" transform="matrix(1 0 -0 1 232.0788 212.87012)" font-size="14" font-family="TimesNewRomanPSMT"><tspan y="0" x="0 7.1232 14.123199 21.616 29.108799 35.2268 41.44 47.728799">&#x0431;&#x043e;&#x043d;&#x0438;&#x0442;&#x0435;&#x0442;&#x0430;</tspan></text>
</g>
</g>
<g id="Layer-4" data-name="P">
<g id="Layer-5" data-name="P">
</g>
<clipPath id="cp4">
<path transform="matrix(1,0,0,-1,0,842)" d="M 316.1 622.1016 L 428.7 622.1016 L 428.7 677.5069 L 316.1 677.5069 Z "/>
</clipPath>
<g clip-path="url(#cp4)">
<text xml:space="preserve" transform="matrix(1 0 -0 1 337.7076 180.87012)" font-size="14" font-family="TimesNewRomanPSMT"><tspan y="0" x="0 8.640801 15.456001 22.442002 29.934802 36.975404 43.5386 49.7518 55.8698 62.384004">&#x041a;&#x043e;&#x043b;&#x0438;&#x0447;&#x0435;&#x0441;&#x0442;&#x0432;&#x043e;</tspan></text>
<text xml:space="preserve" transform="matrix(1 0 -0 1 337.7076 180.87012)" font-size="14" font-family="TimesNewRomanPSMT"><tspan y="0" x="69.384"> </tspan></text>
<text xml:space="preserve" transform="matrix(1 0 -0 1 340.0729 196.87012)" font-size="14" font-family="TimesNewRomanPSMT"><tspan y="0" x="0 6.6108005 14.1036009 20.666802 27.0522 33.2654 40.7582 48.251005 57.657606">&#x0432;&#x043d;&#x0435;&#x0441;&#x0435;&#x043d;&#x043d;&#x044b;&#x0445;</tspan></text>
<text xml:space="preserve" transform="matrix(1 0 -0 1 340.0729 196.87012)" font-size="14" font-family="TimesNewRomanPSMT"><tspan y="0" x="64.65761"> </tspan></text>
<text xml:space="preserve" transform="matrix(1 0 -0 1 328.6272 212.87012)" font-size="14" font-family="TimesNewRomanPSMT"><tspan y="0" x="0 6.118 13.2411999 20.2412 27.364399 34.3644 40.5776 48.0704 55.5632">&#x0443;&#x0434;&#x043e;&#x0431;&#x0440;&#x0435;&#x043d;&#x0438;&#x0439;</tspan></text>
<text xml:space="preserve" transform="matrix(1 0 -0 1 328.6272 212.87012)" font-size="14" font-family="TimesNewRomanPSMT"><tspan y="0" x="63.056005 66.556"> (</tspan></text>
<text xml:space="preserve" transform="matrix(1 0 -0 1 328.6272 212.87012)" font-size="14" font-family="TimesNewRomanPSMT"><tspan y="0" x="71.218">&#x0445;</tspan></text>
<text xml:space="preserve" transform="matrix(1 0 -0 1 328.6272 212.87012)" font-size="9.333334" font-family="TimesNewRomanPSMT"><tspan y="1.00944" x="78.2168">2</tspan></text>
<text xml:space="preserve" transform="matrix(1 0 -0 1 328.6272 212.87012)" font-size="14" font-family="TimesNewRomanPSMT"><tspan y="0" x="82.88346">)</tspan></text>
</g>
</g>
<g id="Layer-4" data-name="P">
<g id="Layer-5" data-name="P">
</g>
<clipPath id="cp5">
<path transform="matrix(1,0,0,-1,0,842)" d="M 429.45 622.1016 L 511.1 622.1016 L 511.1 677.5069 L 429.45 677.5069 Z "/>
</clipPath>
<g clip-path="url(#cp5)">
<text xml:space="preserve" transform="matrix(1 0 -0 1 433.8326 188.87012)" font-size="14" font-family="TimesNewRomanPSMT"><tspan y="0" x="0 8.681399 15.681399 22.3328 32.0054 38.2186 45.711404 53.204206 60.552804 66.76601">&#x0423;&#x0440;&#x043e;&#x0436;&#x0430;&#x0439;&#x043d;&#x043e;&#x0441;&#x0442;</tspan></text>
<text xml:space="preserve" transform="matrix(1 0 -0 1 440.4464 204.87012)" font-size="14" font-family="TimesNewRomanPSMT"><tspan y="0" x="0">&#x044c;</tspan></text>
<text xml:space="preserve" transform="matrix(1 0 -0 1 440.4464 204.87012)" font-size="14" font-family="TimesNewRomanPSMT"><tspan y="0" x="6.3854005 9.885401 14.547401 24.658204 29.320204 32.820207"> (Y), </tspan></text>
<text xml:space="preserve" transform="matrix(1 0 -0 1 440.4464 204.87012)" font-size="14" font-family="TimesNewRomanPSMT"><tspan y="0" x="36.320207">&#x0446;</tspan></text>
<text xml:space="preserve" transform="matrix(1 0 -0 1 440.4464 204.87012)" font-size="14" font-family="TimesNewRomanPSMT"><tspan y="0" x="43.813009">/</tspan></text>
<text xml:space="preserve" transform="matrix(1 0 -0 1 440.4464 204.87012)" font-size="14" font-family="TimesNewRomanPSMT"><tspan y="0" x="47.70221 53.44501">&#x0433;&#x0430;</tspan></text>
</g>
</g>
</g>
<g id="Layer-3" data-name="P">
<g id="Layer-4" data-name="P">
<g id="Layer-5" data-name="P">
</g>
<clipPath id="cp6">
<path transform="matrix(1,0,0,-1,0,842)" d="M 126.45 581.9463 L 202 581.9463 L 202 621.35159 L 126.45 621.35159 Z "/>
</clipPath>
<g clip-path="url(#cp6)">
<text xml:space="preserve" transform="matrix(1 0 -0 1 152.8 245.02539)" font-size="14" font-family="TimesNewRomanPSMT"><tspan y="0" x="0">1</tspan></text>
</g>
</g>
<g id="Layer-4" data-name="P">
<g id="Layer-5" data-name="P">
</g>
<clipPath id="cp7">
<path transform="matrix(1,0,0,-1,0,842)" d="M 202.75 581.9463 L 315.35 581.9463 L 315.35 621.35159 L 202.75 621.35159 Z "/>
</clipPath>
<g clip-path="url(#cp7)">
<text xml:space="preserve" transform="matrix(1 0 -0 1 252.05 245.02539)" font-size="14" font-family="TimesNewRomanPSMT"><tspan y="0" x="0 7">55</tspan></text>
</g>
</g>
<g id="Layer-4" data-name="P">
<g id="Layer-5" data-name="P">
</g>
<clipPath id="cp8">
<path transform="matrix(1,0,0,-1,0,842)" d="M 316.1 581.9463 L 428.7 581.9463 L 428.7 621.35159 L 316.1 621.35159 Z "/>
</clipPath>
<g clip-path="url(#cp8)">
<text xml:space="preserve" transform="matrix(1 0 -0 1 365.4 245.02539)" font-size="14" font-family="TimesNewRomanPSMT"><tspan y="0" x="0 7">75</tspan></text>
</g>
</g>
<g id="Layer-4" data-name="P">
<g id="Layer-5" data-name="P">
</g>
<clipPath id="cp9">
<path transform="matrix(1,0,0,-1,0,842)" d="M 429.45 581.9463 L 511.1 581.9463 L 511.1 621.35159 L 429.45 621.35159 Z "/>
</clipPath>
<g clip-path="url(#cp9)">
<text xml:space="preserve" transform="matrix(1 0 -0 1 450.5772 237.02539)" font-size="14" font-family="TimesNewRomanPSMT"><tspan y="0" x="0 7 14 17.5 24.5 32.396">18,1+k</tspan></text>
<g id="Layer-6" data-name="Span">
<text xml:space="preserve" transform="matrix(1 0 -0 1 450.5772 237.02539)" font-size="14" font-family="TimesNewRomanPSMT"><tspan y="0" x="39.39551"> </tspan></text>
</g>
</g>
</g>
</g>
<g id="Layer-3" data-name="P">
<g id="Layer-4" data-name="P">
<g id="Layer-5" data-name="P">
</g>
<clipPath id="cp10">
<path transform="matrix(1,0,0,-1,0,842)" d="M 126.45 541.791 L 202 541.791 L 202 581.1963 L 126.45 581.1963 Z "/>
</clipPath>
<g clip-path="url(#cp10)">
<text xml:space="preserve" transform="matrix(1 0 -0 1 152.8 285.18074)" font-size="14" font-family="TimesNewRomanPSMT"><tspan y="0" x="0">2</tspan></text>
</g>
</g>
<g id="Layer-4" data-name="P">
<g id="Layer-5" data-name="P">
</g>
<clipPath id="cp11">
<path transform="matrix(1,0,0,-1,0,842)" d="M 202.75 541.791 L 315.35 541.791 L 315.35 581.1963 L 202.75 581.1963 Z "/>
</clipPath>
<g clip-path="url(#cp11)">
<text xml:space="preserve" transform="matrix(1 0 -0 1 252.05 285.18074)" font-size="14" font-family="TimesNewRomanPSMT"><tspan y="0" x="0 7">50</tspan></text>
</g>
</g>
<g id="Layer-4" data-name="P">
<g id="Layer-5" data-name="P">
</g>
<clipPath id="cp12">
<path transform="matrix(1,0,0,-1,0,842)" d="M 316.1 541.791 L 428.7 541.791 L 428.7 581.1963 L 316.1 581.1963 Z "/>
</clipPath>
<g clip-path="url(#cp12)">
<text xml:space="preserve" transform="matrix(1 0 -0 1 365.4 285.18074)" font-size="14" font-family="TimesNewRomanPSMT"><tspan y="0" x="0 7">72</tspan></text>
</g>
</g>
<g id="Layer-4" data-name="P">
<g id="Layer-5" data-name="P">
</g>
<clipPath id="cp13">
<path transform="matrix(1,0,0,-1,0,842)" d="M 429.45 541.791 L 511.1 541.791 L 511.1 581.1963 L 429.45 581.1963 Z "/>
</clipPath>
<g clip-path="url(#cp13)">
<text xml:space="preserve" transform="matrix(1 0 -0 1 450.5772 277.18074)" font-size="14" font-family="TimesNewRomanPSMT"><tspan y="0" x="0 7 14 17.5 24.5 32.396">21,1+k</tspan></text>
<g id="Layer-6" data-name="Span">
<text xml:space="preserve" transform="matrix(1 0 -0 1 450.5772 277.18074)" font-size="14" font-family="TimesNewRomanPSMT"><tspan y="0" x="39.39551"> </tspan></text>
</g>
</g>
</g>
</g>
<g id="Layer-3" data-name="P">
<g id="Layer-4" data-name="P">
<g id="Layer-5" data-name="P">
</g>
<clipPath id="cp14">
<path transform="matrix(1,0,0,-1,0,842)" d="M 126.45 501.6357 L 202 501.6357 L 202 541.04098 L 126.45 541.04098 Z "/>
</clipPath>
<g clip-path="url(#cp14)">
<text xml:space="preserve" transform="matrix(1 0 -0 1 152.8 325.33589)" font-size="14" font-family="TimesNewRomanPSMT"><tspan y="0" x="0">3</tspan></text>
</g>
</g>
<g id="Layer-4" data-name="P">
<g id="Layer-5" data-name="P">
</g>
<clipPath id="cp15">
<path transform="matrix(1,0,0,-1,0,842)" d="M 202.75 501.6357 L 315.35 501.6357 L 315.35 541.04098 L 202.75 541.04098 Z "/>
</clipPath>
<g clip-path="url(#cp15)">
<text xml:space="preserve" transform="matrix(1 0 -0 1 252.05 325.33589)" font-size="14" font-family="TimesNewRomanPSMT"><tspan y="0" x="0 7">68</tspan></text>
</g>
</g>
<g id="Layer-4" data-name="P">
<g id="Layer-5" data-name="P">
</g>
<clipPath id="cp16">
<path transform="matrix(1,0,0,-1,0,842)" d="M 316.1 501.6357 L 428.7 501.6357 L 428.7 541.04098 L 316.1 541.04098 Z "/>
</clipPath>
<g clip-path="url(#cp16)">
<text xml:space="preserve" transform="matrix(1 0 -0 1 365.4 325.33589)" font-size="14" font-family="TimesNewRomanPSMT"><tspan y="0" x="0 7">79</tspan></text>
</g>
</g>
<g id="Layer-4" data-name="P">
<g id="Layer-5" data-name="P">
</g>
<clipPath id="cp17">
<path transform="matrix(1,0,0,-1,0,842)" d="M 429.45 501.6357 L 511.1 501.6357 L 511.1 541.04098 L 429.45 541.04098 Z "/>
</clipPath>
<g clip-path="url(#cp17)">
<text xml:space="preserve" transform="matrix(1 0 -0 1 450.5772 317.33589)" font-size="14" font-family="TimesNewRomanPSMT"><tspan y="0" x="0 7 14 17.5 24.5 32.396">22,9+k</tspan></text>
<g id="Layer-6" data-name="Span">
<text xml:space="preserve" transform="matrix(1 0 -0 1 450.5772 317.33589)" font-size="14" font-family="TimesNewRomanPSMT"><tspan y="0" x="39.39551"> </tspan></text>
</g>
</g>
</g>
</g>
<g id="Layer-3" data-name="P">
<g id="Layer-4" data-name="P">
<g id="Layer-5" data-name="P">
</g>
<clipPath id="cp18">
<path transform="matrix(1,0,0,-1,0,842)" d="M 126.45 461.4805 L 202 461.4805 L 202 500.88578 L 126.45 500.88578 Z "/>
</clipPath>
<g clip-path="url(#cp18)">
<text xml:space="preserve" transform="matrix(1 0 -0 1 152.8 365.4912)" font-size="14" font-family="TimesNewRomanPSMT"><tspan y="0" x="0">4</tspan></text>
</g>
</g>
<g id="Layer-4" data-name="P">
<g id="Layer-5" data-name="P">
</g>
<clipPath id="cp19">
<path transform="matrix(1,0,0,-1,0,842)" d="M 202.75 461.4805 L 315.35 461.4805 L 315.35 500.88578 L 202.75 500.88578 Z "/>
</clipPath>
<g clip-path="url(#cp19)">
<text xml:space="preserve" transform="matrix(1 0 -0 1 252.05 365.4912)" font-size="14" font-family="TimesNewRomanPSMT"><tspan y="0" x="0 7">48</tspan></text>
</g>
</g>
<g id="Layer-4" data-name="P">
<g id="Layer-5" data-name="P">
</g>
<clipPath id="cp20">
<path transform="matrix(1,0,0,-1,0,842)" d="M 316.1 461.4805 L 428.7 461.4805 L 428.7 500.88578 L 316.1 500.88578 Z "/>
</clipPath>
<g clip-path="url(#cp20)">
<text xml:space="preserve" transform="matrix(1 0 -0 1 365.4 365.4912)" font-size="14" font-family="TimesNewRomanPSMT"><tspan y="0" x="0 7">81</tspan></text>
</g>
</g>
<g id="Layer-4" data-name="P">
<g id="Layer-5" data-name="P">
</g>
<clipPath id="cp21">
<path transform="matrix(1,0,0,-1,0,842)" d="M 429.45 461.4805 L 511.1 461.4805 L 511.1 500.88578 L 429.45 500.88578 Z "/>
</clipPath>
<g clip-path="url(#cp21)">
<text xml:space="preserve" transform="matrix(1 0 -0 1 450.5772 357.4912)" font-size="14" font-family="TimesNewRomanPSMT"><tspan y="0" x="0 7 14 17.5 24.5 32.396">18,9+k</tspan></text>
<g id="Layer-6" data-name="Span">
<text xml:space="preserve" transform="matrix(1 0 -0 1 450.5772 357.4912)" font-size="14" font-family="TimesNewRomanPSMT"><tspan y="0" x="39.39551"> </tspan></text>
</g>
</g>
</g>
</g>
<g id="Layer-3" data-name="P">
<g id="Layer-4" data-name="P">
<g id="Layer-5" data-name="P">
</g>
<clipPath id="cp22">
<path transform="matrix(1,0,0,-1,0,842)" d="M 126.45 421.3252 L 202 421.3252 L 202 460.73048 L 126.45 460.73048 Z "/>
</clipPath>
<g clip-path="url(#cp22)">
<text xml:space="preserve" transform="matrix(1 0 -0 1 152.8 405.6465)" font-size="14" font-family="TimesNewRomanPSMT"><tspan y="0" x="0">5</tspan></text>
</g>
</g>
<g id="Layer-4" data-name="P">
<g id="Layer-5" data-name="P">
</g>
<clipPath id="cp23">
<path transform="matrix(1,0,0,-1,0,842)" d="M 202.75 421.3252 L 315.35 421.3252 L 315.35 460.73048 L 202.75 460.73048 Z "/>
</clipPath>
<g clip-path="url(#cp23)">
<text xml:space="preserve" transform="matrix(1 0 -0 1 252.05 405.6465)" font-size="14" font-family="TimesNewRomanPSMT"><tspan y="0" x="0 7">87</tspan></text>
</g>
</g>
<g id="Layer-4" data-name="P">
<g id="Layer-5" data-name="P">
</g>
<clipPath id="cp24">
<path transform="matrix(1,0,0,-1,0,842)" d="M 316.1 421.3252 L 428.7 421.3252 L 428.7 460.73048 L 316.1 460.73048 Z "/>
</clipPath>
<g clip-path="url(#cp24)">
<text xml:space="preserve" transform="matrix(1 0 -0 1 365.4 405.6465)" font-size="14" font-family="TimesNewRomanPSMT"><tspan y="0" x="0 7">83</tspan></text>
</g>
</g>
<g id="Layer-4" data-name="P">
<g id="Layer-5" data-name="P">
</g>
<clipPath id="cp25">
<path transform="matrix(1,0,0,-1,0,842)" d="M 429.45 421.3252 L 511.1 421.3252 L 511.1 460.73048 L 429.45 460.73048 Z "/>
</clipPath>
<g clip-path="url(#cp25)">
<text xml:space="preserve" transform="matrix(1 0 -0 1 450.5772 397.6465)" font-size="14" font-family="TimesNewRomanPSMT"><tspan y="0" x="0 7 14 17.5 24.5 32.396">18,6+k</tspan></text>
<g id="Layer-6" data-name="Span">
<text xml:space="preserve" transform="matrix(1 0 -0 1 450.5772 397.6465)" font-size="14" font-family="TimesNewRomanPSMT"><tspan y="0" x="39.39551"> </tspan></text>
</g>
</g>
</g>
</g>
<g id="Layer-3" data-name="P">
<g id="Layer-4" data-name="P">
<g id="Layer-5" data-name="P">
</g>
<clipPath id="cp26">
<path transform="matrix(1,0,0,-1,0,842)" d="M 126.45 381.1699 L 202 381.1699 L 202 420.57518 L 126.45 420.57518 Z "/>
</clipPath>
<g clip-path="url(#cp26)">
<text xml:space="preserve" transform="matrix(1 0 -0 1 152.8 445.8018)" font-size="14" font-family="TimesNewRomanPSMT"><tspan y="0" x="0">6</tspan></text>
</g>
</g>
<g id="Layer-4" data-name="P">
<g id="Layer-5" data-name="P">
</g>
<clipPath id="cp27">
<path transform="matrix(1,0,0,-1,0,842)" d="M 202.75 381.1699 L 315.35 381.1699 L 315.35 420.57518 L 202.75 420.57518 Z "/>
</clipPath>
<g clip-path="url(#cp27)">
<text xml:space="preserve" transform="matrix(1 0 -0 1 252.05 445.8018)" font-size="14" font-family="TimesNewRomanPSMT"><tspan y="0" x="0 7">60</tspan></text>
</g>
</g>
<g id="Layer-4" data-name="P">
<g id="Layer-5" data-name="P">
</g>
<clipPath id="cp28">
<path transform="matrix(1,0,0,-1,0,842)" d="M 316.1 381.1699 L 428.7 381.1699 L 428.7 420.57518 L 316.1 420.57518 Z "/>
</clipPath>
<g clip-path="url(#cp28)">
<text xml:space="preserve" transform="matrix(1 0 -0 1 365.4 445.8018)" font-size="14" font-family="TimesNewRomanPSMT"><tspan y="0" x="0 7">81</tspan></text>
</g>
</g>
<g id="Layer-4" data-name="P">
<g id="Layer-5" data-name="P">
</g>
<clipPath id="cp29">
<path transform="matrix(1,0,0,-1,0,842)" d="M 429.45 381.1699 L 511.1 381.1699 L 511.1 420.57518 L 429.45 420.57518 Z "/>
</clipPath>
<g clip-path="url(#cp29)">
<text xml:space="preserve" transform="matrix(1 0 -0 1 450.5772 437.8018)" font-size="14" font-family="TimesNewRomanPSMT"><tspan y="0" x="0 7 14 17.5 24.5 32.396">30,5+k</tspan></text>
<g id="Layer-6" data-name="Span">
<text xml:space="preserve" transform="matrix(1 0 -0 1 450.5772 437.8018)" font-size="14" font-family="TimesNewRomanPSMT"><tspan y="0" x="39.39551"> </tspan></text>
</g>
</g>
</g>
</g>
<g id="Layer-3" data-name="P">
<g id="Layer-4" data-name="P">
<g id="Layer-5" data-name="P">
</g>
<clipPath id="cp30">
<path transform="matrix(1,0,0,-1,0,842)" d="M 126.45 341.0146 L 202 341.0146 L 202 380.41987 L 126.45 380.41987 Z "/>
</clipPath>
<g clip-path="url(#cp30)">
<text xml:space="preserve" transform="matrix(1 0 -0 1 152.8 485.957)" font-size="14" font-family="TimesNewRomanPSMT"><tspan y="0" x="0">7</tspan></text>
</g>
</g>
<g id="Layer-4" data-name="P">
<g id="Layer-5" data-name="P">
</g>
<clipPath id="cp31">
<path transform="matrix(1,0,0,-1,0,842)" d="M 202.75 341.0146 L 315.35 341.0146 L 315.35 380.41987 L 202.75 380.41987 Z "/>
</clipPath>
<g clip-path="url(#cp31)">
<text xml:space="preserve" transform="matrix(1 0 -0 1 252.05 485.957)" font-size="14" font-family="TimesNewRomanPSMT"><tspan y="0" x="0 7">75</tspan></text>
</g>
</g>
<g id="Layer-4" data-name="P">
<g id="Layer-5" data-name="P">
</g>
<clipPath id="cp32">
<path transform="matrix(1,0,0,-1,0,842)" d="M 316.1 341.0146 L 428.7 341.0146 L 428.7 380.41987 L 316.1 380.41987 Z "/>
</clipPath>
<g clip-path="url(#cp32)">
<text xml:space="preserve" transform="matrix(1 0 -0 1 365.4 485.957)" font-size="14" font-family="TimesNewRomanPSMT"><tspan y="0" x="0 7">90</tspan></text>
</g>
</g>
<g id="Layer-4" data-name="P">
<g id="Layer-5" data-name="P">
</g>
<clipPath id="cp33">
<path transform="matrix(1,0,0,-1,0,842)" d="M 429.45 341.0146 L 511.1 341.0146 L 511.1 380.41987 L 429.45 380.41987 Z "/>
</clipPath>
<g clip-path="url(#cp33)">
<text xml:space="preserve" transform="matrix(1 0 -0 1 450.5772 477.957)" font-size="14" font-family="TimesNewRomanPSMT"><tspan y="0" x="0 7 14 17.5 24.5 32.396">23,4+k</tspan></text>
<g id="Layer-6" data-name="Span">
<text xml:space="preserve" transform="matrix(1 0 -0 1 450.5772 477.957)" font-size="14" font-family="TimesNewRomanPSMT"><tspan y="0" x="39.39551"> </tspan></text>
</g>
</g>
</g>
</g>
<g id="Layer-3" data-name="P">
<g id="Layer-4" data-name="P">
<g id="Layer-5" data-name="P">
</g>
<clipPath id="cp34">
<path transform="matrix(1,0,0,-1,0,842)" d="M 126.45 300.8594 L 202 300.8594 L 202 340.26469 L 126.45 340.26469 Z "/>
</clipPath>
<g clip-path="url(#cp34)">
<text xml:space="preserve" transform="matrix(1 0 -0 1 152.8 526.1123)" font-size="14" font-family="TimesNewRomanPSMT"><tspan y="0" x="0">8</tspan></text>
</g>
</g>
<g id="Layer-4" data-name="P">
<g id="Layer-5" data-name="P">
</g>
<clipPath id="cp35">
<path transform="matrix(1,0,0,-1,0,842)" d="M 202.75 300.8594 L 315.35 300.8594 L 315.35 340.26469 L 202.75 340.26469 Z "/>
</clipPath>
<g clip-path="url(#cp35)">
<text xml:space="preserve" transform="matrix(1 0 -0 1 252.05 526.1123)" font-size="14" font-family="TimesNewRomanPSMT"><tspan y="0" x="0 7">80</tspan></text>
</g>
</g>
<g id="Layer-4" data-name="P">
<g id="Layer-5" data-name="P">
</g>
<clipPath id="cp36">
<path transform="matrix(1,0,0,-1,0,842)" d="M 316.1 300.8594 L 428.7 300.8594 L 428.7 340.26469 L 316.1 340.26469 Z "/>
</clipPath>
<g clip-path="url(#cp36)">
<text xml:space="preserve" transform="matrix(1 0 -0 1 365.4 526.1123)" font-size="14" font-family="TimesNewRomanPSMT"><tspan y="0" x="0 7">95</tspan></text>
</g>
</g>
<g id="Layer-4" data-name="P">
<g id="Layer-5" data-name="P">
</g>
<clipPath id="cp37">
<path transform="matrix(1,0,0,-1,0,842)" d="M 429.45 300.8594 L 511.1 300.8594 L 511.1 340.26469 L 429.45 340.26469 Z "/>
</clipPath>
<g clip-path="url(#cp37)">
<text xml:space="preserve" transform="matrix(1 0 -0 1 450.5772 518.1123)" font-size="14" font-family="TimesNewRomanPSMT"><tspan y="0" x="0 7 14 17.5 24.5 32.396">27,6+k</tspan></text>
<g id="Layer-6" data-name="Span">
<text xml:space="preserve" transform="matrix(1 0 -0 1 450.5772 518.1123)" font-size="14" font-family="TimesNewRomanPSMT"><tspan y="0" x="39.39551"> </tspan></text>
</g>
</g>
</g>
</g>
<g id="Layer-3" data-name="P">
<g id="Layer-4" data-name="P">
<g id="Layer-5" data-name="P">
</g>
<clipPath id="cp38">
<path transform="matrix(1,0,0,-1,0,842)" d="M 126.45 260.7041 L 202 260.7041 L 202 300.10939 L 126.45 300.10939 Z "/>
</clipPath>
<g clip-path="url(#cp38)">
<text xml:space="preserve" transform="matrix(1 0 -0 1 152.8 566.2676)" font-size="14" font-family="TimesNewRomanPSMT"><tspan y="0" x="0">9</tspan></text>
</g>
</g>
<g id="Layer-4" data-name="P">
<g id="Layer-5" data-name="P">
</g>
<clipPath id="cp39">
<path transform="matrix(1,0,0,-1,0,842)" d="M 202.75 260.7041 L 315.35 260.7041 L 315.35 300.10939 L 202.75 300.10939 Z "/>
</clipPath>
<g clip-path="url(#cp39)">
<text xml:space="preserve" transform="matrix(1 0 -0 1 252.05 566.2676)" font-size="14" font-family="TimesNewRomanPSMT"><tspan y="0" x="0 7">66</tspan></text>
</g>
</g>
<g id="Layer-4" data-name="P">
<g id="Layer-5" data-name="P">
</g>
<clipPath id="cp40">
<path transform="matrix(1,0,0,-1,0,842)" d="M 316.1 260.7041 L 428.7 260.7041 L 428.7 300.10939 L 316.1 300.10939 Z "/>
</clipPath>
<g clip-path="url(#cp40)">
<text xml:space="preserve" transform="matrix(1 0 -0 1 361.9 566.2676)" font-size="14" font-family="TimesNewRomanPSMT"><tspan y="0" x="0 7 14">100</tspan></text>
</g>
</g>
<g id="Layer-4" data-name="P">
<g id="Layer-5" data-name="P">
</g>
<clipPath id="cp41">
<path transform="matrix(1,0,0,-1,0,842)" d="M 429.45 260.7041 L 511.1 260.7041 L 511.1 300.10939 L 429.45 300.10939 Z "/>
</clipPath>
<g clip-path="url(#cp41)">
<text xml:space="preserve" transform="matrix(1 0 -0 1 450.5772 558.2676)" font-size="14" font-family="TimesNewRomanPSMT"><tspan y="0" x="0 7 14 17.5 24.5 32.396">20,9+k</tspan></text>
<g id="Layer-6" data-name="Span">
<text xml:space="preserve" transform="matrix(1 0 -0 1 450.5772 558.2676)" font-size="14" font-family="TimesNewRomanPSMT"><tspan y="0" x="39.39551"> </tspan></text>
</g>
</g>
</g>
</g>
<g id="Layer-3" data-name="P">
<g id="Layer-4" data-name="P">
<g id="Layer-5" data-name="P">
</g>
<clipPath id="cp42">
<path transform="matrix(1,0,0,-1,0,842)" d="M 126.45 220.5488 L 202 220.5488 L 202 259.95408 L 126.45 259.95408 Z "/>
</clipPath>
<g clip-path="url(#cp42)">
<text xml:space="preserve" transform="matrix(1 0 -0 1 149.3 606.4229)" font-size="14" font-family="TimesNewRomanPSMT"><tspan y="0" x="0 7">10</tspan></text>
</g>
</g>
<g id="Layer-4" data-name="P">
<g id="Layer-5" data-name="P">
</g>
<clipPath id="cp43">
<path transform="matrix(1,0,0,-1,0,842)" d="M 202.75 220.5488 L 315.35 220.5488 L 315.35 259.95408 L 202.75 259.95408 Z "/>
</clipPath>
<g clip-path="url(#cp43)">
<text xml:space="preserve" transform="matrix(1 0 -0 1 252.05 606.4229)" font-size="14" font-family="TimesNewRomanPSMT"><tspan y="0" x="0 7">58</tspan></text>
</g>
</g>
<g id="Layer-4" data-name="P">
<g id="Layer-5" data-name="P">
</g>
<clipPath id="cp44">
<path transform="matrix(1,0,0,-1,0,842)" d="M 316.1 220.5488 L 428.7 220.5488 L 428.7 259.95408 L 316.1 259.95408 Z "/>
</clipPath>
<g clip-path="url(#cp44)">
<text xml:space="preserve" transform="matrix(1 0 -0 1 365.4 606.4229)" font-size="14" font-family="TimesNewRomanPSMT"><tspan y="0" x="0 7">95</tspan></text>
</g>
</g>
<g id="Layer-4" data-name="P">
<g id="Layer-5" data-name="P">
</g>
<clipPath id="cp45">
<path transform="matrix(1,0,0,-1,0,842)" d="M 429.45 220.5488 L 511.1 220.5488 L 511.1 259.95408 L 429.45 259.95408 Z "/>
</clipPath>
<g clip-path="url(#cp45)">
<text xml:space="preserve" transform="matrix(1 0 -0 1 450.5772 598.4229)" font-size="14" font-family="TimesNewRomanPSMT"><tspan y="0" x="0 7 14 17.5 24.5 32.396">18,2+k</tspan></text>
<g id="Layer-6" data-name="Span">
<text xml:space="preserve" transform="matrix(1 0 -0 1 450.5772 598.4229)" font-size="14" font-family="TimesNewRomanPSMT"><tspan y="0" x="39.39551"> </tspan></text>
</g>
</g>
</g>
</g>
</g>
<clipPath id="cp46">
<path transform="matrix(1,0,0,-1,0,842)" d="M 124.075 217.8818 L 513.075 217.8818 L 513.075 679.88186 L 124.075 679.88186 Z "/>
</clipPath>
<g clip-path="url(#cp46)">
<path transform="matrix(1,0,0,1,124.075,162.11823)" stroke-width=".75" stroke-linecap="butt" stroke-miterlimit="4" stroke-linejoin="miter" fill="none" stroke="#404040" d="M 78.3 1.5 L 78.3 460.208 "/>
<path transform="matrix(1,0,0,1,124.075,162.11823)" stroke-width=".75" stroke-linecap="butt" stroke-miterlimit="4" stroke-linejoin="miter" fill="none" stroke="#404040" d="M 191.65 1.5 L 191.65 460.208 "/>
<path transform="matrix(1,0,0,1,124.075,162.11823)" stroke-width=".75" stroke-linecap="butt" stroke-miterlimit="4" stroke-linejoin="miter" fill="none" stroke="#404040" d="M 305 1.5 L 305 460.208 "/>
<path transform="matrix(1,0,0,1,124.075,162.11823)" stroke-width=".75" stroke-linecap="butt" stroke-miterlimit="4" stroke-linejoin="miter" fill="none" stroke="#404040" d="M 1.5 58.15527 L 387.9 58.15527 "/>
<path transform="matrix(1,0,0,1,124.075,162.11823)" stroke-width=".75" stroke-linecap="butt" stroke-miterlimit="4" stroke-linejoin="miter" fill="none" stroke="#404040" d="M 1.5 98.31055 L 387.9 98.31055 "/>
<path transform="matrix(1,0,0,1,124.075,162.11823)" stroke-width=".75" stroke-linecap="butt" stroke-miterlimit="4" stroke-linejoin="miter" fill="none" stroke="#404040" d="M 1.5 138.4658 L 387.9 138.4658 "/>
<path transform="matrix(1,0,0,1,124.075,162.11823)" stroke-width=".75" stroke-linecap="butt" stroke-miterlimit="4" stroke-linejoin="miter" fill="none" stroke="#404040" d="M 1.5 178.6211 L 387.9 178.6211 "/>
<path transform="matrix(1,0,0,1,124.075,162.11823)" stroke-width=".75" stroke-linecap="butt" stroke-miterlimit="4" stroke-linejoin="miter" fill="none" stroke="#404040" d="M 1.5 218.7764 L 387.9 218.7764 "/>
<path transform="matrix(1,0,0,1,124.075,162.11823)" stroke-width=".75" stroke-linecap="butt" stroke-miterlimit="4" stroke-linejoin="miter" fill="none" stroke="#404040" d="M 1.5 258.9316 L 387.9 258.9316 "/>
<path transform="matrix(1,0,0,1,124.075,162.11823)" stroke-width=".75" stroke-linecap="butt" stroke-miterlimit="4" stroke-linejoin="miter" fill="none" stroke="#404040" d="M 1.5 299.0869 L 387.9 299.0869 "/>
<path transform="matrix(1,0,0,1,124.075,162.11823)" stroke-width=".75" stroke-linecap="butt" stroke-miterlimit="4" stroke-linejoin="miter" fill="none" stroke="#404040" d="M 1.5 339.2422 L 387.9 339.2422 "/>
<path transform="matrix(1,0,0,1,124.075,162.11823)" stroke-width=".75" stroke-linecap="butt" stroke-miterlimit="4" stroke-linejoin="miter" fill="none" stroke="#404040" d="M 1.5 379.3975 L 387.9 379.3975 "/>
<path transform="matrix(1,0,0,1,124.075,162.11823)" stroke-width=".75" stroke-linecap="butt" stroke-miterlimit="4" stroke-linejoin="miter" fill="none" stroke="#404040" d="M 1.5 419.5527 L 387.9 419.5527 "/>
<path transform="matrix(1,0,0,1,124.075,162.11823)" stroke-width=".75" stroke-linecap="butt" stroke-miterlimit="4" stroke-linejoin="miter" fill="none" stroke="#404040" d="M 2 1.5 L 2 460.208 "/>
<path transform="matrix(1,0,0,1,124.075,162.11823)" stroke-width=".75" stroke-linecap="butt" stroke-miterlimit="4" stroke-linejoin="miter" fill="none" stroke="#404040" d="M 387.4 1.5 L 387.4 460.208 "/>
<path transform="matrix(1,0,0,1,124.075,162.11823)" stroke-width=".75" stroke-linecap="butt" stroke-miterlimit="4" stroke-linejoin="miter" fill="none" stroke="#404040" d="M 1.5 2 L 387.9 2 "/>
<path transform="matrix(1,0,0,1,124.075,162.11823)" stroke-width=".75" stroke-linecap="butt" stroke-miterlimit="4" stroke-linejoin="miter" fill="none" stroke="#404040" d="M 1.5 459.708 L 387.9 459.708 "/>
</g>
</g>
</g>
</g>
</svg>
