<?xml version="1.0" encoding="UTF-8" standalone="no"?>
<!DOCTYPE svg PUBLIC "-//W3C//DTD SVG 1.1//EN" "http://www.w3.org/Graphics/SVG/1.1/DTD/svg11.dtd">
<svg xmlns="http://www.w3.org/2000/svg" xmlns:xlink="http://www.w3.org/1999/xlink" version="1.1" width="595pt" height="842pt" viewBox="0 0 595 842">
<g enable-background="new">
<clipPath id="cp47">
<path transform="matrix(1,0,0,-1,0,842)" d="M 0 0 L 595 0 L 595 842 L 0 842 Z "/>
</clipPath>
<g clip-path="url(#cp47)">
<path transform="matrix(1,0,0,-1,0,842)" d="M 0 842 L 595 842 L 595 0 L 0 0 Z " fill="#ffffff"/>
<g id="Layer-1" data-name="P">
</g>
<clipPath id="cp48">
<path transform="matrix(1,0,0,-1,0,842)" d="M 81.17403 56.3 L 556.37606 56.3 L 556.37606 789.17599 L 81.17403 789.17599 Z "/>
</clipPath>
<g clip-path="url(#cp48)">
<text xml:space="preserve" transform="matrix(1 0 -0 1 85.05 69.07703)" font-size="14" font-family="TimesNewRomanPSMT"><tspan y="0" x="0 6.792801 14.047602 20.742403 27.087204">&#x0417;&#x0434;&#x0435;&#x0441;&#x044c;</tspan></text>
<text xml:space="preserve" transform="matrix(1 0 -0 1 85.05 69.07703)" font-size="14" font-family="TimesNewRomanPSMT"><tspan y="0" x="33.600004"> </tspan></text>
<text xml:space="preserve" transform="matrix(1 0 -0 1 85.05 69.07703)" font-size="14" font-family="TimesNewRomanPSMT"><tspan y="0" x="37.2288">&#x043a;</tspan></text>
<text xml:space="preserve" transform="matrix(1 0 -0 1 85.05 69.07703)" font-size="14" font-family="TimesNewRomanPSMT"><tspan y="0" x="44.161603 47.7904 54.9192"> &#x2013; </tspan></text>
<text xml:space="preserve" transform="matrix(1 0 -0 1 85.05 69.07703)" font-size="14" font-family="TimesNewRomanPSMT"><tspan y="0" x="58.548 66.1668 73.2956 80.4244 86.9932 94.248 100.466808 107.595607 114.332408 123.8692">&#x043f;&#x043e;&#x0440;&#x044f;&#x0434;&#x043a;&#x043e;&#x0432;&#x044b;&#x0439;</tspan></text>
<text xml:space="preserve" transform="matrix(1 0 -0 1 85.05 69.07703)" font-size="14" font-family="TimesNewRomanPSMT"><tspan y="0" x="131.488"> </tspan></text>
<text xml:space="preserve" transform="matrix(1 0 -0 1 85.05 69.07703)" font-size="14" font-family="TimesNewRomanPSMT"><tspan y="0" x="135.1168 142.73561 149.5984 158.5892 164.934">&#x043d;&#x043e;&#x043c;&#x0435;&#x0440;</tspan></text>
<text xml:space="preserve" transform="matrix(1 0 -0 1 85.05 69.07703)" font-size="14" font-family="TimesNewRomanPSMT"><tspan y="0" x="172.0628"> </tspan></text>
<text xml:space="preserve" transform="matrix(1 0 -0 1 85.05 69.07703)" font-size="14" font-family="TimesNewRomanPSMT"><tspan y="0" x="175.6916 182.0364 188.10121 194.348 201.60282 207.94762 215.56642 221.98123">&#x0441;&#x0442;&#x0443;&#x0434;&#x0435;&#x043d;&#x0442;&#x0430;</tspan></text>
<text xml:space="preserve" transform="matrix(1 0 -0 1 85.05 69.07703)" font-size="14" font-family="TimesNewRomanPSMT"><tspan y="0" x="228.32604"> </tspan></text>
<text xml:space="preserve" transform="matrix(1 0 -0 1 85.05 69.07703)" font-size="14" font-family="TimesNewRomanPSMT"><tspan y="0" x="231.95484 239.57364">&#x043f;&#x043e;</tspan></text>
<text xml:space="preserve" transform="matrix(1 0 -0 1 85.05 69.07703)" font-size="14" font-family="TimesNewRomanPSMT"><tspan y="0" x="246.70244"> </tspan></text>
<text xml:space="preserve" transform="matrix(1 0 -0 1 85.05 69.07703)" font-size="14" font-family="TimesNewRomanPSMT"><tspan y="0" x="250.33124 260.13404 267.26286 274.39167 282.01048 288.4813 295.5961">&#x0436;&#x0443;&#x0440;&#x043d;&#x0430;&#x043b;&#x0443;</tspan></text>
<text xml:space="preserve" transform="matrix(1 0 -0 1 85.05 69.07703)" font-size="14" font-family="TimesNewRomanPSMT"><tspan y="0" x="301.32493">.</tspan></text>
<g id="Layer-2" data-name="Span">
<text xml:space="preserve" transform="matrix(1 0 -0 1 85.05 69.07703)" font-size="14" font-family="TimesNewRomanPSMT"><tspan y="0" x="304.8627"> </tspan></text>
</g>
</g>
</g>
</g>
</svg>
