<?xml version="1.0" encoding="UTF-8" standalone="no"?>
<!DOCTYPE svg PUBLIC "-//W3C//DTD SVG 1.1//EN" "http://www.w3.org/Graphics/SVG/1.1/DTD/svg11.dtd">
<svg xmlns="http://www.w3.org/2000/svg" xmlns:xlink="http://www.w3.org/1999/xlink" version="1.1" width="595pt" height="842pt" viewBox="0 0 595 842">
<g enable-background="new">
<clipPath id="cp1903">
<path transform="matrix(1,0,0,-1,0,842)" d="M 0 0 L 595 0 L 595 842 L 0 842 Z "/>
</clipPath>
<g clip-path="url(#cp1903)">
<path transform="matrix(1,0,0,-1,0,842)" d="M 0 842 L 595 842 L 595 0 L 0 0 Z " fill="#ffffff"/>
<g id="Layer-1" data-name="P">
<g id="Layer-2" data-name="Span">
</g>
<clipPath id="cp1904">
<path transform="matrix(1,0,0,-1,0,842)" d="M 81.72774 56.3 L 555.82229 56.3 L 555.82229 788.6223 L 81.72774 788.6223 Z "/>
</clipPath>
<g clip-path="url(#cp1904)">
<text xml:space="preserve" transform="matrix(1 0 -0 1 120.5 89.70001)" font-size="12" font-family="TimesNewRomanPSMT"><tspan y="0" x="38"> </tspan></text>
</g>
</g>
<g id="Layer-1" data-name="P">
<g id="Layer-2" data-name="Span">
<text xml:space="preserve" transform="matrix(1 0 -0 1 120.5 127.2879)" font-size="12" font-family="TimesNewRomanPSMT"><tspan y="0" x="51"> </tspan></text>
</g>
</g>
<g id="Layer-1" data-name="P">
</g>
<g id="Layer-1" data-name="P">
</g>
<clipPath id="cp1905">
<path transform="matrix(1,0,0,-1,0,842)" d="M 120.5 752.3 L 158.5 752.3 L 158.5 770.3 L 120.5 770.3 Z "/>
</clipPath>
<g clip-path="url(#cp1905)">
<text xml:space="preserve" transform="matrix(.03125 0 -0 .03125 153.2813 86.70001)" font-size="224" font-family="TimesNewRomanPSMT"><tspan y="0" x="0">1</tspan></text>
<text xml:space="preserve" transform="matrix(.03125 0 -0 .03125 149.875 86.70001)" font-size="224" font-family="Symbol"><tspan y="0" x="0">&#x2212;</tspan></text>
<text xml:space="preserve" transform="matrix(.03125 0 -0 .03125 133.4063 83.70001)" font-size="384" font-family="Symbol"><tspan y="0" x="0">&#x2212;</tspan></text>
<text xml:space="preserve" transform="matrix(.03125 0 -0 .03125 147.2188 86.70001)" font-size="224" font-family="TimesNewRomanPS" font-style="italic"><tspan y="0" x="0">t</tspan></text>
<text xml:space="preserve" transform="matrix(.03125 0 -0 .03125 127.4063 86.70001)" font-size="224" font-family="TimesNewRomanPS" font-style="italic"><tspan y="0" x="0">t</tspan></text>
<text xml:space="preserve" transform="matrix(.03125 0 -0 .03125 141.9375 83.70001)" font-size="384" font-family="TimesNewRomanPS" font-style="italic"><tspan y="0" x="0">e</tspan></text>
<text xml:space="preserve" transform="matrix(.03125 0 -0 .03125 122.125 83.70001)" font-size="384" font-family="TimesNewRomanPS" font-style="italic"><tspan y="0" x="0">e</tspan></text>
</g>
<g id="Layer-1" data-name="P">
</g>
<clipPath id="cp1906">
<path transform="matrix(1,0,0,-1,0,842)" d="M 120.5 714.7121 L 171.5 714.7121 L 171.5 734.7121 L 120.5 734.7121 Z "/>
</clipPath>
<g clip-path="url(#cp1906)">
<text xml:space="preserve" transform="matrix(.03125 0 -0 .03125 122.0938 121.2254)" font-size="509" font-family="Symbol"><tspan y="0" x="0">(</tspan></text>
<text xml:space="preserve" transform="matrix(.03125 0 -0 .03125 161.75 121.2254)" font-size="509" font-family="Symbol"><tspan y="0" x="0">)</tspan></text>
<text xml:space="preserve" transform="matrix(.03125 0 -0 .03125 165.5938 115.0379)" font-size="224" font-family="TimesNewRomanPSMT"><tspan y="0" x="0">2</tspan></text>
<text xml:space="preserve" transform="matrix(.03125 0 -0 .03125 156.8125 124.2879)" font-size="224" font-family="TimesNewRomanPSMT"><tspan y="0" x="0">1</tspan></text>
<text xml:space="preserve" transform="matrix(.03125 0 -0 .03125 153.4063 124.2879)" font-size="224" font-family="Symbol"><tspan y="0" x="0">&#x2212;</tspan></text>
<text xml:space="preserve" transform="matrix(.03125 0 -0 .03125 136.9375 121.2879)" font-size="384" font-family="Symbol"><tspan y="0" x="0">&#x2212;</tspan></text>
<text xml:space="preserve" transform="matrix(.03125 0 -0 .03125 150.75 124.2879)" font-size="224" font-family="TimesNewRomanPS" font-style="italic"><tspan y="0" x="0">t</tspan></text>
<text xml:space="preserve" transform="matrix(.03125 0 -0 .03125 130.9375 124.2879)" font-size="224" font-family="TimesNewRomanPS" font-style="italic"><tspan y="0" x="0">t</tspan></text>
<text xml:space="preserve" transform="matrix(.03125 0 -0 .03125 145.4688 121.2879)" font-size="384" font-family="TimesNewRomanPS" font-style="italic"><tspan y="0" x="0">e</tspan></text>
<text xml:space="preserve" transform="matrix(.03125 0 -0 .03125 125.6563 121.2879)" font-size="384" font-family="TimesNewRomanPS" font-style="italic"><tspan y="0" x="0">e</tspan></text>
</g>
<g id="Layer-1" data-name="P">
</g>
<clipPath id="cp1907">
<path transform="matrix(1,0,0,-1,0,842)" d="M 120.5 678.1242 L 133.5 678.1242 L 133.5 697.1242 L 120.5 697.1242 Z "/>
</clipPath>
<g clip-path="url(#cp1907)">
<text xml:space="preserve" transform="matrix(.03125 0 -0 .03125 128.2813 152.5008)" font-size="224" font-family="TimesNewRomanPSMT"><tspan y="0" x="0">2</tspan></text>
<text xml:space="preserve" transform="matrix(.03125 0 -0 .03125 127.4063 160.8758)" font-size="224" font-family="TimesNewRomanPS" font-style="italic"><tspan y="0" x="0">t</tspan></text>
<text xml:space="preserve" transform="matrix(.03125 0 -0 .03125 122.125 157.8758)" font-size="384" font-family="TimesNewRomanPS" font-style="italic"><tspan y="0" x="0">e</tspan></text>
</g>
</g>
</g>
</svg>
