<?xml version="1.0" encoding="UTF-8" standalone="no"?>
<!DOCTYPE svg PUBLIC "-//W3C//DTD SVG 1.1//EN" "http://www.w3.org/Graphics/SVG/1.1/DTD/svg11.dtd">
<svg xmlns="http://www.w3.org/2000/svg" xmlns:xlink="http://www.w3.org/1999/xlink" version="1.1" width="595pt" height="842pt" viewBox="0 0 595 842">
<g enable-background="new">
<clipPath id="cp98">
<path transform="matrix(1,0,0,-1,0,842)" d="M 0 0 L 595 0 L 595 842 L 0 842 Z "/>
</clipPath>
<g clip-path="url(#cp98)">
<path transform="matrix(1,0,0,-1,0,842)" d="M 0 842 L 595 842 L 595 0 L 0 0 Z " fill="#ffffff"/>
<g id="Layer-1" data-name="P">
</g>
<g id="Layer-1" data-name="P">
</g>
<clipPath id="cp99">
<path transform="matrix(1,0,0,-1,0,842)" d="M 88.45 760.05 L 510.45 760.05 L 510.45 787.05 L 88.45 787.05 Z "/>
</clipPath>
<g clip-path="url(#cp99)">
<path transform="matrix(1,0,0,-1,0,842)" d="M 236.7 785.05 L 317.5 785.05 L 317.5 762.0598 L 236.7 762.0598 Z " fill="#ffc000"/>
<path transform="matrix(1,0,0,-1,0,842)" d="M 317.5 785.05 L 365.5 785.05 L 365.5 762.0598 L 317.5 762.0598 Z " fill="#ffc000"/>
<path transform="matrix(1,0,0,-1,0,842)" d="M 365.5 785.05 L 413.5 785.05 L 413.5 762.0598 L 365.5 762.0598 Z " fill="#ffc000"/>
<path transform="matrix(1,0,0,-1,0,842)" d="M 413.5 785.05 L 508.95 785.05 L 508.95 762.0598 L 413.5 762.0598 Z " fill="#92d050"/>
<g id="Layer-2" data-name="P">
<g id="Layer-3" data-name="P">
<g id="Layer-4" data-name="P">
<g id="Layer-5" data-name="P">
</g>
<clipPath id="cp100">
<path transform="matrix(1,0,0,-1,0,842)" d="M 90.7 762.3098 L 236.45 762.3098 L 236.45 784.80007 L 90.7 784.80007 Z "/>
</clipPath>
<g clip-path="url(#cp100)">
<text xml:space="preserve" transform="matrix(1 0 -0 1 146.5857 73.09448)" font-size="12" font-family="TimesNewRomanPSMT"><tspan y="0" x="0 7.7052 13.550401 21.1476 28.6608">&#x0421;&#x0443;&#x043c;&#x043c;&#x0430;</tspan></text>
</g>
</g>
<g id="Layer-4" data-name="P">
<g id="Layer-5" data-name="P">
</g>
<clipPath id="cp101">
<path transform="matrix(1,0,0,-1,0,842)" d="M 236.95 762.3098 L 317.25 762.3098 L 317.25 784.80007 L 236.95 784.80007 Z "/>
</clipPath>
<g clip-path="url(#cp101)">
<text xml:space="preserve" transform="matrix(1 0 -0 1 263.6 73.09448)" font-size="12" font-family="TimesNewRomanPSMT"><tspan y="0" x="0 6 12 15 21">28,56</tspan></text>
</g>
</g>
<g id="Layer-4" data-name="P">
<g id="Layer-5" data-name="P">
</g>
<clipPath id="cp102">
<path transform="matrix(1,0,0,-1,0,842)" d="M 317.75 762.3098 L 365.25 762.3098 L 365.25 784.80007 L 317.75 784.80007 Z "/>
</clipPath>
<g clip-path="url(#cp102)">
<text xml:space="preserve" transform="matrix(1 0 -0 1 328 73.09448)" font-size="12" font-family="TimesNewRomanPSMT"><tspan y="0" x="0 6 12 15 21">14,00</tspan></text>
</g>
</g>
<g id="Layer-4" data-name="P">
<g id="Layer-5" data-name="P">
</g>
<clipPath id="cp103">
<path transform="matrix(1,0,0,-1,0,842)" d="M 365.75 762.3098 L 413.25 762.3098 L 413.25 784.80007 L 365.75 784.80007 Z "/>
</clipPath>
<g clip-path="url(#cp103)">
<text xml:space="preserve" transform="matrix(1 0 -0 1 379 73.09448)" font-size="12" font-family="TimesNewRomanPSMT"><tspan y="0" x="0 6 9 15">2,04</tspan></text>
</g>
</g>
<g id="Layer-4" data-name="P">
<g id="Layer-5" data-name="P">
</g>
<clipPath id="cp104">
<path transform="matrix(1,0,0,-1,0,842)" d="M 413.75 762.3098 L 508.7 762.3098 L 508.7 784.80007 L 413.75 784.80007 Z "/>
</clipPath>
<g clip-path="url(#cp104)">
<text xml:space="preserve" transform="matrix(1 0 -0 1 417.75 73.09448)" font-size="12" font-family="TimesNewRomanPSMT"><tspan y="0" x="0 8.666401 14.056801 19.225203 25.225203 30.615603 35.941205 41.185205 46.441205 52.282804 57.608404">&#x041e;&#x0442;&#x0441;&#x0443;&#x0442;&#x0441;&#x0442;&#x0432;&#x0443;&#x0435;&#x0442;</tspan></text>
</g>
</g>
</g>
</g>
<clipPath id="cp105">
<path transform="matrix(1,0,0,-1,0,842)" d="M 88.45 760.05 L 510.45 760.05 L 510.45 787.05 L 88.45 787.05 Z "/>
</clipPath>
<g clip-path="url(#cp105)">
<path transform="matrix(1,0,0,1,88.45,54.950014)" stroke-width=".5" stroke-linecap="butt" stroke-miterlimit="4" stroke-linejoin="miter" fill="none" stroke="#7f7f7f" d="M 148.25 1.5 L 148.25 25.49023 "/>
<path transform="matrix(1,0,0,1,88.45,54.950014)" stroke-width=".5" stroke-linecap="butt" stroke-miterlimit="4" stroke-linejoin="miter" fill="none" stroke="#7f7f7f" d="M 229.05 1.5 L 229.05 25.49023 "/>
<path transform="matrix(1,0,0,1,88.45,54.950014)" stroke-width=".5" stroke-linecap="butt" stroke-miterlimit="4" stroke-linejoin="miter" fill="none" stroke="#7f7f7f" d="M 277.05 1.5 L 277.05 25.49023 "/>
<path transform="matrix(1,0,0,1,88.45,54.950014)" stroke-width=".5" stroke-linecap="butt" stroke-miterlimit="4" stroke-linejoin="miter" fill="none" stroke="#7f7f7f" d="M 325.05 1.5 L 325.05 25.49023 "/>
<path transform="matrix(1,0,0,1,88.45,54.950014)" stroke-width=".5" stroke-linecap="butt" stroke-miterlimit="4" stroke-linejoin="miter" fill="none" stroke="#7f7f7f" d="M 1.5 2 L 421 2 "/>
<path transform="matrix(1,0,0,1,88.45,54.950014)" stroke-width=".5" stroke-linecap="butt" stroke-miterlimit="4" stroke-linejoin="miter" fill="none" stroke="#7f7f7f" d="M 2 1.5 L 2 25.49023 "/>
<path transform="matrix(1,0,0,1,88.45,54.950014)" stroke-width=".5" stroke-linecap="butt" stroke-miterlimit="4" stroke-linejoin="miter" fill="none" stroke="#7f7f7f" d="M 420.5 1.5 L 420.5 25.49023 "/>
<path transform="matrix(1,0,0,1,88.45,54.950014)" stroke-width=".5" stroke-linecap="butt" stroke-miterlimit="4" stroke-linejoin="miter" fill="none" stroke="#7f7f7f" d="M 1.5 24.99023 L 421 24.99023 "/>
</g>
</g>
</g>
</g>
</svg>
