<?xml version="1.0" encoding="UTF-8" standalone="no"?>
<!DOCTYPE svg PUBLIC "-//W3C//DTD SVG 1.1//EN" "http://www.w3.org/Graphics/SVG/1.1/DTD/svg11.dtd">
<svg xmlns="http://www.w3.org/2000/svg" xmlns:xlink="http://www.w3.org/1999/xlink" version="1.1" width="595pt" height="842pt" viewBox="0 0 595 842">
<g enable-background="new">
<clipPath id="cp17">
<path transform="matrix(1,0,0,-1,0,842)" d="M 0 0 L 595 0 L 595 842 L 0 842 Z "/>
</clipPath>
<g clip-path="url(#cp17)">
<path transform="matrix(1,0,0,-1,0,842)" d="M 0 842 L 595 842 L 595 0 L 0 0 Z " fill="#ffffff"/>
<g id="Layer-1" data-name="P">
</g>
<clipPath id="cp18">
<path transform="matrix(1,0,0,-1,0,842)" d="M 81.17403 56.3 L 556.37606 56.3 L 556.37606 789.17599 L 81.17403 789.17599 Z "/>
</clipPath>
<g clip-path="url(#cp18)">
<text xml:space="preserve" transform="matrix(1 0 -0 1 85.05 69.07703)" font-size="14" font-family="TimesNewRomanPSMT"><tspan y="0" x="0 6.2804005 12.6028 18.6032 25.6676 31.821999">&#x0430;&#x0432;&#x0442;&#x043e;&#x043a;&#x043e;</tspan></text>
<g id="Layer-2" data-name="Span">
<text xml:space="preserve" transform="matrix(1 0 -0 1 85.05 69.07703)" font-size="14" font-family="TimesNewRomanPSMT"><tspan y="0" x="38.9">&#x0440;</tspan></text>
</g>
<text xml:space="preserve" transform="matrix(1 0 -0 1 85.05 69.07703)" font-size="14" font-family="TimesNewRomanPSMT"><tspan y="0" x="45.96667 53.03387 59.31707 66.37027 72.87747 80.43467 87.99187">&#x0440;&#x0435;&#x043b;&#x044f;&#x0446;&#x0438;&#x044e;</tspan></text>
<text xml:space="preserve" transform="matrix(1 0 -0 1 85.05 69.07703)" font-size="14" font-family="TimesNewRomanPSMT"><tspan y="0" x="98.51707 102.08427">, </tspan></text>
<text xml:space="preserve" transform="matrix(1 0 -0 1 85.05 69.07703)" font-size="14" font-family="TimesNewRomanPSMT"><tspan y="0" x="106.42146 112.42466">&#x0442;&#x043e;</tspan></text>
<text xml:space="preserve" transform="matrix(1 0 -0 1 85.05 69.07703)" font-size="14" font-family="TimesNewRomanPSMT"><tspan y="0" x="119.49186"> </tspan></text>
<text xml:space="preserve" transform="matrix(1 0 -0 1 85.05 69.07703)" font-size="14" font-family="TimesNewRomanPSMT"><tspan y="0" x="123.829059">&#x0432;</tspan></text>
<text xml:space="preserve" transform="matrix(1 0 -0 1 85.05 69.07703)" font-size="14" font-family="TimesNewRomanPSMT"><tspan y="0" x="130.50426"> </tspan></text>
<text xml:space="preserve" transform="matrix(1 0 -0 1 85.05 69.07703)" font-size="14" font-family="TimesNewRomanPSMT"><tspan y="0" x="134.84146 142.39867 148.68187 155.74907 161.94828 169.01548">&#x043f;&#x0435;&#x0440;&#x0432;&#x0443;&#x044e;</tspan></text>
<text xml:space="preserve" transform="matrix(1 0 -0 1 85.05 69.07703)" font-size="14" font-family="TimesNewRomanPSMT"><tspan y="0" x="179.54068"> </tspan></text>
<text xml:space="preserve" transform="matrix(1 0 -0 1 85.05 69.07703)" font-size="14" font-family="TimesNewRomanPSMT"><tspan y="0" x="183.87789 190.58109 197.69029 203.9735 211.0407 217.14189 224.3351">&#x043e;&#x0447;&#x0435;&#x0440;&#x0435;&#x0434;&#x044c;</tspan></text>
<text xml:space="preserve" transform="matrix(1 0 -0 1 85.05 69.07703)" font-size="14" font-family="TimesNewRomanPSMT"><tspan y="0" x="230.7863"> </tspan></text>
<text xml:space="preserve" transform="matrix(1 0 -0 1 85.05 69.07703)" font-size="14" font-family="TimesNewRomanPSMT"><tspan y="0" x="235.1235 241.40671 248.45992 254.56111 261.7543 268.6395 274.9227">&#x0441;&#x043b;&#x0435;&#x0434;&#x0443;&#x0435;&#x0442;</tspan></text>
<text xml:space="preserve" transform="matrix(1 0 -0 1 85.05 69.07703)" font-size="14" font-family="TimesNewRomanPSMT"><tspan y="0" x="281.1079"> </tspan></text>
<text xml:space="preserve" transform="matrix(1 0 -0 1 85.05 69.07703)" font-size="14" font-family="TimesNewRomanPSMT"><tspan y="0" x="285.4451 292.1203 301.5955 309.15269 316.03788 323.09107 330.64826 338.20545 344.39067">&#x0432;&#x044b;&#x043f;&#x043e;&#x043b;&#x043d;&#x0438;&#x0442;&#x044c;</tspan></text>
<text xml:space="preserve" transform="matrix(1 0 -0 1 85.05 69.07703)" font-size="14" font-family="TimesNewRomanPSMT"><tspan y="0" x="350.84187"> </tspan></text>
<text xml:space="preserve" transform="matrix(1 0 -0 1 85.05 69.07703)" font-size="14" font-family="TimesNewRomanPSMT"><tspan y="0" x="355.17906 362.24626 369.43946 380.28666 387.84385">&#x043e;&#x0431;&#x0449;&#x0438;&#x0439;</tspan></text>
<text xml:space="preserve" transform="matrix(1 0 -0 1 85.05 69.07703)" font-size="14" font-family="TimesNewRomanPSMT"><tspan y="0" x="395.40104"> </tspan></text>
<text xml:space="preserve" transform="matrix(1 0 -0 1 85.05 69.07703)" font-size="14" font-family="TimesNewRomanPSMT"><tspan y="0" x="399.73823 408.8774 415.1606 421.8498 427.853 434.9202 441.9874 449.5446 459.01979">&#x0444;&#x0430;&#x043a;&#x0442;&#x043e;&#x0440;&#x043d;&#x044b;&#x0439;</tspan></text>
<text xml:space="preserve" transform="matrix(1 0 -0 1 85.05 69.07703)" font-size="14" font-family="TimesNewRomanPSMT"><tspan y="0" x="466.57698"> </tspan></text>
<text xml:space="preserve" transform="matrix(1 0 -0 1 85.05 85.07703)" font-size="14" font-family="TimesNewRomanPSMT"><tspan y="0" x="0 6.1851999 12.8184 19.1016">&#x0442;&#x0435;&#x0441;&#x0442;</tspan></text>
<text xml:space="preserve" transform="matrix(1 0 -0 1 85.05 85.07703)" font-size="14" font-family="TimesNewRomanPSMT"><tspan y="0" x="24.236802 27.804">, </tspan></text>
<text xml:space="preserve" transform="matrix(1 0 -0 1 85.05 85.07703)" font-size="14" font-family="TimesNewRomanPSMT"><tspan y="0" x="35.7952">&#x0438;</tspan></text>
<g id="Layer-2" data-name="Span">
<text xml:space="preserve" transform="matrix(1 0 -0 1 85.05 85.07703)" font-size="14" font-family="TimesNewRomanPSMT"><tspan y="0" x="43.34877">&#x0441;</tspan></text>
</g>
<text xml:space="preserve" transform="matrix(1 0 -0 1 85.05 85.07703)" font-size="14" font-family="TimesNewRomanPSMT"><tspan y="0" x="49.6293 57.1879 64.0745 71.129108 77.5817 82.88631 89.60491">&#x043f;&#x043e;&#x043b;&#x044c;&#x0437;&#x0443;&#x044f;</tspan></text>
<text xml:space="preserve" transform="matrix(1 0 -0 1 85.05 85.07703)" font-size="14" font-family="TimesNewRomanPSMT"><tspan y="0" x="96.11351"> </tspan></text>
<text xml:space="preserve" transform="matrix(1 0 -0 1 85.05 85.07703)" font-size="14" font-family="TimesNewRomanPSMT"><tspan y="0" x="104.10612 110.768718 117.053318">&#x043a;&#x0430;&#x043a;</tspan></text>
<text xml:space="preserve" transform="matrix(1 0 -0 1 85.05 85.07703)" font-size="14" font-family="TimesNewRomanPSMT"><tspan y="0" x="123.92592"> </tspan></text>
<text xml:space="preserve" transform="matrix(1 0 -0 1 85.05 85.07703)" font-size="14" font-family="TimesNewRomanPSMT"><tspan y="0" x="131.91852 139.47711 146.54572 152.83032 159.89893 167.09352 174.16213 180.44673 185.96134 193.02994 199.52454 205.80915 213.36774 220.92633">&#x043f;&#x0440;&#x0435;&#x043e;&#x0431;&#x0440;&#x0430;&#x0437;&#x043e;&#x0432;&#x0430;&#x043d;&#x0438;&#x0435;</tspan></text>
<text xml:space="preserve" transform="matrix(1 0 -0 1 85.05 85.07703)" font-size="14" font-family="TimesNewRomanPSMT"><tspan y="0" x="227.21094"> </tspan></text>
<text xml:space="preserve" transform="matrix(1 0 -0 1 85.05 85.07703)" font-size="14" font-family="TimesNewRomanPSMT"><tspan y="0" x="235.20354 242.76213">&#x043f;&#x043e;</tspan></text>
<text xml:space="preserve" transform="matrix(1 0 -0 1 85.05 85.07703)" font-size="14" font-family="TimesNewRomanPSMT"><tspan y="0" x="249.83074"> </tspan></text>
<text xml:space="preserve" transform="matrix(1 0 -0 1 85.05 85.07703)" font-size="14" font-family="TimesNewRomanPSMT"><tspan y="0" x="257.82334 266.75395 273.03855 279.04316 285.70576 292.90037">&#x043c;&#x0435;&#x0442;&#x043e;&#x0434;&#x0443;</tspan></text>
<text xml:space="preserve" transform="matrix(1 0 -0 1 85.05 85.07703)" font-size="14" font-family="TimesNewRomanPSMT"><tspan y="0" x="299.96897"> </tspan></text>
<text xml:space="preserve" transform="matrix(1 0 -0 1 85.05 85.07703)" font-size="14" font-family="TimesNewRomanPSMT"><tspan y="0" x="307.96159 316.66816 323.73677 330.60935 337.67796 343.96257 351.52116">&#x041a;&#x043e;&#x043a;&#x0440;&#x0430;&#x043d;&#x0430;</tspan></text>
<text xml:space="preserve" transform="matrix(1 0 -0 1 85.05 85.07703)" font-size="14" font-family="TimesNewRomanPSMT"><tspan y="0" x="357.80577">&#x2014;</tspan></text>
<text xml:space="preserve" transform="matrix(1 0 -0 1 85.05 85.07703)" font-size="14" font-family="TimesNewRomanPSMT"><tspan y="0" x="371.87437 382.05097 389.11958 395.78218 401.70277 407.88938 413.69798">&#x041e;&#x0440;&#x043a;&#x0430;&#x0442;&#x0433;&#x0430;</tspan></text>
<text xml:space="preserve" transform="matrix(1 0 -0 1 85.05 85.07703)" font-size="14" font-family="TimesNewRomanPSMT"><tspan y="0" x="419.98258 423.55119">, </tspan></text>
<text xml:space="preserve" transform="matrix(1 0 -0 1 85.05 85.07703)" font-size="14" font-family="TimesNewRomanPSMT"><tspan y="0" x="431.5438 437.8984 444.183">&#x0442;&#x0430;&#x043a;</tspan></text>
<text xml:space="preserve" transform="matrix(1 0 -0 1 85.05 85.07703)" font-size="14" font-family="TimesNewRomanPSMT"><tspan y="0" x="451.0556"> </tspan></text>
<text xml:space="preserve" transform="matrix(1 0 -0 1 85.05 85.07703)" font-size="14" font-family="TimesNewRomanPSMT"><tspan y="0" x="459.04823">&#x0438;</tspan></text>
<text xml:space="preserve" transform="matrix(1 0 -0 1 85.05 85.07703)" font-size="14" font-family="TimesNewRomanPSMT"><tspan y="0" x="466.6068"> </tspan></text>
<text xml:space="preserve" transform="matrix(1 0 -0 1 85.05 101.07703)" font-size="14" font-family="TimesNewRomanPSMT"><tspan y="0" x="0 6.5394 12.8688 19.982199 27.585598 33.914999 41.5184">&#x0432;&#x0430;&#x0440;&#x0438;&#x0430;&#x043d;&#x0442;</tspan></text>
<text xml:space="preserve" transform="matrix(1 0 -0 1 85.05 101.07703)" font-size="14" font-family="TimesNewRomanPSMT"><tspan y="0" x="47.707799"> </tspan></text>
<text xml:space="preserve" transform="matrix(1 0 -0 1 85.05 101.07703)" font-size="14" font-family="TimesNewRomanPSMT"><tspan y="0" x="58.293199 65.3506 71.848">&#x0431;&#x0435;&#x0437;</tspan></text>
<text xml:space="preserve" transform="matrix(1 0 -0 1 85.05 101.07703)" font-size="14" font-family="TimesNewRomanPSMT"><tspan y="0" x="77.4494"> </tspan></text>
<text xml:space="preserve" transform="matrix(1 0 -0 1 85.05 101.07703)" font-size="14" font-family="TimesNewRomanPSMT"><tspan y="0" x="88.0348">&#x043e;</tspan></text>
<g id="Layer-2" data-name="Span">
<text xml:space="preserve" transform="matrix(1 0 -0 1 85.05 101.07703)" font-size="14" font-family="TimesNewRomanPSMT"><tspan y="0" x="95.1526">&#x0433;</tspan></text>
</g>
<text xml:space="preserve" transform="matrix(1 0 -0 1 85.05 101.07703)" font-size="14" font-family="TimesNewRomanPSMT"><tspan y="0" x="101.0091 108.1239 114.454708 122.0595 129.6643 136.8211 143.1519 150.7567 158.3615">&#x0440;&#x0430;&#x043d;&#x0438;&#x0447;&#x0435;&#x043d;&#x0438;&#x0439;</tspan></text>
<text xml:space="preserve" transform="matrix(1 0 -0 1 85.05 101.07703)" font-size="14" font-family="TimesNewRomanPSMT"><tspan y="0" x="165.9663 169.5391">. </tspan></text>
<text xml:space="preserve" transform="matrix(1 0 -0 1 85.05 101.07703)" font-size="14" font-family="TimesNewRomanPSMT"><tspan y="0" x="180.1259 188.79471 195.1255 202.2263">&#x0415;&#x0441;&#x043b;&#x0438;</tspan></text>
<text xml:space="preserve" transform="matrix(1 0 -0 1 85.05 101.07703)" font-size="14" font-family="TimesNewRomanPSMT"><tspan y="0" x="209.7891"> </tspan></text>
<text xml:space="preserve" transform="matrix(1 0 -0 1 85.05 101.07703)" font-size="14" font-family="TimesNewRomanPSMT"><tspan y="0" x="220.3759 227.4907 233.3455 240.46031 246.7911 254.3959 262.0007 269.1575 275.4883 283.0931 290.6979">&#x043e;&#x0433;&#x0440;&#x0430;&#x043d;&#x0438;&#x0447;&#x0435;&#x043d;&#x0438;&#x0435;</tspan></text>
<text xml:space="preserve" transform="matrix(1 0 -0 1 85.05 101.07703)" font-size="14" font-family="TimesNewRomanPSMT"><tspan y="0" x="296.97273"> </tspan></text>
<text xml:space="preserve" transform="matrix(1 0 -0 1 85.05 101.07703)" font-size="14" font-family="TimesNewRomanPSMT"><tspan y="0" x="307.5595 315.1643">&#x043d;&#x0435;</tspan></text>
<text xml:space="preserve" transform="matrix(1 0 -0 1 85.05 101.07703)" font-size="14" font-family="TimesNewRomanPSMT"><tspan y="0" x="321.43913"> </tspan></text>
<text xml:space="preserve" transform="matrix(1 0 -0 1 85.05 101.07703)" font-size="14" font-family="TimesNewRomanPSMT"><tspan y="0" x="332.02595 338.95875 345.19154 352.11033 359.21113 366.32594 373.93074 380.48554 386.81636 393.21714 399.54795">&#x043e;&#x0442;&#x043a;&#x043b;&#x043e;&#x043d;&#x044f;&#x0435;&#x0442;&#x0441;&#x044f;</tspan></text>
<text xml:space="preserve" transform="matrix(1 0 -0 1 85.05 101.07703)" font-size="14" font-family="TimesNewRomanPSMT"><tspan y="0" x="406.10276 409.67558">, </tspan></text>
<text xml:space="preserve" transform="matrix(1 0 -0 1 85.05 101.07703)" font-size="14" font-family="TimesNewRomanPSMT"><tspan y="0" x="420.2624 426.5932 433.694 439.8428 447.08363 454.01643 460.34724">&#x0441;&#x043b;&#x0435;&#x0434;&#x0443;&#x0435;&#x0442;</tspan></text>
<text xml:space="preserve" transform="matrix(1 0 -0 1 85.05 101.07703)" font-size="14" font-family="TimesNewRomanPSMT"><tspan y="0" x="466.53804"> </tspan></text>
<text xml:space="preserve" transform="matrix(1 0 -0 1 85.05 117.07703)" font-size="14" font-family="TimesNewRomanPSMT"><tspan y="0" x="0 7.5586 14.627199 22.185799 29.380398 35.664999 42.733598 52.476198 60.034799 66.529399 72.45 78.6366 85.089199 91.373798">&#x043f;&#x0440;&#x0438;&#x0434;&#x0435;&#x0440;&#x0436;&#x0438;&#x0432;&#x0430;&#x0442;&#x044c;&#x0441;&#x044f;</tspan></text>
<text xml:space="preserve" transform="matrix(1 0 -0 1 85.05 117.07703)" font-size="14" font-family="TimesNewRomanPSMT"><tspan y="0" x="97.88239"> </tspan></text>
<text xml:space="preserve" transform="matrix(1 0 -0 1 85.05 117.07703)" font-size="14" font-family="TimesNewRomanPSMT"><tspan y="0" x="101.702999 108.77159 115.22419 120.52879 126.9814">&#x0440;&#x0435;&#x0437;&#x0443;&#x043b;</tspan></text>
<g id="Layer-2" data-name="Span">
<text xml:space="preserve" transform="matrix(1 0 -0 1 85.05 117.07703)" font-size="14" font-family="TimesNewRomanPSMT"><tspan y="0" x="133.9984">&#x044c;</tspan></text>
</g>
<text xml:space="preserve" transform="matrix(1 0 -0 1 85.05 117.07703)" font-size="14" font-family="TimesNewRomanPSMT"><tspan y="0" x="139.9167 146.2727 152.1947 158.5507">&#x0442;&#x0430;&#x0442;&#x0430;</tspan></text>
<text xml:space="preserve" transform="matrix(1 0 -0 1 85.05 117.07703)" font-size="14" font-family="TimesNewRomanPSMT"><tspan y="0" x="164.8367 168.40671">, </tspan></text>
<text xml:space="preserve" transform="matrix(1 0 -0 1 85.05 117.07703)" font-size="14" font-family="TimesNewRomanPSMT"><tspan y="0" x="172.22872 179.78871 186.67671 193.73271 200.80272 207.91472 214.20072 221.76071 229.32071 236.39072 241.85071">&#x043f;&#x043e;&#x043b;&#x0443;&#x0447;&#x0435;&#x043d;&#x043d;&#x043e;&#x0433;&#x043e;</tspan></text>
<text xml:space="preserve" transform="matrix(1 0 -0 1 85.05 117.07703)" font-size="14" font-family="TimesNewRomanPSMT"><tspan y="0" x="248.92072"> </tspan></text>
<text xml:space="preserve" transform="matrix(1 0 -0 1 85.05 117.07703)" font-size="14" font-family="TimesNewRomanPSMT"><tspan y="0" x="252.74272 260.30274">&#x043f;&#x043e;</tspan></text>
<text xml:space="preserve" transform="matrix(1 0 -0 1 85.05 117.07703)" font-size="14" font-family="TimesNewRomanPSMT"><tspan y="0" x="267.37275"> </tspan></text>
<text xml:space="preserve" transform="matrix(1 0 -0 1 85.05 117.07703)" font-size="14" font-family="TimesNewRomanPSMT"><tspan y="0" x="271.19477 280.12678 286.41279 292.41877 299.08277 306.27879">&#x043c;&#x0435;&#x0442;&#x043e;&#x0434;&#x0443;</tspan></text>
<text xml:space="preserve" transform="matrix(1 0 -0 1 85.05 117.07703)" font-size="14" font-family="TimesNewRomanPSMT"><tspan y="0" x="313.3488"> </tspan></text>
<text xml:space="preserve" transform="matrix(1 0 -0 1 85.05 117.07703)" font-size="14" font-family="TimesNewRomanPSMT"><tspan y="0" x="317.1708 325.87879 332.9488 339.82279 346.8928 353.1788 360.7388">&#x041a;&#x043e;&#x043a;&#x0440;&#x0430;&#x043d;&#x0430;</tspan></text>
<text xml:space="preserve" transform="matrix(1 0 -0 1 85.05 117.07703)" font-size="14" font-family="TimesNewRomanPSMT"><tspan y="0" x="367.0248">&#x2014;</tspan></text>
<text xml:space="preserve" transform="matrix(1 0 -0 1 85.05 117.07703)" font-size="14" font-family="TimesNewRomanPSMT"><tspan y="0" x="381.09483 391.27284 398.34284 404.99284 410.91484 417.1028 423.4588">&#x041e;&#x0440;&#x043a;&#x0430;&#x0442;&#x0442;&#x0430;</tspan></text>
<text xml:space="preserve" transform="matrix(1 0 -0 1 85.05 117.07703)" font-size="14" font-family="TimesNewRomanPSMT"><tspan y="0" x="429.7448 433.31483">. </tspan></text>
<text xml:space="preserve" transform="matrix(1 0 -0 1 85.05 117.07703)" font-size="14" font-family="TimesNewRomanPSMT"><tspan y="0" x="437.13685 445.76084 452.04685 459.10285">&#x0415;&#x0441;&#x043b;&#x0438;</tspan></text>
<text xml:space="preserve" transform="matrix(1 0 -0 1 85.05 117.07703)" font-size="14" font-family="TimesNewRomanPSMT"><tspan y="0" x="466.66285"> </tspan></text>
<text xml:space="preserve" transform="matrix(1 0 -0 1 85.05 133.07703)" font-size="14" font-family="TimesNewRomanPSMT"><tspan y="0" x="0 7.0672 14.624401">&#x043e;&#x043d;&#x043e;</tspan></text>
<text xml:space="preserve" transform="matrix(1 0 -0 1 85.05 133.07703)" font-size="14" font-family="TimesNewRomanPSMT"><tspan y="0" x="21.6916"> </tspan></text>
<text xml:space="preserve" transform="matrix(1 0 -0 1 85.05 133.07703)" font-size="14" font-family="TimesNewRomanPSMT"><tspan y="0" x="27.9608 34.846 41.0312 47.9024 54.9556 62.0228 69.58 76.087207 82.37041 88.7236 95.006809">&#x043e;&#x0442;&#x043a;&#x043b;&#x043e;&#x043d;&#x044f;&#x0435;&#x0442;&#x0441;&#x044f;</tspan></text>
<text xml:space="preserve" transform="matrix(1 0 -0 1 85.05 133.07703)" font-size="14" font-family="TimesNewRomanPSMT"><tspan y="0" x="101.51401 105.08121">, </tspan></text>
<text xml:space="preserve" transform="matrix(1 0 -0 1 85.05 133.07703)" font-size="14" font-family="TimesNewRomanPSMT"><tspan y="0" x="111.35041 117.63361 124.68681 130.78801 137.98122 144.86641 151.14962">&#x0441;&#x043b;&#x0435;&#x0434;&#x0443;&#x0435;&#x0442;</tspan></text>
<text xml:space="preserve" transform="matrix(1 0 -0 1 85.05 133.07703)" font-size="14" font-family="TimesNewRomanPSMT"><tspan y="0" x="157.33481"> </tspan></text>
<text xml:space="preserve" transform="matrix(1 0 -0 1 85.05 133.07703)" font-size="14" font-family="TimesNewRomanPSMT"><tspan y="0" x="163.604 169.8872 177.30442 183.58762 190.65482 196.75601 203.94922 210.83441 216.8376 223.5408 230.65001 238.20722 244.39241 250.84362 257.1268">&#x0441;&#x043e;&#x0441;&#x0440;&#x0435;&#x0434;&#x043e;&#x0442;&#x043e;&#x0447;&#x0438;&#x0442;&#x044c;&#x0441;&#x044f;</tspan></text>
<text xml:space="preserve" transform="matrix(1 0 -0 1 85.05 133.07703)" font-size="14" font-family="TimesNewRomanPSMT"><tspan y="0" x="263.634"> </tspan></text>
<text xml:space="preserve" transform="matrix(1 0 -0 1 85.05 133.07703)" font-size="14" font-family="TimesNewRomanPSMT"><tspan y="0" x="269.9032 277.4604">&#x043d;&#x0430;</tspan></text>
<text xml:space="preserve" transform="matrix(1 0 -0 1 85.05 133.07703)" font-size="14" font-family="TimesNewRomanPSMT"><tspan y="0" x="283.7436"> </tspan></text>
<text xml:space="preserve" transform="matrix(1 0 -0 1 85.05 133.07703)" font-size="14" font-family="TimesNewRomanPSMT"><tspan y="0" x="290.0128 296.50599 302.78919 309.85639 317.41358 323.69679 331.25398 337.43919">&#x0432;&#x0430;&#x0440;&#x0438;&#x0430;&#x043d;&#x0442;&#x0435;</tspan></text>
<text xml:space="preserve" transform="matrix(1 0 -0 1 85.05 133.07703)" font-size="14" font-family="TimesNewRomanPSMT"><tspan y="0" x="343.72239"> </tspan></text>
<text xml:space="preserve" transform="matrix(1 0 -0 1 85.05 133.07703)" font-size="14" font-family="TimesNewRomanPSMT"><tspan y="0" x="349.99159 357.00279 363.45399">&#x0431;&#x0435;&#x0437;</tspan></text>
<text xml:space="preserve" transform="matrix(1 0 -0 1 85.05 133.07703)" font-size="14" font-family="TimesNewRomanPSMT"><tspan y="0" x="369.05119"> </tspan></text>
<text xml:space="preserve" transform="matrix(1 0 -0 1 85.05 133.07703)" font-size="14" font-family="TimesNewRomanPSMT"><tspan y="0" x="375.32038 382.38758 388.19477 395.26197 401.54518 409.10237 416.65956 423.76875 430.05195 437.60914 445.16633">&#x043e;&#x0433;&#x0440;&#x0430;&#x043d;&#x0438;&#x0447;&#x0435;&#x043d;&#x0438;&#x0439;</tspan></text>
<text xml:space="preserve" transform="matrix(1 0 -0 1 85.05 133.07703)" font-size="14" font-family="TimesNewRomanPSMT"><tspan y="0" x="452.7235"> </tspan></text>
<text xml:space="preserve" transform="matrix(1 0 -0 1 85.05 133.07703)" font-size="14" font-family="TimesNewRomanPSMT"><tspan y="0" x="458.9927">&#x0438;</tspan></text>
<text xml:space="preserve" transform="matrix(1 0 -0 1 85.05 133.07703)" font-size="14" font-family="TimesNewRomanPSMT"><tspan y="0" x="466.5499"> </tspan></text>
<text xml:space="preserve" transform="matrix(1 0 -0 1 85.05 149.07703)" font-size="14" font-family="TimesNewRomanPSMT"><tspan y="0" x="0 7.6398 14.7896 22.429402 29.5792 36.729 44.0048 51.1546 57.7304 63.7322 70">&#x043f;&#x043e;&#x043f;&#x0440;&#x043e;&#x0431;&#x043e;&#x0432;&#x0430;&#x0442;&#x044c;</tspan></text>
<text xml:space="preserve" transform="matrix(1 0 -0 1 85.05 149.07703)" font-size="14" font-family="TimesNewRomanPSMT"><tspan y="0" x="76.4498"> </tspan></text>
<text xml:space="preserve" transform="matrix(1 0 -0 1 85.05 149.07703)" font-size="14" font-family="TimesNewRomanPSMT"><tspan y="0" x="87.0576 93.8154 101.4552 108.171 114.5368 120.804599">&#x0432;&#x043d;&#x0435;&#x0441;&#x0442;&#x0438;</tspan></text>
<text xml:space="preserve" transform="matrix(1 0 -0 1 85.05 149.07703)" font-size="14" font-family="TimesNewRomanPSMT"><tspan y="0" x="128.3604"> </tspan></text>
<text xml:space="preserve" transform="matrix(1 0 -0 1 85.05 149.07703)" font-size="14" font-family="TimesNewRomanPSMT"><tspan y="0" x="138.9682 146.608 153.7578 160.5156 170.0734">&#x043d;&#x043e;&#x0432;&#x044b;&#x0435;</tspan></text>
<text xml:space="preserve" transform="matrix(1 0 -0 1 85.05 149.07703)" font-size="14" font-family="TimesNewRomanPSMT"><tspan y="0" x="176.3552"> </tspan></text>
<text xml:space="preserve" transform="matrix(1 0 -0 1 85.05 149.07703)" font-size="14" font-family="TimesNewRomanPSMT"><tspan y="0" x="186.96298 194.11278">&#x0443;&#x0441;</tspan></text>
<g id="Layer-2" data-name="Span">
<text xml:space="preserve" transform="matrix(1 0 -0 1 85.05 149.07703)" font-size="14" font-family="TimesNewRomanPSMT"><tspan y="0" x="200.4409">&#x043e;</tspan></text>
</g>
<text xml:space="preserve" transform="matrix(1 0 -0 1 85.05 149.07703)" font-size="14" font-family="TimesNewRomanPSMT"><tspan y="0" x="207.5888 214.26541 220.63402 227.78662 238.71923 245.08783 252.73043 259.09904 265.36967 272.03227 279.18489 285.7635 292.1321 299.77473 307.41734">&#x0432;&#x0435;&#x0440;&#x0448;&#x0435;&#x043d;&#x0441;&#x0442;&#x0432;&#x043e;&#x0432;&#x0430;&#x043d;&#x0438;&#x044f;</tspan></text>
<text xml:space="preserve" transform="matrix(1 0 -0 1 85.05 149.07703)" font-size="14" font-family="TimesNewRomanPSMT"><tspan y="0" x="314.00996 317.57856">. </tspan></text>
<text xml:space="preserve" transform="matrix(1 0 -0 1 85.05 149.07703)" font-size="14" font-family="TimesNewRomanPSMT"><tspan y="0" x="328.18916 338.44978 344.62239 352.26499 359.4176 367.0602 376.07484 382.44346">&#x041d;&#x0430;&#x043f;&#x0440;&#x0438;&#x043c;&#x0435;&#x0440;</tspan></text>
<text xml:space="preserve" transform="matrix(1 0 -0 1 85.05 149.07703)" font-size="14" font-family="TimesNewRomanPSMT"><tspan y="0" x="389.59608 393.16468">, </tspan></text>
<text xml:space="preserve" transform="matrix(1 0 -0 1 85.05 149.07703)" font-size="14" font-family="TimesNewRomanPSMT"><tspan y="0" x="403.77528 411.41789">&#x043d;&#x0435;</tspan></text>
<text xml:space="preserve" transform="matrix(1 0 -0 1 85.05 149.07703)" font-size="14" font-family="TimesNewRomanPSMT"><tspan y="0" x="417.70249"> </tspan></text>
<text xml:space="preserve" transform="matrix(1 0 -0 1 85.05 149.07703)" font-size="14" font-family="TimesNewRomanPSMT"><tspan y="0" x="428.31309 434.9897 441.5263 447.89494 453.08753 460.36616">&#x0432;&#x0441;&#x0435;&#x0433;&#x0434;&#x0430;</tspan></text>
<text xml:space="preserve" transform="matrix(1 0 -0 1 85.05 149.07703)" font-size="14" font-family="TimesNewRomanPSMT"><tspan y="0" x="466.65077"> </tspan></text>
<text xml:space="preserve" transform="matrix(1 0 -0 1 85.05 165.07703)" font-size="14" font-family="TimesNewRomanPSMT"><tspan y="0" x="0 7.5586 13.843201 20.9118 27.5744 34.110998 40.773599 47.968198 55.5268 64.4574">&#x043d;&#x0435;&#x043e;&#x0431;&#x0445;&#x043e;&#x0434;&#x0438;&#x043c;&#x043e;</tspan></text>
<text xml:space="preserve" transform="matrix(1 0 -0 1 85.05 165.07703)" font-size="14" font-family="TimesNewRomanPSMT"><tspan y="0" x="71.526"> </tspan></text>
<text xml:space="preserve" transform="matrix(1 0 -0 1 85.05 165.07703)" font-size="14" font-family="TimesNewRomanPSMT"><tspan y="0" x="75.094608 81.3792 88.0978 95.1664 102.235 108.5196 116.0782 122.5868 128.7734">&#x0441;&#x043e;&#x0445;&#x0440;&#x0430;&#x043d;&#x044f;&#x0442;&#x044c;</tspan></text>
<text xml:space="preserve" transform="matrix(1 0 -0 1 85.05 165.07703)" font-size="14" font-family="TimesNewRomanPSMT"><tspan y="0" x="135.22602"> </tspan></text>
<text xml:space="preserve" transform="matrix(1 0 -0 1 85.05 165.07703)" font-size="14" font-family="TimesNewRomanPSMT"><tspan y="0" x="138.79462 145.38722 151.83983">&#x0432;&#x0441;&#x0435;</tspan></text>
<text xml:space="preserve" transform="matrix(1 0 -0 1 85.05 165.07703)" font-size="14" font-family="TimesNewRomanPSMT"><tspan y="0" x="158.12444"> </tspan></text>
<text xml:space="preserve" transform="matrix(1 0 -0 1 85.05 165.07703)" font-size="14" font-family="TimesNewRomanPSMT"><tspan y="0" x="161.69304 168.74764 175.03224 180.49083 187.55944 194.23604 203.71265">&#x043b;&#x0430;&#x0433;&#x043e;&#x0432;&#x044b;&#x0435;</tspan></text>
<text xml:space="preserve" transform="matrix(1 0 -0 1 85.05 165.07703)" font-size="14" font-family="TimesNewRomanPSMT"><tspan y="0" x="209.99726"> </tspan></text>
<text xml:space="preserve" transform="matrix(1 0 -0 1 85.05 165.07703)" font-size="14" font-family="TimesNewRomanPSMT"><tspan y="0" x="213.56586">&#x043f;</tspan></text>
<g id="Layer-2" data-name="Span">
<text xml:space="preserve" transform="matrix(1 0 -0 1 85.05 165.07703)" font-size="14" font-family="TimesNewRomanPSMT"><tspan y="0" x="221.0577">&#x0435;</tspan></text>
</g>
<text xml:space="preserve" transform="matrix(1 0 -0 1 85.05 165.07703)" font-size="14" font-family="TimesNewRomanPSMT"><tspan y="0" x="227.3382 234.4054 240.6886 249.6178 255.901 263.4582 271.01539 280.49058">&#x0440;&#x0435;&#x043c;&#x0435;&#x043d;&#x043d;&#x044b;&#x0435;</tspan></text>
<text xml:space="preserve" transform="matrix(1 0 -0 1 85.05 165.07703)" font-size="14" font-family="TimesNewRomanPSMT"><tspan y="0" x="286.77378">.</tspan></text>
</g>
</g>
</g>
</svg>
