<?xml version="1.0" encoding="UTF-8" standalone="no"?>
<!DOCTYPE svg PUBLIC "-//W3C//DTD SVG 1.1//EN" "http://www.w3.org/Graphics/SVG/1.1/DTD/svg11.dtd">
<svg xmlns="http://www.w3.org/2000/svg" xmlns:xlink="http://www.w3.org/1999/xlink" version="1.1" width="595pt" height="842pt" viewBox="0 0 595 842">
<g enable-background="new">
<clipPath id="cp1869">
<path transform="matrix(1,0,0,-1,0,842)" d="M 0 0 L 595 0 L 595 842 L 0 842 Z "/>
</clipPath>
<g clip-path="url(#cp1869)">
<path transform="matrix(1,0,0,-1,0,842)" d="M 0 842 L 595 842 L 595 0 L 0 0 Z " fill="#ffffff"/>
<g id="Layer-1" data-name="P">
</g>
<g id="Layer-1" data-name="P">
</g>
<clipPath id="cp1870">
<path transform="matrix(1,0,0,-1,0,842)" d="M 87.95 562.8 L 394.95 562.8 L 394.95 786.8 L 87.95 786.8 Z "/>
</clipPath>
<g clip-path="url(#cp1870)">
<path transform="matrix(1,0,0,-1,0,842)" d="M 89.95 784.8 L 137.95 784.8 L 137.95 760.3947 L 89.95 760.3947 Z " fill="#ffffff"/>
<path transform="matrix(1,0,0,-1,0,842)" d="M 137.95 784.8 L 185.95 784.8 L 185.95 760.3947 L 137.95 760.3947 Z " fill="#ffffff"/>
<path transform="matrix(1,0,0,-1,0,842)" d="M 185.95 784.8 L 213.95 784.8 L 213.95 760.3947 L 185.95 760.3947 Z " fill="#ffffff"/>
<path transform="matrix(1,0,0,-1,0,842)" d="M 261.95 784.8 L 309.95 784.8 L 309.95 760.3947 L 261.95 760.3947 Z " fill="#ffffff"/>
<path transform="matrix(1,0,0,-1,0,842)" d="M 309.95 784.8 L 357.95 784.8 L 357.95 760.3947 L 309.95 760.3947 Z " fill="#ffffff"/>
<path transform="matrix(1,0,0,-1,0,842)" d="M 357.95 784.8 L 392.95 784.8 L 392.95 760.3947 L 357.95 760.3947 Z " fill="#ffffff"/>
<path transform="matrix(1,0,0,-1,0,842)" d="M 89.95 760.3947 L 137.95 760.3947 L 137.95 735.9895 L 89.95 735.9895 Z " fill="#ffffff"/>
<path transform="matrix(1,0,0,-1,0,842)" d="M 137.95 760.3947 L 185.95 760.3947 L 185.95 735.9895 L 137.95 735.9895 Z " fill="#ffffff"/>
<path transform="matrix(1,0,0,-1,0,842)" d="M 185.95 760.3947 L 213.95 760.3947 L 213.95 735.9895 L 185.95 735.9895 Z " fill="#ffffff"/>
<path transform="matrix(1,0,0,-1,0,842)" d="M 261.95 760.3947 L 309.95 760.3947 L 309.95 735.9895 L 261.95 735.9895 Z " fill="#ffffff"/>
<path transform="matrix(1,0,0,-1,0,842)" d="M 309.95 760.3947 L 357.95 760.3947 L 357.95 735.9895 L 309.95 735.9895 Z " fill="#ffffff"/>
<path transform="matrix(1,0,0,-1,0,842)" d="M 357.95 760.3947 L 392.95 760.3947 L 392.95 735.9895 L 357.95 735.9895 Z " fill="#ffffff"/>
<path transform="matrix(1,0,0,-1,0,842)" d="M 89.95 735.9895 L 137.95 735.9895 L 137.95 711.5842 L 89.95 711.5842 Z " fill="#ffffff"/>
<path transform="matrix(1,0,0,-1,0,842)" d="M 137.95 735.9895 L 185.95 735.9895 L 185.95 711.5842 L 137.95 711.5842 Z " fill="#ffffff"/>
<path transform="matrix(1,0,0,-1,0,842)" d="M 185.95 735.9895 L 213.95 735.9895 L 213.95 711.5842 L 185.95 711.5842 Z " fill="#ffffff"/>
<path transform="matrix(1,0,0,-1,0,842)" d="M 261.95 735.9895 L 309.95 735.9895 L 309.95 711.5842 L 261.95 711.5842 Z " fill="#ffffff"/>
<path transform="matrix(1,0,0,-1,0,842)" d="M 309.95 735.9895 L 357.95 735.9895 L 357.95 711.5842 L 309.95 711.5842 Z " fill="#ffffff"/>
<path transform="matrix(1,0,0,-1,0,842)" d="M 357.95 735.9895 L 392.95 735.9895 L 392.95 711.5842 L 357.95 711.5842 Z " fill="#ffffff"/>
<path transform="matrix(1,0,0,-1,0,842)" d="M 89.95 711.5842 L 137.95 711.5842 L 137.95 687.1789 L 89.95 687.1789 Z " fill="#ffffff"/>
<path transform="matrix(1,0,0,-1,0,842)" d="M 137.95 711.5842 L 185.95 711.5842 L 185.95 687.1789 L 137.95 687.1789 Z " fill="#ffffff"/>
<path transform="matrix(1,0,0,-1,0,842)" d="M 185.95 711.5842 L 213.95 711.5842 L 213.95 687.1789 L 185.95 687.1789 Z " fill="#ffffff"/>
<path transform="matrix(1,0,0,-1,0,842)" d="M 261.95 711.5842 L 309.95 711.5842 L 309.95 687.1789 L 261.95 687.1789 Z " fill="#ffffff"/>
<path transform="matrix(1,0,0,-1,0,842)" d="M 309.95 711.5842 L 357.95 711.5842 L 357.95 687.1789 L 309.95 687.1789 Z " fill="#ffffff"/>
<path transform="matrix(1,0,0,-1,0,842)" d="M 357.95 711.5842 L 392.95 711.5842 L 392.95 687.1789 L 357.95 687.1789 Z " fill="#ffffff"/>
<path transform="matrix(1,0,0,-1,0,842)" d="M 89.95 687.1789 L 137.95 687.1789 L 137.95 662.7736 L 89.95 662.7736 Z " fill="#ffffff"/>
<path transform="matrix(1,0,0,-1,0,842)" d="M 137.95 687.1789 L 185.95 687.1789 L 185.95 662.7736 L 137.95 662.7736 Z " fill="#ffffff"/>
<path transform="matrix(1,0,0,-1,0,842)" d="M 185.95 687.1789 L 213.95 687.1789 L 213.95 662.7736 L 185.95 662.7736 Z " fill="#ffffff"/>
<path transform="matrix(1,0,0,-1,0,842)" d="M 261.95 687.1789 L 309.95 687.1789 L 309.95 662.7736 L 261.95 662.7736 Z " fill="#ffffff"/>
<path transform="matrix(1,0,0,-1,0,842)" d="M 309.95 687.1789 L 357.95 687.1789 L 357.95 662.7736 L 309.95 662.7736 Z " fill="#ffffff"/>
<path transform="matrix(1,0,0,-1,0,842)" d="M 357.95 687.1789 L 392.95 687.1789 L 392.95 662.7736 L 357.95 662.7736 Z " fill="#ffffff"/>
<path transform="matrix(1,0,0,-1,0,842)" d="M 89.95 662.7736 L 137.95 662.7736 L 137.95 638.3684 L 89.95 638.3684 Z " fill="#ffffff"/>
<path transform="matrix(1,0,0,-1,0,842)" d="M 137.95 662.7736 L 185.95 662.7736 L 185.95 638.3684 L 137.95 638.3684 Z " fill="#ffffff"/>
<path transform="matrix(1,0,0,-1,0,842)" d="M 185.95 662.7736 L 213.95 662.7736 L 213.95 638.3684 L 185.95 638.3684 Z " fill="#ffffff"/>
<path transform="matrix(1,0,0,-1,0,842)" d="M 261.95 662.7736 L 309.95 662.7736 L 309.95 638.3684 L 261.95 638.3684 Z " fill="#ffffff"/>
<path transform="matrix(1,0,0,-1,0,842)" d="M 309.95 662.7736 L 357.95 662.7736 L 357.95 638.3684 L 309.95 638.3684 Z " fill="#ffffff"/>
<path transform="matrix(1,0,0,-1,0,842)" d="M 357.95 662.7736 L 392.95 662.7736 L 392.95 638.3684 L 357.95 638.3684 Z " fill="#ffffff"/>
<path transform="matrix(1,0,0,-1,0,842)" d="M 89.95 638.3684 L 137.95 638.3684 L 137.95 613.9631 L 89.95 613.9631 Z " fill="#ffffff"/>
<path transform="matrix(1,0,0,-1,0,842)" d="M 137.95 638.3684 L 185.95 638.3684 L 185.95 613.9631 L 137.95 613.9631 Z " fill="#ffffff"/>
<path transform="matrix(1,0,0,-1,0,842)" d="M 185.95 638.3684 L 213.95 638.3684 L 213.95 613.9631 L 185.95 613.9631 Z " fill="#ffffff"/>
<path transform="matrix(1,0,0,-1,0,842)" d="M 261.95 638.3684 L 309.95 638.3684 L 309.95 613.9631 L 261.95 613.9631 Z " fill="#ffffff"/>
<path transform="matrix(1,0,0,-1,0,842)" d="M 309.95 638.3684 L 357.95 638.3684 L 357.95 613.9631 L 309.95 613.9631 Z " fill="#ffffff"/>
<path transform="matrix(1,0,0,-1,0,842)" d="M 357.95 638.3684 L 392.95 638.3684 L 392.95 613.9631 L 357.95 613.9631 Z " fill="#ffffff"/>
<path transform="matrix(1,0,0,-1,0,842)" d="M 89.95 613.9631 L 137.95 613.9631 L 137.95 589.5578 L 89.95 589.5578 Z " fill="#ffffff"/>
<path transform="matrix(1,0,0,-1,0,842)" d="M 137.95 613.9631 L 185.95 613.9631 L 185.95 589.5578 L 137.95 589.5578 Z " fill="#ffffff"/>
<path transform="matrix(1,0,0,-1,0,842)" d="M 185.95 613.9631 L 213.95 613.9631 L 213.95 589.5578 L 185.95 589.5578 Z " fill="#ffffff"/>
<path transform="matrix(1,0,0,-1,0,842)" d="M 261.95 613.9631 L 309.95 613.9631 L 309.95 589.5578 L 261.95 589.5578 Z " fill="#ffffff"/>
<path transform="matrix(1,0,0,-1,0,842)" d="M 309.95 613.9631 L 357.95 613.9631 L 357.95 589.5578 L 309.95 589.5578 Z " fill="#ffffff"/>
<path transform="matrix(1,0,0,-1,0,842)" d="M 357.95 613.9631 L 392.95 613.9631 L 392.95 589.5578 L 357.95 589.5578 Z " fill="#ffffff"/>
<path transform="matrix(1,0,0,-1,0,842)" d="M 89.95 589.5578 L 137.95 589.5578 L 137.95 565.1525 L 89.95 565.1525 Z " fill="#ffffff"/>
<path transform="matrix(1,0,0,-1,0,842)" d="M 137.95 589.5578 L 185.95 589.5578 L 185.95 565.1525 L 137.95 565.1525 Z " fill="#ffffff"/>
<path transform="matrix(1,0,0,-1,0,842)" d="M 185.95 589.5578 L 213.95 589.5578 L 213.95 565.1525 L 185.95 565.1525 Z " fill="#ffffff"/>
<path transform="matrix(1,0,0,-1,0,842)" d="M 261.95 589.5578 L 309.95 589.5578 L 309.95 565.1525 L 261.95 565.1525 Z " fill="#ffffff"/>
<path transform="matrix(1,0,0,-1,0,842)" d="M 309.95 589.5578 L 357.95 589.5578 L 357.95 565.1525 L 309.95 565.1525 Z " fill="#ffffff"/>
<path transform="matrix(1,0,0,-1,0,842)" d="M 357.95 589.5578 L 392.95 589.5578 L 392.95 565.1525 L 357.95 565.1525 Z " fill="#ffffff"/>
<g id="Layer-2" data-name="P">
<g id="Layer-3" data-name="P">
<g id="Layer-4" data-name="P">
<g id="Layer-5" data-name="P">
</g>
<clipPath id="cp1871">
<path transform="matrix(1,0,0,-1,0,842)" d="M 90.2 760.6447 L 137.7 760.6447 L 137.7 784.55 L 90.2 784.55 Z "/>
</clipPath>
<g clip-path="url(#cp1871)">
<text xml:space="preserve" transform="matrix(1 0 -0 1 110.45 73.82703)" font-size="14" font-family="TimesNewRomanPSMT"><tspan y="0" x="0">2</tspan></text>
</g>
</g>
<g id="Layer-4" data-name="P">
<g id="Layer-5" data-name="P">
</g>
<clipPath id="cp1872">
<path transform="matrix(1,0,0,-1,0,842)" d="M 138.2 760.6447 L 185.7 760.6447 L 185.7 784.55 L 138.2 784.55 Z "/>
</clipPath>
<g clip-path="url(#cp1872)">
<text xml:space="preserve" transform="matrix(1 0 -0 1 147.3689 73.82703)" font-size="14" font-family="TimesNewRomanPSMT"><tspan y="0" x="0 4.662 11.662001 15.162001 22.162">-0,84</tspan></text>
</g>
</g>
<g id="Layer-4" data-name="P">
<g id="Layer-5" data-name="P">
</g>
<clipPath id="cp1873">
<path transform="matrix(1,0,0,-1,0,842)" d="M 186.2 760.6447 L 213.7 760.6447 L 213.7 784.55 L 186.2 784.55 Z "/>
</clipPath>
<g clip-path="url(#cp1873)">
<text xml:space="preserve" transform="matrix(1 0 -0 1 199.95 73.82703)" font-size="14" font-family="TimesNewRomanPSMT"><tspan y="0" x="0"> </tspan></text>
</g>
</g>
<g id="Layer-4" data-name="P">
</g>
<clipPath id="cp1874">
<path transform="matrix(1,0,0,-1,0,842)" d="M 87.95 562.8 L 394.95 562.8 L 394.95 786.8 L 87.95 786.8 Z "/>
</clipPath>
<g clip-path="url(#cp1874)">
<path transform="matrix(1,0,0,-1,0,842)" d="M 213.95 784.8 L 261.95 784.8 L 261.95 760.3947 L 213.95 760.3947 Z " fill="#73db8b" fill-opacity="0"/>
</g>
<g id="Layer-4" data-name="P">
<g id="Layer-5" data-name="P">
</g>
<clipPath id="cp1875">
<path transform="matrix(1,0,0,-1,0,842)" d="M 262.2 760.6447 L 309.7 760.6447 L 309.7 784.55 L 262.2 784.55 Z "/>
</clipPath>
<g clip-path="url(#cp1875)">
<text xml:space="preserve" transform="matrix(1 0 -0 1 282.45 73.82703)" font-size="14" font-family="TimesNewRomanPSMT"><tspan y="0" x="0">2</tspan></text>
</g>
</g>
<g id="Layer-4" data-name="P">
<g id="Layer-5" data-name="P">
</g>
<clipPath id="cp1876">
<path transform="matrix(1,0,0,-1,0,842)" d="M 310.2 760.6447 L 357.7 760.6447 L 357.7 784.55 L 310.2 784.55 Z "/>
</clipPath>
<g clip-path="url(#cp1876)">
<text xml:space="preserve" transform="matrix(1 0 -0 1 319.3689 73.82703)" font-size="14" font-family="TimesNewRomanPSMT"><tspan y="0" x="0 4.662 11.662001 15.162001 22.162">-0,84</tspan></text>
</g>
</g>
<g id="Layer-4" data-name="P">
<g id="Layer-5" data-name="P">
</g>
<clipPath id="cp1877">
<path transform="matrix(1,0,0,-1,0,842)" d="M 358.2 760.6447 L 392.7 760.6447 L 392.7 784.55 L 358.2 784.55 Z "/>
</clipPath>
<g clip-path="url(#cp1877)">
<text xml:space="preserve" transform="matrix(1 0 -0 1 375.45 73.82703)" font-size="14" font-family="TimesNewRomanPSMT"><tspan y="0" x="0"> </tspan></text>
</g>
</g>
</g>
<g id="Layer-3" data-name="P">
<g id="Layer-4" data-name="P">
<g id="Layer-5" data-name="P">
</g>
<clipPath id="cp1878">
<path transform="matrix(1,0,0,-1,0,842)" d="M 90.2 736.2395 L 137.7 736.2395 L 137.7 760.1448 L 90.2 760.1448 Z "/>
</clipPath>
<g clip-path="url(#cp1878)">
<text xml:space="preserve" transform="matrix(1 0 -0 1 110.45 98.23218)" font-size="14" font-family="TimesNewRomanPSMT"><tspan y="0" x="0">3</tspan></text>
</g>
</g>
<g id="Layer-4" data-name="P">
<g id="Layer-5" data-name="P">
</g>
<clipPath id="cp1879">
<path transform="matrix(1,0,0,-1,0,842)" d="M 138.2 736.2395 L 185.7 736.2395 L 185.7 760.1448 L 138.2 760.1448 Z "/>
</clipPath>
<g clip-path="url(#cp1879)">
<text xml:space="preserve" transform="matrix(1 0 -0 1 149.7 98.23218)" font-size="14" font-family="TimesNewRomanPSMT"><tspan y="0" x="0 7 10.5 17.5">0,41</tspan></text>
</g>
</g>
<g id="Layer-4" data-name="P">
<g id="Layer-5" data-name="P">
</g>
<clipPath id="cp1880">
<path transform="matrix(1,0,0,-1,0,842)" d="M 186.2 736.2395 L 213.7 736.2395 L 213.7 760.1448 L 186.2 760.1448 Z "/>
</clipPath>
<g clip-path="url(#cp1880)">
<text xml:space="preserve" transform="matrix(1 0 -0 1 199.95 98.23218)" font-size="14" font-family="TimesNewRomanPSMT"><tspan y="0" x="0"> </tspan></text>
</g>
</g>
<g id="Layer-4" data-name="P">
</g>
<clipPath id="cp1881">
<path transform="matrix(1,0,0,-1,0,842)" d="M 87.95 562.8 L 394.95 562.8 L 394.95 786.8 L 87.95 786.8 Z "/>
</clipPath>
<g clip-path="url(#cp1881)">
<path transform="matrix(1,0,0,-1,0,842)" d="M 213.95 760.3947 L 261.95 760.3947 L 261.95 735.9895 L 213.95 735.9895 Z " fill="#76dae8" fill-opacity="0"/>
</g>
<g id="Layer-4" data-name="P">
<g id="Layer-5" data-name="P">
</g>
<clipPath id="cp1882">
<path transform="matrix(1,0,0,-1,0,842)" d="M 262.2 736.2395 L 309.7 736.2395 L 309.7 760.1448 L 262.2 760.1448 Z "/>
</clipPath>
<g clip-path="url(#cp1882)">
<text xml:space="preserve" transform="matrix(1 0 -0 1 282.45 98.23218)" font-size="14" font-family="TimesNewRomanPSMT"><tspan y="0" x="0">3</tspan></text>
</g>
</g>
<g id="Layer-4" data-name="P">
<g id="Layer-5" data-name="P">
</g>
<clipPath id="cp1883">
<path transform="matrix(1,0,0,-1,0,842)" d="M 310.2 736.2395 L 357.7 736.2395 L 357.7 760.1448 L 310.2 760.1448 Z "/>
</clipPath>
<g clip-path="url(#cp1883)">
<text xml:space="preserve" transform="matrix(1 0 -0 1 319.3689 98.23218)" font-size="14" font-family="TimesNewRomanPSMT"><tspan y="0" x="0 4.662 11.662001 15.162001 22.162">-0,41</tspan></text>
</g>
</g>
<g id="Layer-4" data-name="P">
<g id="Layer-5" data-name="P">
</g>
<clipPath id="cp1884">
<path transform="matrix(1,0,0,-1,0,842)" d="M 358.2 736.2395 L 392.7 736.2395 L 392.7 760.1448 L 358.2 760.1448 Z "/>
</clipPath>
<g clip-path="url(#cp1884)">
<text xml:space="preserve" transform="matrix(1 0 -0 1 375.45 98.23218)" font-size="14" font-family="TimesNewRomanPSMT"><tspan y="0" x="0"> </tspan></text>
</g>
</g>
</g>
<g id="Layer-3" data-name="P">
<g id="Layer-4" data-name="P">
<g id="Layer-5" data-name="P">
</g>
<clipPath id="cp1885">
<path transform="matrix(1,0,0,-1,0,842)" d="M 90.2 711.8342 L 137.7 711.8342 L 137.7 735.7395 L 90.2 735.7395 Z "/>
</clipPath>
<g clip-path="url(#cp1885)">
<text xml:space="preserve" transform="matrix(1 0 -0 1 110.45 122.63751)" font-size="14" font-family="TimesNewRomanPSMT"><tspan y="0" x="0">4</tspan></text>
</g>
</g>
<g id="Layer-4" data-name="P">
<g id="Layer-5" data-name="P">
</g>
<clipPath id="cp1886">
<path transform="matrix(1,0,0,-1,0,842)" d="M 138.2 711.8342 L 185.7 711.8342 L 185.7 735.7395 L 138.2 735.7395 Z "/>
</clipPath>
<g clip-path="url(#cp1886)">
<text xml:space="preserve" transform="matrix(1 0 -0 1 147.3689 122.63751)" font-size="14" font-family="TimesNewRomanPSMT"><tspan y="0" x="0 4.662 11.662001 15.162001 22.162">-0,51</tspan></text>
</g>
</g>
<g id="Layer-4" data-name="P">
<g id="Layer-5" data-name="P">
</g>
<clipPath id="cp1887">
<path transform="matrix(1,0,0,-1,0,842)" d="M 186.2 711.8342 L 213.7 711.8342 L 213.7 735.7395 L 186.2 735.7395 Z "/>
</clipPath>
<g clip-path="url(#cp1887)">
<text xml:space="preserve" transform="matrix(1 0 -0 1 199.95 122.63751)" font-size="14" font-family="TimesNewRomanPSMT"><tspan y="0" x="0"> </tspan></text>
</g>
</g>
<g id="Layer-4" data-name="P">
</g>
<clipPath id="cp1888">
<path transform="matrix(1,0,0,-1,0,842)" d="M 87.95 562.8 L 394.95 562.8 L 394.95 786.8 L 87.95 786.8 Z "/>
</clipPath>
<g clip-path="url(#cp1888)">
<path transform="matrix(1,0,0,-1,0,842)" d="M 213.95 735.9895 L 261.95 735.9895 L 261.95 711.5842 L 213.95 711.5842 Z " fill="#63f42c" fill-opacity="0"/>
</g>
<g id="Layer-4" data-name="P">
<g id="Layer-5" data-name="P">
</g>
<clipPath id="cp1889">
<path transform="matrix(1,0,0,-1,0,842)" d="M 262.2 711.8342 L 309.7 711.8342 L 309.7 735.7395 L 262.2 735.7395 Z "/>
</clipPath>
<g clip-path="url(#cp1889)">
<text xml:space="preserve" transform="matrix(1 0 -0 1 282.45 122.63751)" font-size="14" font-family="TimesNewRomanPSMT"><tspan y="0" x="0">4</tspan></text>
</g>
</g>
<g id="Layer-4" data-name="P">
<g id="Layer-5" data-name="P">
</g>
<clipPath id="cp1890">
<path transform="matrix(1,0,0,-1,0,842)" d="M 310.2 711.8342 L 357.7 711.8342 L 357.7 735.7395 L 310.2 735.7395 Z "/>
</clipPath>
<g clip-path="url(#cp1890)">
<text xml:space="preserve" transform="matrix(1 0 -0 1 319.3689 122.63751)" font-size="14" font-family="TimesNewRomanPSMT"><tspan y="0" x="0 4.662 11.662001 15.162001 22.162">-0,51</tspan></text>
</g>
</g>
<g id="Layer-4" data-name="P">
<g id="Layer-5" data-name="P">
</g>
<clipPath id="cp1891">
<path transform="matrix(1,0,0,-1,0,842)" d="M 358.2 711.8342 L 392.7 711.8342 L 392.7 735.7395 L 358.2 735.7395 Z "/>
</clipPath>
<g clip-path="url(#cp1891)">
<text xml:space="preserve" transform="matrix(1 0 -0 1 375.45 122.63751)" font-size="14" font-family="TimesNewRomanPSMT"><tspan y="0" x="0"> </tspan></text>
</g>
</g>
</g>
<g id="Layer-3" data-name="P">
<g id="Layer-4" data-name="P">
<g id="Layer-5" data-name="P">
</g>
<clipPath id="cp1892">
<path transform="matrix(1,0,0,-1,0,842)" d="M 90.2 687.4289 L 137.7 687.4289 L 137.7 711.33419 L 90.2 711.33419 Z "/>
</clipPath>
<g clip-path="url(#cp1892)">
<text xml:space="preserve" transform="matrix(1 0 -0 1 110.45 147.04279)" font-size="14" font-family="TimesNewRomanPSMT"><tspan y="0" x="0">5</tspan></text>
</g>
</g>
<g id="Layer-4" data-name="P">
<g id="Layer-5" data-name="P">
</g>
<clipPath id="cp1893">
<path transform="matrix(1,0,0,-1,0,842)" d="M 138.2 687.4289 L 185.7 687.4289 L 185.7 711.33419 L 138.2 711.33419 Z "/>
</clipPath>
<g clip-path="url(#cp1893)">
<text xml:space="preserve" transform="matrix(1 0 -0 1 147.3689 147.04279)" font-size="14" font-family="TimesNewRomanPSMT"><tspan y="0" x="0 4.662 11.662001 15.162001 22.162">-2,32</tspan></text>
</g>
</g>
<g id="Layer-4" data-name="P">
<g id="Layer-5" data-name="P">
</g>
<clipPath id="cp1894">
<path transform="matrix(1,0,0,-1,0,842)" d="M 186.2 687.4289 L 213.7 687.4289 L 213.7 711.33419 L 186.2 711.33419 Z "/>
</clipPath>
<g clip-path="url(#cp1894)">
<text xml:space="preserve" transform="matrix(1 0 -0 1 199.95 147.04279)" font-size="14" font-family="TimesNewRomanPSMT"><tspan y="0" x="0"> </tspan></text>
</g>
</g>
<g id="Layer-4" data-name="P">
</g>
<clipPath id="cp1895">
<path transform="matrix(1,0,0,-1,0,842)" d="M 87.95 562.8 L 394.95 562.8 L 394.95 786.8 L 87.95 786.8 Z "/>
</clipPath>
<g clip-path="url(#cp1895)">
<path transform="matrix(1,0,0,-1,0,842)" d="M 213.95 711.5842 L 261.95 711.5842 L 261.95 687.1789 L 213.95 687.1789 Z " fill="#303f5c" fill-opacity="0"/>
</g>
<g id="Layer-4" data-name="P">
<g id="Layer-5" data-name="P">
</g>
<clipPath id="cp1896">
<path transform="matrix(1,0,0,-1,0,842)" d="M 262.2 687.4289 L 309.7 687.4289 L 309.7 711.33419 L 262.2 711.33419 Z "/>
</clipPath>
<g clip-path="url(#cp1896)">
<text xml:space="preserve" transform="matrix(1 0 -0 1 282.45 147.04279)" font-size="14" font-family="TimesNewRomanPSMT"><tspan y="0" x="0">5</tspan></text>
</g>
</g>
<g id="Layer-4" data-name="P">
<g id="Layer-5" data-name="P">
</g>
<clipPath id="cp1897">
<path transform="matrix(1,0,0,-1,0,842)" d="M 310.2 687.4289 L 357.7 687.4289 L 357.7 711.33419 L 310.2 711.33419 Z "/>
</clipPath>
<g clip-path="url(#cp1897)">
<text xml:space="preserve" transform="matrix(1 0 -0 1 319.3689 147.04279)" font-size="14" font-family="TimesNewRomanPSMT"><tspan y="0" x="0 4.662 11.662001 15.162001 22.162">-1,32</tspan></text>
</g>
</g>
<g id="Layer-4" data-name="P">
<g id="Layer-5" data-name="P">
</g>
<clipPath id="cp1898">
<path transform="matrix(1,0,0,-1,0,842)" d="M 358.2 687.4289 L 392.7 687.4289 L 392.7 711.33419 L 358.2 711.33419 Z "/>
</clipPath>
<g clip-path="url(#cp1898)">
<text xml:space="preserve" transform="matrix(1 0 -0 1 375.45 147.04279)" font-size="14" font-family="TimesNewRomanPSMT"><tspan y="0" x="0"> </tspan></text>
</g>
</g>
</g>
<g id="Layer-3" data-name="P">
<g id="Layer-4" data-name="P">
<g id="Layer-5" data-name="P">
</g>
<clipPath id="cp1899">
<path transform="matrix(1,0,0,-1,0,842)" d="M 90.2 663.0236 L 137.7 663.0236 L 137.7 686.9289 L 90.2 686.9289 Z "/>
</clipPath>
<g clip-path="url(#cp1899)">
<text xml:space="preserve" transform="matrix(1 0 -0 1 110.45 171.448)" font-size="14" font-family="TimesNewRomanPSMT"><tspan y="0" x="0">6</tspan></text>
</g>
</g>
<g id="Layer-4" data-name="P">
<g id="Layer-5" data-name="P">
</g>
<clipPath id="cp1900">
<path transform="matrix(1,0,0,-1,0,842)" d="M 138.2 663.0236 L 185.7 663.0236 L 185.7 686.9289 L 138.2 686.9289 Z "/>
</clipPath>
<g clip-path="url(#cp1900)">
<text xml:space="preserve" transform="matrix(1 0 -0 1 149.7 171.448)" font-size="14" font-family="TimesNewRomanPSMT"><tspan y="0" x="0 7 10.5 17.5">1,45</tspan></text>
</g>
</g>
<g id="Layer-4" data-name="P">
<g id="Layer-5" data-name="P">
</g>
<clipPath id="cp1901">
<path transform="matrix(1,0,0,-1,0,842)" d="M 186.2 663.0236 L 213.7 663.0236 L 213.7 686.9289 L 186.2 686.9289 Z "/>
</clipPath>
<g clip-path="url(#cp1901)">
<text xml:space="preserve" transform="matrix(1 0 -0 1 199.95 171.448)" font-size="14" font-family="TimesNewRomanPSMT"><tspan y="0" x="0"> </tspan></text>
</g>
</g>
<g id="Layer-4" data-name="P">
</g>
<clipPath id="cp1902">
<path transform="matrix(1,0,0,-1,0,842)" d="M 87.95 562.8 L 394.95 562.8 L 394.95 786.8 L 87.95 786.8 Z "/>
</clipPath>
<g clip-path="url(#cp1902)">
<path transform="matrix(1,0,0,-1,0,842)" d="M 213.95 687.1789 L 261.95 687.1789 L 261.95 662.7736 L 213.95 662.7736 Z " fill="#eaa05e" fill-opacity="0"/>
</g>
<g id="Layer-4" data-name="P">
<g id="Layer-5" data-name="P">
</g>
<clipPath id="cp1903">
<path transform="matrix(1,0,0,-1,0,842)" d="M 262.2 663.0236 L 309.7 663.0236 L 309.7 686.9289 L 262.2 686.9289 Z "/>
</clipPath>
<g clip-path="url(#cp1903)">
<text xml:space="preserve" transform="matrix(1 0 -0 1 282.45 171.448)" font-size="14" font-family="TimesNewRomanPSMT"><tspan y="0" x="0">6</tspan></text>
</g>
</g>
<g id="Layer-4" data-name="P">
<g id="Layer-5" data-name="P">
</g>
<clipPath id="cp1904">
<path transform="matrix(1,0,0,-1,0,842)" d="M 310.2 663.0236 L 357.7 663.0236 L 357.7 686.9289 L 310.2 686.9289 Z "/>
</clipPath>
<g clip-path="url(#cp1904)">
<text xml:space="preserve" transform="matrix(1 0 -0 1 321.7 171.448)" font-size="14" font-family="TimesNewRomanPSMT"><tspan y="0" x="0 7 10.5 17.5">1,45</tspan></text>
</g>
</g>
<g id="Layer-4" data-name="P">
<g id="Layer-5" data-name="P">
</g>
<clipPath id="cp1905">
<path transform="matrix(1,0,0,-1,0,842)" d="M 358.2 663.0236 L 392.7 663.0236 L 392.7 686.9289 L 358.2 686.9289 Z "/>
</clipPath>
<g clip-path="url(#cp1905)">
<text xml:space="preserve" transform="matrix(1 0 -0 1 375.45 171.448)" font-size="14" font-family="TimesNewRomanPSMT"><tspan y="0" x="0"> </tspan></text>
</g>
</g>
</g>
<g id="Layer-3" data-name="P">
<g id="Layer-4" data-name="P">
<g id="Layer-5" data-name="P">
</g>
<clipPath id="cp1906">
<path transform="matrix(1,0,0,-1,0,842)" d="M 90.2 638.6184 L 137.7 638.6184 L 137.7 662.5237 L 90.2 662.5237 Z "/>
</clipPath>
<g clip-path="url(#cp1906)">
<text xml:space="preserve" transform="matrix(1 0 -0 1 110.45 195.85327)" font-size="14" font-family="TimesNewRomanPSMT"><tspan y="0" x="0">7</tspan></text>
</g>
</g>
<g id="Layer-4" data-name="P">
<g id="Layer-5" data-name="P">
</g>
<clipPath id="cp1907">
<path transform="matrix(1,0,0,-1,0,842)" d="M 138.2 638.6184 L 185.7 638.6184 L 185.7 662.5237 L 138.2 662.5237 Z "/>
</clipPath>
<g clip-path="url(#cp1907)">
<text xml:space="preserve" transform="matrix(1 0 -0 1 149.7 195.85327)" font-size="14" font-family="TimesNewRomanPSMT"><tspan y="0" x="0 7 10.5 17.5">0,32</tspan></text>
</g>
</g>
<g id="Layer-4" data-name="P">
<g id="Layer-5" data-name="P">
</g>
<clipPath id="cp1908">
<path transform="matrix(1,0,0,-1,0,842)" d="M 186.2 638.6184 L 213.7 638.6184 L 213.7 662.5237 L 186.2 662.5237 Z "/>
</clipPath>
<g clip-path="url(#cp1908)">
<text xml:space="preserve" transform="matrix(1 0 -0 1 199.95 195.85327)" font-size="14" font-family="TimesNewRomanPSMT"><tspan y="0" x="0"> </tspan></text>
</g>
</g>
<g id="Layer-4" data-name="P">
</g>
<clipPath id="cp1909">
<path transform="matrix(1,0,0,-1,0,842)" d="M 87.95 562.8 L 394.95 562.8 L 394.95 786.8 L 87.95 786.8 Z "/>
</clipPath>
<g clip-path="url(#cp1909)">
<path transform="matrix(1,0,0,-1,0,842)" d="M 213.95 662.7736 L 261.95 662.7736 L 261.95 638.3684 L 213.95 638.3684 Z " fill="#9d8461" fill-opacity="0"/>
</g>
<g id="Layer-4" data-name="P">
<g id="Layer-5" data-name="P">
</g>
<clipPath id="cp1910">
<path transform="matrix(1,0,0,-1,0,842)" d="M 262.2 638.6184 L 309.7 638.6184 L 309.7 662.5237 L 262.2 662.5237 Z "/>
</clipPath>
<g clip-path="url(#cp1910)">
<text xml:space="preserve" transform="matrix(1 0 -0 1 282.45 195.85327)" font-size="14" font-family="TimesNewRomanPSMT"><tspan y="0" x="0">7</tspan></text>
</g>
</g>
<g id="Layer-4" data-name="P">
<g id="Layer-5" data-name="P">
</g>
<clipPath id="cp1911">
<path transform="matrix(1,0,0,-1,0,842)" d="M 310.2 638.6184 L 357.7 638.6184 L 357.7 662.5237 L 310.2 662.5237 Z "/>
</clipPath>
<g clip-path="url(#cp1911)">
<text xml:space="preserve" transform="matrix(1 0 -0 1 321.7 195.85327)" font-size="14" font-family="TimesNewRomanPSMT"><tspan y="0" x="0 7 10.5 17.5">1,32</tspan></text>
</g>
</g>
<g id="Layer-4" data-name="P">
<g id="Layer-5" data-name="P">
</g>
<clipPath id="cp1912">
<path transform="matrix(1,0,0,-1,0,842)" d="M 358.2 638.6184 L 392.7 638.6184 L 392.7 662.5237 L 358.2 662.5237 Z "/>
</clipPath>
<g clip-path="url(#cp1912)">
<text xml:space="preserve" transform="matrix(1 0 -0 1 375.45 195.85327)" font-size="14" font-family="TimesNewRomanPSMT"><tspan y="0" x="0"> </tspan></text>
</g>
</g>
</g>
<g id="Layer-3" data-name="P">
<g id="Layer-4" data-name="P">
<g id="Layer-5" data-name="P">
</g>
<clipPath id="cp1913">
<path transform="matrix(1,0,0,-1,0,842)" d="M 90.2 614.2131 L 137.7 614.2131 L 137.7 638.11837 L 90.2 638.11837 Z "/>
</clipPath>
<g clip-path="url(#cp1913)">
<text xml:space="preserve" transform="matrix(1 0 -0 1 110.45 220.2586)" font-size="14" font-family="TimesNewRomanPSMT"><tspan y="0" x="0">8</tspan></text>
</g>
</g>
<g id="Layer-4" data-name="P">
<g id="Layer-5" data-name="P">
</g>
<clipPath id="cp1914">
<path transform="matrix(1,0,0,-1,0,842)" d="M 138.2 614.2131 L 185.7 614.2131 L 185.7 638.11837 L 138.2 638.11837 Z "/>
</clipPath>
<g clip-path="url(#cp1914)">
<text xml:space="preserve" transform="matrix(1 0 -0 1 149.7 220.2586)" font-size="14" font-family="TimesNewRomanPSMT"><tspan y="0" x="0 7 10.5 17.5">0,85</tspan></text>
</g>
</g>
<g id="Layer-4" data-name="P">
<g id="Layer-5" data-name="P">
</g>
<clipPath id="cp1915">
<path transform="matrix(1,0,0,-1,0,842)" d="M 186.2 614.2131 L 213.7 614.2131 L 213.7 638.11837 L 186.2 638.11837 Z "/>
</clipPath>
<g clip-path="url(#cp1915)">
<text xml:space="preserve" transform="matrix(1 0 -0 1 199.95 220.2586)" font-size="14" font-family="TimesNewRomanPSMT"><tspan y="0" x="0"> </tspan></text>
</g>
</g>
<g id="Layer-4" data-name="P">
</g>
<clipPath id="cp1916">
<path transform="matrix(1,0,0,-1,0,842)" d="M 87.95 562.8 L 394.95 562.8 L 394.95 786.8 L 87.95 786.8 Z "/>
</clipPath>
<g clip-path="url(#cp1916)">
<path transform="matrix(1,0,0,-1,0,842)" d="M 213.95 638.3684 L 261.95 638.3684 L 261.95 613.9631 L 213.95 613.9631 Z " fill="#80b105" fill-opacity="0"/>
</g>
<g id="Layer-4" data-name="P">
<g id="Layer-5" data-name="P">
</g>
<clipPath id="cp1917">
<path transform="matrix(1,0,0,-1,0,842)" d="M 262.2 614.2131 L 309.7 614.2131 L 309.7 638.11837 L 262.2 638.11837 Z "/>
</clipPath>
<g clip-path="url(#cp1917)">
<text xml:space="preserve" transform="matrix(1 0 -0 1 282.45 220.2586)" font-size="14" font-family="TimesNewRomanPSMT"><tspan y="0" x="0">8</tspan></text>
</g>
</g>
<g id="Layer-4" data-name="P">
<g id="Layer-5" data-name="P">
</g>
<clipPath id="cp1918">
<path transform="matrix(1,0,0,-1,0,842)" d="M 310.2 614.2131 L 357.7 614.2131 L 357.7 638.11837 L 310.2 638.11837 Z "/>
</clipPath>
<g clip-path="url(#cp1918)">
<text xml:space="preserve" transform="matrix(1 0 -0 1 321.7 220.2586)" font-size="14" font-family="TimesNewRomanPSMT"><tspan y="0" x="0 7 10.5 17.5">0,85</tspan></text>
</g>
</g>
<g id="Layer-4" data-name="P">
<g id="Layer-5" data-name="P">
</g>
<clipPath id="cp1919">
<path transform="matrix(1,0,0,-1,0,842)" d="M 358.2 614.2131 L 392.7 614.2131 L 392.7 638.11837 L 358.2 638.11837 Z "/>
</clipPath>
<g clip-path="url(#cp1919)">
<text xml:space="preserve" transform="matrix(1 0 -0 1 375.45 220.2586)" font-size="14" font-family="TimesNewRomanPSMT"><tspan y="0" x="0"> </tspan></text>
</g>
</g>
</g>
<g id="Layer-3" data-name="P">
<g id="Layer-4" data-name="P">
<g id="Layer-5" data-name="P">
</g>
<clipPath id="cp1920">
<path transform="matrix(1,0,0,-1,0,842)" d="M 90.2 589.8078 L 137.7 589.8078 L 137.7 613.7131 L 90.2 613.7131 Z "/>
</clipPath>
<g clip-path="url(#cp1920)">
<text xml:space="preserve" transform="matrix(1 0 -0 1 110.45 244.66388)" font-size="14" font-family="TimesNewRomanPSMT"><tspan y="0" x="0">9</tspan></text>
</g>
</g>
<g id="Layer-4" data-name="P">
<g id="Layer-5" data-name="P">
</g>
<clipPath id="cp1921">
<path transform="matrix(1,0,0,-1,0,842)" d="M 138.2 589.8078 L 185.7 589.8078 L 185.7 613.7131 L 138.2 613.7131 Z "/>
</clipPath>
<g clip-path="url(#cp1921)">
<text xml:space="preserve" transform="matrix(1 0 -0 1 149.7 244.66388)" font-size="14" font-family="TimesNewRomanPSMT"><tspan y="0" x="0 7 10.5 17.5">1,64</tspan></text>
</g>
</g>
<g id="Layer-4" data-name="P">
<g id="Layer-5" data-name="P">
</g>
<clipPath id="cp1922">
<path transform="matrix(1,0,0,-1,0,842)" d="M 186.2 589.8078 L 213.7 589.8078 L 213.7 613.7131 L 186.2 613.7131 Z "/>
</clipPath>
<g clip-path="url(#cp1922)">
<text xml:space="preserve" transform="matrix(1 0 -0 1 199.95 244.66388)" font-size="14" font-family="TimesNewRomanPSMT"><tspan y="0" x="0"> </tspan></text>
</g>
</g>
<g id="Layer-4" data-name="P">
</g>
<clipPath id="cp1923">
<path transform="matrix(1,0,0,-1,0,842)" d="M 87.95 562.8 L 394.95 562.8 L 394.95 786.8 L 87.95 786.8 Z "/>
</clipPath>
<g clip-path="url(#cp1923)">
<path transform="matrix(1,0,0,-1,0,842)" d="M 213.95 613.9631 L 261.95 613.9631 L 261.95 589.5578 L 213.95 589.5578 Z " fill="#a69eb1" fill-opacity="0"/>
</g>
<g id="Layer-4" data-name="P">
<g id="Layer-5" data-name="P">
</g>
<clipPath id="cp1924">
<path transform="matrix(1,0,0,-1,0,842)" d="M 262.2 589.8078 L 309.7 589.8078 L 309.7 613.7131 L 262.2 613.7131 Z "/>
</clipPath>
<g clip-path="url(#cp1924)">
<text xml:space="preserve" transform="matrix(1 0 -0 1 282.45 244.66388)" font-size="14" font-family="TimesNewRomanPSMT"><tspan y="0" x="0">9</tspan></text>
</g>
</g>
<g id="Layer-4" data-name="P">
<g id="Layer-5" data-name="P">
</g>
<clipPath id="cp1925">
<path transform="matrix(1,0,0,-1,0,842)" d="M 310.2 589.8078 L 357.7 589.8078 L 357.7 613.7131 L 310.2 613.7131 Z "/>
</clipPath>
<g clip-path="url(#cp1925)">
<text xml:space="preserve" transform="matrix(1 0 -0 1 321.7 244.66388)" font-size="14" font-family="TimesNewRomanPSMT"><tspan y="0" x="0 7 10.5 17.5">0,64</tspan></text>
</g>
</g>
<g id="Layer-4" data-name="P">
<g id="Layer-5" data-name="P">
</g>
<clipPath id="cp1926">
<path transform="matrix(1,0,0,-1,0,842)" d="M 358.2 589.8078 L 392.7 589.8078 L 392.7 613.7131 L 358.2 613.7131 Z "/>
</clipPath>
<g clip-path="url(#cp1926)">
<text xml:space="preserve" transform="matrix(1 0 -0 1 375.45 244.66388)" font-size="14" font-family="TimesNewRomanPSMT"><tspan y="0" x="0"> </tspan></text>
</g>
</g>
</g>
<g id="Layer-3" data-name="P">
<g id="Layer-4" data-name="P">
<g id="Layer-5" data-name="P">
</g>
<clipPath id="cp1927">
<path transform="matrix(1,0,0,-1,0,842)" d="M 90.2 565.4025 L 137.7 565.4025 L 137.7 589.3078 L 90.2 589.3078 Z "/>
</clipPath>
<g clip-path="url(#cp1927)">
<text xml:space="preserve" transform="matrix(1 0 -0 1 106.95 269.0691)" font-size="14" font-family="TimesNewRomanPSMT"><tspan y="0" x="0 7">10</tspan></text>
</g>
</g>
<g id="Layer-4" data-name="P">
<g id="Layer-5" data-name="P">
</g>
<clipPath id="cp1928">
<path transform="matrix(1,0,0,-1,0,842)" d="M 138.2 565.4025 L 185.7 565.4025 L 185.7 589.3078 L 138.2 589.3078 Z "/>
</clipPath>
<g clip-path="url(#cp1928)">
<text xml:space="preserve" transform="matrix(1 0 -0 1 149.7 269.0691)" font-size="14" font-family="TimesNewRomanPSMT"><tspan y="0" x="0 7 10.5 17.5">1,35</tspan></text>
</g>
</g>
<g id="Layer-4" data-name="P">
<g id="Layer-5" data-name="P">
</g>
<clipPath id="cp1929">
<path transform="matrix(1,0,0,-1,0,842)" d="M 186.2 565.4025 L 213.7 565.4025 L 213.7 589.3078 L 186.2 589.3078 Z "/>
</clipPath>
<g clip-path="url(#cp1929)">
<text xml:space="preserve" transform="matrix(1 0 -0 1 199.95 269.0691)" font-size="14" font-family="TimesNewRomanPSMT"><tspan y="0" x="0"> </tspan></text>
</g>
</g>
<g id="Layer-4" data-name="P">
</g>
<clipPath id="cp1930">
<path transform="matrix(1,0,0,-1,0,842)" d="M 87.95 562.8 L 394.95 562.8 L 394.95 786.8 L 87.95 786.8 Z "/>
</clipPath>
<g clip-path="url(#cp1930)">
<path transform="matrix(1,0,0,-1,0,842)" d="M 213.95 589.5578 L 261.95 589.5578 L 261.95 565.1525 L 213.95 565.1525 Z " fill="#85e43e" fill-opacity="0"/>
</g>
<g id="Layer-4" data-name="P">
<g id="Layer-5" data-name="P">
</g>
<clipPath id="cp1931">
<path transform="matrix(1,0,0,-1,0,842)" d="M 262.2 565.4025 L 309.7 565.4025 L 309.7 589.3078 L 262.2 589.3078 Z "/>
</clipPath>
<g clip-path="url(#cp1931)">
<text xml:space="preserve" transform="matrix(1 0 -0 1 278.95 269.0691)" font-size="14" font-family="TimesNewRomanPSMT"><tspan y="0" x="0 7">10</tspan></text>
</g>
</g>
<g id="Layer-4" data-name="P">
<g id="Layer-5" data-name="P">
</g>
<clipPath id="cp1932">
<path transform="matrix(1,0,0,-1,0,842)" d="M 310.2 565.4025 L 357.7 565.4025 L 357.7 589.3078 L 310.2 589.3078 Z "/>
</clipPath>
<g clip-path="url(#cp1932)">
<text xml:space="preserve" transform="matrix(1 0 -0 1 321.7 269.0691)" font-size="14" font-family="TimesNewRomanPSMT"><tspan y="0" x="0 7 10.5 17.5">1,35</tspan></text>
</g>
</g>
<g id="Layer-4" data-name="P">
<g id="Layer-5" data-name="P">
</g>
<clipPath id="cp1933">
<path transform="matrix(1,0,0,-1,0,842)" d="M 358.2 565.4025 L 392.7 565.4025 L 392.7 589.3078 L 358.2 589.3078 Z "/>
</clipPath>
<g clip-path="url(#cp1933)">
<text xml:space="preserve" transform="matrix(1 0 -0 1 375.45 269.0691)" font-size="14" font-family="TimesNewRomanPSMT"><tspan y="0" x="0"> </tspan></text>
</g>
</g>
</g>
</g>
<clipPath id="cp1934">
<path transform="matrix(1,0,0,-1,0,842)" d="M 87.95 562.8 L 394.95 562.8 L 394.95 786.8 L 87.95 786.8 Z "/>
</clipPath>
<g clip-path="url(#cp1934)">
<path transform="matrix(1,0,0,1,87.95,55.200014)" stroke-width=".5" stroke-linecap="butt" stroke-miterlimit="4" stroke-linejoin="miter" fill="none" stroke="#7f7f7f" d="M 50 1.5 L 50 222.1475 "/>
<path transform="matrix(1,0,0,1,87.95,55.200014)" stroke-width=".5" stroke-linecap="butt" stroke-miterlimit="4" stroke-linejoin="miter" fill="none" stroke="#7f7f7f" d="M 98 1.5 L 98 222.1475 "/>
<path transform="matrix(1,0,0,1,87.95,55.200014)" stroke-width=".5" stroke-linecap="butt" stroke-miterlimit="4" stroke-linejoin="miter" fill="none" stroke="#7f7f7f" d="M 126 1.5 L 126 222.1475 "/>
<path transform="matrix(1,0,0,1,87.95,55.200014)" stroke-width=".5" stroke-linecap="butt" stroke-miterlimit="4" stroke-linejoin="miter" fill="none" stroke="#7f7f7f" d="M 174 1.5 L 174 222.1475 "/>
<path transform="matrix(1,0,0,1,87.95,55.200014)" stroke-width=".5" stroke-linecap="butt" stroke-miterlimit="4" stroke-linejoin="miter" fill="none" stroke="#7f7f7f" d="M 222 1.5 L 222 222.1475 "/>
<path transform="matrix(1,0,0,1,87.95,55.200014)" stroke-width=".5" stroke-linecap="butt" stroke-miterlimit="4" stroke-linejoin="miter" fill="none" stroke="#7f7f7f" d="M 270 1.5 L 270 222.1475 "/>
<path transform="matrix(1,0,0,1,87.95,55.200014)" stroke-width=".5" stroke-linecap="butt" stroke-miterlimit="4" stroke-linejoin="miter" fill="none" stroke="#7f7f7f" d="M 1.5 2 L 125.5 2 "/>
<path transform="matrix(1,0,0,1,87.95,55.200014)" stroke-width=".5" stroke-linecap="butt" stroke-miterlimit="4" stroke-linejoin="miter" fill="none" stroke="#7f7f7f" d="M 174.5 2 L 305.5 2 "/>
<path transform="matrix(1,0,0,1,87.95,55.200014)" stroke-width=".5" stroke-linecap="butt" stroke-miterlimit="4" stroke-linejoin="miter" fill="none" stroke="#7f7f7f" d="M 1.5 26.40527 L 125.5 26.40527 "/>
<path transform="matrix(1,0,0,1,87.95,55.200014)" stroke-width=".5" stroke-linecap="butt" stroke-miterlimit="4" stroke-linejoin="miter" fill="none" stroke="#7f7f7f" d="M 174.5 26.40527 L 305.5 26.40527 "/>
<path transform="matrix(1,0,0,1,87.95,55.200014)" stroke-width=".5" stroke-linecap="butt" stroke-miterlimit="4" stroke-linejoin="miter" fill="none" stroke="#7f7f7f" d="M 1.5 50.81055 L 125.5 50.81055 "/>
<path transform="matrix(1,0,0,1,87.95,55.200014)" stroke-width=".5" stroke-linecap="butt" stroke-miterlimit="4" stroke-linejoin="miter" fill="none" stroke="#7f7f7f" d="M 174.5 50.81055 L 305.5 50.81055 "/>
<path transform="matrix(1,0,0,1,87.95,55.200014)" stroke-width=".5" stroke-linecap="butt" stroke-miterlimit="4" stroke-linejoin="miter" fill="none" stroke="#7f7f7f" d="M 1.5 75.21582 L 125.5 75.21582 "/>
<path transform="matrix(1,0,0,1,87.95,55.200014)" stroke-width=".5" stroke-linecap="butt" stroke-miterlimit="4" stroke-linejoin="miter" fill="none" stroke="#7f7f7f" d="M 174.5 75.21582 L 305.5 75.21582 "/>
<path transform="matrix(1,0,0,1,87.95,55.200014)" stroke-width=".5" stroke-linecap="butt" stroke-miterlimit="4" stroke-linejoin="miter" fill="none" stroke="#7f7f7f" d="M 1.5 99.62109 L 125.5 99.62109 "/>
<path transform="matrix(1,0,0,1,87.95,55.200014)" stroke-width=".5" stroke-linecap="butt" stroke-miterlimit="4" stroke-linejoin="miter" fill="none" stroke="#7f7f7f" d="M 174.5 99.62109 L 305.5 99.62109 "/>
<path transform="matrix(1,0,0,1,87.95,55.200014)" stroke-width=".5" stroke-linecap="butt" stroke-miterlimit="4" stroke-linejoin="miter" fill="none" stroke="#7f7f7f" d="M 1.5 124.0264 L 125.5 124.0264 "/>
<path transform="matrix(1,0,0,1,87.95,55.200014)" stroke-width=".5" stroke-linecap="butt" stroke-miterlimit="4" stroke-linejoin="miter" fill="none" stroke="#7f7f7f" d="M 174.5 124.0264 L 305.5 124.0264 "/>
<path transform="matrix(1,0,0,1,87.95,55.200014)" stroke-width=".5" stroke-linecap="butt" stroke-miterlimit="4" stroke-linejoin="miter" fill="none" stroke="#7f7f7f" d="M 1.5 148.4316 L 125.5 148.4316 "/>
<path transform="matrix(1,0,0,1,87.95,55.200014)" stroke-width=".5" stroke-linecap="butt" stroke-miterlimit="4" stroke-linejoin="miter" fill="none" stroke="#7f7f7f" d="M 174.5 148.4316 L 305.5 148.4316 "/>
<path transform="matrix(1,0,0,1,87.95,55.200014)" stroke-width=".5" stroke-linecap="butt" stroke-miterlimit="4" stroke-linejoin="miter" fill="none" stroke="#7f7f7f" d="M 1.5 172.8369 L 125.5 172.8369 "/>
<path transform="matrix(1,0,0,1,87.95,55.200014)" stroke-width=".5" stroke-linecap="butt" stroke-miterlimit="4" stroke-linejoin="miter" fill="none" stroke="#7f7f7f" d="M 174.5 172.8369 L 305.5 172.8369 "/>
<path transform="matrix(1,0,0,1,87.95,55.200014)" stroke-width=".5" stroke-linecap="butt" stroke-miterlimit="4" stroke-linejoin="miter" fill="none" stroke="#7f7f7f" d="M 1.5 197.2422 L 125.5 197.2422 "/>
<path transform="matrix(1,0,0,1,87.95,55.200014)" stroke-width=".5" stroke-linecap="butt" stroke-miterlimit="4" stroke-linejoin="miter" fill="none" stroke="#7f7f7f" d="M 174.5 197.2422 L 305.5 197.2422 "/>
<path transform="matrix(1,0,0,1,87.95,55.200014)" stroke-width=".5" stroke-linecap="butt" stroke-miterlimit="4" stroke-linejoin="miter" fill="none" stroke="#7f7f7f" d="M 2 1.5 L 2 222.1475 "/>
<path transform="matrix(1,0,0,1,87.95,55.200014)" stroke-width=".5" stroke-linecap="butt" stroke-miterlimit="4" stroke-linejoin="miter" fill="none" stroke="#7f7f7f" d="M 305 1.5 L 305 222.1475 "/>
<path transform="matrix(1,0,0,1,87.95,55.200014)" stroke-width=".5" stroke-linecap="butt" stroke-miterlimit="4" stroke-linejoin="miter" fill="none" stroke="#7f7f7f" d="M 1.5 221.6475 L 125.5 221.6475 "/>
<path transform="matrix(1,0,0,1,87.95,55.200014)" stroke-width=".5" stroke-linecap="butt" stroke-miterlimit="4" stroke-linejoin="miter" fill="none" stroke="#7f7f7f" d="M 174.5 221.6475 L 305.5 221.6475 "/>
</g>
</g>
</g>
</g>
</svg>
