<?xml version="1.0" encoding="UTF-8" standalone="no"?>
<!DOCTYPE svg PUBLIC "-//W3C//DTD SVG 1.1//EN" "http://www.w3.org/Graphics/SVG/1.1/DTD/svg11.dtd">
<svg xmlns="http://www.w3.org/2000/svg" xmlns:xlink="http://www.w3.org/1999/xlink" version="1.1" width="595pt" height="842pt" viewBox="0 0 595 842">
<g enable-background="new">
<clipPath id="cp39">
<path transform="matrix(1,0,0,-1,0,842)" d="M 0 0 L 595 0 L 595 842 L 0 842 Z "/>
</clipPath>
<g clip-path="url(#cp39)">
<path transform="matrix(1,0,0,-1,0,842)" d="M 0 842 L 595 842 L 595 0 L 0 0 Z " fill="#ffffff"/>
</g>
<clipPath id="cp40">
<path transform="matrix(1,0,0,-1,0,842)" d="M 81.17403 56.3 L 556.37606 56.3 L 556.37606 789.17599 L 81.17403 789.17599 Z "/>
</clipPath>
<g clip-path="url(#cp40)">
<path transform="matrix(1,0,0,-1,0,842)" d="M 85.05 785.3 L 552.5 785.3 L 552.5 746.1921 L 85.05 746.1921 Z " fill="#ffffff"/>
<g id="Layer-1" data-name="P">
<text xml:space="preserve" transform="matrix(1 0 -0 1 113.9 69.07703)" font-size="14" font-family="TimesNewRomanPS" font-weight="bold" font-style="italic"><tspan y="0" x="0 9.462601 17.585402 24.880803 32.2308 37.7496 44.314199 52.436998 60.559797 70.6244">&#x042d;&#x043d;&#x0434;&#x043e;&#x0433;&#x0435;&#x043d;&#x043d;&#x044b;&#x0435;</tspan></text>
<text xml:space="preserve" transform="matrix(1 0 -0 1 113.9 69.07703)" font-size="14" font-family="TimesNewRomanPS" font-weight="bold" font-style="italic"><tspan y="0" x="76.8376 87.5126"> (</tspan></text>
<text xml:space="preserve" transform="matrix(1 0 -0 1 113.9 69.07703)" font-size="14" font-family="TimesNewRomanPS" font-weight="bold" font-style="italic"><tspan y="0" x="92.52601 98.338809 105.688808 112.29401 120.43081 126.995418 135.13222 145.07361 155.13822">&#x0437;&#x0430;&#x0432;&#x0438;&#x0441;&#x0438;&#x043c;&#x044b;&#x0435;</tspan></text>
<text xml:space="preserve" transform="matrix(1 0 -0 1 113.9 69.07703)" font-size="14" font-family="TimesNewRomanPS" font-weight="bold" font-style="italic"><tspan y="0" x="161.70282 166.36483">) </tspan></text>
<text xml:space="preserve" transform="matrix(1 0 -0 1 113.9 69.07703)" font-size="14" font-family="TimesNewRomanPS" font-style="italic"><tspan y="0" x="177.0434 189.4922">&#x2014; </tspan></text>
<text xml:space="preserve" transform="matrix(1 0 -0 1 113.9 69.07703)" font-size="14" font-family="TimesNewRomanPSMT"><tspan y="0" x="200.167 206.5258 212.8104">&#x044d;&#x0442;&#x043e;</tspan></text>
<text xml:space="preserve" transform="matrix(1 0 -0 1 113.9 69.07703)" font-size="14" font-family="TimesNewRomanPSMT"><tspan y="0" x="219.8104"> </tspan></text>
<text xml:space="preserve" transform="matrix(1 0 -0 1 113.9 69.07703)" font-size="14" font-family="TimesNewRomanPSMT"><tspan y="0" x="230.4854 238.3282 244.8928 252.24282 258.8074 268.018 274.5826 282.4254 290.26823 300.0248">&#x043f;&#x0435;&#x0440;&#x0435;&#x043c;&#x0435;&#x043d;&#x043d;&#x044b;&#x0435;</tspan></text>
<text xml:space="preserve" transform="matrix(1 0 -0 1 113.9 69.07703)" font-size="14" font-family="TimesNewRomanPSMT"><tspan y="0" x="306.58943 310.08943">, </tspan></text>
<text xml:space="preserve" transform="matrix(1 0 -0 1 113.9 69.07703)" font-size="14" font-family="TimesNewRomanPSMT"><tspan y="0" x="320.7644 326.6458 334.48863 340.49324 347.88523 354.44984 362.29264 370.13545">&#x0437;&#x043d;&#x0430;&#x0447;&#x0435;&#x043d;&#x0438;&#x044f;</tspan></text>
<text xml:space="preserve" transform="matrix(1 0 -0 1 113.9 69.07703)" font-size="14" font-family="TimesNewRomanPSMT"><tspan y="0" x="376.57545"> </tspan></text>
<text xml:space="preserve" transform="matrix(1 0 -0 1 113.9 69.07703)" font-size="14" font-family="TimesNewRomanPSMT"><tspan y="0" x="387.25044 393.6918 400.8584 407.143 414.493 421.84303 431.5996">&#x043a;&#x043e;&#x0442;&#x043e;&#x0440;&#x044b;&#x0445;</tspan></text>
<text xml:space="preserve" transform="matrix(1 0 -0 1 113.9 69.07703)" font-size="14" font-family="TimesNewRomanPSMT"><tspan y="0" x="438.5996"> </tspan></text>
<text xml:space="preserve" transform="matrix(1 0 -0 1 85.55 92.7796)" font-size="14" font-family="TimesNewRomanPSMT"><tspan y="0" x="0 7 14.4928 21.4928 27.522603 34.6458 40.859 47.845 54.285 64.55959 70.8484 77.0616">&#x043e;&#x043f;&#x0440;&#x0435;&#x0434;&#x0435;&#x043b;&#x044f;&#x044e;&#x0442;&#x0441;&#x044f;</tspan></text>
<text xml:space="preserve" transform="matrix(1 0 -0 1 85.55 92.7796)" font-size="14" font-family="TimesNewRomanPSMT"><tspan y="0" x="83.5016 87.0016">  </tspan></text>
<text xml:space="preserve" transform="matrix(1 0 -0 1 85.55 92.7796)" font-size="14" font-family="TimesNewRomanPSMT"><tspan y="0" x="90.5016 97.112407 104.6052 111.6052 117.894008 124.894008">&#x0432;&#x043d;&#x0443;&#x0442;&#x0440;&#x0438;</tspan></text>
<text xml:space="preserve" transform="matrix(1 0 -0 1 85.55 92.7796)" font-size="14" font-family="TimesNewRomanPSMT"><tspan y="0" x="132.38681"> </tspan></text>
<text xml:space="preserve" transform="matrix(1 0 -0 1 85.55 92.7796)" font-size="14" font-family="TimesNewRomanPSMT"><tspan y="0" x="135.88681 144.746 151.3428 158.466 164.6792 171.66519">&#x043c;&#x043e;&#x0434;&#x0435;&#x043b;&#x0438;</tspan></text>
<text xml:space="preserve" transform="matrix(1 0 -0 1 85.55 92.7796)" font-size="14" font-family="TimesNewRomanPSMT"><tspan y="0" x="179.158">.</tspan></text>
<g id="Layer-2" data-name="Span">
<text xml:space="preserve" transform="matrix(1 0 -0 1 85.55 92.7796)" font-size="14" font-family="TimesNewRomanPSMT"><tspan y="0" x="182.6562"> </tspan></text>
</g>
</g>
</g>
</g>
</svg>
