<?xml version="1.0" encoding="UTF-8" standalone="no"?>
<!DOCTYPE svg PUBLIC "-//W3C//DTD SVG 1.1//EN" "http://www.w3.org/Graphics/SVG/1.1/DTD/svg11.dtd">
<svg xmlns="http://www.w3.org/2000/svg" xmlns:xlink="http://www.w3.org/1999/xlink" version="1.1" width="595pt" height="842pt" viewBox="0 0 595 842">
<g enable-background="new">
<clipPath id="cp51">
<path transform="matrix(1,0,0,-1,0,842)" d="M 0 0 L 595 0 L 595 842 L 0 842 Z "/>
</clipPath>
<g clip-path="url(#cp51)">
<path transform="matrix(1,0,0,-1,0,842)" d="M 0 842 L 595 842 L 595 0 L 0 0 Z " fill="#ffffff"/>
<g id="Layer-1" data-name="P">
<g id="Layer-2" data-name="P">
<g id="Layer-3" data-name="P">
</g>
<clipPath id="cp52">
<path transform="matrix(1,0,0,-1,0,842)" d="M 81.17403 56.3 L 556.37606 56.3 L 556.37606 789.17599 L 81.17403 789.17599 Z "/>
</clipPath>
<g clip-path="url(#cp52)">
<text xml:space="preserve" transform="matrix(1 0 -0 1 120.5 69.07703)" font-size="14" font-family="TimesNewRomanPSMT"><tspan y="0" x="0 7">3.</tspan></text>
</g>
<g id="Layer-3" data-name="P">
<text xml:space="preserve" transform="matrix(1 0 -0 1 138.5 69.07703)" font-size="14" font-family="TimesNewRomanPSMT"><tspan y="0" x="0 10.497201 17.886403 25.275603 32.188806 39.130006 45.735208 52.24241">&#x041f;&#x0440;&#x043e;&#x0432;&#x0435;&#x0441;&#x0442;&#x0438;</tspan></text>
<text xml:space="preserve" transform="matrix(1 0 -0 1 138.5 69.07703)" font-size="14" font-family="TimesNewRomanPSMT"><tspan y="0" x="60.12161"> </tspan></text>
<text xml:space="preserve" transform="matrix(1 0 -0 1 138.5 69.07703)" font-size="14" font-family="TimesNewRomanPSMT"><tspan y="0" x="64.01081 70.40601 76.885219 84.274417 92.15362 99.27682 108.528018 116.40722 123.83842 130.77962 137.38481 144.57802 152.45722">&#x044d;&#x043a;&#x043e;&#x043d;&#x043e;&#x043c;&#x0438;&#x0447;&#x0435;&#x0441;&#x043a;&#x0438;&#x0439;</tspan></text>
<text xml:space="preserve" transform="matrix(1 0 -0 1 138.5 69.07703)" font-size="14" font-family="TimesNewRomanPSMT"><tspan y="0" x="160.33641"> </tspan></text>
<text xml:space="preserve" transform="matrix(1 0 -0 1 138.5 69.07703)" font-size="14" font-family="TimesNewRomanPSMT"><tspan y="0" x="164.22562 170.83081 178.71 185.4272 192.8024 200.6816">&#x0430;&#x043d;&#x0430;&#x043b;&#x0438;&#x0437;</tspan></text>
<text xml:space="preserve" transform="matrix(1 0 -0 1 138.5 69.07703)" font-size="14" font-family="TimesNewRomanPSMT"><tspan y="0" x="206.6008"> </tspan></text>
<text xml:space="preserve" transform="matrix(1 0 -0 1 138.5 69.07703)" font-size="14" font-family="TimesNewRomanPSMT"><tspan y="0" x="210.49 218.3692 225.5764 232.9516 240.3408 247.772 254.3772 262.2564 270.13563 279.93284">&#x043f;&#x043e;&#x043b;&#x0443;&#x0447;&#x0435;&#x043d;&#x043d;&#x044b;&#x0445;</tspan></text>
<text xml:space="preserve" transform="matrix(1 0 -0 1 138.5 69.07703)" font-size="14" font-family="TimesNewRomanPSMT"><tspan y="0" x="287.32203"> </tspan></text>
<text xml:space="preserve" transform="matrix(1 0 -0 1 138.5 69.07703)" font-size="14" font-family="TimesNewRomanPSMT"><tspan y="0" x="291.2112 298.6004 305.3736 310.99879 317.77198 325.1472 331.38838 338.06358 344.30476 350.62995 358.01914">&#x0440;&#x0435;&#x0437;&#x0443;&#x043b;&#x044c;&#x0442;&#x0430;&#x0442;&#x043e;&#x0432;</tspan></text>
<text xml:space="preserve" transform="matrix(1 0 -0 1 138.5 69.07703)" font-size="14" font-family="TimesNewRomanPSMT"><tspan y="0" x="365.01634">.</tspan></text>
<g id="Layer-4" data-name="Span">
<text xml:space="preserve" transform="matrix(1 0 -0 1 138.5 69.07703)" font-size="14" font-family="TimesNewRomanPSMT"><tspan y="0" x="368.7942"> </tspan></text>
</g>
</g>
</g>
</g>
</g>
</g>
</svg>
