<?xml version="1.0" encoding="UTF-8" standalone="no"?>
<!DOCTYPE svg PUBLIC "-//W3C//DTD SVG 1.1//EN" "http://www.w3.org/Graphics/SVG/1.1/DTD/svg11.dtd">
<svg xmlns="http://www.w3.org/2000/svg" xmlns:xlink="http://www.w3.org/1999/xlink" version="1.1" width="595pt" height="842pt" viewBox="0 0 595 842">
<g enable-background="new">
<clipPath id="cp0">
<path transform="matrix(1,0,0,-1,0,842)" d="M 0 0 L 595 0 L 595 842 L 0 842 Z "/>
</clipPath>
<g clip-path="url(#cp0)">
<path transform="matrix(1,0,0,-1,0,842)" d="M 0 842 L 595 842 L 595 0 L 0 0 Z " fill="#ffffff"/>
</g>
<clipPath id="cp1">
<path transform="matrix(1,0,0,-1,0,842)" d="M 81.17403 56.7 L 556.37606 56.7 L 556.37606 789.176 L 81.17403 789.176 Z "/>
</clipPath>
<g clip-path="url(#cp1)">
<path transform="matrix(1,0,0,-1,0,842)" d="M 85.05 728.6784 L 311.6508 728.6784 L 311.6508 707.5676 L 85.05 707.5676 Z " fill="#ffffff"/>
<path transform="matrix(1,0,0,-1,0,842)" d="M 138.5 111.5559 L 346.8662 111.5559 L 346.8662 90.44512 L 138.5 90.44512 Z " fill="#ffffff"/>
<path transform="matrix(1,0,0,-1,0,842)" d="M 138.5 90.44512 L 258.72 90.44512 L 258.72 72.13433 L 138.5 72.13433 Z " fill="#ffffff"/>
<g id="Layer-1" data-name="P">
<text xml:space="preserve" transform="matrix(1 0 -0 1 138.1114 69.07703)" font-size="14" font-family="TimesNewRomanPS" font-weight="bold"><tspan y="0" x="0 10.889201 18.676003 25.676003 33.7428 40.619604 48.6864 56.5824 62.9678 69.181 77.063 84.063">&#x041f;&#x0440;&#x0430;&#x043a;&#x0442;&#x0438;&#x0447;&#x0435;&#x0441;&#x043a;&#x043e;&#x0435;</tspan></text>
<text xml:space="preserve" transform="matrix(1 0 -0 1 138.1114 69.07703)" font-size="14" font-family="TimesNewRomanPS" font-weight="bold"><tspan y="0" x="90.27621"> </tspan></text>
<text xml:space="preserve" transform="matrix(1 0 -0 1 138.1114 69.07703)" font-size="14" font-family="TimesNewRomanPS" font-weight="bold"><tspan y="0" x="93.77621 99.4028 106.4028 114.469608 122.0436 128.92041 136.98722">&#x0437;&#x0430;&#x043d;&#x044f;&#x0442;&#x0438;&#x0435;</tspan></text>
<text xml:space="preserve" transform="matrix(1 0 -0 1 138.1114 69.07703)" font-size="14" font-family="TimesNewRomanPS" font-weight="bold"><tspan y="0" x="143.20041 146.70041 153.70041 157.20041"> 2. </tspan></text>
<text xml:space="preserve" transform="matrix(1 0 -0 1 138.1114 69.07703)" font-size="14" font-family="TimesNewRomanPS" font-weight="bold"><tspan y="0" x="160.70041 171.5896 178.5896 186.3764 194.4432 205.3744">&#x041f;&#x0430;&#x0440;&#x043d;&#x044b;&#x0439;</tspan></text>
<text xml:space="preserve" transform="matrix(1 0 -0 1 138.1114 69.07703)" font-size="14" font-family="TimesNewRomanPS" font-weight="bold"><tspan y="0" x="213.44121"> </tspan></text>
<text xml:space="preserve" transform="matrix(1 0 -0 1 138.1114 69.07703)" font-size="14" font-family="TimesNewRomanPS" font-weight="bold"><tspan y="0" x="216.94121 224.72801 230.94121 237.29862 245.08542 251.47083 257.68403 263.89723 271.96403 278.96403 287.03083 295.09764 306.0288">&#x0440;&#x0435;&#x0433;&#x0440;&#x0435;&#x0441;&#x0441;&#x0438;&#x043e;&#x043d;&#x043d;&#x044b;&#x0439;</tspan></text>
<text xml:space="preserve" transform="matrix(1 0 -0 1 138.1114 69.07703)" font-size="14" font-family="TimesNewRomanPS" font-weight="bold"><tspan y="0" x="314.0956"> </tspan></text>
<text xml:space="preserve" transform="matrix(1 0 -0 1 138.1114 69.07703)" font-size="14" font-family="TimesNewRomanPS" font-weight="bold"><tspan y="0" x="317.5956 324.5956 332.6624 339.7856 347.63963 355.70643">&#x0430;&#x043d;&#x0430;&#x043b;&#x0438;&#x0437;</tspan></text>
<g id="Layer-2" data-name="Span">
<text xml:space="preserve" transform="matrix(1 0 -0 1 138.1114 69.07703)" font-size="14" font-family="TimesNewRomanPS" font-weight="bold"><tspan y="0" x="361.3271"> </tspan></text>
</g>
</g>
<g id="Layer-1" data-name="P">
<text xml:space="preserve" transform="matrix(1 0 -0 1 85.05 97.387699)" font-size="14" font-family="TimesNewRomanPSMT"><tspan y="0" x="0 7.6020009 13.815201 24.595202 32.088 38.206">&#x0420;&#x0435;&#x0448;&#x0438;&#x0442;&#x044c;</tspan></text>
<text xml:space="preserve" transform="matrix(1 0 -0 1 85.05 97.387699)" font-size="14" font-family="TimesNewRomanPSMT"><tspan y="0" x="44.5914"> </tspan></text>
<text xml:space="preserve" transform="matrix(1 0 -0 1 85.05 97.387699)" font-size="14" font-family="TimesNewRomanPSMT"><tspan y="0" x="48.0914 54.3046 61.2906 67.3204 74.443599 81.443599 91.903 102.683 109.683">&#x0441;&#x043b;&#x0435;&#x0434;&#x0443;&#x044e;&#x0449;&#x0443;&#x044e;</tspan></text>
<text xml:space="preserve" transform="matrix(1 0 -0 1 85.05 97.387699)" font-size="14" font-family="TimesNewRomanPSMT"><tspan y="0" x="120.1424"> </tspan></text>
<text xml:space="preserve" transform="matrix(1 0 -0 1 85.05 97.387699)" font-size="14" font-family="TimesNewRomanPSMT"><tspan y="0" x="123.6424 129.17241 135.3856 142.5088 148.162 155.2026">&#x0437;&#x0430;&#x0434;&#x0430;&#x0447;&#x0443;</tspan></text>
<text xml:space="preserve" transform="matrix(1 0 -0 1 85.05 97.387699)" font-size="14" font-family="TimesNewRomanPSMT"><tspan y="0" x="162.0178">:</tspan></text>
<g id="Layer-2" data-name="Span">
<text xml:space="preserve" transform="matrix(1 0 -0 1 85.05 97.387699)" font-size="14" font-family="TimesNewRomanPSMT"><tspan y="0" x="165.9082"> </tspan></text>
</g>
</g>
<g id="Layer-1" data-name="P">
<text xml:space="preserve" transform="matrix(1 0 -0 1 85.05 125.69849)" font-size="14" font-family="TimesNewRomanPSMT"><tspan y="0" x="0 7.4214007 14.044802 21.578202 28.201603 36.099004">&#x0417;&#x0430;&#x0434;&#x0430;&#x043d;&#x044b;</tspan></text>
<text xml:space="preserve" transform="matrix(1 0 -0 1 85.05 125.69849)" font-size="14" font-family="TimesNewRomanPSMT"><tspan y="0" x="45.914407"> </tspan></text>
<text xml:space="preserve" transform="matrix(1 0 -0 1 85.05 125.69849)" font-size="14" font-family="TimesNewRomanPSMT"><tspan y="0" x="49.821809 56.44521 63.838609 70.28001 77.81341 85.22081 96.08621 107.27361 115.17101">&#x0441;&#x043b;&#x0435;&#x0434;&#x0443;&#x044e;&#x0449;&#x0438;&#x0435;</tspan></text>
<text xml:space="preserve" transform="matrix(1 0 -0 1 85.05 125.69849)" font-size="14" font-family="TimesNewRomanPSMT"><tspan y="0" x="121.79441"> </tspan></text>
<text xml:space="preserve" transform="matrix(1 0 -0 1 85.05 125.69849)" font-size="14" font-family="TimesNewRomanPSMT"><tspan y="0" x="125.70181 133.23522 139.85861 147.75601 155.65341 165.46881">&#x0434;&#x0430;&#x043d;&#x043d;&#x044b;&#x0435;</tspan></text>
<text xml:space="preserve" transform="matrix(1 0 -0 1 85.05 125.69849)" font-size="14" font-family="TimesNewRomanPSMT"><tspan y="0" x="172.09221"> </tspan></text>
<text xml:space="preserve" transform="matrix(1 0 -0 1 85.05 125.69849)" font-size="14" font-family="TimesNewRomanPSMT"><tspan y="0" x="175.9996 183.407 191.3044 201.1198 207.4632 214.87059">&#x043e;&#x043f;&#x044b;&#x0442;&#x043e;&#x0432;</tspan></text>
<text xml:space="preserve" transform="matrix(1 0 -0 1 85.05 125.69849)" font-size="14" font-family="TimesNewRomanPSMT"><tspan y="0" x="221.88599">:</tspan></text>
<g id="Layer-2" data-name="Span">
<text xml:space="preserve" transform="matrix(1 0 -0 1 85.05 125.69849)" font-size="14" font-family="TimesNewRomanPSMT"><tspan y="0" x="226.1925"> </tspan></text>
</g>
</g>
<g id="Layer-1" data-name="P">
</g>
<g id="Layer-1" data-name="P">
<text xml:space="preserve" transform="matrix(1 0 -0 1 85.05 700.5995)" font-size="14" font-family="TimesNewRomanPSMT"><tspan y="0" x="0 6.792801 14.047602 20.742403 27.087204">&#x0417;&#x0434;&#x0435;&#x0441;&#x044c;</tspan></text>
<text xml:space="preserve" transform="matrix(1 0 -0 1 85.05 700.5995)" font-size="14" font-family="TimesNewRomanPSMT"><tspan y="0" x="33.600004"> </tspan></text>
<text xml:space="preserve" transform="matrix(1 0 -0 1 85.05 700.5995)" font-size="14" font-family="TimesNewRomanPSMT"><tspan y="0" x="37.2288">&#x043a;</tspan></text>
<text xml:space="preserve" transform="matrix(1 0 -0 1 85.05 700.5995)" font-size="14" font-family="TimesNewRomanPSMT"><tspan y="0" x="44.161603 47.7904 54.9192"> &#x2013; </tspan></text>
<text xml:space="preserve" transform="matrix(1 0 -0 1 85.05 700.5995)" font-size="14" font-family="TimesNewRomanPSMT"><tspan y="0" x="58.548 66.1668 73.2956 80.4244 86.9932 94.248 100.466808 107.595607 114.332408 123.8692">&#x043f;&#x043e;&#x0440;&#x044f;&#x0434;&#x043a;&#x043e;&#x0432;&#x044b;&#x0439;</tspan></text>
<text xml:space="preserve" transform="matrix(1 0 -0 1 85.05 700.5995)" font-size="14" font-family="TimesNewRomanPSMT"><tspan y="0" x="131.488"> </tspan></text>
<text xml:space="preserve" transform="matrix(1 0 -0 1 85.05 700.5995)" font-size="14" font-family="TimesNewRomanPSMT"><tspan y="0" x="135.1168 142.73561 149.5984 158.5892 164.934">&#x043d;&#x043e;&#x043c;&#x0435;&#x0440;</tspan></text>
<text xml:space="preserve" transform="matrix(1 0 -0 1 85.05 700.5995)" font-size="14" font-family="TimesNewRomanPSMT"><tspan y="0" x="172.0628"> </tspan></text>
<text xml:space="preserve" transform="matrix(1 0 -0 1 85.05 700.5995)" font-size="14" font-family="TimesNewRomanPSMT"><tspan y="0" x="175.6916 182.0364 188.10121 194.348 201.60282 207.94762 215.56642 221.98123">&#x0441;&#x0442;&#x0443;&#x0434;&#x0435;&#x043d;&#x0442;&#x0430;</tspan></text>
<text xml:space="preserve" transform="matrix(1 0 -0 1 85.05 700.5995)" font-size="14" font-family="TimesNewRomanPSMT"><tspan y="0" x="228.32604"> </tspan></text>
<text xml:space="preserve" transform="matrix(1 0 -0 1 85.05 700.5995)" font-size="14" font-family="TimesNewRomanPSMT"><tspan y="0" x="231.95484 239.57364">&#x043f;&#x043e;</tspan></text>
<text xml:space="preserve" transform="matrix(1 0 -0 1 85.05 700.5995)" font-size="14" font-family="TimesNewRomanPSMT"><tspan y="0" x="246.70244"> </tspan></text>
<text xml:space="preserve" transform="matrix(1 0 -0 1 85.05 700.5995)" font-size="14" font-family="TimesNewRomanPSMT"><tspan y="0" x="250.33124 260.13404 267.26286 274.39167 282.01048 288.4813 295.5961">&#x0436;&#x0443;&#x0440;&#x043d;&#x0430;&#x043b;&#x0443;</tspan></text>
<text xml:space="preserve" transform="matrix(1 0 -0 1 85.05 700.5995)" font-size="14" font-family="TimesNewRomanPSMT"><tspan y="0" x="301.32493">.</tspan></text>
<g id="Layer-2" data-name="Span">
<text xml:space="preserve" transform="matrix(1 0 -0 1 85.05 700.5995)" font-size="14" font-family="TimesNewRomanPSMT"><tspan y="0" x="304.8627"> </tspan></text>
</g>
</g>
<g id="Layer-1" data-name="P">
<text xml:space="preserve" transform="matrix(1 0 -0 1 85.05 721.7103)" font-size="14" font-family="TimesNewRomanPSMT"><tspan y="0" x="0 9.465401 19.000802 26.618203 33.563604 40.677003 48.294404 55.911806 62.157205">&#x0412;&#x044b;&#x043f;&#x043e;&#x043b;&#x043d;&#x0438;&#x0442;&#x044c;</tspan></text>
<text xml:space="preserve" transform="matrix(1 0 -0 1 85.05 721.7103)" font-size="14" font-family="TimesNewRomanPSMT"><tspan y="0" x="68.6686"> </tspan></text>
<text xml:space="preserve" transform="matrix(1 0 -0 1 85.05 721.7103)" font-size="14" font-family="TimesNewRomanPSMT"><tspan y="0" x="72.296009 78.639408 85.75281 91.91421 99.16761 106.29501 116.88042 127.78782 134.13123">&#x0441;&#x043b;&#x0435;&#x0434;&#x0443;&#x044e;&#x0449;&#x0435;&#x0435;</tspan></text>
<text xml:space="preserve" transform="matrix(1 0 -0 1 85.05 721.7103)" font-size="14" font-family="TimesNewRomanPSMT"><tspan y="0" x="140.47463">:</tspan></text>
<g id="Layer-2" data-name="Span">
<text xml:space="preserve" transform="matrix(1 0 -0 1 85.05 721.7103)" font-size="14" font-family="TimesNewRomanPSMT"><tspan y="0" x="144.48"> </tspan></text>
</g>
</g>
<g id="Layer-1" data-name="P">
<g id="Layer-2" data-name="P">
<g id="Layer-3" data-name="P">
<text xml:space="preserve" transform="matrix(1 0 -0 1 120.5 742.82107)" font-size="14" font-family="TimesNewRomanPSMT"><tspan y="0" x="0 7">1.</tspan></text>
</g>
<g id="Layer-3" data-name="P">
<text xml:space="preserve" transform="matrix(1 0 -0 1 138.5 742.82107)" font-size="14" font-family="TimesNewRomanPSMT"><tspan y="0" x="0 10.518201 18.2784 24.904603 31.600802 39.011 46.4212 54.3214 60.8496">&#x041f;&#x043e;&#x0441;&#x0442;&#x0440;&#x043e;&#x0438;&#x0442;&#x044c;</tspan></text>
<text xml:space="preserve" transform="matrix(1 0 -0 1 138.5 742.82107)" font-size="14" font-family="TimesNewRomanPSMT"><tspan y="0" x="67.6438"> </tspan></text>
<text xml:space="preserve" transform="matrix(1 0 -0 1 138.5 742.82107)" font-size="14" font-family="TimesNewRomanPSMT"><tspan y="0" x="71.554 78.9642 86.374408 93.0006 100.01881 107.91901 114.545207 122.445407 130.34561">&#x0443;&#x0440;&#x0430;&#x0432;&#x043d;&#x0435;&#x043d;&#x0438;&#x0435;</tspan></text>
<text xml:space="preserve" transform="matrix(1 0 -0 1 138.5 742.82107)" font-size="14" font-family="TimesNewRomanPSMT"><tspan y="0" x="136.97182"> </tspan></text>
<text xml:space="preserve" transform="matrix(1 0 -0 1 138.5 742.82107)" font-size="14" font-family="TimesNewRomanPSMT"><tspan y="0" x="140.88202 148.29222 154.91843 161.06864 168.47884 175.45505 182.08126 188.70746 196.60767">&#x0440;&#x0435;&#x0433;&#x0440;&#x0435;&#x0441;&#x0441;&#x0438;&#x0438;</tspan></text>
<text xml:space="preserve" transform="matrix(1 0 -0 1 138.5 742.82107)" font-size="14" font-family="TimesNewRomanPSMT"><tspan y="0" x="204.50788">.</tspan></text>
<g id="Layer-4" data-name="Span">
<text xml:space="preserve" transform="matrix(1 0 -0 1 138.5 742.82107)" font-size="14" font-family="TimesNewRomanPSMT"><tspan y="0" x="208.3662"> </tspan></text>
</g>
</g>
</g>
<g id="Layer-2" data-name="P">
<g id="Layer-3" data-name="P">
<text xml:space="preserve" transform="matrix(1 0 -0 1 120.5 763.9318)" font-size="14" font-family="TimesNewRomanPSMT"><tspan y="0" x="0 7">2.</tspan></text>
</g>
<g id="Layer-3" data-name="P">
<text xml:space="preserve" transform="matrix(1 0 -0 1 138.5 763.9318)" font-size="14" font-family="TimesNewRomanPSMT"><tspan y="0" x="0 10.518201 18.2784 24.904603 31.600802 39.011 46.4212 54.3214 60.8496">&#x041f;&#x043e;&#x0441;&#x0442;&#x0440;&#x043e;&#x0438;&#x0442;&#x044c;</tspan></text>
<text xml:space="preserve" transform="matrix(1 0 -0 1 138.5 763.9318)" font-size="14" font-family="TimesNewRomanPSMT"><tspan y="0" x="67.6438"> </tspan></text>
<text xml:space="preserve" transform="matrix(1 0 -0 1 138.5 763.9318)" font-size="14" font-family="TimesNewRomanPSMT"><tspan y="0" x="71.554 77.7042 85.1144 91.7406 101.2228 109.123">&#x0433;&#x0440;&#x0430;&#x0444;&#x0438;&#x043a;</tspan></text>
<text xml:space="preserve" transform="matrix(1 0 -0 1 138.5 763.9318)" font-size="14" font-family="TimesNewRomanPSMT"><tspan y="0" x="116.337207">.</tspan></text>
<g id="Layer-4" data-name="Span">
<text xml:space="preserve" transform="matrix(1 0 -0 1 138.5 763.9318)" font-size="14" font-family="TimesNewRomanPSMT"><tspan y="0" x="120.22"> </tspan></text>
</g>
</g>
</g>
</g>
<g id="Layer-1" data-name="P">
<g id="Layer-2" data-name="P">
<g id="Layer-3" data-name="P">
<g id="Layer-4" data-name="P">
<g id="Layer-5" data-name="P">
</g>
<clipPath id="cp2">
<path transform="matrix(1,0,0,-1,0,842)" d="M 87.475 629.3016 L 163.025 629.3016 L 163.025 684.70687 L 87.475 684.70687 Z "/>
</clipPath>
<g clip-path="url(#cp2)">
<text xml:space="preserve" transform="matrix(1 0 -0 1 94.91895 173.6701)" font-size="14" font-family="TimesNewRomanPSMT"><tspan y="0" x="0 9.228801 16.228802 21.758803 28.198803 35.691606 41.904806 48.022806 54.448808">&#x0425;&#x043e;&#x0437;&#x044f;&#x0439;&#x0441;&#x0442;&#x0432;&#x0430;</tspan></text>
</g>
</g>
<g id="Layer-4" data-name="P">
<g id="Layer-5" data-name="P">
</g>
<clipPath id="cp3">
<path transform="matrix(1,0,0,-1,0,842)" d="M 163.775 629.3016 L 276.375 629.3016 L 276.375 684.70687 L 163.775 684.70687 Z "/>
</clipPath>
<g clip-path="url(#cp3)">
<text xml:space="preserve" transform="matrix(1 0 -0 1 172.6028 173.6701)" font-size="14" font-family="TimesNewRomanPSMT"><tspan y="0" x="0 9.153201 14.806401 21.847002 28.410204 34.623407 40.741407 47.255609">&#x041a;&#x0430;&#x0447;&#x0435;&#x0441;&#x0442;&#x0432;&#x043e;</tspan></text>
<text xml:space="preserve" transform="matrix(1 0 -0 1 172.6028 173.6701)" font-size="14" font-family="TimesNewRomanPSMT"><tspan y="0" x="54.255609"> </tspan></text>
<text xml:space="preserve" transform="matrix(1 0 -0 1 172.6028 173.6701)" font-size="14" font-family="TimesNewRomanPSMT"><tspan y="0" x="57.755609 65.248409 71.8858 78.9264 85.5372">&#x043f;&#x043e;&#x0447;&#x0432;&#x044b;</tspan></text>
<text xml:space="preserve" transform="matrix(1 0 -0 1 172.6028 173.6701)" font-size="14" font-family="TimesNewRomanPSMT"><tspan y="0" x="94.9438"> </tspan></text>
<text xml:space="preserve" transform="matrix(1 0 -0 1 194.6966 189.6701)" font-size="14" font-family="TimesNewRomanPSMT"><tspan y="0" x="0">(</tspan></text>
<text xml:space="preserve" transform="matrix(1 0 -0 1 194.6966 189.6701)" font-size="14" font-family="TimesNewRomanPSMT"><tspan y="0" x="4.662">&#x0445;</tspan></text>
<text xml:space="preserve" transform="matrix(1 0 -0 1 194.6966 189.6701)" font-size="14" font-family="TimesNewRomanPSMT"><tspan y="0" x="11.662001 16.324002 19.824002">), </tspan></text>
<text xml:space="preserve" transform="matrix(1 0 -0 1 194.6966 189.6701)" font-size="14" font-family="TimesNewRomanPSMT"><tspan y="0" x="23.324002 30.4472 36.7836 43.7696">&#x0431;&#x0430;&#x043b;&#x043b;</tspan></text>
<text xml:space="preserve" transform="matrix(1 0 -0 1 194.6966 189.6701)" font-size="14" font-family="TimesNewRomanPSMT"><tspan y="0" x="50.7556"> </tspan></text>
<text xml:space="preserve" transform="matrix(1 0 -0 1 193.1038 205.6701)" font-size="14" font-family="TimesNewRomanPSMT"><tspan y="0" x="0 7.1232 14.123199 21.616 29.108799 35.2268 41.44 47.728799">&#x0431;&#x043e;&#x043d;&#x0438;&#x0442;&#x0435;&#x0442;&#x0430;</tspan></text>
</g>
</g>
<g id="Layer-4" data-name="P">
<g id="Layer-5" data-name="P">
</g>
<clipPath id="cp4">
<path transform="matrix(1,0,0,-1,0,842)" d="M 277.125 629.3016 L 389.725 629.3016 L 389.725 684.70687 L 277.125 684.70687 Z "/>
</clipPath>
<g clip-path="url(#cp4)">
<text xml:space="preserve" transform="matrix(1 0 -0 1 293.7902 173.6701)" font-size="14" font-family="TimesNewRomanPSMT"><tspan y="0" x="0 8.681399 15.681399 22.3328 32.0054 38.2186 45.711404 53.204206 60.552804 66.76601 72.884">&#x0423;&#x0440;&#x043e;&#x0436;&#x0430;&#x0439;&#x043d;&#x043e;&#x0441;&#x0442;&#x044c;</tspan></text>
<text xml:space="preserve" transform="matrix(1 0 -0 1 293.7902 173.6701)" font-size="14" font-family="TimesNewRomanPSMT"><tspan y="0" x="79.26941"> </tspan></text>
<text xml:space="preserve" transform="matrix(1 0 -0 1 308.5388 189.6701)" font-size="14" font-family="TimesNewRomanPSMT"><tspan y="0" x="0 4.662 14.7728 19.434802 22.934802">(Y), </tspan></text>
<text xml:space="preserve" transform="matrix(1 0 -0 1 308.5388 189.6701)" font-size="14" font-family="TimesNewRomanPSMT"><tspan y="0" x="26.434802">&#x0446;</tspan></text>
<text xml:space="preserve" transform="matrix(1 0 -0 1 308.5388 189.6701)" font-size="14" font-family="TimesNewRomanPSMT"><tspan y="0" x="33.9276">/</tspan></text>
<text xml:space="preserve" transform="matrix(1 0 -0 1 308.5388 189.6701)" font-size="14" font-family="TimesNewRomanPSMT"><tspan y="0" x="37.816804 43.559606">&#x0433;&#x0430;</tspan></text>
</g>
</g>
<g id="Layer-4" data-name="P">
<g id="Layer-5" data-name="P">
</g>
<clipPath id="cp5">
<path transform="matrix(1,0,0,-1,0,842)" d="M 390.475 629.3016 L 472.125 629.3016 L 472.125 684.70687 L 390.475 684.70687 Z "/>
</clipPath>
<g clip-path="url(#cp5)">
<text xml:space="preserve" transform="matrix(1 0 -0 1 421.7069 173.6701)" font-size="14" font-family="TimesNewRomanPSMT"><tspan y="0" x="0">x</tspan></text>
<text xml:space="preserve" transform="matrix(1 0 -0 1 421.7069 173.6701)" font-size="9.333334" font-family="TimesNewRomanPSMT"><tspan y="1.00944" x="7">i</tspan></text>
<text xml:space="preserve" transform="matrix(1 0 -0 1 421.7069 173.6701)" font-size="14" font-family="TimesNewRomanPSMT"><tspan y="0" x="9.593099">y</tspan></text>
<text xml:space="preserve" transform="matrix(1 0 -0 1 421.7069 173.6701)" font-size="9.333334" font-family="TimesNewRomanPSMT"><tspan y="1.00944" x="16.5931">i</tspan></text>
</g>
</g>
<g id="Layer-4" data-name="P">
<g id="Layer-5" data-name="P">
</g>
<clipPath id="cp6">
<path transform="matrix(1,0,0,-1,0,842)" d="M 472.875 629.3016 L 550.075 629.3016 L 550.075 684.70687 L 472.875 684.70687 Z "/>
</clipPath>
<g clip-path="url(#cp6)">
<text xml:space="preserve" transform="matrix(1 0 -0 1 505.6417 173.6701)" font-size="14" font-family="TimesNewRomanPSMT"><tspan y="0" x="0">x</tspan></text>
<text xml:space="preserve" transform="matrix(1 0 -0 1 505.6417 173.6701)" font-size="9.333334" font-family="TimesNewRomanPSMT"><tspan y="-3.089844" x="7">2</tspan></text>
</g>
</g>
</g>
<g id="Layer-3" data-name="P">
<g id="Layer-4" data-name="P">
<g id="Layer-5" data-name="P">
</g>
<clipPath id="cp7">
<path transform="matrix(1,0,0,-1,0,842)" d="M 87.475 589.1463 L 163.025 589.1463 L 163.025 628.5516 L 87.475 628.5516 Z "/>
</clipPath>
<g clip-path="url(#cp7)">
<text xml:space="preserve" transform="matrix(1 0 -0 1 113.825 229.82538)" font-size="14" font-family="TimesNewRomanPSMT"><tspan y="0" x="0">1</tspan></text>
<g id="Layer-6" data-name="Span">
<text xml:space="preserve" transform="matrix(1 0 -0 1 113.825 229.82538)" font-size="14" font-family="TimesNewRomanPSMT"><tspan y="0" x="7"> </tspan></text>
</g>
</g>
</g>
<g id="Layer-4" data-name="P">
<g id="Layer-5" data-name="P">
</g>
<clipPath id="cp8">
<path transform="matrix(1,0,0,-1,0,842)" d="M 163.775 589.1463 L 276.375 589.1463 L 276.375 628.5516 L 163.775 628.5516 Z "/>
</clipPath>
<g clip-path="url(#cp8)">
<text xml:space="preserve" transform="matrix(1 0 -0 1 213.075 229.82538)" font-size="14" font-family="TimesNewRomanPSMT"><tspan y="0" x="0 7">55</tspan></text>
<g id="Layer-6" data-name="Span">
<text xml:space="preserve" transform="matrix(1 0 -0 1 213.075 229.82538)" font-size="14" font-family="TimesNewRomanPSMT"><tspan y="0" x="14"> </tspan></text>
</g>
</g>
</g>
<g id="Layer-4" data-name="P">
<g id="Layer-5" data-name="P">
</g>
<clipPath id="cp9">
<path transform="matrix(1,0,0,-1,0,842)" d="M 277.125 589.1463 L 389.725 589.1463 L 389.725 628.5516 L 277.125 628.5516 Z "/>
</clipPath>
<g clip-path="url(#cp9)">
<text xml:space="preserve" transform="matrix(1 0 -0 1 313.7272 229.82538)" font-size="14" font-family="TimesNewRomanPSMT"><tspan y="0" x="0 7 14 17.5 24.5 32.396">18,1+k</tspan></text>
<g id="Layer-6" data-name="Span">
<text xml:space="preserve" transform="matrix(1 0 -0 1 313.7272 229.82538)" font-size="14" font-family="TimesNewRomanPSMT"><tspan y="0" x="39.39551"> </tspan></text>
</g>
</g>
</g>
<g id="Layer-4" data-name="P">
</g>
<clipPath id="cp10">
<path transform="matrix(1,0,0,-1,0,842)" d="M 85.1 177.0818 L 552.1 177.0818 L 552.1 687.0818 L 85.1 687.0818 Z "/>
</clipPath>
<g clip-path="url(#cp10)">
<path transform="matrix(1,0,0,-1,0,842)" d="M 390.1 628.9266 L 472.5 628.9266 L 472.5 588.7713 L 390.1 588.7713 Z " fill="#a3592f" fill-opacity="0"/>
</g>
<g id="Layer-4" data-name="P">
<path transform="matrix(1,0,0,-1,0,842)" d="M 472.5 628.9266 L 550.45 628.9266 L 550.45 588.7713 L 472.5 588.7713 Z " fill="#9ba0ba" fill-opacity="0"/>
</g>
</g>
<g id="Layer-3" data-name="P">
<g id="Layer-4" data-name="P">
<g id="Layer-5" data-name="P">
</g>
<clipPath id="cp11">
<path transform="matrix(1,0,0,-1,0,842)" d="M 87.475 548.991 L 163.025 548.991 L 163.025 588.3963 L 87.475 588.3963 Z "/>
</clipPath>
<g clip-path="url(#cp11)">
<text xml:space="preserve" transform="matrix(1 0 -0 1 113.825 269.9807)" font-size="14" font-family="TimesNewRomanPSMT"><tspan y="0" x="0">2</tspan></text>
</g>
</g>
<g id="Layer-4" data-name="P">
<g id="Layer-5" data-name="P">
</g>
<clipPath id="cp12">
<path transform="matrix(1,0,0,-1,0,842)" d="M 163.775 548.991 L 276.375 548.991 L 276.375 588.3963 L 163.775 588.3963 Z "/>
</clipPath>
<g clip-path="url(#cp12)">
<text xml:space="preserve" transform="matrix(1 0 -0 1 213.075 269.9807)" font-size="14" font-family="TimesNewRomanPSMT"><tspan y="0" x="0 7">50</tspan></text>
</g>
</g>
<g id="Layer-4" data-name="P">
<g id="Layer-5" data-name="P">
</g>
<clipPath id="cp13">
<path transform="matrix(1,0,0,-1,0,842)" d="M 277.125 548.991 L 389.725 548.991 L 389.725 588.3963 L 277.125 588.3963 Z "/>
</clipPath>
<g clip-path="url(#cp13)">
<text xml:space="preserve" transform="matrix(1 0 -0 1 313.7272 269.9807)" font-size="14" font-family="TimesNewRomanPSMT"><tspan y="0" x="0 7 14 17.5 24.5 32.396">21,1+k</tspan></text>
<g id="Layer-6" data-name="Span">
<text xml:space="preserve" transform="matrix(1 0 -0 1 313.7272 269.9807)" font-size="14" font-family="TimesNewRomanPSMT"><tspan y="0" x="39.39551"> </tspan></text>
</g>
</g>
</g>
<g id="Layer-4" data-name="P">
</g>
<clipPath id="cp14">
<path transform="matrix(1,0,0,-1,0,842)" d="M 85.1 177.0818 L 552.1 177.0818 L 552.1 687.0818 L 85.1 687.0818 Z "/>
</clipPath>
<g clip-path="url(#cp14)">
<path transform="matrix(1,0,0,-1,0,842)" d="M 390.1 588.7713 L 472.5 588.7713 L 472.5 548.616 L 390.1 548.616 Z " fill="#54bd34" fill-opacity="0"/>
</g>
<g id="Layer-4" data-name="P">
<path transform="matrix(1,0,0,-1,0,842)" d="M 472.5 588.7713 L 550.45 588.7713 L 550.45 548.616 L 472.5 548.616 Z " fill="#ebafa7" fill-opacity="0"/>
</g>
</g>
<g id="Layer-3" data-name="P">
<g id="Layer-4" data-name="P">
<g id="Layer-5" data-name="P">
</g>
<clipPath id="cp15">
<path transform="matrix(1,0,0,-1,0,842)" d="M 87.475 508.8357 L 163.025 508.8357 L 163.025 548.24099 L 87.475 548.24099 Z "/>
</clipPath>
<g clip-path="url(#cp15)">
<text xml:space="preserve" transform="matrix(1 0 -0 1 113.825 310.13594)" font-size="14" font-family="TimesNewRomanPSMT"><tspan y="0" x="0">3</tspan></text>
</g>
</g>
<g id="Layer-4" data-name="P">
<g id="Layer-5" data-name="P">
</g>
<clipPath id="cp16">
<path transform="matrix(1,0,0,-1,0,842)" d="M 163.775 508.8357 L 276.375 508.8357 L 276.375 548.24099 L 163.775 548.24099 Z "/>
</clipPath>
<g clip-path="url(#cp16)">
<text xml:space="preserve" transform="matrix(1 0 -0 1 213.075 310.13594)" font-size="14" font-family="TimesNewRomanPSMT"><tspan y="0" x="0 7">68</tspan></text>
</g>
</g>
<g id="Layer-4" data-name="P">
<g id="Layer-5" data-name="P">
</g>
<clipPath id="cp17">
<path transform="matrix(1,0,0,-1,0,842)" d="M 277.125 508.8357 L 389.725 508.8357 L 389.725 548.24099 L 277.125 548.24099 Z "/>
</clipPath>
<g clip-path="url(#cp17)">
<text xml:space="preserve" transform="matrix(1 0 -0 1 313.7272 310.13594)" font-size="14" font-family="TimesNewRomanPSMT"><tspan y="0" x="0 7 14 17.5 24.5 32.396">22,9+k</tspan></text>
<g id="Layer-6" data-name="Span">
<text xml:space="preserve" transform="matrix(1 0 -0 1 313.7272 310.13594)" font-size="14" font-family="TimesNewRomanPSMT"><tspan y="0" x="39.39551"> </tspan></text>
</g>
</g>
</g>
<g id="Layer-4" data-name="P">
</g>
<clipPath id="cp18">
<path transform="matrix(1,0,0,-1,0,842)" d="M 85.1 177.0818 L 552.1 177.0818 L 552.1 687.0818 L 85.1 687.0818 Z "/>
</clipPath>
<g clip-path="url(#cp18)">
<path transform="matrix(1,0,0,-1,0,842)" d="M 390.1 548.616 L 472.5 548.616 L 472.5 508.4607 L 390.1 508.4607 Z " fill="#428816" fill-opacity="0"/>
</g>
<g id="Layer-4" data-name="P">
<path transform="matrix(1,0,0,-1,0,842)" d="M 472.5 548.616 L 550.45 548.616 L 550.45 508.4607 L 472.5 508.4607 Z " fill="#42e0af" fill-opacity="0"/>
</g>
</g>
<g id="Layer-3" data-name="P">
<g id="Layer-4" data-name="P">
<g id="Layer-5" data-name="P">
</g>
<clipPath id="cp19">
<path transform="matrix(1,0,0,-1,0,842)" d="M 87.475 468.6805 L 163.025 468.6805 L 163.025 508.0858 L 87.475 508.0858 Z "/>
</clipPath>
<g clip-path="url(#cp19)">
<text xml:space="preserve" transform="matrix(1 0 -0 1 113.825 350.2912)" font-size="14" font-family="TimesNewRomanPSMT"><tspan y="0" x="0">4</tspan></text>
</g>
</g>
<g id="Layer-4" data-name="P">
<g id="Layer-5" data-name="P">
</g>
<clipPath id="cp20">
<path transform="matrix(1,0,0,-1,0,842)" d="M 163.775 468.6805 L 276.375 468.6805 L 276.375 508.0858 L 163.775 508.0858 Z "/>
</clipPath>
<g clip-path="url(#cp20)">
<text xml:space="preserve" transform="matrix(1 0 -0 1 213.075 350.2912)" font-size="14" font-family="TimesNewRomanPSMT"><tspan y="0" x="0 7">48</tspan></text>
</g>
</g>
<g id="Layer-4" data-name="P">
<g id="Layer-5" data-name="P">
</g>
<clipPath id="cp21">
<path transform="matrix(1,0,0,-1,0,842)" d="M 277.125 468.6805 L 389.725 468.6805 L 389.725 508.0858 L 277.125 508.0858 Z "/>
</clipPath>
<g clip-path="url(#cp21)">
<text xml:space="preserve" transform="matrix(1 0 -0 1 313.7272 350.2912)" font-size="14" font-family="TimesNewRomanPSMT"><tspan y="0" x="0 7 14 17.5 24.5 32.396">18,9+k</tspan></text>
<g id="Layer-6" data-name="Span">
<text xml:space="preserve" transform="matrix(1 0 -0 1 313.7272 350.2912)" font-size="14" font-family="TimesNewRomanPSMT"><tspan y="0" x="39.39551"> </tspan></text>
</g>
</g>
</g>
<g id="Layer-4" data-name="P">
</g>
<clipPath id="cp22">
<path transform="matrix(1,0,0,-1,0,842)" d="M 85.1 177.0818 L 552.1 177.0818 L 552.1 687.0818 L 85.1 687.0818 Z "/>
</clipPath>
<g clip-path="url(#cp22)">
<path transform="matrix(1,0,0,-1,0,842)" d="M 390.1 508.4607 L 472.5 508.4607 L 472.5 468.3055 L 390.1 468.3055 Z " fill="#181c5c" fill-opacity="0"/>
</g>
<g id="Layer-4" data-name="P">
<path transform="matrix(1,0,0,-1,0,842)" d="M 472.5 508.4607 L 550.45 508.4607 L 550.45 468.3055 L 472.5 468.3055 Z " fill="#9397aa" fill-opacity="0"/>
</g>
</g>
<g id="Layer-3" data-name="P">
<g id="Layer-4" data-name="P">
<g id="Layer-5" data-name="P">
</g>
<clipPath id="cp23">
<path transform="matrix(1,0,0,-1,0,842)" d="M 87.475 428.5252 L 163.025 428.5252 L 163.025 467.93049 L 87.475 467.93049 Z "/>
</clipPath>
<g clip-path="url(#cp23)">
<text xml:space="preserve" transform="matrix(1 0 -0 1 113.825 390.4465)" font-size="14" font-family="TimesNewRomanPSMT"><tspan y="0" x="0">5</tspan></text>
</g>
</g>
<g id="Layer-4" data-name="P">
<g id="Layer-5" data-name="P">
</g>
<clipPath id="cp24">
<path transform="matrix(1,0,0,-1,0,842)" d="M 163.775 428.5252 L 276.375 428.5252 L 276.375 467.93049 L 163.775 467.93049 Z "/>
</clipPath>
<g clip-path="url(#cp24)">
<text xml:space="preserve" transform="matrix(1 0 -0 1 213.075 390.4465)" font-size="14" font-family="TimesNewRomanPSMT"><tspan y="0" x="0 7">87</tspan></text>
</g>
</g>
<g id="Layer-4" data-name="P">
<g id="Layer-5" data-name="P">
</g>
<clipPath id="cp25">
<path transform="matrix(1,0,0,-1,0,842)" d="M 277.125 428.5252 L 389.725 428.5252 L 389.725 467.93049 L 277.125 467.93049 Z "/>
</clipPath>
<g clip-path="url(#cp25)">
<text xml:space="preserve" transform="matrix(1 0 -0 1 313.7272 390.4465)" font-size="14" font-family="TimesNewRomanPSMT"><tspan y="0" x="0 7 14 17.5 24.5 32.396">18,6+k</tspan></text>
<g id="Layer-6" data-name="Span">
<text xml:space="preserve" transform="matrix(1 0 -0 1 313.7272 390.4465)" font-size="14" font-family="TimesNewRomanPSMT"><tspan y="0" x="39.39551"> </tspan></text>
</g>
</g>
</g>
<g id="Layer-4" data-name="P">
</g>
<clipPath id="cp26">
<path transform="matrix(1,0,0,-1,0,842)" d="M 85.1 177.0818 L 552.1 177.0818 L 552.1 687.0818 L 85.1 687.0818 Z "/>
</clipPath>
<g clip-path="url(#cp26)">
<path transform="matrix(1,0,0,-1,0,842)" d="M 390.1 468.3055 L 472.5 468.3055 L 472.5 428.1502 L 390.1 428.1502 Z " fill="#4ac64a" fill-opacity="0"/>
</g>
<g id="Layer-4" data-name="P">
<path transform="matrix(1,0,0,-1,0,842)" d="M 472.5 468.3055 L 550.45 468.3055 L 550.45 428.1502 L 472.5 428.1502 Z " fill="#5430fb" fill-opacity="0"/>
</g>
</g>
<g id="Layer-3" data-name="P">
<g id="Layer-4" data-name="P">
<g id="Layer-5" data-name="P">
</g>
<clipPath id="cp27">
<path transform="matrix(1,0,0,-1,0,842)" d="M 87.475 388.3699 L 163.025 388.3699 L 163.025 427.77519 L 87.475 427.77519 Z "/>
</clipPath>
<g clip-path="url(#cp27)">
<text xml:space="preserve" transform="matrix(1 0 -0 1 113.825 430.6018)" font-size="14" font-family="TimesNewRomanPSMT"><tspan y="0" x="0">6</tspan></text>
</g>
</g>
<g id="Layer-4" data-name="P">
<g id="Layer-5" data-name="P">
</g>
<clipPath id="cp28">
<path transform="matrix(1,0,0,-1,0,842)" d="M 163.775 388.3699 L 276.375 388.3699 L 276.375 427.77519 L 163.775 427.77519 Z "/>
</clipPath>
<g clip-path="url(#cp28)">
<text xml:space="preserve" transform="matrix(1 0 -0 1 213.075 430.6018)" font-size="14" font-family="TimesNewRomanPSMT"><tspan y="0" x="0 7">60</tspan></text>
</g>
</g>
<g id="Layer-4" data-name="P">
<g id="Layer-5" data-name="P">
</g>
<clipPath id="cp29">
<path transform="matrix(1,0,0,-1,0,842)" d="M 277.125 388.3699 L 389.725 388.3699 L 389.725 427.77519 L 277.125 427.77519 Z "/>
</clipPath>
<g clip-path="url(#cp29)">
<text xml:space="preserve" transform="matrix(1 0 -0 1 313.7272 430.6018)" font-size="14" font-family="TimesNewRomanPSMT"><tspan y="0" x="0 7 14 17.5 24.5 32.396">30,5+k</tspan></text>
<g id="Layer-6" data-name="Span">
<text xml:space="preserve" transform="matrix(1 0 -0 1 313.7272 430.6018)" font-size="14" font-family="TimesNewRomanPSMT"><tspan y="0" x="39.39551"> </tspan></text>
</g>
</g>
</g>
<g id="Layer-4" data-name="P">
</g>
<clipPath id="cp30">
<path transform="matrix(1,0,0,-1,0,842)" d="M 85.1 177.0818 L 552.1 177.0818 L 552.1 687.0818 L 85.1 687.0818 Z "/>
</clipPath>
<g clip-path="url(#cp30)">
<path transform="matrix(1,0,0,-1,0,842)" d="M 390.1 428.1502 L 472.5 428.1502 L 472.5 387.9949 L 390.1 387.9949 Z " fill="#01d355" fill-opacity="0"/>
</g>
<g id="Layer-4" data-name="P">
<path transform="matrix(1,0,0,-1,0,842)" d="M 472.5 428.1502 L 550.45 428.1502 L 550.45 387.9949 L 472.5 387.9949 Z " fill="#306ff4" fill-opacity="0"/>
</g>
</g>
<g id="Layer-3" data-name="P">
<g id="Layer-4" data-name="P">
<g id="Layer-5" data-name="P">
</g>
<clipPath id="cp31">
<path transform="matrix(1,0,0,-1,0,842)" d="M 87.475 348.2146 L 163.025 348.2146 L 163.025 387.61988 L 87.475 387.61988 Z "/>
</clipPath>
<g clip-path="url(#cp31)">
<text xml:space="preserve" transform="matrix(1 0 -0 1 113.825 470.757)" font-size="14" font-family="TimesNewRomanPSMT"><tspan y="0" x="0">7</tspan></text>
</g>
</g>
<g id="Layer-4" data-name="P">
<g id="Layer-5" data-name="P">
</g>
<clipPath id="cp32">
<path transform="matrix(1,0,0,-1,0,842)" d="M 163.775 348.2146 L 276.375 348.2146 L 276.375 387.61988 L 163.775 387.61988 Z "/>
</clipPath>
<g clip-path="url(#cp32)">
<text xml:space="preserve" transform="matrix(1 0 -0 1 213.075 470.757)" font-size="14" font-family="TimesNewRomanPSMT"><tspan y="0" x="0 7">75</tspan></text>
</g>
</g>
<g id="Layer-4" data-name="P">
<g id="Layer-5" data-name="P">
</g>
<clipPath id="cp33">
<path transform="matrix(1,0,0,-1,0,842)" d="M 277.125 348.2146 L 389.725 348.2146 L 389.725 387.61988 L 277.125 387.61988 Z "/>
</clipPath>
<g clip-path="url(#cp33)">
<text xml:space="preserve" transform="matrix(1 0 -0 1 313.7272 470.757)" font-size="14" font-family="TimesNewRomanPSMT"><tspan y="0" x="0 7 14 17.5 24.5 32.396">23,4+k</tspan></text>
<g id="Layer-6" data-name="Span">
<text xml:space="preserve" transform="matrix(1 0 -0 1 313.7272 470.757)" font-size="14" font-family="TimesNewRomanPSMT"><tspan y="0" x="39.39551"> </tspan></text>
</g>
</g>
</g>
<g id="Layer-4" data-name="P">
</g>
<clipPath id="cp34">
<path transform="matrix(1,0,0,-1,0,842)" d="M 85.1 177.0818 L 552.1 177.0818 L 552.1 687.0818 L 85.1 687.0818 Z "/>
</clipPath>
<g clip-path="url(#cp34)">
<path transform="matrix(1,0,0,-1,0,842)" d="M 390.1 387.9949 L 472.5 387.9949 L 472.5 347.8396 L 390.1 347.8396 Z " fill="#eac3b2" fill-opacity="0"/>
</g>
<g id="Layer-4" data-name="P">
<path transform="matrix(1,0,0,-1,0,842)" d="M 472.5 387.9949 L 550.45 387.9949 L 550.45 347.8396 L 472.5 347.8396 Z " fill="#1faf62" fill-opacity="0"/>
</g>
</g>
<g id="Layer-3" data-name="P">
<g id="Layer-4" data-name="P">
<g id="Layer-5" data-name="P">
</g>
<clipPath id="cp35">
<path transform="matrix(1,0,0,-1,0,842)" d="M 87.475 308.0594 L 163.025 308.0594 L 163.025 347.46467 L 87.475 347.46467 Z "/>
</clipPath>
<g clip-path="url(#cp35)">
<text xml:space="preserve" transform="matrix(1 0 -0 1 113.825 510.9123)" font-size="14" font-family="TimesNewRomanPSMT"><tspan y="0" x="0">8</tspan></text>
</g>
</g>
<g id="Layer-4" data-name="P">
<g id="Layer-5" data-name="P">
</g>
<clipPath id="cp36">
<path transform="matrix(1,0,0,-1,0,842)" d="M 163.775 308.0594 L 276.375 308.0594 L 276.375 347.46467 L 163.775 347.46467 Z "/>
</clipPath>
<g clip-path="url(#cp36)">
<text xml:space="preserve" transform="matrix(1 0 -0 1 213.075 510.9123)" font-size="14" font-family="TimesNewRomanPSMT"><tspan y="0" x="0 7">80</tspan></text>
</g>
</g>
<g id="Layer-4" data-name="P">
<g id="Layer-5" data-name="P">
</g>
<clipPath id="cp37">
<path transform="matrix(1,0,0,-1,0,842)" d="M 277.125 308.0594 L 389.725 308.0594 L 389.725 347.46467 L 277.125 347.46467 Z "/>
</clipPath>
<g clip-path="url(#cp37)">
<text xml:space="preserve" transform="matrix(1 0 -0 1 313.7272 510.9123)" font-size="14" font-family="TimesNewRomanPSMT"><tspan y="0" x="0 7 14 17.5 24.5 32.396">27,6+k</tspan></text>
<g id="Layer-6" data-name="Span">
<text xml:space="preserve" transform="matrix(1 0 -0 1 313.7272 510.9123)" font-size="14" font-family="TimesNewRomanPSMT"><tspan y="0" x="39.39551"> </tspan></text>
</g>
</g>
</g>
<g id="Layer-4" data-name="P">
</g>
<clipPath id="cp38">
<path transform="matrix(1,0,0,-1,0,842)" d="M 85.1 177.0818 L 552.1 177.0818 L 552.1 687.0818 L 85.1 687.0818 Z "/>
</clipPath>
<g clip-path="url(#cp38)">
<path transform="matrix(1,0,0,-1,0,842)" d="M 390.1 347.8396 L 472.5 347.8396 L 472.5 307.6844 L 390.1 307.6844 Z " fill="#c5f0ea" fill-opacity="0"/>
</g>
<g id="Layer-4" data-name="P">
<path transform="matrix(1,0,0,-1,0,842)" d="M 472.5 347.8396 L 550.45 347.8396 L 550.45 307.6844 L 472.5 307.6844 Z " fill="#dc34ca" fill-opacity="0"/>
</g>
</g>
<g id="Layer-3" data-name="P">
<g id="Layer-4" data-name="P">
<g id="Layer-5" data-name="P">
</g>
<clipPath id="cp39">
<path transform="matrix(1,0,0,-1,0,842)" d="M 87.475 267.9041 L 163.025 267.9041 L 163.025 307.3094 L 87.475 307.3094 Z "/>
</clipPath>
<g clip-path="url(#cp39)">
<text xml:space="preserve" transform="matrix(1 0 -0 1 113.825 551.0676)" font-size="14" font-family="TimesNewRomanPSMT"><tspan y="0" x="0">9</tspan></text>
</g>
</g>
<g id="Layer-4" data-name="P">
<g id="Layer-5" data-name="P">
</g>
<clipPath id="cp40">
<path transform="matrix(1,0,0,-1,0,842)" d="M 163.775 267.9041 L 276.375 267.9041 L 276.375 307.3094 L 163.775 307.3094 Z "/>
</clipPath>
<g clip-path="url(#cp40)">
<text xml:space="preserve" transform="matrix(1 0 -0 1 213.075 551.0676)" font-size="14" font-family="TimesNewRomanPSMT"><tspan y="0" x="0 7">66</tspan></text>
</g>
</g>
<g id="Layer-4" data-name="P">
<g id="Layer-5" data-name="P">
</g>
<clipPath id="cp41">
<path transform="matrix(1,0,0,-1,0,842)" d="M 277.125 267.9041 L 389.725 267.9041 L 389.725 307.3094 L 277.125 307.3094 Z "/>
</clipPath>
<g clip-path="url(#cp41)">
<text xml:space="preserve" transform="matrix(1 0 -0 1 313.7272 551.0676)" font-size="14" font-family="TimesNewRomanPSMT"><tspan y="0" x="0 7 14 17.5 24.5 32.396">20,9+k</tspan></text>
<g id="Layer-6" data-name="Span">
<text xml:space="preserve" transform="matrix(1 0 -0 1 313.7272 551.0676)" font-size="14" font-family="TimesNewRomanPSMT"><tspan y="0" x="39.39551"> </tspan></text>
</g>
</g>
</g>
<g id="Layer-4" data-name="P">
</g>
<clipPath id="cp42">
<path transform="matrix(1,0,0,-1,0,842)" d="M 85.1 177.0818 L 552.1 177.0818 L 552.1 687.0818 L 85.1 687.0818 Z "/>
</clipPath>
<g clip-path="url(#cp42)">
<path transform="matrix(1,0,0,-1,0,842)" d="M 390.1 307.6844 L 472.5 307.6844 L 472.5 267.5291 L 390.1 267.5291 Z " fill="#8c4ce7" fill-opacity="0"/>
</g>
<g id="Layer-4" data-name="P">
<path transform="matrix(1,0,0,-1,0,842)" d="M 472.5 307.6844 L 550.45 307.6844 L 550.45 267.5291 L 472.5 267.5291 Z " fill="#e8df7f" fill-opacity="0"/>
</g>
</g>
<g id="Layer-3" data-name="P">
<g id="Layer-4" data-name="P">
<g id="Layer-5" data-name="P">
</g>
<clipPath id="cp43">
<path transform="matrix(1,0,0,-1,0,842)" d="M 87.475 227.7488 L 163.025 227.7488 L 163.025 267.15406 L 87.475 267.15406 Z "/>
</clipPath>
<g clip-path="url(#cp43)">
<text xml:space="preserve" transform="matrix(1 0 -0 1 110.325 591.2229)" font-size="14" font-family="TimesNewRomanPSMT"><tspan y="0" x="0 7">10</tspan></text>
</g>
</g>
<g id="Layer-4" data-name="P">
<g id="Layer-5" data-name="P">
</g>
<clipPath id="cp44">
<path transform="matrix(1,0,0,-1,0,842)" d="M 163.775 227.7488 L 276.375 227.7488 L 276.375 267.15406 L 163.775 267.15406 Z "/>
</clipPath>
<g clip-path="url(#cp44)">
<text xml:space="preserve" transform="matrix(1 0 -0 1 213.075 591.2229)" font-size="14" font-family="TimesNewRomanPSMT"><tspan y="0" x="0 7">58</tspan></text>
</g>
</g>
<g id="Layer-4" data-name="P">
<g id="Layer-5" data-name="P">
</g>
<clipPath id="cp45">
<path transform="matrix(1,0,0,-1,0,842)" d="M 277.125 227.7488 L 389.725 227.7488 L 389.725 267.15406 L 277.125 267.15406 Z "/>
</clipPath>
<g clip-path="url(#cp45)">
<text xml:space="preserve" transform="matrix(1 0 -0 1 313.7272 591.2229)" font-size="14" font-family="TimesNewRomanPSMT"><tspan y="0" x="0 7 14 17.5 24.5 32.396">18,2+k</tspan></text>
<g id="Layer-6" data-name="Span">
<text xml:space="preserve" transform="matrix(1 0 -0 1 313.7272 591.2229)" font-size="14" font-family="TimesNewRomanPSMT"><tspan y="0" x="39.39551"> </tspan></text>
</g>
</g>
</g>
<g id="Layer-4" data-name="P">
</g>
<clipPath id="cp46">
<path transform="matrix(1,0,0,-1,0,842)" d="M 85.1 177.0818 L 552.1 177.0818 L 552.1 687.0818 L 85.1 687.0818 Z "/>
</clipPath>
<g clip-path="url(#cp46)">
<path transform="matrix(1,0,0,-1,0,842)" d="M 390.1 267.5291 L 472.5 267.5291 L 472.5 227.3738 L 390.1 227.3738 Z " fill="#932a46" fill-opacity="0"/>
</g>
<g id="Layer-4" data-name="P">
<path transform="matrix(1,0,0,-1,0,842)" d="M 472.5 267.5291 L 550.45 267.5291 L 550.45 227.3738 L 472.5 227.3738 Z " fill="#dc7e76" fill-opacity="0"/>
</g>
</g>
<g id="Layer-3" data-name="P">
<g id="Layer-4" data-name="P">
<g id="Layer-5" data-name="P">
</g>
<clipPath id="cp47">
<path transform="matrix(1,0,0,-1,0,842)" d="M 87.475 203.5936 L 163.025 203.5936 L 163.025 226.99887 L 87.475 226.99887 Z "/>
</clipPath>
<g clip-path="url(#cp47)">
<text xml:space="preserve" transform="matrix(1 0 -0 1 97.5042 631.3781)" font-size="14" font-family="TimesNewRomanPSMT"><tspan y="0" x="0 8.989401 15.808801 24.672202 33.4376">&#x0421;&#x0443;&#x043c;&#x043c;&#x0430;</tspan></text>
</g>
</g>
<g id="Layer-4" data-name="P">
</g>
<clipPath id="cp48">
<path transform="matrix(1,0,0,-1,0,842)" d="M 85.1 177.0818 L 552.1 177.0818 L 552.1 687.0818 L 85.1 687.0818 Z "/>
</clipPath>
<g clip-path="url(#cp48)">
<path transform="matrix(1,0,0,-1,0,842)" d="M 163.4 227.3738 L 276.75 227.3738 L 276.75 203.2186 L 163.4 203.2186 Z " fill="#d87e4a" fill-opacity="0"/>
</g>
<g id="Layer-4" data-name="P">
<path transform="matrix(1,0,0,-1,0,842)" d="M 276.75 227.3738 L 390.1 227.3738 L 390.1 203.2186 L 276.75 203.2186 Z " fill="#2eaeba" fill-opacity="0"/>
</g>
<g id="Layer-4" data-name="P">
<path transform="matrix(1,0,0,-1,0,842)" d="M 390.1 227.3738 L 472.5 227.3738 L 472.5 203.2186 L 390.1 203.2186 Z " fill="#239a7e" fill-opacity="0"/>
</g>
<g id="Layer-4" data-name="P">
<path transform="matrix(1,0,0,-1,0,842)" d="M 472.5 227.3738 L 550.45 227.3738 L 550.45 203.2186 L 472.5 203.2186 Z " fill="#d6b92d" fill-opacity="0"/>
</g>
</g>
<g id="Layer-3" data-name="P">
<g id="Layer-4" data-name="P">
<g id="Layer-5" data-name="P">
</g>
<clipPath id="cp49">
<path transform="matrix(1,0,0,-1,0,842)" d="M 87.475 179.4383 L 163.025 179.4383 L 163.025 202.84357 L 87.475 202.84357 Z "/>
</clipPath>
<g clip-path="url(#cp49)">
<text xml:space="preserve" transform="matrix(1 0 -0 1 92.61993 655.5334)" font-size="14" font-family="TimesNewRomanPSMT"><tspan y="0" x="0 9.338001 16.338002 22.367802 29.491002 36.983804 43.197004">&#x0421;&#x0440;&#x0435;&#x0434;&#x043d;&#x0435;&#x0435;</tspan></text>
</g>
</g>
<g id="Layer-4" data-name="P">
</g>
<clipPath id="cp50">
<path transform="matrix(1,0,0,-1,0,842)" d="M 85.1 177.0818 L 552.1 177.0818 L 552.1 687.0818 L 85.1 687.0818 Z "/>
</clipPath>
<g clip-path="url(#cp50)">
<path transform="matrix(1,0,0,-1,0,842)" d="M 163.4 203.2186 L 276.75 203.2186 L 276.75 179.0633 L 163.4 179.0633 Z " fill="#397f1f" fill-opacity="0"/>
</g>
<g id="Layer-4" data-name="P">
<path transform="matrix(1,0,0,-1,0,842)" d="M 276.75 203.2186 L 390.1 203.2186 L 390.1 179.0633 L 276.75 179.0633 Z " fill="#235c53" fill-opacity="0"/>
</g>
<g id="Layer-4" data-name="P">
<path transform="matrix(1,0,0,-1,0,842)" d="M 390.1 203.2186 L 472.5 203.2186 L 472.5 179.0633 L 390.1 179.0633 Z " fill="#eee89f" fill-opacity="0"/>
</g>
<g id="Layer-4" data-name="P">
<path transform="matrix(1,0,0,-1,0,842)" d="M 472.5 203.2186 L 550.45 203.2186 L 550.45 179.0633 L 472.5 179.0633 Z " fill="#d5d17e" fill-opacity="0"/>
</g>
</g>
<path transform="matrix(1,0,0,1,85.1,154.91822)" stroke-width=".75" stroke-linecap="butt" stroke-miterlimit="4" stroke-linejoin="miter" fill="none" stroke="#404040" d="M 78.3 1.5 L 78.3 508.5186 "/>
<path transform="matrix(1,0,0,1,85.1,154.91822)" stroke-width=".75" stroke-linecap="butt" stroke-miterlimit="4" stroke-linejoin="miter" fill="none" stroke="#404040" d="M 191.65 1.5 L 191.65 508.5186 "/>
<path transform="matrix(1,0,0,1,85.1,154.91822)" stroke-width=".75" stroke-linecap="butt" stroke-miterlimit="4" stroke-linejoin="miter" fill="none" stroke="#404040" d="M 305 1.5 L 305 508.5186 "/>
<path transform="matrix(1,0,0,1,85.1,154.91822)" stroke-width=".75" stroke-linecap="butt" stroke-miterlimit="4" stroke-linejoin="miter" fill="none" stroke="#404040" d="M 387.4 1.5 L 387.4 508.5186 "/>
<path transform="matrix(1,0,0,1,85.1,154.91822)" stroke-width=".75" stroke-linecap="butt" stroke-miterlimit="4" stroke-linejoin="miter" fill="none" stroke="#404040" d="M 1.5 58.15527 L 465.85 58.15527 "/>
<path transform="matrix(1,0,0,1,85.1,154.91822)" stroke-width=".75" stroke-linecap="butt" stroke-miterlimit="4" stroke-linejoin="miter" fill="none" stroke="#404040" d="M 1.5 98.31055 L 465.85 98.31055 "/>
<path transform="matrix(1,0,0,1,85.1,154.91822)" stroke-width=".75" stroke-linecap="butt" stroke-miterlimit="4" stroke-linejoin="miter" fill="none" stroke="#404040" d="M 1.5 138.4658 L 465.85 138.4658 "/>
<path transform="matrix(1,0,0,1,85.1,154.91822)" stroke-width=".75" stroke-linecap="butt" stroke-miterlimit="4" stroke-linejoin="miter" fill="none" stroke="#404040" d="M 1.5 178.6211 L 465.85 178.6211 "/>
<path transform="matrix(1,0,0,1,85.1,154.91822)" stroke-width=".75" stroke-linecap="butt" stroke-miterlimit="4" stroke-linejoin="miter" fill="none" stroke="#404040" d="M 1.5 218.7764 L 465.85 218.7764 "/>
<path transform="matrix(1,0,0,1,85.1,154.91822)" stroke-width=".75" stroke-linecap="butt" stroke-miterlimit="4" stroke-linejoin="miter" fill="none" stroke="#404040" d="M 1.5 258.9316 L 465.85 258.9316 "/>
<path transform="matrix(1,0,0,1,85.1,154.91822)" stroke-width=".75" stroke-linecap="butt" stroke-miterlimit="4" stroke-linejoin="miter" fill="none" stroke="#404040" d="M 1.5 299.0869 L 465.85 299.0869 "/>
<path transform="matrix(1,0,0,1,85.1,154.91822)" stroke-width=".75" stroke-linecap="butt" stroke-miterlimit="4" stroke-linejoin="miter" fill="none" stroke="#404040" d="M 1.5 339.2422 L 465.85 339.2422 "/>
<path transform="matrix(1,0,0,1,85.1,154.91822)" stroke-width=".75" stroke-linecap="butt" stroke-miterlimit="4" stroke-linejoin="miter" fill="none" stroke="#404040" d="M 1.5 379.3975 L 465.85 379.3975 "/>
<path transform="matrix(1,0,0,1,85.1,154.91822)" stroke-width=".75" stroke-linecap="butt" stroke-miterlimit="4" stroke-linejoin="miter" fill="none" stroke="#404040" d="M 1.5 419.5527 L 465.85 419.5527 "/>
<path transform="matrix(1,0,0,1,85.1,154.91822)" stroke-width=".75" stroke-linecap="butt" stroke-miterlimit="4" stroke-linejoin="miter" fill="none" stroke="#404040" d="M 1.5 459.708 L 465.85 459.708 "/>
<path transform="matrix(1,0,0,1,85.1,154.91822)" stroke-width=".75" stroke-linecap="butt" stroke-miterlimit="4" stroke-linejoin="miter" fill="none" stroke="#404040" d="M 1.5 483.8633 L 465.85 483.8633 "/>
<path transform="matrix(1,0,0,1,85.1,154.91822)" stroke-width=".75" stroke-linecap="butt" stroke-miterlimit="4" stroke-linejoin="miter" fill="none" stroke="#404040" d="M 2 1.5 L 2 508.5186 "/>
<path transform="matrix(1,0,0,1,85.1,154.91822)" stroke-width=".75" stroke-linecap="butt" stroke-miterlimit="4" stroke-linejoin="miter" fill="none" stroke="#404040" d="M 465.35 1.5 L 465.35 508.5186 "/>
<path transform="matrix(1,0,0,1,85.1,154.91822)" stroke-width=".75" stroke-linecap="butt" stroke-miterlimit="4" stroke-linejoin="miter" fill="none" stroke="#404040" d="M 1.5 2 L 465.85 2 "/>
<path transform="matrix(1,0,0,1,85.1,154.91822)" stroke-width=".75" stroke-linecap="butt" stroke-miterlimit="4" stroke-linejoin="miter" fill="none" stroke="#404040" d="M 1.5 508.0186 L 465.85 508.0186 "/>
</g>
</g>
</g>
</g>
</svg>
