<?xml version="1.0" encoding="UTF-8" standalone="no"?>
<!DOCTYPE svg PUBLIC "-//W3C//DTD SVG 1.1//EN" "http://www.w3.org/Graphics/SVG/1.1/DTD/svg11.dtd">
<svg xmlns="http://www.w3.org/2000/svg" xmlns:xlink="http://www.w3.org/1999/xlink" version="1.1" width="595pt" height="842pt" viewBox="0 0 595 842">
<g enable-background="new">
<clipPath id="cp56">
<path transform="matrix(1,0,0,-1,0,842)" d="M 0 0 L 595 0 L 595 842 L 0 842 Z "/>
</clipPath>
<g clip-path="url(#cp56)">
<path transform="matrix(1,0,0,-1,0,842)" d="M 0 842 L 595 842 L 595 0 L 0 0 Z " fill="#ffffff"/>
<g id="Layer-1" data-name="P">
</g>
<clipPath id="cp57">
<path transform="matrix(1,0,0,-1,0,842)" d="M 81.17403 56.3 L 556.37606 56.3 L 556.37606 789.17599 L 81.17403 789.17599 Z "/>
</clipPath>
<g clip-path="url(#cp57)">
<text xml:space="preserve" transform="matrix(1 0 -0 1 120.5 69.07703)" font-size="14" font-family="TimesNewRomanPSMT"><tspan y="0" x="0 10.353002 17.581202 28.268803 36.775205 47.195405">&#x0412;&#x0430;&#x0436;&#x043d;&#x044b;&#x043c;</tspan></text>
<text xml:space="preserve" transform="matrix(1 0 -0 1 120.5 69.07703)" font-size="14" font-family="TimesNewRomanPSMT"><tspan y="0" x="56.054605"> </tspan></text>
<text xml:space="preserve" transform="matrix(1 0 -0 1 120.5 69.07703)" font-size="14" font-family="TimesNewRomanPSMT"><tspan y="0" x="67.0614 75.5678 83.5828 91.1876 98.4158 104.9608 111.8264 118.9594 126.1876 134.1886 141.41681">&#x043f;&#x043e;&#x043a;&#x0430;&#x0437;&#x0430;&#x0442;&#x0435;&#x043b;&#x0435;&#x043c;</tspan></text>
<text xml:space="preserve" transform="matrix(1 0 -0 1 120.5 69.07703)" font-size="14" font-family="TimesNewRomanPSMT"><tspan y="0" x="151.29102 154.79102">, </tspan></text>
<text xml:space="preserve" transform="matrix(1 0 -0 1 120.5 69.07703)" font-size="14" font-family="TimesNewRomanPSMT"><tspan y="0" x="165.79782 173.62802 180.85623 188.87123 196.09944 203.73084 210.86383 218.09204 226.10704 234.61345 240.86444 248.87944 260.35246 272.14747 280.65385">&#x0445;&#x0430;&#x0440;&#x0430;&#x043a;&#x0442;&#x0435;&#x0440;&#x0438;&#x0437;&#x0443;&#x044e;&#x0449;&#x0438;&#x043c;</tspan></text>
<text xml:space="preserve" transform="matrix(1 0 -0 1 120.5 69.07703)" font-size="14" font-family="TimesNewRomanPSMT"><tspan y="0" x="289.51304"> </tspan></text>
<text xml:space="preserve" transform="matrix(1 0 -0 1 120.5 69.07703)" font-size="14" font-family="TimesNewRomanPSMT"><tspan y="0" x="300.51985 307.74806 316.11164 323.33985 330.28807 338.03565 345.48927 353.99565 362.502">&#x0441;&#x043e;&#x0441;&#x0442;&#x043e;&#x044f;&#x043d;&#x0438;&#x0435;</tspan></text>
<text xml:space="preserve" transform="matrix(1 0 -0 1 120.5 69.07703)" font-size="14" font-family="TimesNewRomanPSMT"><tspan y="0" x="368.7152"> </tspan></text>
<text xml:space="preserve" transform="matrix(1 0 -0 1 120.5 69.07703)" font-size="14" font-family="TimesNewRomanPSMT"><tspan y="0" x="379.72203 388.2284 394.7454 402.7604 410.816 419.3224">&#x043d;&#x0430;&#x0443;&#x0447;&#x043d;&#x043e;</tspan></text>
<text xml:space="preserve" transform="matrix(1 0 -0 1 120.5 69.07703)" font-size="14" font-family="TimesNewRomanPSMT"><tspan y="0" x="427.3374">-</tspan></text>
<text xml:space="preserve" transform="matrix(1 0 -0 1 85.05 87.387699)" font-size="14" font-family="TimesNewRomanPSMT"><tspan y="0" x="0 6.118 12.1478 19.1478 26.6406 34.1334 41.174 47.737199 53.950399 60.041799 67.041797 72.43599">&#x0442;&#x0435;&#x0445;&#x043d;&#x0438;&#x0447;&#x0435;&#x0441;&#x043a;&#x043e;&#x0433;&#x043e;</tspan></text>
<text xml:space="preserve" transform="matrix(1 0 -0 1 85.05 87.387699)" font-size="14" font-family="TimesNewRomanPSMT"><tspan y="0" x="79.43599"> </tspan></text>
<text xml:space="preserve" transform="matrix(1 0 -0 1 85.05 87.387699)" font-size="14" font-family="TimesNewRomanPSMT"><tspan y="0" x="83.31679 90.809589 97.62479 103.74278 109.955989 117.448787 124.94158 132.43439 138.7708 145.7568">&#x043f;&#x043e;&#x0442;&#x0435;&#x043d;&#x0446;&#x0438;&#x0430;&#x043b;&#x0430;</tspan></text>
<text xml:space="preserve" transform="matrix(1 0 -0 1 85.05 87.387699)" font-size="14" font-family="TimesNewRomanPSMT"><tspan y="0" x="151.97 155.47">, </tspan></text>
<text xml:space="preserve" transform="matrix(1 0 -0 1 85.05 87.387699)" font-size="14" font-family="TimesNewRomanPSMT"><tspan y="0" x="159.3508 165.7908 172.2168 179.20279 185.64279 191.85599 198.14479 204.35799">&#x044f;&#x0432;&#x043b;&#x044f;&#x0435;&#x0442;&#x0441;&#x044f;</tspan></text>
<text xml:space="preserve" transform="matrix(1 0 -0 1 85.05 87.387699)" font-size="14" font-family="TimesNewRomanPSMT"><tspan y="0" x="210.79799"> </tspan></text>
<text xml:space="preserve" transform="matrix(1 0 -0 1 85.05 87.387699)" font-size="14" font-family="TimesNewRomanPSMT"><tspan y="0" x="214.67879 221.67879 228.4534 235.69281 241.906">&#x043e;&#x0431;&#x044a;&#x0435;&#x043c;</tspan></text>
<text xml:space="preserve" transform="matrix(1 0 -0 1 85.05 87.387699)" font-size="14" font-family="TimesNewRomanPSMT"><tspan y="0" x="250.7652"> </tspan></text>
<text xml:space="preserve" transform="matrix(1 0 -0 1 85.05 87.387699)" font-size="14" font-family="TimesNewRomanPSMT"><tspan y="0" x="254.646 261.646 267.8592 273.889 280.35563 286.95243 294.07563 301.07563">&#x0440;&#x0430;&#x0441;&#x0445;&#x043e;&#x0434;&#x043e;&#x0432;</tspan></text>
<text xml:space="preserve" transform="matrix(1 0 -0 1 85.05 87.387699)" font-size="14" font-family="TimesNewRomanPSMT"><tspan y="0" x="307.68644"> </tspan></text>
<text xml:space="preserve" transform="matrix(1 0 -0 1 85.05 87.387699)" font-size="14" font-family="TimesNewRomanPSMT"><tspan y="0" x="311.56724 319.06004">&#x043d;&#x0430;</tspan></text>
<text xml:space="preserve" transform="matrix(1 0 -0 1 85.05 87.387699)" font-size="14" font-family="TimesNewRomanPSMT"><tspan y="0" x="325.27323"> </tspan></text>
<text xml:space="preserve" transform="matrix(1 0 -0 1 85.05 87.387699)" font-size="14" font-family="TimesNewRomanPSMT"><tspan y="0" x="329.15403 339.26484 349.37565 359.48646 368.82447">&#x041d;&#x0418;&#x041e;&#x041a;&#x0420;</tspan></text>
<text xml:space="preserve" transform="matrix(1 0 -0 1 85.05 87.387699)" font-size="14" font-family="TimesNewRomanPSMT"><tspan y="0" x="376.61128"> </tspan></text>
<text xml:space="preserve" transform="matrix(1 0 -0 1 85.05 87.387699)" font-size="14" font-family="TimesNewRomanPSMT"><tspan y="0" x="380.49208">&#x0438;</tspan></text>
<text xml:space="preserve" transform="matrix(1 0 -0 1 85.05 87.387699)" font-size="14" font-family="TimesNewRomanPSMT"><tspan y="0" x="387.98487"> </tspan></text>
<text xml:space="preserve" transform="matrix(1 0 -0 1 85.05 87.387699)" font-size="14" font-family="TimesNewRomanPSMT"><tspan y="0" x="391.86567 399.35847">&#x0438;&#x0445;</tspan></text>
<text xml:space="preserve" transform="matrix(1 0 -0 1 85.05 87.387699)" font-size="14" font-family="TimesNewRomanPSMT"><tspan y="0" x="406.35847"> </tspan></text>
<text xml:space="preserve" transform="matrix(1 0 -0 1 85.05 87.387699)" font-size="14" font-family="TimesNewRomanPSMT"><tspan y="0" x="410.23927 416.35728 423.48048 429.69367 436.67967 443.06507 450.55787 459.96446">&#x0443;&#x0434;&#x0435;&#x043b;&#x044c;&#x043d;&#x044b;&#x0439;</tspan></text>
<text xml:space="preserve" transform="matrix(1 0 -0 1 85.05 87.387699)" font-size="14" font-family="TimesNewRomanPSMT"><tspan y="0" x="467.45726"> </tspan></text>
<text xml:space="preserve" transform="matrix(1 0 -0 1 85.05 105.69849)" font-size="14" font-family="TimesNewRomanPSMT"><tspan y="0" x="0 6.5282 13.091401">&#x0432;&#x0435;&#x0441;</tspan></text>
<text xml:space="preserve" transform="matrix(1 0 -0 1 85.05 105.69849)" font-size="14" font-family="TimesNewRomanPSMT"><tspan y="0" x="19.304602"> </tspan></text>
<text xml:space="preserve" transform="matrix(1 0 -0 1 85.05 105.69849)" font-size="14" font-family="TimesNewRomanPSMT"><tspan y="0" x="22.804602">&#x0432;</tspan></text>
<text xml:space="preserve" transform="matrix(1 0 -0 1 85.05 105.69849)" font-size="14" font-family="TimesNewRomanPSMT"><tspan y="0" x="29.415402"> </tspan></text>
<text xml:space="preserve" transform="matrix(1 0 -0 1 85.05 105.69849)" font-size="14" font-family="TimesNewRomanPSMT"><tspan y="0" x="32.9154 42.253404 51.591405">&#x0412;&#x0412;&#x041f;</tspan></text>
<text xml:space="preserve" transform="matrix(1 0 -0 1 85.05 105.69849)" font-size="14" font-family="TimesNewRomanPSMT"><tspan y="0" x="61.702207">.</tspan></text>
<g id="Layer-2" data-name="Span">
<text xml:space="preserve" transform="matrix(1 0 -0 1 85.05 105.69849)" font-size="14" font-family="TimesNewRomanPSMT"><tspan y="0" x="65.20117"> </tspan></text>
</g>
</g>
<g id="Layer-1" data-name="P">
<text xml:space="preserve" transform="matrix(1 0 -0 1 120.5 124.00928)" font-size="14" font-family="TimesNewRomanPSMT"><tspan y="0" x="0 8.989401 15.804601 24.663802 33.427804 39.641004 46.641004 54.133806 63.540407">&#x0421;&#x0443;&#x043c;&#x043c;&#x0430;&#x0440;&#x043d;&#x044b;&#x0435;</tspan></text>
<text xml:space="preserve" transform="matrix(1 0 -0 1 120.5 124.00928)" font-size="14" font-family="TimesNewRomanPSMT"><tspan y="0" x="69.75361"> </tspan></text>
<text xml:space="preserve" transform="matrix(1 0 -0 1 120.5 124.00928)" font-size="14" font-family="TimesNewRomanPSMT"><tspan y="0" x="79.51021 85.04021 90.89221 97.18101 104.18101 110.03301 116.15102">&#x0437;&#x0430;&#x0442;&#x0440;&#x0430;&#x0442;&#x044b;</tspan></text>
<text xml:space="preserve" transform="matrix(1 0 -0 1 120.5 124.00928)" font-size="14" font-family="TimesNewRomanPSMT"><tspan y="0" x="125.55762"> </tspan></text>
<text xml:space="preserve" transform="matrix(1 0 -0 1 120.5 124.00928)" font-size="14" font-family="TimesNewRomanPSMT"><tspan y="0" x="135.31423 142.80704">&#x043d;&#x0430;</tspan></text>
<text xml:space="preserve" transform="matrix(1 0 -0 1 120.5 124.00928)" font-size="14" font-family="TimesNewRomanPSMT"><tspan y="0" x="149.02024"> </tspan></text>
<text xml:space="preserve" transform="matrix(1 0 -0 1 120.5 124.00928)" font-size="14" font-family="TimesNewRomanPSMT"><tspan y="0" x="158.77684 168.88765 178.99846 189.10927 198.44727">&#x041d;&#x0418;&#x041e;&#x041a;&#x0420;</tspan></text>
<text xml:space="preserve" transform="matrix(1 0 -0 1 120.5 124.00928)" font-size="14" font-family="TimesNewRomanPSMT"><tspan y="0" x="206.23407"> </tspan></text>
<text xml:space="preserve" transform="matrix(1 0 -0 1 120.5 124.00928)" font-size="14" font-family="TimesNewRomanPSMT"><tspan y="0" x="215.99068 222.27948 228.49268 235.29387 242.78668">&#x0442;&#x0430;&#x043a;&#x0438;&#x0445;</tspan></text>
<text xml:space="preserve" transform="matrix(1 0 -0 1 120.5 124.00928)" font-size="14" font-family="TimesNewRomanPSMT"><tspan y="0" x="249.78668"> </tspan></text>
<text xml:space="preserve" transform="matrix(1 0 -0 1 120.5 124.00928)" font-size="14" font-family="TimesNewRomanPSMT"><tspan y="0" x="259.54328 265.75648 272.0453 279.0453 285.25849">&#x0441;&#x0442;&#x0440;&#x0430;&#x043d;</tspan></text>
<text xml:space="preserve" transform="matrix(1 0 -0 1 120.5 124.00928)" font-size="14" font-family="TimesNewRomanPSMT"><tspan y="0" x="292.75129 296.25129">, </tspan></text>
<text xml:space="preserve" transform="matrix(1 0 -0 1 120.5 124.00928)" font-size="14" font-family="TimesNewRomanPSMT"><tspan y="0" x="306.00788 312.59767 318.81086">&#x043a;&#x0430;&#x043a;</tspan></text>
<text xml:space="preserve" transform="matrix(1 0 -0 1 120.5 124.00928)" font-size="14" font-family="TimesNewRomanPSMT"><tspan y="0" x="325.61204"> </tspan></text>
<text xml:space="preserve" transform="matrix(1 0 -0 1 120.5 124.00928)" font-size="14" font-family="TimesNewRomanPSMT"><tspan y="0" x="335.36863 344.70664 358.82984">&#x0421;&#x0428;&#x0410;</tspan></text>
<text xml:space="preserve" transform="matrix(1 0 -0 1 120.5 124.00928)" font-size="14" font-family="TimesNewRomanPSMT"><tspan y="0" x="368.94065 372.44065">, </tspan></text>
<text xml:space="preserve" transform="matrix(1 0 -0 1 120.5 124.00928)" font-size="14" font-family="TimesNewRomanPSMT"><tspan y="0" x="382.19725 391.53526 399.02806 406.02806 413.52085 421.01365">&#x042f;&#x043f;&#x043e;&#x043d;&#x0438;&#x0438;</tspan></text>
<text xml:space="preserve" transform="matrix(1 0 -0 1 120.5 124.00928)" font-size="14" font-family="TimesNewRomanPSMT"><tspan y="0" x="428.50645 432.00645">, </tspan></text>
<text xml:space="preserve" transform="matrix(1 0 -0 1 85.05 142.32013)" font-size="14" font-family="TimesNewRomanPSMT"><tspan y="0" x="0 7.028 13.2412 20.0298 28.7938 35.007 42.4998 49.992605">&#x0413;&#x0435;&#x0440;&#x043c;&#x0430;&#x043d;&#x0438;&#x0438;</tspan></text>
<text xml:space="preserve" transform="matrix(1 0 -0 1 85.05 142.32013)" font-size="14" font-family="TimesNewRomanPSMT"><tspan y="0" x="57.485406 60.985406">, </tspan></text>
<text xml:space="preserve" transform="matrix(1 0 -0 1 85.05 142.32013)" font-size="14" font-family="TimesNewRomanPSMT"><tspan y="0" x="64.9222 75.9822 82.9822 89.195407 96.6882 104.181 111.6738">&#x0424;&#x0440;&#x0430;&#x043d;&#x0446;&#x0438;&#x0438;</tspan></text>
<text xml:space="preserve" transform="matrix(1 0 -0 1 85.05 142.32013)" font-size="14" font-family="TimesNewRomanPSMT"><tspan y="0" x="119.166599"> </tspan></text>
<text xml:space="preserve" transform="matrix(1 0 -0 1 85.05 142.32013)" font-size="14" font-family="TimesNewRomanPSMT"><tspan y="0" x="123.10339">&#x0438;</tspan></text>
<text xml:space="preserve" transform="matrix(1 0 -0 1 85.05 142.32013)" font-size="14" font-family="TimesNewRomanPSMT"><tspan y="0" x="130.5962"> </tspan></text>
<text xml:space="preserve" transform="matrix(1 0 -0 1 85.05 142.32013)" font-size="14" font-family="TimesNewRomanPSMT"><tspan y="0" x="134.533 143.871 150.0842 157.07019 164.563 170.6544 177.6544 184.7776 191.7776 199.27042 205.55922 211.77242 219.26523 226.75804">&#x0412;&#x0435;&#x043b;&#x0438;&#x043a;&#x043e;&#x0431;&#x0440;&#x0438;&#x0442;&#x0430;&#x043d;&#x0438;&#x0438;</tspan></text>
<text xml:space="preserve" transform="matrix(1 0 -0 1 85.05 142.32013)" font-size="14" font-family="TimesNewRomanPSMT"><tspan y="0" x="234.25086"> </tspan></text>
<text xml:space="preserve" transform="matrix(1 0 -0 1 85.05 142.32013)" font-size="14" font-family="TimesNewRomanPSMT"><tspan y="0" x="238.18766">&#x0432;</tspan></text>
<text xml:space="preserve" transform="matrix(1 0 -0 1 85.05 142.32013)" font-size="14" font-family="TimesNewRomanPSMT"><tspan y="0" x="244.79846"> </tspan></text>
<text xml:space="preserve" transform="matrix(1 0 -0 1 85.05 142.32013)" font-size="14" font-family="TimesNewRomanPSMT"><tspan y="0" x="248.73526 256.22807 261.88127 268.92185 275.25825 282.24424">&#x043d;&#x0430;&#x0447;&#x0430;&#x043b;&#x0435;</tspan></text>
<text xml:space="preserve" transform="matrix(1 0 -0 1 85.05 142.32013)" font-size="14" font-family="TimesNewRomanPSMT"><tspan y="0" x="288.45744 292.39424 299.39424 306.39424"> 90-</tspan></text>
<text xml:space="preserve" transform="matrix(1 0 -0 1 85.05 142.32013)" font-size="14" font-family="TimesNewRomanPSMT"><tspan y="0" x="311.0562">&#x0445;</tspan></text>
<text xml:space="preserve" transform="matrix(1 0 -0 1 85.05 142.32013)" font-size="14" font-family="TimesNewRomanPSMT"><tspan y="0" x="318.0562"> </tspan></text>
<text xml:space="preserve" transform="matrix(1 0 -0 1 85.05 142.32013)" font-size="14" font-family="TimesNewRomanPSMT"><tspan y="0" x="321.993 327.3872 333.984 341.1072 348.1072">&#x0433;&#x043e;&#x0434;&#x043e;&#x0432;</tspan></text>
<text xml:space="preserve" transform="matrix(1 0 -0 1 85.05 142.32013)" font-size="14" font-family="TimesNewRomanPSMT"><tspan y="0" x="354.71803"> </tspan></text>
<text xml:space="preserve" transform="matrix(1 0 -0 1 85.05 142.32013)" font-size="14" font-family="TimesNewRomanPSMT"><tspan y="0" x="358.65483 365.778 375.1846 382.1706">&#x0431;&#x044b;&#x043b;&#x0438;</tspan></text>
<text xml:space="preserve" transform="matrix(1 0 -0 1 85.05 142.32013)" font-size="14" font-family="TimesNewRomanPSMT"><tspan y="0" x="389.6634"> </tspan></text>
<text xml:space="preserve" transform="matrix(1 0 -0 1 85.05 142.32013)" font-size="14" font-family="TimesNewRomanPSMT"><tspan y="0" x="393.6002 400.7234 407.53858 414.52458 420.90998 431.68998">&#x0431;&#x043e;&#x043b;&#x044c;&#x0448;&#x0435;</tspan></text>
<text xml:space="preserve" transform="matrix(1 0 -0 1 85.05 142.32013)" font-size="14" font-family="TimesNewRomanPSMT"><tspan y="0" x="437.90318 441.40318">, </tspan></text>
<text xml:space="preserve" transform="matrix(1 0 -0 1 85.05 142.32013)" font-size="14" font-family="TimesNewRomanPSMT"><tspan y="0" x="445.33998 452.38056 458.59376">&#x0447;&#x0435;&#x043c;</tspan></text>
<text xml:space="preserve" transform="matrix(1 0 -0 1 85.05 142.32013)" font-size="14" font-family="TimesNewRomanPSMT"><tspan y="0" x="467.45295"> </tspan></text>
<text xml:space="preserve" transform="matrix(1 0 -0 1 85.05 160.63092)" font-size="14" font-family="TimesNewRomanPSMT"><tspan y="0" x="0 6.2132008 13.213201 19.727402 26.727402 33.331205 40.331205 47.824007 55.316808 64.723407">&#x0441;&#x043e;&#x0432;&#x043e;&#x043a;&#x0443;&#x043f;&#x043d;&#x044b;&#x0435;</tspan></text>
<text xml:space="preserve" transform="matrix(1 0 -0 1 85.05 160.63092)" font-size="14" font-family="TimesNewRomanPSMT"><tspan y="0" x="70.93661"> </tspan></text>
<text xml:space="preserve" transform="matrix(1 0 -0 1 85.05 160.63092)" font-size="14" font-family="TimesNewRomanPSMT"><tspan y="0" x="79.60261 86.60261 92.81581 98.84561 105.31221 111.90901 119.03221">&#x0440;&#x0430;&#x0441;&#x0445;&#x043e;&#x0434;&#x044b;</tspan></text>
<text xml:space="preserve" transform="matrix(1 0 -0 1 85.05 160.63092)" font-size="14" font-family="TimesNewRomanPSMT"><tspan y="0" x="128.43881"> </tspan></text>
<text xml:space="preserve" transform="matrix(1 0 -0 1 85.05 160.63092)" font-size="14" font-family="TimesNewRomanPSMT"><tspan y="0" x="137.10482 144.59763">&#x043d;&#x0430;</tspan></text>
<text xml:space="preserve" transform="matrix(1 0 -0 1 85.05 160.63092)" font-size="14" font-family="TimesNewRomanPSMT"><tspan y="0" x="150.81082"> </tspan></text>
<text xml:space="preserve" transform="matrix(1 0 -0 1 85.05 160.63092)" font-size="14" font-family="TimesNewRomanPSMT"><tspan y="0" x="159.47682 165.48563 171.60363">&#x044d;&#x0442;&#x0438;</tspan></text>
<text xml:space="preserve" transform="matrix(1 0 -0 1 85.05 160.63092)" font-size="14" font-family="TimesNewRomanPSMT"><tspan y="0" x="179.09644"> </tspan></text>
<text xml:space="preserve" transform="matrix(1 0 -0 1 85.05 160.63092)" font-size="14" font-family="TimesNewRomanPSMT"><tspan y="0" x="187.76244 195.25525 201.46845 208.45444">&#x0446;&#x0435;&#x043b;&#x0438;</tspan></text>
<text xml:space="preserve" transform="matrix(1 0 -0 1 85.05 160.63092)" font-size="14" font-family="TimesNewRomanPSMT"><tspan y="0" x="215.94725"> </tspan></text>
<text xml:space="preserve" transform="matrix(1 0 -0 1 85.05 160.63092)" font-size="14" font-family="TimesNewRomanPSMT"><tspan y="0" x="224.61325 231.12746">&#x0432;&#x043e;</tspan></text>
<text xml:space="preserve" transform="matrix(1 0 -0 1 85.05 160.63092)" font-size="14" font-family="TimesNewRomanPSMT"><tspan y="0" x="238.12746"> </tspan></text>
<text xml:space="preserve" transform="matrix(1 0 -0 1 85.05 160.63092)" font-size="14" font-family="TimesNewRomanPSMT"><tspan y="0" x="246.79346 253.32166 259.70707 265.73689">&#x0432;&#x0441;&#x0435;&#x0445;</tspan></text>
<text xml:space="preserve" transform="matrix(1 0 -0 1 85.05 160.63092)" font-size="14" font-family="TimesNewRomanPSMT"><tspan y="0" x="272.73689"> </tspan></text>
<text xml:space="preserve" transform="matrix(1 0 -0 1 85.05 160.63092)" font-size="14" font-family="TimesNewRomanPSMT"><tspan y="0" x="281.4029 288.7515 294.9647 301.2535 307.5899 314.5759 320.9613 328.4541 337.8607">&#x043e;&#x0441;&#x0442;&#x0430;&#x043b;&#x044c;&#x043d;&#x044b;&#x0445;</tspan></text>
<text xml:space="preserve" transform="matrix(1 0 -0 1 85.05 160.63092)" font-size="14" font-family="TimesNewRomanPSMT"><tspan y="0" x="344.8607"> </tspan></text>
<text xml:space="preserve" transform="matrix(1 0 -0 1 85.05 160.63092)" font-size="14" font-family="TimesNewRomanPSMT"><tspan y="0" x="353.52668 359.73988 366.0287 373.0287 379.24189 386.73469 392.94789">&#x0441;&#x0442;&#x0440;&#x0430;&#x043d;&#x0430;&#x0445;</tspan></text>
<text xml:space="preserve" transform="matrix(1 0 -0 1 85.05 160.63092)" font-size="14" font-family="TimesNewRomanPSMT"><tspan y="0" x="399.94789"> </tspan></text>
<text xml:space="preserve" transform="matrix(1 0 -0 1 85.05 160.63092)" font-size="14" font-family="TimesNewRomanPSMT"><tspan y="0" x="408.6139 417.47309 424.96589 431.96589">&#x043c;&#x0438;&#x0440;&#x0430;</tspan></text>
<text xml:space="preserve" transform="matrix(1 0 -0 1 85.05 160.63092)" font-size="14" font-family="TimesNewRomanPSMT"><tspan y="0" x="438.17909 441.67909">. </tspan></text>
<text xml:space="preserve" transform="matrix(1 0 -0 1 85.05 160.63092)" font-size="14" font-family="TimesNewRomanPSMT"><tspan y="0" x="450.3451 460.4559">&#x041f;&#x043e;</tspan></text>
<text xml:space="preserve" transform="matrix(1 0 -0 1 85.05 160.63092)" font-size="14" font-family="TimesNewRomanPSMT"><tspan y="0" x="467.4559"> </tspan></text>
<text xml:space="preserve" transform="matrix(1 0 -0 1 85.05 178.94171)" font-size="14" font-family="TimesNewRomanPSMT"><tspan y="0" x="0 6.2132008 13.336401 19.549603 26.364804 33.350805 43.625406 49.743406 57.236207 66.64281">&#x0430;&#x0431;&#x0441;&#x043e;&#x043b;&#x044e;&#x0442;&#x043d;&#x044b;&#x043c;</tspan></text>
<text xml:space="preserve" transform="matrix(1 0 -0 1 85.05 178.94171)" font-size="14" font-family="TimesNewRomanPSMT"><tspan y="0" x="75.50201"> </tspan></text>
<text xml:space="preserve" transform="matrix(1 0 -0 1 85.05 178.94171)" font-size="14" font-family="TimesNewRomanPSMT"><tspan y="0" x="82.184207 89.184207 95.39741 101.42721 107.89381 114.49061 121.61381 127.82701">&#x0440;&#x0430;&#x0441;&#x0445;&#x043e;&#x0434;&#x0430;&#x043c;</tspan></text>
<text xml:space="preserve" transform="matrix(1 0 -0 1 85.05 178.94171)" font-size="14" font-family="TimesNewRomanPSMT"><tspan y="0" x="136.6862"> </tspan></text>
<text xml:space="preserve" transform="matrix(1 0 -0 1 85.05 178.94171)" font-size="14" font-family="TimesNewRomanPSMT"><tspan y="0" x="143.36841 150.86122">&#x043d;&#x0430;</tspan></text>
<text xml:space="preserve" transform="matrix(1 0 -0 1 85.05 178.94171)" font-size="14" font-family="TimesNewRomanPSMT"><tspan y="0" x="157.07442"> </tspan></text>
<text xml:space="preserve" transform="matrix(1 0 -0 1 85.05 178.94171)" font-size="14" font-family="TimesNewRomanPSMT"><tspan y="0" x="163.75662 173.86743 183.97824 194.08905 203.42705">&#x041d;&#x0418;&#x041e;&#x041a;&#x0420;</tspan></text>
<text xml:space="preserve" transform="matrix(1 0 -0 1 85.05 178.94171)" font-size="14" font-family="TimesNewRomanPSMT"><tspan y="0" x="211.21385"> </tspan></text>
<text xml:space="preserve" transform="matrix(1 0 -0 1 85.05 178.94171)" font-size="14" font-family="TimesNewRomanPSMT"><tspan y="0" x="217.89606">&#x0432;</tspan></text>
<text xml:space="preserve" transform="matrix(1 0 -0 1 85.05 178.94171)" font-size="14" font-family="TimesNewRomanPSMT"><tspan y="0" x="224.50687"> </tspan></text>
<text xml:space="preserve" transform="matrix(1 0 -0 1 85.05 178.94171)" font-size="14" font-family="TimesNewRomanPSMT"><tspan y="0" x="231.18907 237.28047 244.28047 251.77329 259.26609">&#x043a;&#x043e;&#x043d;&#x0446;&#x0435;</tspan></text>
<text xml:space="preserve" transform="matrix(1 0 -0 1 85.05 178.94171)" font-size="14" font-family="TimesNewRomanPSMT"><tspan y="0" x="265.47929 272.16148 279.16148 286.16148"> 90-</tspan></text>
<text xml:space="preserve" transform="matrix(1 0 -0 1 85.05 178.94171)" font-size="14" font-family="TimesNewRomanPSMT"><tspan y="0" x="290.82347">&#x0445;</tspan></text>
<text xml:space="preserve" transform="matrix(1 0 -0 1 85.05 178.94171)" font-size="14" font-family="TimesNewRomanPSMT"><tspan y="0" x="297.82347"> </tspan></text>
<text xml:space="preserve" transform="matrix(1 0 -0 1 85.05 178.94171)" font-size="14" font-family="TimesNewRomanPSMT"><tspan y="0" x="304.50566 309.89985 316.49665 323.61985 330.61985">&#x0433;&#x043e;&#x0434;&#x043e;&#x0432;</tspan></text>
<text xml:space="preserve" transform="matrix(1 0 -0 1 85.05 178.94171)" font-size="14" font-family="TimesNewRomanPSMT"><tspan y="0" x="337.23066"> </tspan></text>
<text xml:space="preserve" transform="matrix(1 0 -0 1 85.05 178.94171)" font-size="14" font-family="TimesNewRomanPSMT"><tspan y="0" x="343.91285 351.34965 358.69825 364.91145 371.12464 378.61744">&#x0420;&#x043e;&#x0441;&#x0441;&#x0438;&#x044f;</tspan></text>
<text xml:space="preserve" transform="matrix(1 0 -0 1 85.05 178.94171)" font-size="14" font-family="TimesNewRomanPSMT"><tspan y="0" x="385.05744"> </tspan></text>
<text xml:space="preserve" transform="matrix(1 0 -0 1 85.05 178.94171)" font-size="14" font-family="TimesNewRomanPSMT"><tspan y="0" x="391.73963 397.26963 403.48283 410.97563 418.4684 427.23243 433.56883 440.5548">&#x0437;&#x0430;&#x043d;&#x0438;&#x043c;&#x0430;&#x043b;&#x0430;</tspan></text>
<text xml:space="preserve" transform="matrix(1 0 -0 1 85.05 178.94171)" font-size="14" font-family="TimesNewRomanPSMT"><tspan y="0" x="446.768 453.4502 460.4502 467.4502"> 24 </tspan></text>
<text xml:space="preserve" transform="matrix(1 0 -0 1 85.05 197.2525)" font-size="14" font-family="TimesNewRomanPSMT"><tspan y="0" x="0 8.8592009 15.422401 21.635601 27.568802">&#x043c;&#x0435;&#x0441;&#x0442;&#x043e;</tspan></text>
<text xml:space="preserve" transform="matrix(1 0 -0 1 85.05 197.2525)" font-size="14" font-family="TimesNewRomanPSMT"><tspan y="0" x="34.5688"> </tspan></text>
<text xml:space="preserve" transform="matrix(1 0 -0 1 85.05 197.2525)" font-size="14" font-family="TimesNewRomanPSMT"><tspan y="0" x="38.0688">&#x0432;</tspan></text>
<text xml:space="preserve" transform="matrix(1 0 -0 1 85.05 197.2525)" font-size="14" font-family="TimesNewRomanPSMT"><tspan y="0" x="44.679605"> </tspan></text>
<text xml:space="preserve" transform="matrix(1 0 -0 1 85.05 197.2525)" font-size="14" font-family="TimesNewRomanPSMT"><tspan y="0" x="48.179605 57.038805 64.5316 71.5316">&#x043c;&#x0438;&#x0440;&#x0435;</tspan></text>
<text xml:space="preserve" transform="matrix(1 0 -0 1 85.05 197.2525)" font-size="14" font-family="TimesNewRomanPSMT"><tspan y="0" x="77.744808">.</tspan></text>
<g id="Layer-2" data-name="Span">
<text xml:space="preserve" transform="matrix(1 0 -0 1 85.05 197.2525)" font-size="14" font-family="TimesNewRomanPSMT"><tspan y="0" x="81.24512"> </tspan></text>
</g>
</g>
<g id="Layer-1" data-name="P">
<text xml:space="preserve" transform="matrix(1 0 -0 1 120.5 215.5633)" font-size="14" font-family="TimesNewRomanPSMT"><tspan y="0" x="0 10.110801">&#x041f;&#x043e;</tspan></text>
<text xml:space="preserve" transform="matrix(1 0 -0 1 120.5 215.5633)" font-size="14" font-family="TimesNewRomanPSMT"><tspan y="0" x="17.110802"> </tspan></text>
<text xml:space="preserve" transform="matrix(1 0 -0 1 120.5 215.5633)" font-size="14" font-family="TimesNewRomanPSMT"><tspan y="0" x="21.805003 27.923003 35.046205 41.259405 48.245405 54.630804 62.123605 68.857608 77.716808">&#x0443;&#x0434;&#x0435;&#x043b;&#x044c;&#x043d;&#x043e;&#x043c;&#x0443;</tspan></text>
<text xml:space="preserve" transform="matrix(1 0 -0 1 120.5 215.5633)" font-size="14" font-family="TimesNewRomanPSMT"><tspan y="0" x="84.716808"> </tspan></text>
<text xml:space="preserve" transform="matrix(1 0 -0 1 120.5 215.5633)" font-size="14" font-family="TimesNewRomanPSMT"><tspan y="0" x="89.411 95.9392 102.5024 108.5322">&#x0432;&#x0435;&#x0441;&#x0443;</tspan></text>
<text xml:space="preserve" transform="matrix(1 0 -0 1 120.5 215.5633)" font-size="14" font-family="TimesNewRomanPSMT"><tspan y="0" x="115.5322"> </tspan></text>
<text xml:space="preserve" transform="matrix(1 0 -0 1 120.5 215.5633)" font-size="14" font-family="TimesNewRomanPSMT"><tspan y="0" x="120.2264 127.2264 133.43959 139.46939 145.93599 152.53279 159.65599 166.65599">&#x0440;&#x0430;&#x0441;&#x0445;&#x043e;&#x0434;&#x043e;&#x0432;</tspan></text>
<text xml:space="preserve" transform="matrix(1 0 -0 1 120.5 215.5633)" font-size="14" font-family="TimesNewRomanPSMT"><tspan y="0" x="173.2668"> </tspan></text>
<text xml:space="preserve" transform="matrix(1 0 -0 1 120.5 215.5633)" font-size="14" font-family="TimesNewRomanPSMT"><tspan y="0" x="177.961 185.45381">&#x043d;&#x0430;</tspan></text>
<text xml:space="preserve" transform="matrix(1 0 -0 1 120.5 215.5633)" font-size="14" font-family="TimesNewRomanPSMT"><tspan y="0" x="191.667"> </tspan></text>
<text xml:space="preserve" transform="matrix(1 0 -0 1 120.5 215.5633)" font-size="14" font-family="TimesNewRomanPSMT"><tspan y="0" x="196.3612 206.47202 216.58283 226.69364 236.03163">&#x041d;&#x0418;&#x041e;&#x041a;&#x0420;</tspan></text>
<text xml:space="preserve" transform="matrix(1 0 -0 1 120.5 215.5633)" font-size="14" font-family="TimesNewRomanPSMT"><tspan y="0" x="243.81844"> </tspan></text>
<text xml:space="preserve" transform="matrix(1 0 -0 1 120.5 215.5633)" font-size="14" font-family="TimesNewRomanPSMT"><tspan y="0" x="248.51264 255.49863 262.99143 270.11463 277.60743 284.4226 291.4226 301.6972">&#x043b;&#x0438;&#x0434;&#x0438;&#x0440;&#x0443;&#x044e;&#x0442;</tspan></text>
<text xml:space="preserve" transform="matrix(1 0 -0 1 120.5 215.5633)" font-size="14" font-family="TimesNewRomanPSMT"><tspan y="0" x="307.81523"> </tspan></text>
<text xml:space="preserve" transform="matrix(1 0 -0 1 120.5 215.5633)" font-size="14" font-family="TimesNewRomanPSMT"><tspan y="0" x="312.50944 318.72264 325.70863 331.73844 338.86164 345.86164 356.32106 367.10105 374.59385">&#x0441;&#x043b;&#x0435;&#x0434;&#x0443;&#x044e;&#x0449;&#x0438;&#x0435;</tspan></text>
<text xml:space="preserve" transform="matrix(1 0 -0 1 120.5 215.5633)" font-size="14" font-family="TimesNewRomanPSMT"><tspan y="0" x="380.80705"> </tspan></text>
<text xml:space="preserve" transform="matrix(1 0 -0 1 120.5 215.5633)" font-size="14" font-family="TimesNewRomanPSMT"><tspan y="0" x="385.50126 391.71446 398.00328 405.00328 411.21647 418.70927">&#x0441;&#x0442;&#x0440;&#x0430;&#x043d;&#x044b;</tspan></text>
<text xml:space="preserve" transform="matrix(1 0 -0 1 120.5 215.5633)" font-size="14" font-family="TimesNewRomanPSMT"><tspan y="0" x="428.11585 432.00505">: </tspan></text>
<text xml:space="preserve" transform="matrix(1 0 -0 1 85.05 233.87409)" font-size="14" font-family="TimesNewRomanPSMT"><tspan y="0" x="0 14.123201 20.651402 26.864602 34.357404 41.850206">&#x0428;&#x0432;&#x0435;&#x0446;&#x0438;&#x044f;</tspan></text>
<text xml:space="preserve" transform="matrix(1 0 -0 1 85.05 233.87409)" font-size="14" font-family="TimesNewRomanPSMT"><tspan y="0" x="48.290205 52.456605 59.456605 63.623006 70.623 74.7894 86.4514"> &#x2013; 3 % </tspan></text>
<text xml:space="preserve" transform="matrix(1 0 -0 1 85.05 233.87409)" font-size="14" font-family="TimesNewRomanPSMT"><tspan y="0" x="90.6178 99.955799 109.29379">&#x0412;&#x0412;&#x041f;</tspan></text>
<text xml:space="preserve" transform="matrix(1 0 -0 1 85.05 233.87409)" font-size="14" font-family="TimesNewRomanPSMT"><tspan y="0" x="119.404598 122.904598">, </tspan></text>
<text xml:space="preserve" transform="matrix(1 0 -0 1 85.05 233.87409)" font-size="14" font-family="TimesNewRomanPSMT"><tspan y="0" x="127.07099 136.409 143.90181 150.90181 158.39463 165.88744">&#x042f;&#x043f;&#x043e;&#x043d;&#x0438;&#x044f;</tspan></text>
<text xml:space="preserve" transform="matrix(1 0 -0 1 85.05 233.87409)" font-size="14" font-family="TimesNewRomanPSMT"><tspan y="0" x="172.32744 176.49384 183.49384 187.66024 194.66024 198.16024 205.16024 212.16024 216.32663 227.98863"> &#x2013; 2.97 % </tspan></text>
<text xml:space="preserve" transform="matrix(1 0 -0 1 85.05 233.87409)" font-size="14" font-family="TimesNewRomanPSMT"><tspan y="0" x="232.15503 241.49303 250.83103">&#x0412;&#x0412;&#x041f;</tspan></text>
<text xml:space="preserve" transform="matrix(1 0 -0 1 85.05 233.87409)" font-size="14" font-family="TimesNewRomanPSMT"><tspan y="0" x="260.94184 264.44184">, </tspan></text>
<text xml:space="preserve" transform="matrix(1 0 -0 1 85.05 233.87409)" font-size="14" font-family="TimesNewRomanPSMT"><tspan y="0" x="268.60826 282.73146 289.25965 295.47285 302.96565 310.45845 316.67164 323.67164 331.16444">&#x0428;&#x0432;&#x0435;&#x0439;&#x0446;&#x0430;&#x0440;&#x0438;&#x044f;</tspan></text>
<text xml:space="preserve" transform="matrix(1 0 -0 1 85.05 233.87409)" font-size="14" font-family="TimesNewRomanPSMT"><tspan y="0" x="337.60444 341.77085 348.77085 352.93727 359.93727 363.43727 370.43727 377.43727 381.60368 393.26567"> &#x2013; 2.86 % </tspan></text>
<text xml:space="preserve" transform="matrix(1 0 -0 1 85.05 233.87409)" font-size="14" font-family="TimesNewRomanPSMT"><tspan y="0" x="397.43208 406.77009 416.1081">&#x0412;&#x0412;&#x041f;</tspan></text>
<text xml:space="preserve" transform="matrix(1 0 -0 1 85.05 233.87409)" font-size="14" font-family="TimesNewRomanPSMT"><tspan y="0" x="426.2189 429.7189">, </tspan></text>
<text xml:space="preserve" transform="matrix(1 0 -0 1 85.05 233.87409)" font-size="14" font-family="TimesNewRomanPSMT"><tspan y="0" x="433.8853 443.22334 457.34654">&#x0421;&#x0428;&#x0410;</tspan></text>
<text xml:space="preserve" transform="matrix(1 0 -0 1 85.05 233.87409)" font-size="14" font-family="TimesNewRomanPSMT"><tspan y="0" x="467.45735"> </tspan></text>
<text xml:space="preserve" transform="matrix(1 0 -0 1 85.05 252.18488)" font-size="14" font-family="TimesNewRomanPSMT"><tspan y="0" x="0 7 10.829 17.829 21.329 28.329 35.329004 39.158 50.82">&#x2013; 2.62 % </tspan></text>
<text xml:space="preserve" transform="matrix(1 0 -0 1 85.05 252.18488)" font-size="14" font-family="TimesNewRomanPSMT"><tspan y="0" x="54.649 63.987 73.325">&#x0412;&#x0412;&#x041f;</tspan></text>
<text xml:space="preserve" transform="matrix(1 0 -0 1 85.05 252.18488)" font-size="14" font-family="TimesNewRomanPSMT"><tspan y="0" x="83.4358 86.9358">, </tspan></text>
<text xml:space="preserve" transform="matrix(1 0 -0 1 85.05 252.18488)" font-size="14" font-family="TimesNewRomanPSMT"><tspan y="0" x="90.7648 97.7928 104.006008 110.7946 119.5586 125.771808 133.26462 140.75743">&#x0413;&#x0435;&#x0440;&#x043c;&#x0430;&#x043d;&#x0438;&#x044f;</tspan></text>
<text xml:space="preserve" transform="matrix(1 0 -0 1 85.05 252.18488)" font-size="14" font-family="TimesNewRomanPSMT"><tspan y="0" x="147.19744 151.02643 158.02643 161.85543 168.85543 172.35543 179.35543 186.35543 190.18442 201.84642"> &#x2013; 2.53 % </tspan></text>
<text xml:space="preserve" transform="matrix(1 0 -0 1 85.05 252.18488)" font-size="14" font-family="TimesNewRomanPSMT"><tspan y="0" x="205.67542 215.01342 224.35141">&#x0412;&#x0412;&#x041f;</tspan></text>
<text xml:space="preserve" transform="matrix(1 0 -0 1 85.05 252.18488)" font-size="14" font-family="TimesNewRomanPSMT"><tspan y="0" x="234.46222 237.96222">. </tspan></text>
<text xml:space="preserve" transform="matrix(1 0 -0 1 85.05 252.18488)" font-size="14" font-family="TimesNewRomanPSMT"><tspan y="0" x="241.79122">&#x0412;</tspan></text>
<text xml:space="preserve" transform="matrix(1 0 -0 1 85.05 252.18488)" font-size="14" font-family="TimesNewRomanPSMT"><tspan y="0" x="251.12921"> </tspan></text>
<text xml:space="preserve" transform="matrix(1 0 -0 1 85.05 252.18488)" font-size="14" font-family="TimesNewRomanPSMT"><tspan y="0" x="254.9582 262.39503 269.74363 275.95683 282.17 289.6628">&#x0420;&#x043e;&#x0441;&#x0441;&#x0438;&#x0438;</tspan></text>
<text xml:space="preserve" transform="matrix(1 0 -0 1 85.05 252.18488)" font-size="14" font-family="TimesNewRomanPSMT"><tspan y="0" x="297.1556"> </tspan></text>
<text xml:space="preserve" transform="matrix(1 0 -0 1 85.05 252.18488)" font-size="14" font-family="TimesNewRomanPSMT"><tspan y="0" x="300.98463 306.99345 312.92665 319.74183">&#x044d;&#x0442;&#x043e;&#x0442;</tspan></text>
<text xml:space="preserve" transform="matrix(1 0 -0 1 85.05 252.18488)" font-size="14" font-family="TimesNewRomanPSMT"><tspan y="0" x="325.85984"> </tspan></text>
<text xml:space="preserve" transform="matrix(1 0 -0 1 85.05 252.18488)" font-size="14" font-family="TimesNewRomanPSMT"><tspan y="0" x="329.68885 337.18165 344.18165 350.77143 356.98463 362.51463 368.3666 374.48463 380.6978 387.6838">&#x043f;&#x043e;&#x043a;&#x0430;&#x0437;&#x0430;&#x0442;&#x0435;&#x043b;&#x044c;</tspan></text>
<text xml:space="preserve" transform="matrix(1 0 -0 1 85.05 252.18488)" font-size="14" font-family="TimesNewRomanPSMT"><tspan y="0" x="394.0692"> </tspan></text>
<text xml:space="preserve" transform="matrix(1 0 -0 1 85.05 252.18488)" font-size="14" font-family="TimesNewRomanPSMT"><tspan y="0" x="397.89823 404.11143 411.46003 417.67323 423.96205 430.17524 436.60124 443.58723 450.02723">&#x0441;&#x043e;&#x0441;&#x0442;&#x0430;&#x0432;&#x043b;&#x044f;&#x043b;</tspan></text>
<text xml:space="preserve" transform="matrix(1 0 -0 1 85.05 252.18488)" font-size="14" font-family="TimesNewRomanPSMT"><tspan y="0" x="457.0132"> </tspan></text>
<text xml:space="preserve" transform="matrix(1 0 -0 1 85.05 252.18488)" font-size="14" font-family="TimesNewRomanPSMT"><tspan y="0" x="460.84223">&#x0432;</tspan></text>
<text xml:space="preserve" transform="matrix(1 0 -0 1 85.05 252.18488)" font-size="14" font-family="TimesNewRomanPSMT"><tspan y="0" x="467.45304"> </tspan></text>
<text xml:space="preserve" transform="matrix(1 0 -0 1 85.05 270.49574)" font-size="14" font-family="TimesNewRomanPSMT"><tspan y="0" x="0 6.0914 13.0914 20.5842 28.077">&#x043a;&#x043e;&#x043d;&#x0446;&#x0435;</tspan></text>
<text xml:space="preserve" transform="matrix(1 0 -0 1 85.05 270.49574)" font-size="14" font-family="TimesNewRomanPSMT"><tspan y="0" x="34.2902 38.4216 45.4216 52.4216"> 90-</tspan></text>
<text xml:space="preserve" transform="matrix(1 0 -0 1 85.05 270.49574)" font-size="14" font-family="TimesNewRomanPSMT"><tspan y="0" x="57.0836">&#x0445;</tspan></text>
<text xml:space="preserve" transform="matrix(1 0 -0 1 85.05 270.49574)" font-size="14" font-family="TimesNewRomanPSMT"><tspan y="0" x="64.0836"> </tspan></text>
<text xml:space="preserve" transform="matrix(1 0 -0 1 85.05 270.49574)" font-size="14" font-family="TimesNewRomanPSMT"><tspan y="0" x="68.215007 73.6092 80.206 87.3292 94.3292">&#x0433;&#x043e;&#x0434;&#x043e;&#x0432;</tspan></text>
<text xml:space="preserve" transform="matrix(1 0 -0 1 85.05 270.49574)" font-size="14" font-family="TimesNewRomanPSMT"><tspan y="0" x="100.94 105.0714 112.0714 115.5714 122.5714 129.57141 133.7028 145.3648"> 0.32 % </tspan></text>
<text xml:space="preserve" transform="matrix(1 0 -0 1 85.05 270.49574)" font-size="14" font-family="TimesNewRomanPSMT"><tspan y="0" x="149.4962 158.8342 168.1722">&#x0412;&#x0412;&#x041f;</tspan></text>
<text xml:space="preserve" transform="matrix(1 0 -0 1 85.05 270.49574)" font-size="14" font-family="TimesNewRomanPSMT"><tspan y="0" x="178.283 181.783">, </tspan></text>
<text xml:space="preserve" transform="matrix(1 0 -0 1 85.05 270.49574)" font-size="14" font-family="TimesNewRomanPSMT"><tspan y="0" x="185.9144 192.955 198.8882">&#x0447;&#x0442;&#x043e;</tspan></text>
<text xml:space="preserve" transform="matrix(1 0 -0 1 85.05 270.49574)" font-size="14" font-family="TimesNewRomanPSMT"><tspan y="0" x="205.8882"> </tspan></text>
<text xml:space="preserve" transform="matrix(1 0 -0 1 85.05 270.49574)" font-size="14" font-family="TimesNewRomanPSMT"><tspan y="0" x="210.01959">&#x0432;</tspan></text>
<text xml:space="preserve" transform="matrix(1 0 -0 1 85.05 270.49574)" font-size="14" font-family="TimesNewRomanPSMT"><tspan y="0" x="216.6304 220.7618 227.7618 234.7618"> 12 </tspan></text>
<text xml:space="preserve" transform="matrix(1 0 -0 1 85.05 270.49574)" font-size="14" font-family="TimesNewRomanPSMT"><tspan y="0" x="238.89319 245.89319 252.10639">&#x0440;&#x0430;&#x0437;</tspan></text>
<text xml:space="preserve" transform="matrix(1 0 -0 1 85.05 270.49574)" font-size="14" font-family="TimesNewRomanPSMT"><tspan y="0" x="257.63639"> </tspan></text>
<text xml:space="preserve" transform="matrix(1 0 -0 1 85.05 270.49574)" font-size="14" font-family="TimesNewRomanPSMT"><tspan y="0" x="261.7678 270.62699 276.84019 284.33299 290.71839 301.49839">&#x043c;&#x0435;&#x043d;&#x044c;&#x0448;&#x0435;</tspan></text>
<text xml:space="preserve" transform="matrix(1 0 -0 1 85.05 270.49574)" font-size="14" font-family="TimesNewRomanPSMT"><tspan y="0" x="307.71159 311.21159">, </tspan></text>
<text xml:space="preserve" transform="matrix(1 0 -0 1 85.05 270.49574)" font-size="14" font-family="TimesNewRomanPSMT"><tspan y="0" x="315.343 322.38359 328.59678">&#x0447;&#x0435;&#x043c;</tspan></text>
<text xml:space="preserve" transform="matrix(1 0 -0 1 85.05 270.49574)" font-size="14" font-family="TimesNewRomanPSMT"><tspan y="0" x="337.45597"> </tspan></text>
<text xml:space="preserve" transform="matrix(1 0 -0 1 85.05 270.49574)" font-size="14" font-family="TimesNewRomanPSMT"><tspan y="0" x="341.58738">&#x0432;</tspan></text>
<text xml:space="preserve" transform="matrix(1 0 -0 1 85.05 270.49574)" font-size="14" font-family="TimesNewRomanPSMT"><tspan y="0" x="348.19819 352.3296 359.3296 366.3296"> 70-</tspan></text>
<text xml:space="preserve" transform="matrix(1 0 -0 1 85.05 270.49574)" font-size="14" font-family="TimesNewRomanPSMT"><tspan y="0" x="370.99159">&#x0435;</tspan></text>
<text xml:space="preserve" transform="matrix(1 0 -0 1 85.05 270.49574)" font-size="14" font-family="TimesNewRomanPSMT"><tspan y="0" x="377.20478"> </tspan></text>
<text xml:space="preserve" transform="matrix(1 0 -0 1 85.05 270.49574)" font-size="14" font-family="TimesNewRomanPSMT"><tspan y="0" x="381.33619">&#x0438;</tspan></text>
<text xml:space="preserve" transform="matrix(1 0 -0 1 85.05 270.49574)" font-size="14" font-family="TimesNewRomanPSMT"><tspan y="0" x="388.82899 392.9604 399.9604 406.9604"> 80-</tspan></text>
<text xml:space="preserve" transform="matrix(1 0 -0 1 85.05 270.49574)" font-size="14" font-family="TimesNewRomanPSMT"><tspan y="0" x="411.62239">&#x0435;</tspan></text>
<text xml:space="preserve" transform="matrix(1 0 -0 1 85.05 270.49574)" font-size="14" font-family="TimesNewRomanPSMT"><tspan y="0" x="417.83558"> </tspan></text>
<text xml:space="preserve" transform="matrix(1 0 -0 1 85.05 270.49574)" font-size="14" font-family="TimesNewRomanPSMT"><tspan y="0" x="421.96699 427.36119 433.95799 441.08119">&#x0433;&#x043e;&#x0434;&#x044b;</tspan></text>
<text xml:space="preserve" transform="matrix(1 0 -0 1 85.05 270.49574)" font-size="14" font-family="TimesNewRomanPSMT"><tspan y="0" x="450.48777 453.98777">. </tspan></text>
<text xml:space="preserve" transform="matrix(1 0 -0 1 85.05 270.49574)" font-size="14" font-family="TimesNewRomanPSMT"><tspan y="0" x="458.11918">&#x0421;</tspan></text>
<text xml:space="preserve" transform="matrix(1 0 -0 1 85.05 270.49574)" font-size="14" font-family="TimesNewRomanPSMT"><tspan y="0" x="467.45719"> </tspan></text>
<text xml:space="preserve" transform="matrix(1 0 -0 1 85.05 288.8064)" font-size="14" font-family="TimesNewRomanPSMT"><tspan y="0" x="0 7.4928 13.146001 20.186602 26.523003 33.509004">&#x043d;&#x0430;&#x0447;&#x0430;&#x043b;&#x0430;</tspan></text>
<text xml:space="preserve" transform="matrix(1 0 -0 1 85.05 288.8064)" font-size="14" font-family="TimesNewRomanPSMT"><tspan y="0" x="39.722204 45.171 52.171 59.171"> 90-</tspan></text>
<text xml:space="preserve" transform="matrix(1 0 -0 1 85.05 288.8064)" font-size="14" font-family="TimesNewRomanPSMT"><tspan y="0" x="63.833">&#x0445;</tspan></text>
<text xml:space="preserve" transform="matrix(1 0 -0 1 85.05 288.8064)" font-size="14" font-family="TimesNewRomanPSMT"><tspan y="0" x="70.833"> </tspan></text>
<text xml:space="preserve" transform="matrix(1 0 -0 1 85.05 288.8064)" font-size="14" font-family="TimesNewRomanPSMT"><tspan y="0" x="76.2818 81.675998 88.2728 95.395999 102.395999">&#x0433;&#x043e;&#x0434;&#x043e;&#x0432;</tspan></text>
<text xml:space="preserve" transform="matrix(1 0 -0 1 85.05 288.8064)" font-size="14" font-family="TimesNewRomanPSMT"><tspan y="0" x="109.0068"> </tspan></text>
<text xml:space="preserve" transform="matrix(1 0 -0 1 85.05 288.8064)" font-size="14" font-family="TimesNewRomanPSMT"><tspan y="0" x="114.4556 121.4556 128.5788 139.3588 145.57199">&#x043e;&#x0431;&#x0449;&#x0435;&#x0435;</tspan></text>
<text xml:space="preserve" transform="matrix(1 0 -0 1 85.05 288.8064)" font-size="14" font-family="TimesNewRomanPSMT"><tspan y="0" x="151.78519"> </tspan></text>
<text xml:space="preserve" transform="matrix(1 0 -0 1 85.05 288.8064)" font-size="14" font-family="TimesNewRomanPSMT"><tspan y="0" x="157.234 164.2746 171.76741 177.9806 184.96662">&#x0447;&#x0438;&#x0441;&#x043b;&#x043e;</tspan></text>
<text xml:space="preserve" transform="matrix(1 0 -0 1 85.05 288.8064)" font-size="14" font-family="TimesNewRomanPSMT"><tspan y="0" x="191.96662"> </tspan></text>
<text xml:space="preserve" transform="matrix(1 0 -0 1 85.05 288.8064)" font-size="14" font-family="TimesNewRomanPSMT"><tspan y="0" x="197.41542 202.94542 209.15862 216.65143 223.09143 229.20943 238.61603">&#x0437;&#x0430;&#x043d;&#x044f;&#x0442;&#x044b;&#x0445;</tspan></text>
<text xml:space="preserve" transform="matrix(1 0 -0 1 85.05 288.8064)" font-size="14" font-family="TimesNewRomanPSMT"><tspan y="0" x="245.61603"> </tspan></text>
<text xml:space="preserve" transform="matrix(1 0 -0 1 85.05 288.8064)" font-size="14" font-family="TimesNewRomanPSMT"><tspan y="0" x="251.06484">&#x0432;</tspan></text>
<text xml:space="preserve" transform="matrix(1 0 -0 1 85.05 288.8064)" font-size="14" font-family="TimesNewRomanPSMT"><tspan y="0" x="257.67564"> </tspan></text>
<text xml:space="preserve" transform="matrix(1 0 -0 1 85.05 288.8064)" font-size="14" font-family="TimesNewRomanPSMT"><tspan y="0" x="263.12443 270.61723 276.12065 283.12065 290.16123 297.65403 304.65403">&#x043d;&#x0430;&#x0443;&#x0447;&#x043d;&#x043e;&#x0439;</tspan></text>
<text xml:space="preserve" transform="matrix(1 0 -0 1 85.05 288.8064)" font-size="14" font-family="TimesNewRomanPSMT"><tspan y="0" x="312.14683"> </tspan></text>
<text xml:space="preserve" transform="matrix(1 0 -0 1 85.05 288.8064)" font-size="14" font-family="TimesNewRomanPSMT"><tspan y="0" x="317.5956 323.98103 333.0516 339.2648 346.2648">&#x0441;&#x0444;&#x0435;&#x0440;&#x0435;</tspan></text>
<text xml:space="preserve" transform="matrix(1 0 -0 1 85.05 288.8064)" font-size="14" font-family="TimesNewRomanPSMT"><tspan y="0" x="352.478"> </tspan></text>
<text xml:space="preserve" transform="matrix(1 0 -0 1 85.05 288.8064)" font-size="14" font-family="TimesNewRomanPSMT"><tspan y="0" x="357.9268">&#x0432;</tspan></text>
<text xml:space="preserve" transform="matrix(1 0 -0 1 85.05 288.8064)" font-size="14" font-family="TimesNewRomanPSMT"><tspan y="0" x="364.5376"> </tspan></text>
<text xml:space="preserve" transform="matrix(1 0 -0 1 85.05 288.8064)" font-size="14" font-family="TimesNewRomanPSMT"><tspan y="0" x="369.9864 377.53379">&#x0420;&#x0424;</tspan></text>
<text xml:space="preserve" transform="matrix(1 0 -0 1 85.05 288.8064)" font-size="14" font-family="TimesNewRomanPSMT"><tspan y="0" x="388.59379"> </tspan></text>
<text xml:space="preserve" transform="matrix(1 0 -0 1 85.05 288.8064)" font-size="14" font-family="TimesNewRomanPSMT"><tspan y="0" x="394.04258 400.25578 407.25578 414.05696 421.05696 426.90895 433.02696 440.51976 447.50575 454.85435 461.06755">&#x0441;&#x043e;&#x043a;&#x0440;&#x0430;&#x0442;&#x0438;&#x043b;&#x043e;&#x0441;&#x044c;</tspan></text>
<text xml:space="preserve" transform="matrix(1 0 -0 1 85.05 288.8064)" font-size="14" font-family="TimesNewRomanPSMT"><tspan y="0" x="467.45295"> </tspan></text>
<text xml:space="preserve" transform="matrix(1 0 -0 1 85.05 307.1172)" font-size="14" font-family="TimesNewRomanPSMT"><tspan y="0" x="0 7.1232 13.938399 20.9244 27.1376">&#x0431;&#x043e;&#x043b;&#x0435;&#x0435;</tspan></text>
<text xml:space="preserve" transform="matrix(1 0 -0 1 85.05 307.1172)" font-size="14" font-family="TimesNewRomanPSMT"><tspan y="0" x="33.3508 36.8508">, </tspan></text>
<text xml:space="preserve" transform="matrix(1 0 -0 1 85.05 307.1172)" font-size="14" font-family="TimesNewRomanPSMT"><tspan y="0" x="40.3508 47.3914 53.6046">&#x0447;&#x0435;&#x043c;</tspan></text>
<text xml:space="preserve" transform="matrix(1 0 -0 1 85.05 307.1172)" font-size="14" font-family="TimesNewRomanPSMT"><tspan y="0" x="62.4638"> </tspan></text>
<text xml:space="preserve" transform="matrix(1 0 -0 1 85.05 307.1172)" font-size="14" font-family="TimesNewRomanPSMT"><tspan y="0" x="65.9638 73.4566">&#x043d;&#x0430;</tspan></text>
<text xml:space="preserve" transform="matrix(1 0 -0 1 85.05 307.1172)" font-size="14" font-family="TimesNewRomanPSMT"><tspan y="0" x="79.6698 83.1698 90.1698 97.1698 100.6698 112.3318"> 50 %.</tspan></text>
<g id="Layer-2" data-name="Span">
<text xml:space="preserve" transform="matrix(1 0 -0 1 85.05 307.1172)" font-size="14" font-family="TimesNewRomanPSMT"><tspan y="0" x="115.835"> </tspan></text>
</g>
</g>
</g>
</g>
</svg>
