<?xml version="1.0" encoding="UTF-8" standalone="no"?>
<!DOCTYPE svg PUBLIC "-//W3C//DTD SVG 1.1//EN" "http://www.w3.org/Graphics/SVG/1.1/DTD/svg11.dtd">
<svg xmlns="http://www.w3.org/2000/svg" xmlns:xlink="http://www.w3.org/1999/xlink" version="1.1" width="842pt" height="595pt" viewBox="0 0 842 595">
<g enable-background="new">
<clipPath id="cp0">
<path transform="matrix(1,0,0,-1,0,595)" d="M 0 0 L 842 0 L 842 595 L 0 595 Z "/>
</clipPath>
<g clip-path="url(#cp0)">
<path transform="matrix(1,0,0,-1,0,595)" d="M 0 595 L 842 595 L 842 0 L 0 0 Z " fill="#ffffff"/>
<g id="Layer-1" data-name="P">
</g>
<clipPath id="cp1">
<path transform="matrix(1,0,0,-1,0,595)" d="M 52.82402 85.05 L 789.176 85.05 L 789.176 556.376 L 52.82402 556.376 Z "/>
</clipPath>
<g clip-path="url(#cp1)">
<text xml:space="preserve" transform="matrix(1 0 -0 1 304.2822 54.877016)" font-size="14" font-family="TimesNewRomanPS" font-weight="bold"><tspan y="0" x="0 9.494801 17.3768 24.3768 32.4436 39.1776 48.7144 56.7812 64.6772 71.06261 77.27581 85.34261 93.40942">&#x042d;&#x043a;&#x043e;&#x043d;&#x043e;&#x043c;&#x0438;&#x0447;&#x0435;&#x0441;&#x043a;&#x0438;&#x0435;</tspan></text>
<text xml:space="preserve" transform="matrix(1 0 -0 1 304.2822 54.877016)" font-size="14" font-family="TimesNewRomanPS" font-weight="bold"><tspan y="0" x="99.62262"> </tspan></text>
<text xml:space="preserve" transform="matrix(1 0 -0 1 304.2822 54.877016)" font-size="14" font-family="TimesNewRomanPS" font-weight="bold"><tspan y="0" x="103.12262 109.93782 116.93782 124.724628 131.72463 139.79143 146.66825 152.88144 160.66825 168.73505 174.94824 181.82505 189.89185 197.95865">&#x0445;&#x0430;&#x0440;&#x0430;&#x043a;&#x0442;&#x0435;&#x0440;&#x0438;&#x0441;&#x0442;&#x0438;&#x043a;&#x0438;</tspan></text>
<text xml:space="preserve" transform="matrix(1 0 -0 1 304.2822 54.877016)" font-size="14" font-family="TimesNewRomanPS" font-weight="bold"><tspan y="0" x="206.02545"> </tspan></text>
<text xml:space="preserve" transform="matrix(1 0 -0 1 304.2822 54.877016)" font-size="14" font-family="TimesNewRomanPS" font-weight="bold"><tspan y="0" x="209.52545 220.41464">&#x041f;&#x0424;</tspan></text>
<g id="Layer-2" data-name="Span">
<text xml:space="preserve" transform="matrix(1 0 -0 1 304.2822 54.877016)" font-size="14" font-family="TimesNewRomanPS" font-weight="bold"><tspan y="0" x="232.4355"> </tspan></text>
</g>
</g>
<g id="Layer-1" data-name="P">
<text xml:space="preserve" transform="matrix(1 0 -0 1 311.8955 86.877017)" font-size="14" font-family="TimesNewRomanPSMT"><tspan y="0" x="0 9.3086 15.467202 22.5358 30.0944 36.897005 45.827604 53.386205 60.496805 67.1314 73.416 80.288608 87.847209">&#x042d;&#x043a;&#x043e;&#x043d;&#x043e;&#x043c;&#x0438;&#x0447;&#x0435;&#x0441;&#x043a;&#x0438;&#x0435;</tspan></text>
<text xml:space="preserve" transform="matrix(1 0 -0 1 311.8955 86.877017)" font-size="14" font-family="TimesNewRomanPSMT"><tspan y="0" x="94.131809"> </tspan></text>
<text xml:space="preserve" transform="matrix(1 0 -0 1 311.8955 86.877017)" font-size="14" font-family="TimesNewRomanPSMT"><tspan y="0" x="97.70041 104.58701 110.87161 117.940219 124.224819 130.90142 137.08802 143.37262 150.44123 157.99982 164.28443 170.47103 178.02962 184.90222">&#x0445;&#x0430;&#x0440;&#x0430;&#x043a;&#x0442;&#x0435;&#x0440;&#x0438;&#x0441;&#x0442;&#x0438;&#x043a;&#x0438;</tspan></text>
<text xml:space="preserve" transform="matrix(1 0 -0 1 311.8955 86.877017)" font-size="14" font-family="TimesNewRomanPSMT"><tspan y="0" x="192.46082"> </tspan></text>
<text xml:space="preserve" transform="matrix(1 0 -0 1 311.8955 86.877017)" font-size="14" font-family="TimesNewRomanPSMT"><tspan y="0" x="196.02942 206.20603">&#x041f;&#x0424;</tspan></text>
<g id="Layer-2" data-name="Span">
<text xml:space="preserve" transform="matrix(1 0 -0 1 311.8955 86.877017)" font-size="14" font-family="TimesNewRomanPSMT"><tspan y="0" x="217.2757"> </tspan></text>
</g>
</g>
<g id="Layer-1" data-name="P">
</g>
<g id="Layer-1" data-name="P">
<g id="Layer-2" data-name="P">
<g id="Layer-3" data-name="P">
<g id="Layer-4" data-name="P">
<g id="Layer-5" data-name="P">
</g>
<clipPath id="cp2">
<path transform="matrix(1,0,0,-1,0,595)" d="M 64.175 411.8369 L 180.07501 411.8369 L 180.07501 487 L 64.175 487 Z "/>
</clipPath>
<g clip-path="url(#cp2)">
<text xml:space="preserve" transform="matrix(1 0 -0 1 68.175 124.377017)" font-size="14" font-family="TimesNewRomanPS" font-weight="bold"><tspan y="0" x="0 12.075 19.124 27.237 35.35 43.462999 51.575998">&#x0424;&#x0443;&#x043d;&#x043a;&#x0446;&#x0438;&#x044f;</tspan></text>
</g>
</g>
<g id="Layer-4" data-name="P">
<g id="Layer-5" data-name="P">
</g>
<clipPath id="cp3">
<path transform="matrix(1,0,0,-1,0,595)" d="M 180.575 411.8369 L 324.22499 411.8369 L 324.22499 487 L 180.575 487 Z "/>
</clipPath>
<g clip-path="url(#cp3)">
<text xml:space="preserve" transform="matrix(1 0 -0 1 184.575 124.377017)" font-size="14" font-family="TimesNewRomanPS" font-weight="bold"><tspan y="0" x="0 9.388401 17.502802">&#x0412;&#x0438;&#x0434;</tspan></text>
<text xml:space="preserve" transform="matrix(1 0 -0 1 184.575 124.377017)" font-size="14" font-family="TimesNewRomanPS" font-weight="bold"><tspan y="0" x="24.637204"> </tspan></text>
<text xml:space="preserve" transform="matrix(1 0 -0 1 184.575 124.377017)" font-size="14" font-family="TimesNewRomanPS" font-weight="bold"><tspan y="0" x="28.187603 35.238004 43.072404 50.122804 57.733205 65.8476 72.114009 80.22841 88.34281">&#x0443;&#x0440;&#x0430;&#x0432;&#x043d;&#x0435;&#x043d;&#x0438;&#x044f;</tspan></text>
<g id="Layer-6" data-name="Span">
<text xml:space="preserve" transform="matrix(1 0 -0 1 184.575 124.377017)" font-size="14" font-family="TimesNewRomanPS" font-weight="bold"><tspan y="0" x="95.97031"> </tspan></text>
</g>
</g>
<g id="Layer-5" data-name="P">
<text xml:space="preserve" transform="matrix(1 0 -0 1 184.575 140.37702)" font-size="14" font-family="TimesNewRomanPS" font-weight="bold" font-style="italic"><tspan y="0" x="0 8.0822 11.6284 19.6546 23.2008 27.909 32.617204 39.663404">Y = f(x)</tspan></text>
</g>
</g>
<g id="Layer-4" data-name="P">
</g>
<g id="Layer-4" data-name="P">
</g>
<g id="Layer-4" data-name="P">
</g>
</g>
<g id="Layer-3" data-name="P">
<g id="Layer-4" data-name="P">
<g id="Layer-5" data-name="P">
</g>
<clipPath id="cp4">
<path transform="matrix(1,0,0,-1,0,595)" d="M 64.175 387.9316 L 180.07501 387.9316 L 180.07501 411.33689 L 64.175 411.33689 Z "/>
</clipPath>
<g clip-path="url(#cp4)">
<text xml:space="preserve" transform="matrix(1 0 -0 1 68.175 200.04001)" font-size="14" font-family="TimesNewRomanPSMT"><tspan y="0" x="0 9.5452 17.0884 24.6316 30.900799 38.444 45.9872 52.2564">&#x041b;&#x0438;&#x043d;&#x0435;&#x0439;&#x043d;&#x0430;&#x044f;</tspan></text>
</g>
</g>
<g id="Layer-4" data-name="P">
</g>
<clipPath id="cp5">
<path transform="matrix(1,0,0,-1,0,595)" d="M 61.925 314.25 L 779.925 314.25 L 779.925 489.25 L 61.925 489.25 Z "/>
</clipPath>
<g clip-path="url(#cp5)">
<path transform="matrix(1,0,0,-1,0,595)" d="M 180.325 411.5869 L 324.475 411.5869 L 324.475 387.6816 L 180.325 387.6816 Z " fill="#2afcfe" fill-opacity="0"/>
</g>
<g id="Layer-4" data-name="P">
<path transform="matrix(1,0,0,-1,0,595)" d="M 324.475 411.5869 L 473.325 411.5869 L 473.325 387.6816 L 324.475 387.6816 Z " fill="#6c26a1" fill-opacity="0"/>
</g>
<g id="Layer-4" data-name="P">
<path transform="matrix(1,0,0,-1,0,595)" d="M 473.325 411.5869 L 629.225 411.5869 L 629.225 387.6816 L 473.325 387.6816 Z " fill="#90b435" fill-opacity="0"/>
</g>
<g id="Layer-4" data-name="P">
<path transform="matrix(1,0,0,-1,0,595)" d="M 629.225 411.5869 L 778.075 411.5869 L 778.075 387.6816 L 629.225 387.6816 Z " fill="#bcdc5f" fill-opacity="0"/>
</g>
</g>
<g id="Layer-3" data-name="P">
<g id="Layer-4" data-name="P">
<g id="Layer-5" data-name="P">
</g>
<clipPath id="cp6">
<path transform="matrix(1,0,0,-1,0,595)" d="M 64.175 364.0264 L 180.07501 364.0264 L 180.07501 387.43168 L 64.175 387.43168 Z "/>
</clipPath>
<g clip-path="url(#cp6)">
<text xml:space="preserve" transform="matrix(1 0 -0 1 68.175 223.94532)" font-size="14" font-family="TimesNewRomanPSMT"><tspan y="0" x="0 9.203601 15.369201 21.632802 29.1704 35.434 42.971597 50.509195 56.772794">&#x0421;&#x0442;&#x0435;&#x043f;&#x0435;&#x043d;&#x043d;&#x0430;&#x044f;</tspan></text>
</g>
</g>
<g id="Layer-4" data-name="P">
</g>
<clipPath id="cp7">
<path transform="matrix(1,0,0,-1,0,595)" d="M 61.925 314.25 L 779.925 314.25 L 779.925 489.25 L 61.925 489.25 Z "/>
</clipPath>
<g clip-path="url(#cp7)">
<path transform="matrix(1,0,0,-1,0,595)" d="M 180.325 387.6816 L 324.475 387.6816 L 324.475 363.7764 L 180.325 363.7764 Z " fill="#74beab" fill-opacity="0"/>
</g>
<g id="Layer-4" data-name="P">
<path transform="matrix(1,0,0,-1,0,595)" d="M 324.475 387.6816 L 473.325 387.6816 L 473.325 363.7764 L 324.475 363.7764 Z " fill="#bb273c" fill-opacity="0"/>
</g>
<g id="Layer-4" data-name="P">
<path transform="matrix(1,0,0,-1,0,595)" d="M 473.325 387.6816 L 629.225 387.6816 L 629.225 363.7764 L 473.325 363.7764 Z " fill="#bfab84" fill-opacity="0"/>
</g>
<g id="Layer-4" data-name="P">
<path transform="matrix(1,0,0,-1,0,595)" d="M 629.225 387.6816 L 778.075 387.6816 L 778.075 363.7764 L 629.225 363.7764 Z " fill="#90539d" fill-opacity="0"/>
</g>
</g>
<g id="Layer-3" data-name="P">
<g id="Layer-4" data-name="P">
<g id="Layer-5" data-name="P">
</g>
<clipPath id="cp8">
<path transform="matrix(1,0,0,-1,0,595)" d="M 64.175 340.1211 L 180.07501 340.1211 L 180.07501 363.52638 L 64.175 363.52638 Z "/>
</clipPath>
<g clip-path="url(#cp8)">
<text xml:space="preserve" transform="matrix(1 0 -0 1 68.175 247.85059)" font-size="14" font-family="TimesNewRomanPSMT"><tspan y="0" x="0 7.6104 15.150801 22.6912 28.9576 36.008 43.184404 50.052804 57.089208 64.62961 71.72201 78.33841 84.604808 91.24921 97.5156">&#x0413;&#x0438;&#x043f;&#x0435;&#x0440;&#x0431;&#x043e;&#x043b;&#x0438;&#x0447;&#x0435;&#x0441;&#x043a;&#x0430;&#x044f;</tspan></text>
</g>
</g>
<g id="Layer-4" data-name="P">
</g>
<clipPath id="cp9">
<path transform="matrix(1,0,0,-1,0,595)" d="M 61.925 314.25 L 779.925 314.25 L 779.925 489.25 L 61.925 489.25 Z "/>
</clipPath>
<g clip-path="url(#cp9)">
<path transform="matrix(1,0,0,-1,0,595)" d="M 180.325 363.7764 L 324.475 363.7764 L 324.475 339.8711 L 180.325 339.8711 Z " fill="#91e466" fill-opacity="0"/>
</g>
<g id="Layer-4" data-name="P">
<path transform="matrix(1,0,0,-1,0,595)" d="M 324.475 363.7764 L 473.325 363.7764 L 473.325 339.8711 L 324.475 339.8711 Z " fill="#10ddb7" fill-opacity="0"/>
</g>
<g id="Layer-4" data-name="P">
<path transform="matrix(1,0,0,-1,0,595)" d="M 473.325 363.7764 L 629.225 363.7764 L 629.225 339.8711 L 473.325 339.8711 Z " fill="#db08b4" fill-opacity="0"/>
</g>
<g id="Layer-4" data-name="P">
<path transform="matrix(1,0,0,-1,0,595)" d="M 629.225 363.7764 L 778.075 363.7764 L 778.075 339.8711 L 629.225 339.8711 Z " fill="#d975da" fill-opacity="0"/>
</g>
</g>
<g id="Layer-3" data-name="P">
<g id="Layer-4" data-name="P">
<g id="Layer-5" data-name="P">
</g>
<clipPath id="cp10">
<path transform="matrix(1,0,0,-1,0,595)" d="M 64.175 316.2158 L 180.07501 316.2158 L 180.07501 339.62107 L 64.175 339.62107 Z "/>
</clipPath>
<g clip-path="url(#cp10)">
<text xml:space="preserve" transform="matrix(1 0 -0 1 68.175 271.7559)" font-size="14" font-family="TimesNewRomanPSMT"><tspan y="0" x="0 10.1598019 16.4276 23.4794 29.7472 36.925 43.7948 50.8326 58.3744 65.4682 72.086 78.3538 84.999599 91.267398">&#x041f;&#x0430;&#x0440;&#x0430;&#x0431;&#x043e;&#x043b;&#x0438;&#x0447;&#x0435;&#x0441;&#x043a;&#x0430;&#x044f;</tspan></text>
</g>
</g>
<g id="Layer-4" data-name="P">
</g>
<clipPath id="cp11">
<path transform="matrix(1,0,0,-1,0,595)" d="M 61.925 314.25 L 779.925 314.25 L 779.925 489.25 L 61.925 489.25 Z "/>
</clipPath>
<g clip-path="url(#cp11)">
<path transform="matrix(1,0,0,-1,0,595)" d="M 180.325 339.8711 L 324.475 339.8711 L 324.475 315.9658 L 180.325 315.9658 Z " fill="#7b058f" fill-opacity="0"/>
</g>
<g id="Layer-4" data-name="P">
<path transform="matrix(1,0,0,-1,0,595)" d="M 324.475 339.8711 L 473.325 339.8711 L 473.325 315.9658 L 324.475 315.9658 Z " fill="#b0c16c" fill-opacity="0"/>
</g>
<g id="Layer-4" data-name="P">
<path transform="matrix(1,0,0,-1,0,595)" d="M 473.325 339.8711 L 629.225 339.8711 L 629.225 315.9658 L 473.325 315.9658 Z " fill="#10372b" fill-opacity="0"/>
</g>
<g id="Layer-4" data-name="P">
<path transform="matrix(1,0,0,-1,0,595)" d="M 629.225 339.8711 L 778.075 339.8711 L 778.075 315.9658 L 629.225 315.9658 Z " fill="#bbf252" fill-opacity="0"/>
</g>
</g>
<path transform="matrix(1,0,0,1,61.925,105.75)" stroke-width=".5" stroke-linecap="butt" stroke-miterlimit="4" stroke-linejoin="miter" fill="none" stroke="#7f7f7f" d="M 118.4 1.5 L 118.4 173.7842 "/>
<path transform="matrix(1,0,0,1,61.925,105.75)" stroke-width=".5" stroke-linecap="butt" stroke-miterlimit="4" stroke-linejoin="miter" fill="none" stroke="#7f7f7f" d="M 262.55 1.5 L 262.55 173.7842 "/>
<path transform="matrix(1,0,0,1,61.925,105.75)" stroke-width=".5" stroke-linecap="butt" stroke-miterlimit="4" stroke-linejoin="miter" fill="none" stroke="#7f7f7f" d="M 411.4 1.5 L 411.4 173.7842 "/>
<path transform="matrix(1,0,0,1,61.925,105.75)" stroke-width=".5" stroke-linecap="butt" stroke-miterlimit="4" stroke-linejoin="miter" fill="none" stroke="#7f7f7f" d="M 567.3 1.5 L 567.3 173.7842 "/>
<path transform="matrix(1,0,0,1,61.925,105.75)" stroke-width=".5" stroke-linecap="butt" stroke-miterlimit="4" stroke-linejoin="miter" fill="none" stroke="#7f7f7f" d="M 1.5 77.66309 L 716.65 77.66309 "/>
<path transform="matrix(1,0,0,1,61.925,105.75)" stroke-width=".5" stroke-linecap="butt" stroke-miterlimit="4" stroke-linejoin="miter" fill="none" stroke="#7f7f7f" d="M 1.5 101.5684 L 716.65 101.5684 "/>
<path transform="matrix(1,0,0,1,61.925,105.75)" stroke-width=".5" stroke-linecap="butt" stroke-miterlimit="4" stroke-linejoin="miter" fill="none" stroke="#7f7f7f" d="M 1.5 125.4736 L 716.65 125.4736 "/>
<path transform="matrix(1,0,0,1,61.925,105.75)" stroke-width=".5" stroke-linecap="butt" stroke-miterlimit="4" stroke-linejoin="miter" fill="none" stroke="#7f7f7f" d="M 1.5 149.3789 L 716.65 149.3789 "/>
<path transform="matrix(1,0,0,1,61.925,105.75)" stroke-width=".5" stroke-linecap="butt" stroke-miterlimit="4" stroke-linejoin="miter" fill="none" stroke="#7f7f7f" d="M 2 1.5 L 2 173.7842 "/>
<path transform="matrix(1,0,0,1,61.925,105.75)" stroke-width=".5" stroke-linecap="butt" stroke-miterlimit="4" stroke-linejoin="miter" fill="none" stroke="#7f7f7f" d="M 716.15 1.5 L 716.15 173.7842 "/>
<path transform="matrix(1,0,0,1,61.925,105.75)" stroke-width=".5" stroke-linecap="butt" stroke-miterlimit="4" stroke-linejoin="miter" fill="none" stroke="#7f7f7f" d="M 1.5 2 L 716.65 2 "/>
<path transform="matrix(1,0,0,1,61.925,105.75)" stroke-width=".5" stroke-linecap="butt" stroke-miterlimit="4" stroke-linejoin="miter" fill="none" stroke="#7f7f7f" d="M 1.5 173.2842 L 716.65 173.2842 "/>
</g>
</g>
<g id="Layer-1" data-name="P">
</g>
<clipPath id="cp12">
<path transform="matrix(1,0,0,-1,0,595)" d="M 473.575 412.0869 L 628.325 412.0869 L 628.325 487 L 473.575 487 Z "/>
</clipPath>
<g clip-path="url(#cp12)">
<text xml:space="preserve" transform="matrix(1 0 -0 1 476.925 124.127017)" font-size="14" font-family="TimesNewRomanPS" font-weight="bold"><tspan y="0" x="0 15.362201 28.442402 40.318605 55.918806 71.519008 85.4952 99.4714 113.44759 125.57579 139.55199">&#x041a;&#x043e;&#x044d;&#x0444;&#x0444;&#x0438;&#x0446;&#x0438;&#x0435;&#x043d;&#x0442;</tspan></text>
<text xml:space="preserve" transform="matrix(1 0 -0 1 476.925 124.127017)" font-size="14" font-family="TimesNewRomanPS" font-weight="bold"><tspan y="0" x="146.47219"> </tspan></text>
<text xml:space="preserve" transform="matrix(1 0 -0 1 476.925 140.12702)" font-size="14" font-family="TimesNewRomanPS" font-weight="bold"><tspan y="0" x="0 5.8464004 13.7508 20.8012 27.067603 33.992 42.1064 50.0528 58.1672 65.2176 71.48399 78.408397">&#x044d;&#x043b;&#x0430;&#x0441;&#x0442;&#x0438;&#x0447;&#x043d;&#x043e;&#x0441;&#x0442;&#x0438;</tspan></text>
<g id="Layer-2" data-name="Span">
<text xml:space="preserve" transform="matrix(1 0 -0 1 476.925 140.12702)" font-size="14" font-family="TimesNewRomanPS" font-weight="bold"><tspan y="0" x="86.52773"> </tspan></text>
</g>
</g>
<g id="Layer-1" data-name="P">
</g>
<g id="Layer-1" data-name="P">
</g>
<clipPath id="cp13">
<path transform="matrix(1,0,0,-1,0,595)" d="M 533.625 418.25 L 566.625 418.25 L 566.625 451.25 L 533.625 451.25 Z "/>
</clipPath>
<g clip-path="url(#cp13)">
<path transform="matrix(.03125,0,0,.03125,533.625,143.75)" stroke-width="16" stroke-linecap="round" stroke-linejoin="round" fill="none" stroke="#000000" d="M 64 512 L 481 512 "/>
<path transform="matrix(.03125,0,0,.03125,533.625,143.75)" stroke-width="16" stroke-linecap="round" stroke-linejoin="round" fill="none" stroke="#000000" d="M 716 512 L 977 512 "/>
<text xml:space="preserve" transform="matrix(.03125 0 -0 .03125 557.9375 172.125)" font-size="384" font-family="TimesNewRomanPS" font-style="italic"><tspan y="0" x="0">y</tspan></text>
<text xml:space="preserve" transform="matrix(.03125 0 -0 .03125 557.75 155.1875)" font-size="384" font-family="TimesNewRomanPS" font-style="italic"><tspan y="0" x="0">x</tspan></text>
<text xml:space="preserve" transform="matrix(.03125 0 -0 .03125 536.5312 172.125)" font-size="384" font-family="TimesNewRomanPS" font-style="italic"><tspan y="0" x="0">d</tspan></text>
<text xml:space="preserve" transform="matrix(.03125 0 -0 .03125 536.5312 172.125)" font-size="384" font-family="TimesNewRomanPS" font-style="italic"><tspan y="0" x="192">x</tspan></text>
<text xml:space="preserve" transform="matrix(.03125 0 -0 .03125 536.4375 155.1875)" font-size="384" font-family="TimesNewRomanPS" font-style="italic"><tspan y="0" x="0">d</tspan></text>
<text xml:space="preserve" transform="matrix(.03125 0 -0 .03125 536.4375 155.1875)" font-size="384" font-family="TimesNewRomanPS" font-style="italic"><tspan y="0" x="192">y</tspan></text>
<text xml:space="preserve" transform="matrix(.03125 0 -0 .03125 550.9375 162.75)" font-size="384" font-family="Symbol"><tspan y="0" x="0">&#x22c5;</tspan></text>
</g>
<g id="Layer-1" data-name="P">
</g>
<clipPath id="cp14">
<path transform="matrix(1,0,0,-1,0,595)" d="M 629.475 412.0869 L 777.27499 412.0869 L 777.27499 487 L 629.475 487 Z "/>
</clipPath>
<g clip-path="url(#cp14)">
<text xml:space="preserve" transform="matrix(1 0 -0 1 632.925 124.127017)" font-size="14" font-family="TimesNewRomanPS" font-weight="bold"><tspan y="0" x="0 24.2984 46.272806 66.48321 87.75761 110.01201 131.77642">&#x0421;&#x0440;&#x0435;&#x0434;&#x043d;&#x044f;&#x044f;</tspan></text>
<text xml:space="preserve" transform="matrix(1 0 -0 1 632.925 124.127017)" font-size="14" font-family="TimesNewRomanPS" font-weight="bold"><tspan y="0" x="139.40082"> </tspan></text>
<text xml:space="preserve" transform="matrix(1 0 -0 1 632.925 140.12702)" font-size="14" font-family="TimesNewRomanPS" font-weight="bold"><tspan y="0" x="0 8.115801 15.951602 23.003403 31.119204 36.799005 44.312807 50.958608 58.094408 66.210208 73.136 79.4038 87.3096 94.7674 102.8832 109.935009 116.202808 123.1286">&#x043f;&#x0440;&#x043e;&#x0438;&#x0437;&#x0432;&#x043e;&#x0434;&#x0438;&#x0442;&#x0435;&#x043b;&#x044c;&#x043d;&#x043e;&#x0441;&#x0442;&#x044c;</tspan></text>
<g id="Layer-2" data-name="Span">
<text xml:space="preserve" transform="matrix(1 0 -0 1 632.925 140.12702)" font-size="14" font-family="TimesNewRomanPS" font-weight="bold"><tspan y="0" x="130.5641"> </tspan></text>
</g>
</g>
<g id="Layer-1" data-name="P">
</g>
<g id="Layer-1" data-name="P">
</g>
<clipPath id="cp15">
<path transform="matrix(1,0,0,-1,0,595)" d="M 632.925 420.25 L 645.925 420.25 L 645.925 451.25 L 632.925 451.25 Z "/>
</clipPath>
<g clip-path="url(#cp15)">
<path transform="matrix(.03125,0,0,.03125,632.925,143.75)" stroke-width="16" stroke-linecap="round" stroke-linejoin="round" fill="none" stroke="#000000" d="M 64 512 L 325 512 "/>
<text xml:space="preserve" transform="matrix(.03125 0 -0 .03125 636.675 172.125)" font-size="384" font-family="TimesNewRomanPS" font-style="italic"><tspan y="0" x="0">x</tspan></text>
<text xml:space="preserve" transform="matrix(.03125 0 -0 .03125 636.8625 155.1875)" font-size="384" font-family="TimesNewRomanPS" font-style="italic"><tspan y="0" x="0">y</tspan></text>
</g>
<g id="Layer-1" data-name="P">
</g>
<clipPath id="cp16">
<path transform="matrix(1,0,0,-1,0,595)" d="M 324.925 412.0869 L 473.07499 412.0869 L 473.07499 487 L 324.925 487 Z "/>
</clipPath>
<g clip-path="url(#cp16)">
<text xml:space="preserve" transform="matrix(1 0 -0 1 328.925 124.127017)" font-size="14" font-family="TimesNewRomanPS" font-weight="bold"><tspan y="0" x="0 11.8188 21.0056 31.256402 40.2612 50.302003 60.552804 70.803607 79.8644 88.267208 98.30801 107.9008 118.1516 131.2724">&#x0414;&#x043e;&#x043f;&#x043e;&#x043b;&#x043d;&#x0438;&#x0442;&#x0435;&#x043b;&#x044c;&#x043d;&#x044b;&#x0439;</tspan></text>
<text xml:space="preserve" transform="matrix(1 0 -0 1 328.925 124.127017)" font-size="14" font-family="TimesNewRomanPS" font-weight="bold"><tspan y="0" x="139.3812"> </tspan></text>
<text xml:space="preserve" transform="matrix(1 0 -0 1 328.925 140.12702)" font-size="14" font-family="TimesNewRomanPS" font-weight="bold"><tspan y="0" x="0 8.115801 15.951602 22.597403 29.733204 36.785005 44.900804">&#x043f;&#x0440;&#x043e;&#x0434;&#x0443;&#x043a;&#x0442;</tspan></text>
<text xml:space="preserve" transform="matrix(1 0 -0 1 328.925 140.12702)" font-size="14" font-family="TimesNewRomanPS" font-weight="bold"><tspan y="0" x="51.826604"> </tspan></text>
<text xml:space="preserve" transform="matrix(1 0 -0 1 328.925 140.12702)" font-size="14" font-family="TimesNewRomanPS" font-weight="bold"><tspan y="0" x="55.378404 65.1182 72.170009 80.285808 87.02961 94.08141 101.91721">&#x0444;&#x0430;&#x043a;&#x0442;&#x043e;&#x0440;&#x0430;</tspan></text>
<g id="Layer-2" data-name="Span">
<text xml:space="preserve" transform="matrix(1 0 -0 1 328.925 140.12702)" font-size="14" font-family="TimesNewRomanPS" font-weight="bold"><tspan y="0" x="108.9561"> </tspan></text>
</g>
</g>
<g id="Layer-1" data-name="P">
</g>
<g id="Layer-1" data-name="P">
</g>
<clipPath id="cp17">
<path transform="matrix(1,0,0,-1,0,595)" d="M 328.925 420.25 L 346.925 420.25 L 346.925 451.25 L 328.925 451.25 Z "/>
</clipPath>
<g clip-path="url(#cp17)">
<path transform="matrix(.03125,0,0,.03125,328.925,143.75)" stroke-width="16" stroke-linecap="round" stroke-linejoin="round" fill="none" stroke="#000000" d="M 64 512 L 481 512 "/>
<text xml:space="preserve" transform="matrix(.03125 0 -0 .03125 331.8312 172.125)" font-size="384" font-family="TimesNewRomanPS" font-style="italic"><tspan y="0" x="0">d</tspan></text>
<text xml:space="preserve" transform="matrix(.03125 0 -0 .03125 331.8312 172.125)" font-size="384" font-family="TimesNewRomanPS" font-style="italic"><tspan y="0" x="192">x</tspan></text>
<text xml:space="preserve" transform="matrix(.03125 0 -0 .03125 331.7375 155.1875)" font-size="384" font-family="TimesNewRomanPS" font-style="italic"><tspan y="0" x="0">d</tspan></text>
<text xml:space="preserve" transform="matrix(.03125 0 -0 .03125 331.7375 155.1875)" font-size="384" font-family="TimesNewRomanPS" font-style="italic"><tspan y="0" x="192">y</tspan></text>
</g>
</g>
</g>
</svg>
